<svg width="819" height="832" viewBox="0 0 819 832" fill="none" xmlns="http://www.w3.org/2000/svg">
<path d="M379.595 125.556L203.863 353.828L676.458 236.349L413.233 117.092C401.417 111.738 387.47 115.248 379.595 125.556Z" fill="#EBEBEB"/>
<path d="M201.388 355.447L378.823 124.961C387.02 114.232 401.333 110.636 413.635 116.206L679.411 236.618L201.388 355.447ZM401.679 115.554C393.523 115.554 385.607 119.289 380.368 126.146L380.365 126.15L206.337 352.209L673.5 236.079L412.83 117.98C409.221 116.344 405.424 115.554 401.679 115.554Z" fill="#E0E0E0"/>
<path d="M727.579 516.91L291.702 625.262C281.109 627.895 270.389 621.443 267.757 610.852L203.863 353.828L678.097 235.941L741.991 492.965C744.623 503.556 738.171 514.277 727.579 516.91Z" fill="#F0F0F0"/>
<path d="M648.903 250.015L484.609 417.877L236.216 361.984L207.803 230.27C204.532 216.135 213.2 201.989 227.28 198.489L586.513 109.189C600.755 105.648 615.172 114.325 618.711 128.567L648.903 250.015Z" fill="white"/>
<path d="M462.05 404.671L266.959 608.562C269.858 620.214 281.654 627.311 293.306 624.413L725.831 516.839C737.483 513.941 744.581 502.145 741.682 490.493L741.278 488.871L486.17 398.919C477.697 395.93 468.26 398.18 462.05 404.671Z" fill="#E0E0E0"/>
<path d="M399.719 217.939L259.178 252.9L262.749 267.256L403.29 232.295L399.719 217.939Z" fill="#E0E0E0"/>
<path d="M580.032 211.694L268.221 289.261L272.253 305.468L584.064 227.9L580.032 211.694Z" fill="#E0E0E0"/>
<path d="M589.888 251.312L278.077 328.88L282.108 345.086L593.919 267.519L589.888 251.312Z" fill="#E0E0E0"/>
<path d="M596.47 303.793L586.705 313.562L324.939 381.998L290.732 373.992L289.442 370.285L600.253 292.982L601.589 298.354L596.47 303.793Z" fill="#E0E0E0"/>
<path d="M529.512 371.999L411.58 401.328L375.532 393.084L551.777 349.25L529.512 371.999Z" fill="#E0E0E0"/>
<path d="M454.934 412.11C454.947 412.123 454.794 412.306 454.484 412.655C454.135 413.039 453.673 413.545 453.09 414.185C451.807 415.56 449.983 417.512 447.657 420.004C442.867 425.073 436.005 432.331 427.545 441.281C410.529 459.215 387.005 483.973 360.829 511.135C334.649 538.31 310.695 562.664 293.193 580.128C284.445 588.863 277.332 595.896 272.381 600.722C269.933 603.096 268.017 604.954 266.668 606.265C266.037 606.861 265.54 607.332 265.163 607.688C264.82 608.006 264.639 608.161 264.626 608.148C264.613 608.135 264.772 607.954 265.09 607.615C265.448 607.24 265.922 606.747 266.522 606.119C267.84 604.777 269.712 602.874 272.101 600.441C277.004 595.483 284.024 588.379 292.682 579.622C310.051 562.031 333.918 537.601 360.096 510.43C386.213 483.251 409.858 458.648 427.024 440.786C435.582 431.929 442.523 424.746 447.369 419.731C449.756 417.294 451.624 415.387 452.94 414.043C453.555 413.43 454.041 412.946 454.408 412.581C454.744 412.258 454.921 412.097 454.934 412.11Z" fill="#FAFAFA"/>
<path d="M741.274 488.869C741.182 489.133 686.779 470.25 619.78 446.699C552.755 423.14 498.516 403.833 498.609 403.569C498.701 403.305 553.091 422.182 620.116 445.743C687.117 469.294 741.369 488.605 741.274 488.869Z" fill="#FAFAFA"/>
<path d="M656.72 241.935C656.733 241.946 656.613 242.103 656.364 242.395C656.074 242.727 655.705 243.148 655.244 243.676C654.193 244.84 652.727 246.467 650.863 248.534C646.966 252.769 641.413 258.802 634.572 266.236C620.753 281.125 601.51 301.553 579.954 323.825C558.389 346.103 538.591 365.995 524.146 380.278C516.93 387.348 511.073 393.087 506.964 397.113C504.953 399.041 503.375 400.556 502.243 401.64C501.73 402.118 501.32 402.5 500.997 402.799C500.713 403.056 500.562 403.181 500.549 403.17C500.536 403.157 500.665 403.008 500.925 402.725C501.23 402.408 501.616 402.002 502.101 401.494C503.2 400.377 504.735 398.815 506.687 396.831C510.742 392.749 516.52 386.935 523.64 379.768C537.954 365.358 557.668 345.39 579.227 323.116C600.777 300.85 620.097 280.503 634.05 265.743C640.989 258.403 646.623 252.444 650.575 248.265C652.499 246.253 654.012 244.669 655.094 243.535C655.587 243.035 655.98 242.636 656.288 242.323C656.562 242.055 656.707 241.922 656.72 241.935Z" fill="#FAFAFA"/>
<path d="M454.934 412.11C454.93 412.127 454.707 412.088 454.277 411.994C453.797 411.883 453.167 411.737 452.373 411.555C450.644 411.132 448.198 410.532 445.08 409.768C438.755 408.18 429.583 405.963 418.233 403.292C395.541 397.918 364.077 390.999 329.299 383.466C294.509 375.93 263.055 368.897 240.397 363.343C229.065 360.583 219.918 358.257 213.621 356.551C210.521 355.709 208.092 355.049 206.374 354.581C205.591 354.356 204.971 354.179 204.496 354.044C204.075 353.917 203.861 353.845 203.865 353.828C203.87 353.812 204.092 353.85 204.522 353.945C205.002 354.055 205.631 354.201 206.425 354.384C208.155 354.807 210.601 355.407 213.719 356.169C220.043 357.757 229.214 359.974 240.563 362.645C263.256 368.019 294.723 374.937 329.513 382.473C364.291 390.006 395.74 397.038 418.398 402.592C429.73 405.354 438.879 407.678 445.176 409.384C448.275 410.227 450.705 410.886 452.423 411.355C453.206 411.579 453.828 411.756 454.302 411.892C454.723 412.02 454.937 412.092 454.934 412.11Z" fill="#FAFAFA"/>
<path d="M648.902 250.015C648.902 250.015 648.718 249.419 648.408 248.241C648.097 247.037 647.645 245.291 647.054 243.009C645.88 238.38 644.162 231.597 641.95 222.869C637.555 205.345 631.205 180.029 623.359 148.754C622.381 144.843 621.38 140.837 620.356 136.742C619.844 134.695 619.328 132.626 618.803 130.532C618.547 129.484 618.288 128.43 617.956 127.415C617.683 126.373 617.271 125.377 616.837 124.382C615.143 120.381 612.239 116.855 608.684 114.105C605.065 111.45 600.714 109.531 596.064 109.04C593.749 108.692 591.379 108.849 589.031 109.134C586.709 109.536 584.344 110.184 581.968 110.767C577.213 111.954 572.384 113.158 567.483 114.382C557.679 116.826 547.59 119.342 537.243 121.921C495.85 132.223 450.347 143.549 402.585 155.437C354.799 167.301 309.279 178.602 267.873 188.883C257.523 191.449 247.427 193.95 237.619 196.381C235.168 196.989 232.733 197.592 230.316 198.19C227.898 198.816 225.496 199.302 223.307 200.319C221.092 201.262 219.017 202.501 217.197 204.024C215.329 205.489 213.745 207.263 212.384 209.152C210.978 211.022 209.997 213.143 209.139 215.264C208.384 217.427 207.838 219.65 207.646 221.897C207.105 226.417 208.349 230.765 209.237 235.077C211.083 243.685 212.853 251.948 214.544 259.836C221.276 291.371 226.726 316.892 230.499 334.56C232.358 343.369 233.802 350.214 234.785 354.886C235.262 357.194 235.625 358.96 235.876 360.177C236.116 361.369 236.214 361.988 236.214 361.988C236.214 361.988 236.048 361.386 235.775 360.199C235.502 358.986 235.105 357.229 234.586 354.929C233.558 350.266 232.052 343.434 230.113 334.643C226.266 316.993 220.71 291.494 213.844 259.991C212.133 252.108 210.341 243.851 208.473 235.249C207.585 230.99 206.289 226.493 206.835 221.825C207.029 219.506 207.587 217.213 208.362 214.98C209.241 212.79 210.252 210.601 211.699 208.668C213.101 206.715 214.731 204.882 216.658 203.363C218.535 201.788 220.676 200.503 222.964 199.525C225.232 198.467 227.717 197.959 230.104 197.337C232.519 196.736 234.952 196.128 237.403 195.517C247.207 193.073 257.297 190.557 267.646 187.978C309.045 177.674 354.56 166.347 402.338 154.455C450.107 142.594 495.618 131.295 537.016 121.016C547.367 118.45 557.459 115.949 567.267 113.518C572.17 112.303 577.002 111.107 581.76 109.927C584.143 109.348 586.472 108.709 588.904 108.29C591.329 107.998 593.779 107.845 596.166 108.205C600.965 108.724 605.449 110.71 609.173 113.457C612.833 116.3 615.815 119.942 617.552 124.068C617.995 125.094 618.417 126.121 618.696 127.193C619.038 128.251 619.292 129.303 619.545 130.35C620.062 132.443 620.575 134.514 621.081 136.563C622.095 140.661 623.084 144.669 624.051 148.585C631.764 179.893 638.007 205.235 642.329 222.777C644.461 231.525 646.119 238.322 647.248 242.963C647.797 245.256 648.214 247.01 648.504 248.219C648.784 249.4 648.902 250.015 648.902 250.015Z" fill="#E0E0E0"/>
<path d="M834.362 828.869C834.362 829.149 667.404 829.376 461.498 829.376C255.519 829.376 88.5967 829.149 88.5967 828.869C88.5967 828.588 255.519 828.361 461.498 828.361C667.403 828.361 834.362 828.588 834.362 828.869Z" fill="#263238"/>
<path d="M442.497 152.589L424.251 166.487L425.139 193.033L408.424 179.762L399.197 187.663L364.122 144.363L442.497 152.589Z" fill="#0A66C2"/>
<path d="M417.39 172.139C417.418 172.952 425.139 193.033 425.139 193.033L408.424 179.762L417.39 172.139Z" fill="#0A66C2"/>
<g opacity="0.3">
<path d="M417.39 172.139C417.418 172.952 425.139 193.033 425.139 193.033L408.424 179.762L417.39 172.139Z" fill="black"/>
</g>
<path d="M364.122 144.363L417.39 172.14L425.139 193.033L424.251 166.487L364.122 144.363Z" fill="#0A66C2"/>
<path opacity="0.1" d="M364.122 144.363L417.39 172.14L425.139 193.033L424.251 166.487L364.122 144.363Z" fill="black"/>
<path d="M511.798 502.522C511.731 502.793 509.559 502.498 506.947 501.859C504.333 501.22 502.269 500.482 502.337 500.211C502.404 499.939 504.574 500.235 507.188 500.873C509.8 501.512 511.866 502.249 511.798 502.522Z" fill="#263238"/>
<path d="M526.904 506.214C526.837 506.485 525.519 506.398 523.961 506.016C522.403 505.636 521.192 505.106 521.258 504.833C521.325 504.562 522.643 504.648 524.201 505.031C525.761 505.413 526.97 505.941 526.904 506.214Z" fill="#263238"/>
<path d="M464.59 189.558C464.507 189.83 462.369 189.413 459.766 188.811C457.165 188.203 455.061 187.639 455.107 187.358C455.15 187.085 457.356 187.208 459.997 187.823C462.637 188.432 464.671 189.294 464.59 189.558Z" fill="#263238"/>
<path d="M482.452 197.223C482.308 197.467 480.327 196.56 477.938 195.366C475.552 194.168 473.639 193.123 473.748 192.861C473.853 192.606 475.969 193.243 478.393 194.458C480.816 195.67 482.594 196.985 482.452 197.223Z" fill="#263238"/>
<path d="M497.941 208.969C497.74 209.17 496.051 207.793 494.026 206.051C492.005 204.304 490.397 202.831 490.565 202.602C490.729 202.381 492.632 203.507 494.687 205.281C496.745 207.053 498.139 208.775 497.941 208.969Z" fill="#263238"/>
<path d="M509.752 224.381C509.503 224.518 508.27 222.724 506.799 220.499C505.333 218.271 504.172 216.431 504.395 216.255C504.611 216.084 506.153 217.673 507.646 219.942C509.143 222.207 509.996 224.252 509.752 224.381Z" fill="#263238"/>
<path d="M516.459 242.594C516.178 242.647 515.551 240.565 514.822 237.999C514.098 235.431 513.54 233.329 513.806 233.229C514.063 233.13 515.06 235.108 515.796 237.724C516.54 240.336 516.73 242.544 516.459 242.594Z" fill="#263238"/>
<path d="M517.45 261.979C517.167 261.947 517.186 259.771 517.245 257.107C517.311 254.442 517.4 252.267 517.684 252.249C517.959 252.23 518.327 254.414 518.258 257.131C518.197 259.847 517.723 262.012 517.45 261.979Z" fill="#263238"/>
<path d="M512.403 280.706C512.147 280.583 512.876 278.536 513.773 276.029C514.679 273.524 515.427 271.482 515.704 271.552C515.97 271.619 515.65 273.814 514.727 276.372C513.81 278.934 512.651 280.828 512.403 280.706Z" fill="#263238"/>
<path d="M501.139 296.46C500.945 296.25 502.388 294.625 504.135 292.619C505.888 290.618 507.297 288.965 507.533 289.128C507.76 289.281 506.695 291.234 504.899 293.285C503.108 295.342 501.321 296.663 501.139 296.46Z" fill="#263238"/>
<path d="M484.848 306.958C484.741 306.693 486.666 305.683 489.024 304.444C491.385 303.213 493.312 302.209 493.469 302.447C493.622 302.674 491.907 304.084 489.493 305.343C487.083 306.608 484.948 307.213 484.848 306.958Z" fill="#263238"/>
<path d="M465.902 311.029C465.899 310.743 468.058 310.499 470.698 310.176C473.34 309.86 475.498 309.591 475.561 309.871C475.623 310.137 473.525 310.861 470.818 311.184C468.118 311.513 465.902 311.302 465.902 311.029Z" fill="#263238"/>
<path d="M446.9 307.437C447.016 307.178 449.076 307.859 451.622 308.625C454.164 309.401 456.257 309.978 456.209 310.263C456.167 310.532 453.942 310.392 451.328 309.596C448.711 308.808 446.782 307.688 446.9 307.437Z" fill="#263238"/>
<path d="M433.42 294.07C433.695 293.985 434.541 295.956 436.062 298.098C437.557 300.256 439.028 301.851 438.825 302.068C438.656 302.268 436.811 300.955 435.228 298.675C433.62 296.403 433.154 294.132 433.42 294.07Z" fill="#263238"/>
<path d="M441.611 278.951C441.69 279.248 439.602 279.883 437.507 281.395C435.388 282.883 434.277 284.745 434.013 284.605C433.758 284.53 434.568 282.233 436.915 280.572C439.235 278.912 441.581 278.7 441.611 278.951Z" fill="#263238"/>
<path d="M458.304 285.879C458.046 286.023 456.87 284.201 454.952 282.438C453.062 280.671 451.07 279.785 451.182 279.505C451.241 279.254 453.553 279.754 455.642 281.694C457.708 283.607 458.546 285.774 458.304 285.879Z" fill="#263238"/>
<path d="M458.932 304.725C458.664 304.607 459.349 302.556 459.833 299.968C460.335 297.381 460.453 295.223 460.744 295.212C461.012 295.19 461.355 297.439 460.829 300.158C460.318 302.879 459.172 304.845 458.932 304.725Z" fill="#263238"/>
<path d="M446.291 319.218C446.128 318.98 447.803 317.591 449.817 315.862C451.838 314.139 453.424 312.668 453.64 312.856C453.85 313.034 452.556 314.859 450.477 316.631C448.408 318.409 446.442 319.445 446.291 319.218Z" fill="#263238"/>
<path d="M429.025 328.18C428.914 327.923 430.799 326.808 433.237 325.69C435.676 324.571 437.754 323.868 437.88 324.119C438.005 324.368 436.121 325.483 433.667 326.609C431.214 327.733 429.135 328.437 429.025 328.18Z" fill="#263238"/>
<path d="M411.676 337.006C411.519 336.773 413.28 335.453 415.608 334.06C417.954 332.697 420.05 331.985 420.157 332.212C420.293 332.49 418.414 333.604 416.107 334.944C413.818 336.315 411.833 337.238 411.676 337.006Z" fill="#263238"/>
<path d="M396.969 349.701C396.762 349.52 398.043 347.718 399.978 345.819C401.911 343.915 403.737 342.667 403.914 342.878C404.098 343.094 402.592 344.667 400.689 346.542C398.784 348.412 397.181 349.889 396.969 349.701Z" fill="#263238"/>
<path d="M385.819 365.622C385.574 365.495 386.391 363.442 387.813 361.135C389.231 358.824 390.693 357.168 390.916 357.328C391.147 357.493 390.072 359.389 388.677 361.666C387.277 363.939 386.07 365.754 385.819 365.622Z" fill="#263238"/>
<path d="M378.721 383.717C378.454 383.65 378.766 381.463 379.607 378.886C380.445 376.307 381.479 374.354 381.734 374.459C381.998 374.566 381.396 376.66 380.571 379.2C379.742 381.738 378.996 383.785 378.721 383.717Z" fill="#263238"/>
<path d="M376.183 402.976C375.908 402.98 375.664 400.781 375.853 398.079C376.035 395.374 376.573 393.233 376.846 393.272C377.126 393.312 377.045 395.487 376.864 398.147C376.68 400.809 376.467 402.974 376.183 402.976Z" fill="#263238"/>
<path d="M378.725 422.236C378.456 422.313 377.769 420.227 377.193 417.576C376.556 414.935 376.521 412.721 376.796 412.69C377.077 412.657 377.558 414.78 378.188 417.375C378.755 419.98 378.995 422.158 378.725 422.236Z" fill="#263238"/>
<path d="M386.244 440.151C386.006 440.291 384.693 438.514 383.488 436.086C382.277 433.659 381.655 431.538 381.911 431.434C382.173 431.327 383.203 433.245 384.396 435.636C385.583 438.026 386.489 440.007 386.244 440.151Z" fill="#263238"/>
<path d="M397.911 455.7C397.713 455.894 396.017 454.476 394.267 452.408C392.511 450.343 391.392 448.438 391.616 448.275C391.845 448.107 393.31 449.717 395.042 451.753C396.764 453.791 398.114 455.502 397.911 455.7Z" fill="#263238"/>
<path d="M412.897 468.077C412.751 468.312 410.768 467.335 408.581 465.733C406.391 464.134 404.857 462.545 405.034 462.334C405.217 462.117 407.021 463.34 409.179 464.915C411.335 466.492 413.048 467.837 412.897 468.077Z" fill="#263238"/>
<path d="M430.426 476.46C430.343 476.724 428.178 476.275 425.664 475.258C423.147 474.247 421.274 473.071 421.397 472.823C421.523 472.569 423.566 473.322 426.044 474.317C428.517 475.319 430.513 476.19 430.426 476.46Z" fill="#263238"/>
<path d="M440.203 478.935C440.153 479.211 440.035 479.421 439.94 479.403C439.846 479.386 439.809 479.148 439.859 478.873C439.909 478.598 440.027 478.387 440.121 478.406C440.215 478.422 440.252 478.66 440.203 478.935Z" fill="#263238"/>
<path d="M426.049 430.653L405.867 424.023L401.743 436.577L421.925 443.207L426.049 430.653Z" fill="#0A66C2"/>
<g opacity="0.3">
<path d="M426.049 430.653L405.867 424.023L401.743 436.577L421.925 443.207L426.049 430.653Z" fill="black"/>
</g>
<path d="M426.035 430.626C426.129 430.882 420.94 433.013 414.335 435.434L413.984 435.564L413.757 435.265C413.65 435.124 413.536 434.973 413.421 434.822C409.018 429.01 405.633 424.165 405.856 423.995C406.08 423.825 409.829 428.398 414.23 434.209C414.344 434.36 414.459 434.511 414.566 434.652L413.988 434.482C420.6 432.082 425.941 430.371 426.035 430.626Z" fill="#0A66C2"/>
<g opacity="0.1">
<path d="M426.035 430.626C426.129 430.882 420.94 433.013 414.335 435.434L413.984 435.564L413.757 435.265C413.65 435.124 413.536 434.973 413.421 434.822C409.018 429.01 405.633 424.165 405.856 423.995C406.08 423.825 409.829 428.398 414.23 434.209C414.344 434.36 414.459 434.511 414.566 434.652L413.988 434.482C420.6 432.082 425.941 430.371 426.035 430.626Z" fill="black"/>
</g>
<path d="M411.684 431.693C411.808 431.944 409.677 433.236 406.93 434.578C404.182 435.92 401.854 436.804 401.73 436.551C401.607 436.298 403.735 435.008 406.486 433.666C409.232 432.324 411.56 431.442 411.684 431.693Z" fill="#0A66C2"/>
<g opacity="0.1">
<path d="M411.684 431.693C411.808 431.944 409.677 433.236 406.93 434.578C404.182 435.92 401.854 436.804 401.73 436.551C401.607 436.298 403.735 435.008 406.486 433.666C409.232 432.324 411.56 431.442 411.684 431.693Z" fill="black"/>
</g>
<path d="M422.278 443.302C422.021 443.413 420.884 441.31 419.692 438.626C418.468 435.872 417.657 433.522 418.034 433.546C418.313 433.563 419.448 435.527 420.62 438.222C421.792 440.915 422.534 443.19 422.278 443.302Z" fill="#0A66C2"/>
<g opacity="0.1">
<path d="M422.278 443.302C422.021 443.413 420.884 441.31 419.692 438.626C418.468 435.872 417.657 433.522 418.034 433.546C418.313 433.563 419.448 435.527 420.62 438.222C421.792 440.915 422.534 443.19 422.278 443.302Z" fill="black"/>
</g>
<path d="M508.361 479.86L456.442 462.806L445.832 495.105L497.751 512.16L508.361 479.86Z" fill="#0A66C2"/>
<path d="M508.348 479.831C508.372 479.895 507.546 480.265 506.033 480.881C504.329 481.548 502.164 482.395 499.572 483.408C494.091 485.505 486.474 488.348 477.974 491.455L477.623 491.584L477.396 491.285C477.123 490.925 476.827 490.536 476.532 490.146C470.868 482.672 465.788 475.871 462.152 470.92C460.44 468.554 459.01 466.577 457.885 465.024C456.896 463.617 456.375 462.82 456.431 462.777C456.486 462.735 457.114 463.451 458.199 464.784C459.39 466.285 460.907 468.197 462.722 470.486C466.506 475.328 471.677 482.059 477.34 489.533C477.636 489.925 477.931 490.312 478.204 490.674L477.627 490.504C486.131 487.407 493.788 484.675 499.33 482.749C501.966 481.856 504.166 481.108 505.9 480.521C507.456 480.015 508.326 479.766 508.348 479.831Z" fill="#0A66C2"/>
<g opacity="0.2">
<path d="M508.348 479.831C508.372 479.895 507.546 480.265 506.033 480.881C504.329 481.548 502.164 482.395 499.572 483.408C494.091 485.505 486.474 488.348 477.974 491.455L477.623 491.584L477.396 491.285C477.123 490.925 476.827 490.536 476.532 490.146C470.868 482.672 465.788 475.871 462.152 470.92C460.44 468.554 459.01 466.577 457.885 465.024C456.896 463.617 456.375 462.82 456.431 462.777C456.486 462.735 457.114 463.451 458.199 464.784C459.39 466.285 460.907 468.197 462.722 470.486C466.506 475.328 471.677 482.059 477.34 489.533C477.636 489.925 477.931 490.312 478.204 490.674L477.627 490.504C486.131 487.407 493.788 484.675 499.33 482.749C501.966 481.856 504.166 481.108 505.9 480.521C507.456 480.015 508.326 479.766 508.348 479.831Z" fill="black"/>
</g>
<path d="M471.43 482.572C471.553 482.823 465.919 485.827 458.849 489.279C451.775 492.732 445.944 495.326 445.822 495.073C445.698 494.822 451.33 491.819 458.404 488.367C465.474 484.916 471.308 482.321 471.43 482.572Z" fill="#0A66C2"/>
<g opacity="0.2">
<path d="M471.43 482.572C471.553 482.823 465.919 485.827 458.849 489.279C451.775 492.732 445.944 495.326 445.822 495.073C445.698 494.822 451.33 491.819 458.404 488.367C465.474 484.916 471.308 482.321 471.43 482.572Z" fill="black"/>
</g>
<path d="M498.686 512.439C498.429 512.551 495.776 507.022 492.762 500.092C489.746 493.161 487.51 487.453 487.767 487.34C488.023 487.228 490.676 492.756 493.69 499.688C496.705 506.618 498.942 512.328 498.686 512.439Z" fill="#0A66C2"/>
<g opacity="0.2">
<path d="M498.686 512.439C498.429 512.551 495.776 507.022 492.762 500.092C489.746 493.161 487.51 487.453 487.767 487.34C488.023 487.228 490.676 492.756 493.69 499.688C496.705 506.618 498.942 512.328 498.686 512.439Z" fill="black"/>
</g>
<path d="M459.29 470.712C455.681 473.364 450.605 472.587 447.952 468.978C445.301 465.369 446.076 460.293 449.685 457.64C453.296 454.987 458.371 455.764 461.023 459.373C463.676 462.984 462.901 468.059 459.29 470.712Z" fill="#263238"/>
<path d="M459.604 462.693C459.678 462.825 457.241 464.334 454.16 466.063C453.711 466.313 453.278 466.553 452.858 466.785L452.626 466.914L452.497 466.685C451.11 464.23 450.16 462.366 450.272 462.301C450.385 462.237 451.524 463.992 452.96 466.418L452.598 466.318C453.017 466.08 453.447 465.836 453.892 465.583C456.971 463.857 459.53 462.561 459.604 462.693Z" fill="white"/>
<path d="M475.019 436.312L447.818 427.377L442.259 444.299L469.46 453.234L475.019 436.312Z" fill="#0A66C2"/>
<g opacity="0.2">
<path d="M475.019 436.312L447.818 427.377L442.259 444.299L469.46 453.234L475.019 436.312Z" fill="black"/>
</g>
<path d="M475.003 436.284C475.016 436.317 474.584 436.511 473.79 436.834C472.897 437.183 471.764 437.628 470.405 438.157C467.534 439.256 463.543 440.745 459.091 442.374L458.906 442.44L458.788 442.283C458.644 442.095 458.491 441.89 458.336 441.687C455.369 437.772 452.707 434.209 450.802 431.613C449.905 430.375 449.156 429.337 448.569 428.525C448.05 427.788 447.778 427.371 447.806 427.349C447.836 427.327 448.164 427.702 448.733 428.401C449.357 429.188 450.152 430.19 451.101 431.388C453.084 433.924 455.792 437.45 458.76 441.368C458.915 441.572 459.069 441.775 459.213 441.966L458.91 441.877C463.366 440.254 467.377 438.824 470.281 437.814C471.662 437.345 472.816 436.954 473.724 436.645C474.536 436.381 474.99 436.25 475.003 436.284Z" fill="#0A66C2"/>
<g opacity="0.2">
<path d="M475.003 436.284C475.016 436.317 474.584 436.511 473.79 436.834C472.897 437.183 471.764 437.628 470.405 438.157C467.534 439.256 463.543 440.745 459.091 442.374L458.906 442.44L458.788 442.283C458.644 442.095 458.491 441.89 458.336 441.687C455.369 437.772 452.707 434.209 450.802 431.613C449.905 430.375 449.156 429.337 448.569 428.525C448.05 427.788 447.778 427.371 447.806 427.349C447.836 427.327 448.164 427.702 448.733 428.401C449.357 429.188 450.152 430.19 451.101 431.388C453.084 433.924 455.792 437.45 458.76 441.368C458.915 441.572 459.069 441.775 459.213 441.966L458.91 441.877C463.366 440.254 467.377 438.824 470.281 437.814C471.662 437.345 472.816 436.954 473.724 436.645C474.536 436.381 474.99 436.25 475.003 436.284Z" fill="#0A66C2"/>
</g>
<path d="M455.661 437.722C455.726 437.853 452.774 439.427 449.071 441.235C445.366 443.044 442.311 444.402 442.246 444.271C442.182 444.14 445.133 442.567 448.838 440.758C452.541 438.949 455.598 437.589 455.661 437.722Z" fill="#0A66C2"/>
<g opacity="0.2">
<path d="M455.661 437.722C455.726 437.853 452.774 439.427 449.071 441.235C445.366 443.044 442.311 444.402 442.246 444.271C442.182 444.14 445.133 442.567 448.838 440.758C452.541 438.949 455.598 437.589 455.661 437.722Z" fill="#0A66C2"/>
</g>
<path d="M469.942 453.368C469.807 453.427 468.417 450.531 466.839 446.9C465.259 443.269 464.088 440.278 464.223 440.219C464.358 440.16 465.748 443.057 467.326 446.688C468.904 450.319 470.075 453.309 469.942 453.368Z" fill="#0A66C2"/>
<g opacity="0.2">
<path d="M469.942 453.368C469.807 453.427 468.417 450.531 466.839 446.9C465.259 443.269 464.088 440.278 464.223 440.219C464.358 440.16 465.748 443.057 467.326 446.688C468.904 450.319 470.075 453.309 469.942 453.368Z" fill="#0A66C2"/>
</g>
<path d="M256.546 224.418C251.309 245.057 230.333 257.543 209.694 252.306C189.056 247.069 176.57 226.093 181.807 205.454C187.044 184.816 208.02 172.33 228.658 177.567C249.297 182.802 261.781 203.778 256.546 224.418Z" fill="#263238"/>
<path d="M233.473 194.04C234.145 194.303 229.759 207.208 223.676 222.862C222.783 225.129 221.919 227.32 221.079 229.447L220.614 230.624L219.449 230.176C206.946 225.35 197.821 221.387 198.037 220.809C198.253 220.231 207.74 223.231 220.338 227.796L218.71 228.526C219.526 226.392 220.37 224.189 221.239 221.915C227.324 206.263 232.801 193.78 233.473 194.04Z" fill="white"/>
<path d="M730.374 769.939C737.117 766.459 745.058 766.007 752.546 767.244C756.568 767.908 760.762 769.112 763.498 772.134C766.236 775.156 766.755 780.472 763.611 783.068C761.741 784.613 759.13 784.847 756.705 784.819C750.844 784.751 744.34 783.719 739.657 787.245C736.986 789.257 735.208 792.602 732.013 793.592C728.888 794.559 725.362 792.715 723.704 789.896C722.046 787.075 721.993 783.549 722.764 780.372C722.764 780.372 723.58 773.444 730.374 769.939Z" fill="#0A66C2"/>
<g opacity="0.2">
<path d="M730.374 769.939C737.117 766.459 745.058 766.007 752.546 767.244C756.568 767.908 760.762 769.112 763.498 772.134C766.236 775.156 766.755 780.472 763.611 783.068C761.741 784.613 759.13 784.847 756.705 784.819C750.844 784.751 744.34 783.719 739.657 787.245C736.986 789.257 735.208 792.602 732.013 793.592C728.888 794.559 725.362 792.715 723.704 789.896C722.046 787.075 721.993 783.549 722.764 780.372C722.764 780.372 723.58 773.444 730.374 769.939Z" fill="white"/>
</g>
<path d="M714.922 740.113C719.046 746.002 727.062 744.052 730.778 740.458C734.494 736.864 736.065 731.653 737.495 726.683C740.763 715.331 744.056 703.42 741.627 691.86C740.901 688.405 739.609 684.956 737.18 682.392C734.75 679.828 731.016 678.303 727.601 679.204C723.56 680.271 721.047 684.231 719.233 687.995C713.896 699.062 711.072 711.332 711.029 723.619C711.009 729.358 711.686 735.376 714.922 740.113Z" fill="#0A66C2"/>
<path d="M703.599 748.564C708.076 743.249 708.927 735.5 706.933 728.841C704.941 722.185 700.439 716.521 695.251 711.897C689.169 706.477 682.019 702.257 674.334 699.555C671.311 698.491 668.119 697.651 664.927 697.956C661.735 698.261 658.522 699.892 657.032 702.732C654.831 706.929 656.941 712.023 659.225 716.176C663.247 723.495 667.846 730.497 672.963 737.097C677.081 742.406 681.798 747.643 688.072 750.041C694.349 752.441 700.867 752.158 704.193 747.805" fill="#0A66C2"/>
<g opacity="0.1">
<path d="M703.599 748.564C708.076 743.249 708.927 735.5 706.933 728.841C704.941 722.185 700.439 716.521 695.251 711.897C689.169 706.477 682.019 702.257 674.334 699.555C671.311 698.491 668.119 697.651 664.927 697.956C661.735 698.261 658.522 699.892 657.032 702.732C654.831 706.929 656.941 712.023 659.225 716.176C663.247 723.495 667.846 730.497 672.963 737.097C677.081 742.406 681.798 747.643 688.072 750.041C694.349 752.441 700.867 752.158 704.193 747.805" fill="black"/>
</g>
<path d="M714.644 828.959C714.721 828.963 714.847 828.01 715.017 826.283C715.207 824.335 715.445 821.889 715.727 818.978C716.067 815.904 716.517 812.247 717.37 808.264C718.221 804.291 719.554 799.986 721.264 795.619C723.036 791.279 725.195 787.334 727.721 784.177C730.228 781.008 733.142 778.715 735.884 777.391C738.614 776.042 741.066 775.494 742.758 775.25C744.466 775.075 745.422 774.94 745.422 774.864C745.422 774.788 744.464 774.775 742.71 774.822C740.971 774.938 738.42 775.377 735.542 776.688C732.655 777.969 729.561 780.299 726.933 783.533C724.282 786.754 722.042 790.786 720.241 795.203C718.5 799.647 717.188 803.996 716.375 808.055C715.565 812.107 715.194 815.805 714.952 818.904C714.719 822.005 714.633 824.518 714.59 826.253C714.548 827.994 714.568 828.956 714.644 828.959Z" fill="#263238"/>
<path d="M715.147 823.34C715.186 823.338 715.208 822.91 715.219 822.098C715.218 821.165 715.214 819.989 715.21 818.546C715.201 815.465 715.203 811.005 715.369 805.497C715.642 794.481 716.589 779.278 718.422 762.566C720.268 745.849 722.712 730.811 724.942 720.021C725.468 717.317 726 714.882 726.5 712.752C726.977 710.616 727.383 708.775 727.776 707.286C728.114 705.883 728.387 704.74 728.605 703.834C728.782 703.04 728.86 702.619 728.823 702.608C728.786 702.597 728.638 702.997 728.391 703.773C728.119 704.666 727.778 705.792 727.359 707.175C726.901 708.652 726.434 710.481 725.899 712.608C725.341 714.731 724.756 717.158 724.178 719.857C721.747 730.632 719.174 745.69 717.324 762.442C715.487 779.189 714.662 794.439 714.588 805.48C714.524 811.001 714.64 815.471 714.782 818.553C714.871 819.995 714.943 821.171 714.998 822.103C715.057 822.917 715.109 823.342 715.147 823.34Z" fill="#263238"/>
<path d="M715.222 793.929C715.297 793.928 715.284 792.61 715.196 790.221C715.059 787.838 714.73 784.391 714.059 780.171C713.348 775.961 712.353 770.96 710.789 765.529C709.303 760.076 707.262 754.189 704.666 748.202C699.588 736.153 692.686 726.303 686.684 720.202C685.276 718.583 683.708 717.415 682.453 716.27C681.803 715.722 681.231 715.174 680.646 714.74C680.059 714.336 679.513 713.959 679.005 713.608C677.03 712.257 675.922 711.544 675.881 711.609C675.704 711.851 680.306 714.559 686.119 720.741C691.907 726.91 698.615 736.694 703.653 748.642C706.226 754.578 708.282 760.41 709.811 765.809C711.417 771.19 712.484 776.14 713.289 780.308C714.055 784.485 714.498 787.897 714.766 790.26C714.987 792.621 715.144 793.931 715.222 793.929Z" fill="#263238"/>
<path d="M434.463 550.573H511.744L542.36 465.057H538.068L507.718 546.399L434.463 546.815V550.573Z" fill="#455A64"/>
<path d="M400.299 561.369L403.166 829.199H411.023L407.827 559.388L400.299 561.369Z" fill="#263238"/>
<path d="M565.744 558.764C564.684 563.877 572.83 829.821 572.83 829.821H580.251L574.246 558.764H565.744Z" fill="#263238"/>
<path d="M656.105 550.573H327.458V564.112H354.579L336.935 828.335L344.655 828.754L362.322 564.112H628.45L641.348 828.869H649.087L636.189 564.112H656.105V550.573Z" fill="#263238"/>
<path d="M470.632 819.135L470.709 798.827L432.672 798.439L432.244 828.147L434.601 828.322C445.092 829.013 487.99 831.089 495.027 829.035C502.876 826.742 470.632 819.135 470.632 819.135Z" fill="#0A66C2"/>
<path d="M446.039 827.99C445.53 824.808 443.793 821.836 441.268 819.831C438.742 817.826 435.621 816.75 432.405 816.975L432.289 827.606L446.039 827.99Z" fill="#F5F5F5"/>
<path d="M486.382 823.414C486.382 823.414 497.676 826.798 496.243 828.647C494.811 830.499 451.382 830.03 432.244 828.147L432.314 827.298L482.967 828.276C482.967 828.276 484.167 823.484 486.382 823.414Z" fill="#F5F5F5"/>
<path d="M431.716 827.268C431.716 827.285 431.94 827.311 432.37 827.346C432.933 827.386 433.551 827.431 434.247 827.479C436.125 827.58 438.434 827.704 441.157 827.852C446.994 828.125 455.063 828.394 463.979 828.5C472.897 828.601 480.971 828.518 486.812 828.38C489.539 828.297 491.85 828.225 493.729 828.167C494.427 828.134 495.043 828.105 495.608 828.077C496.038 828.051 496.264 828.031 496.262 828.014C496.262 827.997 496.035 827.988 495.605 827.985C495.04 827.985 494.421 827.986 493.723 827.988C491.844 828.007 489.533 828.029 486.807 828.055C480.966 828.11 472.897 828.141 463.983 828.04C455.072 827.935 447.007 827.717 441.168 827.529C438.441 827.44 436.132 827.364 434.255 827.303C433.557 827.287 432.938 827.27 432.373 827.257C431.943 827.248 431.718 827.254 431.716 827.268Z" fill="#263238"/>
<path d="M482.95 828.869C483.09 828.887 483.216 827.239 484.277 825.583C485.309 823.909 486.742 823.08 486.662 822.962C486.636 822.847 484.999 823.547 483.886 825.337C482.754 827.115 482.834 828.895 482.95 828.869Z" fill="#263238"/>
<path d="M471.787 823.052C471.895 823.122 472.437 822.474 473.002 821.607C473.567 820.739 473.938 819.978 473.831 819.908C473.724 819.838 473.179 820.486 472.616 821.356C472.051 822.223 471.68 822.984 471.787 823.052Z" fill="#263238"/>
<path d="M468.725 821.391C468.81 821.487 469.413 821.092 470.076 820.51C470.737 819.929 471.206 819.38 471.121 819.284C471.036 819.188 470.432 819.583 469.772 820.165C469.109 820.746 468.642 821.295 468.725 821.391Z" fill="#263238"/>
<path d="M466.816 817.78C466.814 817.907 467.7 818.031 468.799 818.055C469.895 818.079 470.789 817.996 470.79 817.868C470.792 817.741 469.906 817.619 468.808 817.595C467.711 817.569 466.82 817.652 466.816 817.78Z" fill="#263238"/>
<path d="M466.176 815.242C466.131 815.354 467.095 815.803 468.384 815.91C469.672 816.024 470.697 815.749 470.673 815.629C470.652 815.498 469.646 815.561 468.422 815.45C467.198 815.349 466.218 815.114 466.176 815.242Z" fill="#263238"/>
<path d="M473.113 819.75C473.109 819.801 474.047 819.927 475.557 819.761C476.31 819.678 477.204 819.51 478.165 819.214C478.643 819.05 479.144 818.928 479.662 818.616C479.906 818.457 480.177 818.234 480.275 817.863C480.381 817.497 480.189 817.084 479.915 816.883C477.591 815.648 475.238 816.936 474.359 818.134C473.875 818.745 473.65 819.343 473.545 819.757C473.441 820.174 473.447 820.412 473.475 820.416C473.561 820.449 473.65 819.456 474.61 818.343C475.084 817.798 475.797 817.27 476.713 817.008C477.578 816.761 478.808 816.705 479.624 817.237C480.008 817.529 479.853 817.983 479.419 818.236C479.014 818.491 478.492 818.644 478.038 818.808C477.109 819.116 476.246 819.314 475.514 819.436C474.047 819.681 473.115 819.674 473.113 819.75Z" fill="#263238"/>
<path d="M473.746 819.877C473.781 819.905 474.147 819.284 474.047 818.182C473.993 817.641 473.801 816.999 473.399 816.39C472.973 815.843 472.426 815.088 471.378 815.122C470.811 815.188 470.527 815.83 470.611 816.242C470.652 816.67 470.84 817.04 471.016 817.339C471.372 817.953 471.778 818.452 472.155 818.83C472.913 819.587 473.515 819.881 473.543 819.834C473.587 819.775 473.061 819.391 472.395 818.609C472.064 818.217 471.704 817.723 471.387 817.13C471.056 816.609 470.837 815.679 471.451 815.576C472.064 815.524 472.683 816.139 473.05 816.632C473.428 817.165 473.635 817.737 473.724 818.228C473.899 819.225 473.665 819.858 473.746 819.877Z" fill="#263238"/>
<path d="M432.606 816.87C432.613 816.957 433.697 816.777 435.414 816.999C437.114 817.206 439.475 817.931 441.518 819.593C443.558 821.258 444.745 823.425 445.292 825.048C445.855 826.685 445.899 827.781 445.986 827.77C446.013 827.769 446.03 827.495 445.995 827.002C445.962 826.51 445.851 825.799 445.602 824.946C445.122 823.253 443.937 820.97 441.81 819.233C439.682 817.501 437.206 816.801 435.451 816.672C434.566 816.6 433.846 816.637 433.359 816.704C432.866 816.77 432.602 816.842 432.606 816.87Z" fill="#263238"/>
<path d="M436.719 801.083C436.591 801.079 436.407 804.575 436.305 808.891C436.204 813.209 436.224 816.709 436.351 816.713C436.479 816.717 436.663 813.22 436.765 808.902C436.866 804.588 436.846 801.086 436.719 801.083Z" fill="#263238"/>
<path d="M450.865 824.333C450.846 824.451 453.322 824.885 456.412 824.944C459.502 825.011 461.993 824.678 461.98 824.558C461.969 824.425 459.484 824.549 456.421 824.483C453.361 824.425 450.881 824.2 450.865 824.333Z" fill="#263238"/>
<path d="M443.411 824.241C443.317 824.333 443.608 824.769 443.856 825.343C444.112 825.913 444.236 826.423 444.367 826.415C444.491 826.415 444.57 825.816 444.276 825.156C443.988 824.496 443.494 824.15 443.411 824.241Z" fill="#263238"/>
<path d="M440.638 820.715C440.546 820.804 440.787 821.202 441.177 821.605C441.566 822.009 441.956 822.264 442.048 822.175C442.14 822.087 441.899 821.688 441.509 821.285C441.12 820.881 440.73 820.626 440.638 820.715Z" fill="#263238"/>
<path d="M436.636 819.074C436.662 819.203 437.166 819.203 437.723 819.406C438.284 819.596 438.679 819.91 438.779 819.825C438.883 819.757 438.567 819.21 437.875 818.971C437.184 818.727 436.599 818.956 436.636 819.074Z" fill="#263238"/>
<path d="M433.782 818.289C433.734 818.408 433.952 818.605 434.266 818.731C434.579 818.856 434.873 818.863 434.921 818.745C434.969 818.627 434.751 818.43 434.437 818.304C434.122 818.177 433.83 818.171 433.782 818.289Z" fill="#263238"/>
<path d="M545.522 798.628L537.238 780.086L502.409 795.382L514.242 822.635L516.463 821.824C526.307 818.138 566.26 802.382 571.83 797.612C578.04 792.296 545.522 798.628 545.522 798.628Z" fill="#0A66C2"/>
<path d="M526.749 816.818C524.975 814.127 522.169 812.133 519.044 811.345C515.918 810.556 512.629 810.861 509.79 812.388L514.058 822.125L526.749 816.818Z" fill="#F5F5F5"/>
<path d="M561.636 796.049C561.636 796.049 573.322 794.485 572.779 796.761C572.236 799.037 532.46 816.478 514.242 822.637L513.956 821.834L560.525 801.886C560.525 801.886 559.646 797.025 561.636 796.049Z" fill="#F5F5F5"/>
<path d="M513.4 822.053C513.406 822.068 513.622 822 514.028 821.856C514.558 821.66 515.139 821.448 515.794 821.206C517.548 820.525 519.702 819.689 522.246 818.703C527.679 816.55 535.144 813.477 543.313 809.903C551.483 806.325 558.808 802.929 564.075 800.398C566.526 799.2 568.603 798.185 570.292 797.358C570.914 797.04 571.464 796.759 571.968 796.503C572.348 796.303 572.546 796.191 572.539 796.176C572.531 796.161 572.321 796.246 571.928 796.418C571.413 796.651 570.849 796.907 570.214 797.195C568.509 797.985 566.412 798.956 563.936 800.101C558.634 802.554 551.293 805.903 543.128 809.478C534.963 813.049 527.522 816.168 522.124 818.398C519.603 819.439 517.467 820.32 515.73 821.038C515.087 821.309 514.517 821.549 513.996 821.769C513.598 821.941 513.393 822.039 513.4 822.053Z" fill="#263238"/>
<path d="M560.754 802.432C560.888 802.392 560.325 800.837 560.611 798.892C560.864 796.94 561.828 795.596 561.708 795.521C561.636 795.427 560.432 796.737 560.155 798.829C559.853 800.915 560.659 802.502 560.754 802.432Z" fill="#263238"/>
<path d="M548.187 801.723C548.312 801.742 548.543 800.93 548.698 799.905C548.855 798.882 548.881 798.037 548.755 798.017C548.63 797.996 548.401 798.81 548.244 799.835C548.087 800.859 548.061 801.705 548.187 801.723Z" fill="#263238"/>
<path d="M544.712 801.469C544.828 801.52 545.216 800.913 545.58 800.112C545.943 799.309 546.145 798.617 546.028 798.563C545.912 798.511 545.524 799.119 545.161 799.922C544.797 800.723 544.596 801.417 544.712 801.469Z" fill="#263238"/>
<path d="M541.487 798.964C541.537 799.082 542.397 798.827 543.407 798.399C544.417 797.969 545.196 797.526 545.146 797.409C545.096 797.293 544.238 797.546 543.226 797.974C542.216 798.402 541.437 798.845 541.487 798.964Z" fill="#263238"/>
<path d="M539.857 796.913C539.864 797.034 540.926 797.046 542.144 796.614C543.366 796.189 544.188 795.515 544.116 795.416C544.044 795.303 543.152 795.776 541.991 796.178C540.835 796.59 539.844 796.78 539.857 796.913Z" fill="#263238"/>
<path d="M548.037 798.166C548.055 798.214 548.96 797.943 550.269 797.171C550.922 796.785 551.666 796.265 552.421 795.6C552.789 795.253 553.195 794.937 553.538 794.439C553.695 794.193 553.85 793.878 553.787 793.501C553.732 793.125 553.389 792.827 553.056 792.755C550.429 792.586 548.814 794.729 548.506 796.182C548.316 796.938 548.358 797.575 548.43 797.996C548.508 798.419 548.611 798.633 548.637 798.626C548.729 798.62 548.402 797.679 548.82 796.268C549.026 795.576 549.46 794.801 550.188 794.188C550.874 793.606 551.973 793.051 552.934 793.2C553.405 793.307 553.449 793.787 553.158 794.195C552.894 794.594 552.48 794.949 552.135 795.284C551.415 795.947 550.71 796.483 550.093 796.894C548.858 797.721 548.006 798.098 548.037 798.166Z" fill="#263238"/>
<path d="M548.664 798.024C548.707 798.035 548.786 797.317 548.242 796.357C547.97 795.886 547.533 795.381 546.913 794.989C546.3 794.666 545.491 794.205 544.548 794.664C544.059 794.958 544.064 795.659 544.311 796.001C544.524 796.376 544.849 796.634 545.131 796.833C545.709 797.247 546.285 797.535 546.783 797.725C547.786 798.103 548.456 798.122 548.461 798.07C548.476 797.998 547.839 797.863 546.911 797.426C546.449 797.206 545.918 796.903 545.384 796.494C544.869 796.156 544.286 795.397 544.803 795.05C545.34 794.751 546.156 795.057 546.695 795.355C547.26 795.685 547.682 796.121 547.967 796.532C548.537 797.367 548.583 798.039 548.664 798.024Z" fill="#263238"/>
<path d="M509.932 812.209C509.974 812.284 510.888 811.677 512.544 811.171C514.179 810.66 516.629 810.35 519.175 811.023C521.718 811.701 523.692 813.189 524.858 814.444C526.045 815.705 526.536 816.685 526.61 816.641C526.636 816.628 526.538 816.371 526.304 815.937C526.069 815.502 525.678 814.9 525.1 814.226C523.965 812.881 521.947 811.286 519.293 810.579C516.64 809.875 514.096 810.257 512.442 810.861C511.606 811.16 510.965 811.489 510.548 811.751C510.127 812.011 509.915 812.185 509.932 812.209Z" fill="#263238"/>
<path d="M507.185 796.128C507.067 796.178 508.337 799.442 510.02 803.416C511.704 807.392 513.164 810.575 513.28 810.525C513.397 810.475 512.128 807.213 510.445 803.237C508.761 799.261 507.301 796.078 507.185 796.128Z" fill="#263238"/>
<path d="M529.643 811.5C529.676 811.616 532.109 810.992 534.95 809.774C537.795 808.563 539.927 807.236 539.866 807.132C539.802 807.014 537.588 808.151 534.769 809.351C531.956 810.556 529.604 811.371 529.643 811.5Z" fill="#263238"/>
<path d="M522.811 814.483C522.763 814.605 523.208 814.883 523.67 815.304C524.137 815.718 524.46 816.131 524.578 816.07C524.69 816.021 524.515 815.441 523.978 814.961C523.444 814.477 522.85 814.365 522.811 814.483Z" fill="#263238"/>
<path d="M518.835 812.408C518.787 812.526 519.171 812.79 519.691 812.997C520.212 813.204 520.671 813.276 520.719 813.157C520.766 813.039 520.383 812.775 519.861 812.569C519.342 812.362 518.881 812.29 518.835 812.408Z" fill="#263238"/>
<path d="M514.511 812.559C514.587 812.666 515.049 812.46 515.639 812.415C516.228 812.358 516.719 812.482 516.775 812.362C516.839 812.257 516.33 811.889 515.599 811.956C514.868 812.017 514.428 812.467 514.511 812.559Z" fill="#263238"/>
<path d="M511.587 813.019C511.593 813.146 511.872 813.237 512.21 813.222C512.547 813.207 512.817 813.093 512.811 812.966C512.806 812.838 512.527 812.748 512.189 812.762C511.851 812.775 511.582 812.892 511.587 813.019Z" fill="#263238"/>
<path d="M200.302 662.939L172.835 457.675C172.1 452.187 176.634 447.426 182.152 447.893L248.353 453.485C254.452 454 259.289 458.844 259.795 464.943L275.916 659.284L200.302 662.939Z" fill="#0A66C2"/>
<g opacity="0.2">
<path d="M200.302 662.939L172.835 457.675C172.1 452.187 176.634 447.426 182.152 447.893L248.353 453.485C254.452 454 259.289 458.844 259.795 464.943L275.916 659.284L200.302 662.939Z" fill="black"/>
</g>
<path d="M264.177 361.273C263.623 353.459 261.571 345.835 260.435 338.084C259.298 330.332 259.132 322.158 262.193 314.948C265.654 306.794 273.021 300.689 281.277 297.481C289.534 294.273 298.623 293.734 307.447 294.494C309.035 294.631 310.661 294.821 312.079 295.55C313.497 296.279 314.68 297.664 314.732 299.257C314.782 300.85 313.36 302.463 311.782 302.246C315.138 302.711 318.525 303.183 321.698 304.37C322.961 304.843 324.264 305.498 324.907 306.685C325.636 308.033 325.3 309.755 324.464 311.038C323.629 312.321 322.37 313.261 321.137 314.169C322.686 313.678 324.375 315.009 324.726 316.595C325.079 318.18 324.407 319.832 323.46 321.152C322.513 322.472 321.291 323.574 320.314 324.874C316.321 330.183 317.104 337.552 318.073 344.124" fill="#263238"/>
<path d="M264.906 407.137L302.212 406.463C302.711 402.144 303.436 385.356 303.436 385.356C303.436 385.356 319.029 383.907 320.174 368.476C321.317 353.046 320.829 317.42 320.829 317.42C303.427 308.635 282.634 309.954 266.481 320.872L264.085 322.493L264.906 407.137Z" fill="#B78876"/>
<path d="M315.636 344.196C314.77 343.306 314.789 341.885 315.677 341.019C316.565 340.153 317.988 340.172 318.854 341.06C319.719 341.947 319.701 343.371 318.813 344.237C317.925 345.102 316.502 345.084 315.636 344.196Z" fill="#263238"/>
<path d="M319.598 340.447C319.339 340.7 317.894 339.439 315.769 339.297C313.644 339.125 312.031 340.159 311.813 339.871C311.706 339.742 311.977 339.274 312.683 338.804C313.375 338.335 314.54 337.914 315.865 338.012C317.189 338.11 318.28 338.697 318.896 339.262C319.524 339.834 319.721 340.336 319.598 340.447Z" fill="#263238"/>
<path d="M294.978 340.788C295.993 341.503 296.237 342.904 295.523 343.919C294.808 344.934 293.407 345.178 292.392 344.464C291.377 343.749 291.133 342.348 291.847 341.335C292.562 340.319 293.965 340.076 294.978 340.788Z" fill="#263238"/>
<path d="M296.381 340.895C296.123 341.148 294.677 339.887 292.552 339.747C290.428 339.574 288.814 340.609 288.596 340.321C288.489 340.192 288.759 339.725 289.466 339.254C290.158 338.785 291.323 338.364 292.648 338.462C293.972 338.56 295.063 339.147 295.68 339.712C296.305 340.281 296.505 340.783 296.381 340.895Z" fill="#263238"/>
<path d="M303.826 358.968C303.822 358.8 305.153 358.615 307.311 358.451C307.87 358.425 308.315 358.325 308.374 358.028C308.494 357.698 308.317 357.09 308.073 356.411C307.614 354.971 307.147 353.513 306.657 351.986C304.714 345.686 303.397 340.498 303.717 340.401C304.036 340.303 305.871 345.328 307.815 351.628C308.271 353.166 308.708 354.631 309.138 356.082C309.303 356.738 309.644 357.513 309.301 358.414C309.118 358.864 308.66 359.169 308.287 359.243C307.913 359.331 307.599 359.313 307.331 359.307C305.17 359.252 303.829 359.136 303.826 358.968Z" fill="#263238"/>
<path d="M296.77 360.891C294.635 359.435 302.672 364.509 307.014 364.565C307.014 364.565 304.285 368.38 299.934 366.477C295.417 364.5 296.77 360.891 296.77 360.891Z" fill="white"/>
<path d="M303.475 385.135C303.475 385.135 293.667 385.327 283.695 378.172C283.695 378.172 287.767 389.58 303.262 389.139L303.475 385.135Z" fill="#A36957"/>
<path d="M263.586 334.196L264.393 354.225C264.393 354.225 271.415 352.091 271.888 351.886C272.361 351.681 271.755 327.357 271.755 327.357C271.755 327.357 270.771 318.184 276.756 316.008C283.043 313.72 285.786 318.287 294.699 319.788C324.109 324.743 322.081 315.72 322.081 315.72C322.081 315.72 325.791 311.758 318.239 307.394C310.438 302.886 291.795 301.564 281.452 305.125C261.094 312.133 259.928 319.081 259.928 325.23C259.928 333.825 263.586 334.196 263.586 334.196Z" fill="#263238"/>
<path d="M267.048 336.194C266.713 336.066 255.591 334.621 256.642 347.755C257.692 360.889 270.609 355.484 270.601 355.106C270.594 354.727 267.048 336.194 267.048 336.194Z" fill="#B78876"/>
<path d="M266.208 350.818C266.147 350.781 265.992 350.997 265.619 351.205C265.255 351.406 264.617 351.578 263.911 351.377C262.483 350.978 261.139 348.868 260.886 346.507C260.757 345.315 260.915 344.155 261.264 343.181C261.589 342.187 262.156 341.468 262.844 341.287C263.527 341.071 264.055 341.449 264.246 341.805C264.45 342.158 264.39 342.427 264.46 342.444C264.498 342.474 264.724 342.202 264.576 341.667C264.5 341.41 264.321 341.113 263.993 340.886C263.657 340.655 263.182 340.561 262.7 340.653C261.693 340.805 260.856 341.809 260.474 342.882C260.037 343.963 259.828 345.267 259.974 346.605C260.269 349.245 261.822 351.613 263.766 352.01C264.709 352.176 265.457 351.837 265.829 351.495C266.212 351.137 266.256 350.838 266.208 350.818Z" fill="#A36957"/>
<path d="M413.659 513.245C413.659 513.245 432.037 512.365 435.868 514.035C442.268 516.826 461.273 546.63 460.313 546.636C457.444 546.652 451.518 546.612 451.518 546.612L421.938 535.414L414.986 537.175L413.659 513.245Z" fill="#B78876"/>
<path d="M493.026 598.794C493.026 598.794 548.313 790.125 548.393 789.143C548.472 788.161 498.885 813.012 498.885 813.012L465.396 674.669L493.026 598.794Z" fill="#263238"/>
<path d="M497.79 814.18L550.117 788.646L547.844 781.659L495.113 807.223L497.79 814.18Z" fill="#455A64"/>
<path d="M490.923 743.8C490.653 743.879 490.068 742.69 489.614 741.141C489.16 739.592 489.009 738.276 489.278 738.197C489.548 738.119 490.133 739.308 490.587 740.855C491.041 742.402 491.192 743.72 490.923 743.8Z" fill="#455A64"/>
<path d="M494.332 754.968C494.065 755.053 493.463 753.87 492.985 752.328C492.508 750.787 492.339 749.47 492.606 749.389C492.874 749.308 493.478 750.489 493.954 752.029C494.43 753.569 494.6 754.885 494.332 754.968Z" fill="#455A64"/>
<path d="M497.901 766.09C497.635 766.177 497.015 765.005 496.516 763.469C496.018 761.933 495.83 760.62 496.097 760.534C496.365 760.449 496.983 761.621 497.482 763.155C497.978 764.689 498.167 766.001 497.901 766.09Z" fill="#455A64"/>
<path d="M501.626 777.162C501.36 777.253 500.725 776.09 500.205 774.561C499.684 773.033 499.478 771.722 499.743 771.632C500.009 771.543 500.644 772.708 501.165 774.233C501.684 775.759 501.89 777.07 501.626 777.162Z" fill="#455A64"/>
<path d="M505.506 788.183C505.243 788.279 504.591 787.121 504.048 785.602C503.507 784.081 503.282 782.772 503.546 782.68C503.81 782.588 504.463 783.743 505.004 785.263C505.545 786.78 505.77 788.087 505.506 788.183Z" fill="#455A64"/>
<path d="M509.544 799.15C509.281 799.248 508.613 798.101 508.05 796.588C507.487 795.074 507.243 793.769 507.507 793.673C507.77 793.577 508.44 794.723 509.001 796.235C509.562 797.745 509.806 799.052 509.544 799.15Z" fill="#455A64"/>
<path d="M506.596 803.75C506.533 803.78 506.142 803.065 505.49 801.747C504.844 800.428 503.952 798.495 502.941 796.069C500.888 791.231 498.355 784.423 495.813 776.826C493.266 769.228 491.134 762.298 489.609 757.279C488.915 754.924 488.328 752.932 487.853 751.318C487.456 749.904 487.27 749.112 487.336 749.09C487.403 749.068 487.717 749.819 488.228 751.197C488.741 752.572 489.445 754.577 490.292 757.059C492.023 762.254 494.279 769.02 496.775 776.503C499.313 784.089 501.73 790.911 503.605 795.801C504.493 798.087 505.243 800.021 505.852 801.587C506.391 802.953 506.66 803.721 506.596 803.75Z" fill="#455A64"/>
<path d="M235.348 585.498C235.813 575.356 230.048 641.11 280.59 642.857C331.183 644.605 434.402 643.829 434.402 643.829L422.311 810.575H482.945L495.614 633.254C495.614 633.254 502.069 581.863 466.911 575.302C444.901 571.195 308.059 569.873 308.059 569.873L235.348 585.498Z" fill="#263238"/>
<path d="M420.927 810.935H484.776V801.005L420.927 801.083V810.935Z" fill="#455A64"/>
<path d="M321.028 634.974C321.028 634.958 321.248 634.935 321.678 634.906C322.154 634.878 322.788 634.843 323.591 634.797C325.33 634.719 327.805 634.611 330.976 634.468C337.461 634.221 346.787 633.867 358.38 633.425C381.701 632.624 414.139 631.509 450.848 630.248L451.435 630.228L451.363 630.813C450.529 637.614 449.831 644.784 449.24 652.088C448.437 662.505 447.655 672.675 446.898 682.499C446.102 692.328 445.035 701.775 444.116 710.778C442.227 728.773 440.525 744.981 439.095 758.616C437.633 772.187 436.448 783.188 435.622 790.856C435.196 794.618 434.86 797.559 434.627 799.617C434.507 800.579 434.413 801.332 434.343 801.893C434.273 802.405 434.229 802.667 434.212 802.665C434.196 802.663 434.205 802.397 434.24 801.882C434.286 801.319 434.347 800.562 434.424 799.597C434.615 797.535 434.884 794.587 435.231 790.817C435.981 783.141 437.057 772.13 438.382 758.544C439.752 744.903 441.38 728.688 443.187 710.684C444.081 701.674 445.129 692.232 445.91 682.418C446.66 672.594 447.437 662.424 448.232 652.005C448.825 644.693 449.527 637.511 450.37 630.69L450.885 631.253C414.17 632.381 381.73 633.376 358.406 634.092C346.808 634.404 337.48 634.657 330.993 634.83C327.82 634.897 325.342 634.946 323.602 634.983C322.797 634.991 322.164 634.996 321.686 635C321.25 634.998 321.03 634.989 321.028 634.974Z" fill="#455A64"/>
<path d="M326.871 627.808C326.878 628.089 325.575 628.345 323.962 628.384C322.348 628.423 321.036 628.225 321.028 627.945C321.021 627.664 322.324 627.407 323.938 627.369C325.551 627.332 326.864 627.529 326.871 627.808Z" fill="#455A64"/>
<path d="M338.556 627.533C338.563 627.813 337.26 628.072 335.647 628.109C334.033 628.148 332.721 627.95 332.713 627.669C332.706 627.389 334.009 627.132 335.623 627.094C337.236 627.057 338.549 627.254 338.556 627.533Z" fill="#455A64"/>
<path d="M350.24 627.258C350.247 627.538 348.944 627.795 347.33 627.834C345.717 627.871 344.404 627.675 344.397 627.394C344.39 627.114 345.693 626.857 347.306 626.818C348.92 626.782 350.234 626.979 350.24 627.258Z" fill="#455A64"/>
<path d="M361.925 626.985C361.93 627.265 360.629 627.522 359.015 627.561C357.402 627.598 356.089 627.402 356.082 627.121C356.075 626.841 357.378 626.584 358.991 626.545C360.605 626.508 361.917 626.704 361.925 626.985Z" fill="#455A64"/>
<path d="M373.61 626.71C373.617 626.99 372.314 627.249 370.7 627.286C369.087 627.324 367.774 627.127 367.767 626.846C367.762 626.568 369.063 626.309 370.676 626.27C372.29 626.233 373.602 626.429 373.61 626.71Z" fill="#455A64"/>
<path d="M385.293 626.435C385.299 626.715 383.997 626.974 382.384 627.011C380.771 627.049 379.458 626.852 379.451 626.571C379.443 626.291 380.747 626.034 382.36 625.995C383.973 625.958 385.288 626.154 385.293 626.435Z" fill="#455A64"/>
<path d="M396.978 626.16C396.986 626.44 395.682 626.697 394.069 626.735C392.456 626.774 391.143 626.577 391.136 626.298C391.13 626.017 392.432 625.761 394.045 625.722C395.658 625.683 396.971 625.881 396.978 626.16Z" fill="#455A64"/>
<path d="M408.661 625.885C408.669 626.165 407.366 626.422 405.752 626.46C404.139 626.499 402.826 626.302 402.819 626.023C402.811 625.742 404.115 625.486 405.728 625.447C407.343 625.41 408.656 625.606 408.661 625.885Z" fill="#455A64"/>
<path d="M420.347 625.611C420.354 625.892 419.051 626.148 417.438 626.187C415.824 626.226 414.512 626.028 414.504 625.75C414.497 625.471 415.8 625.213 417.414 625.174C419.027 625.135 420.341 625.331 420.347 625.611Z" fill="#455A64"/>
<path d="M432.032 625.336C432.039 625.617 430.736 625.873 429.123 625.912C427.509 625.951 426.197 625.753 426.189 625.475C426.182 625.194 427.485 624.937 429.099 624.899C430.712 624.86 432.025 625.056 432.032 625.336Z" fill="#455A64"/>
<path d="M443.715 625.061C443.723 625.342 442.419 625.598 440.806 625.637C439.192 625.674 437.88 625.478 437.873 625.198C437.865 624.917 439.168 624.661 440.782 624.622C442.395 624.585 443.71 624.781 443.715 625.061Z" fill="#455A64"/>
<path d="M455.401 624.786C455.408 625.067 454.105 625.325 452.491 625.362C450.878 625.401 449.566 625.203 449.558 624.923C449.551 624.642 450.854 624.385 452.467 624.347C454.081 624.31 455.393 624.507 455.401 624.786Z" fill="#455A64"/>
<path d="M455.382 635.377C455.103 635.349 455.005 634.025 455.162 632.419C455.319 630.813 455.674 629.534 455.952 629.562C456.231 629.589 456.329 630.913 456.172 632.519C456.013 634.125 455.659 635.404 455.382 635.377Z" fill="#455A64"/>
<path d="M454.239 647.008C453.961 646.981 453.863 645.657 454.02 644.051C454.177 642.445 454.531 641.166 454.81 641.193C455.088 641.221 455.186 642.545 455.029 644.151C454.872 645.757 454.518 647.036 454.239 647.008Z" fill="#455A64"/>
<path d="M453.099 658.642C452.82 658.614 452.722 657.29 452.879 655.684C453.036 654.078 453.39 652.799 453.669 652.827C453.948 652.855 454.046 654.178 453.889 655.784C453.732 657.388 453.377 658.669 453.099 658.642Z" fill="#455A64"/>
<path d="M451.958 670.273C451.679 670.246 451.581 668.922 451.738 667.316C451.895 665.71 452.249 664.429 452.528 664.457C452.807 664.484 452.905 665.808 452.748 667.414C452.589 669.02 452.236 670.301 451.958 670.273Z" fill="#455A64"/>
<path d="M450.815 681.905C450.536 681.877 450.438 680.554 450.595 678.948C450.752 677.342 451.107 676.062 451.385 676.09C451.664 676.118 451.762 677.441 451.605 679.047C451.448 680.652 451.094 681.933 450.815 681.905Z" fill="#455A64"/>
<path d="M449.674 693.537C449.396 693.509 449.298 692.185 449.455 690.579C449.612 688.973 449.966 687.694 450.245 687.722C450.524 687.749 450.621 689.073 450.464 690.679C450.308 692.283 449.953 693.564 449.674 693.537Z" fill="#455A64"/>
<path d="M448.533 705.168C448.255 705.141 448.157 703.817 448.314 702.211C448.47 700.605 448.825 699.324 449.104 699.352C449.382 699.379 449.48 700.703 449.323 702.309C449.166 703.917 448.812 705.196 448.533 705.168Z" fill="#455A64"/>
<path d="M447.393 716.8C447.114 716.772 447.016 715.449 447.173 713.843C447.33 712.237 447.684 710.957 447.963 710.983C448.242 711.011 448.34 712.334 448.183 713.941C448.026 715.548 447.671 716.828 447.393 716.8Z" fill="#455A64"/>
<path d="M446.252 728.432C445.973 728.404 445.875 727.08 446.032 725.474C446.189 723.868 446.543 722.589 446.822 722.617C447.101 722.644 447.198 723.968 447.042 725.574C446.883 727.18 446.53 728.459 446.252 728.432Z" fill="#455A64"/>
<path d="M445.109 740.063C444.83 740.036 444.732 738.712 444.889 737.106C445.046 735.5 445.401 734.221 445.679 734.246C445.958 734.274 446.056 735.598 445.899 737.204C445.742 738.812 445.388 740.091 445.109 740.063Z" fill="#455A64"/>
<path d="M443.968 751.697C443.69 751.669 443.592 750.345 443.749 748.739C443.906 747.133 444.26 745.854 444.539 745.88C444.817 745.908 444.915 747.231 444.758 748.837C444.601 750.443 444.247 751.723 443.968 751.697Z" fill="#455A64"/>
<path d="M442.827 763.328C442.548 763.301 442.451 761.977 442.608 760.371C442.764 758.765 443.119 757.486 443.398 757.512C443.676 757.539 443.774 758.863 443.617 760.469C443.46 762.075 443.106 763.356 442.827 763.328Z" fill="#455A64"/>
<path d="M441.687 774.96C441.408 774.932 441.31 773.609 441.467 772.003C441.624 770.397 441.978 769.117 442.257 769.145C442.536 769.173 442.634 770.496 442.477 772.102C442.318 773.707 441.965 774.988 441.687 774.96Z" fill="#455A64"/>
<path d="M440.544 786.592C440.265 786.564 440.167 785.24 440.324 783.634C440.481 782.028 440.836 780.749 441.114 780.775C441.393 780.803 441.491 782.126 441.334 783.732C441.177 785.34 440.823 786.619 440.544 786.592Z" fill="#455A64"/>
<path d="M439.403 798.223C439.124 798.196 439.026 796.872 439.183 795.266C439.34 793.66 439.695 792.381 439.973 792.407C440.252 792.434 440.35 793.758 440.193 795.364C440.036 796.972 439.682 798.251 439.403 798.223Z" fill="#455A64"/>
<path d="M438.8 804.387C438.521 804.359 438.303 804.26 438.312 804.164C438.322 804.068 438.556 804.012 438.835 804.04C439.113 804.068 439.331 804.167 439.322 804.263C439.311 804.358 439.078 804.415 438.8 804.387Z" fill="#455A64"/>
<path d="M442.676 636.062C442.857 636.276 441.076 638.214 438.7 640.389C436.322 642.565 434.234 644.167 434.037 643.968C433.839 643.769 435.619 641.832 438.015 639.639C440.407 637.452 442.495 635.847 442.676 636.062Z" fill="#263238"/>
<path d="M446.865 638.308C446.979 638.563 444.059 640.123 440.345 641.791C436.629 643.46 433.524 644.607 433.408 644.35C433.293 644.095 436.212 642.535 439.929 640.867C443.644 639.198 446.75 638.051 446.865 638.308Z" fill="#263238"/>
<path d="M323.55 505.987C323.55 505.987 317.366 439.736 306.379 410.729L308.568 409.085L305.297 397.667L264.205 392.683L264.836 401.597C258.678 404.58 253.513 409.153 250.783 414.955C236.063 446.234 243.319 482.738 235.47 550.407C235.47 550.407 226.285 582.142 235.78 592.069L325.428 571.175L321.15 550.719C360.286 549.971 424.635 542.776 424.635 542.776L422.841 505.752C422.841 505.752 326.696 506.33 323.55 505.987Z" fill="#455A64"/>
<path d="M305.221 397.612C305.487 397.525 306.816 400.85 308.189 405.038C308.494 406.103 308.939 407.015 309.007 408.164C309.031 408.727 308.821 409.325 308.481 409.709C308.147 410.1 307.746 410.336 307.372 410.486C305.821 410.964 304.939 410.622 304.933 410.549C304.898 410.362 305.902 410.382 307.073 409.834C307.637 409.526 308.162 408.97 308.075 408.2C308.005 407.429 307.538 406.399 307.228 405.356C305.852 401.165 304.955 397.699 305.221 397.612Z" fill="#E0E0E0"/>
<path d="M315.023 446.944C315.023 447.225 298.5 447.452 278.122 447.452C257.736 447.452 241.216 447.225 241.216 446.944C241.216 446.664 257.736 446.437 278.122 446.437C298.5 446.437 315.023 446.664 315.023 446.944Z" fill="#263238"/>
<path d="M311.156 428.276C311.156 428.556 296.509 428.783 278.446 428.783C260.378 428.783 245.733 428.556 245.733 428.276C245.733 427.995 260.376 427.768 278.446 427.768C296.509 427.768 311.156 427.995 311.156 428.276Z" fill="#263238"/>
<path d="M305.771 411.852C305.771 412.132 293.656 412.359 278.714 412.359C263.767 412.359 251.656 412.132 251.656 411.852C251.656 411.571 263.769 411.344 278.714 411.344C293.656 411.344 305.771 411.571 305.771 411.852Z" fill="#263238"/>
<path d="M305.232 400.276C305.232 400.556 295.95 400.783 284.503 400.783C273.053 400.783 263.771 400.556 263.771 400.276C263.771 399.995 273.051 399.768 284.503 399.768C295.95 399.768 305.232 399.995 305.232 400.276Z" fill="#263238"/>
<path d="M317.617 464.891C317.617 465.172 300.137 465.399 278.581 465.399C257.016 465.399 239.542 465.172 239.542 464.891C239.542 464.611 257.018 464.383 278.581 464.383C300.139 464.383 317.617 464.611 317.617 464.891Z" fill="#263238"/>
<path d="M320.795 482.928C320.795 483.209 302.605 483.436 280.169 483.436C257.727 483.436 239.54 483.209 239.54 482.928C239.54 482.648 257.727 482.421 280.169 482.421C302.605 482.421 320.795 482.65 320.795 482.928Z" fill="#263238"/>
<path d="M322.791 499.553C322.791 499.834 304.154 500.061 281.167 500.061C258.174 500.061 239.54 499.834 239.54 499.553C239.54 499.273 258.174 499.046 281.167 499.046C304.154 499.048 322.791 499.275 322.791 499.553Z" fill="#263238"/>
<path d="M413.659 517.724C413.659 518.004 374.335 518.231 325.839 518.231C277.324 518.231 238.01 518.004 238.01 517.724C238.01 517.443 277.326 517.216 325.839 517.216C374.335 517.216 413.659 517.443 413.659 517.724Z" fill="#263238"/>
<path d="M414.332 532.283C414.332 532.564 374.712 532.791 325.846 532.791C276.964 532.791 237.353 532.564 237.353 532.283C237.353 532.002 276.966 531.775 325.846 531.775C374.712 531.775 414.332 532.002 414.332 532.283Z" fill="#263238"/>
<path d="M319.804 550.226C319.804 550.507 300.872 550.734 277.524 550.734C254.166 550.734 235.237 550.507 235.237 550.226C235.237 549.946 254.166 549.719 277.524 549.719C300.872 549.719 319.804 549.947 319.804 550.226Z" fill="#263238"/>
<path d="M324.105 566.87C324.105 567.15 303.524 567.377 278.142 567.377C252.75 567.377 232.173 567.15 232.173 566.87C232.173 566.589 252.75 566.362 278.142 566.362C303.524 566.364 324.105 566.591 324.105 566.87Z" fill="#263238"/>
<path d="M245.824 571.283C245.543 571.283 245.316 538.999 245.316 499.182C245.316 459.353 245.543 427.074 245.824 427.074C246.105 427.074 246.332 459.351 246.332 499.182C246.332 538.999 246.105 571.283 245.824 571.283Z" fill="#263238"/>
<path d="M268.011 569.502C267.73 569.502 267.503 530.035 267.503 481.363C267.503 432.673 267.73 393.215 268.011 393.215C268.292 393.215 268.519 432.673 268.519 481.363C268.517 530.035 268.29 569.502 268.011 569.502Z" fill="#263238"/>
<path d="M292.508 566.87C292.227 566.87 292 528.822 292 481.896C292 434.955 292.227 396.914 292.508 396.914C292.788 396.914 293.015 434.955 293.015 481.896C293.013 528.822 292.786 566.87 292.508 566.87Z" fill="#263238"/>
<path d="M313.083 571.224C312.802 571.224 312.575 541.358 312.575 504.527C312.575 467.68 312.802 437.821 313.083 437.821C313.363 437.821 313.591 467.68 313.591 504.527C313.589 541.358 313.362 571.224 313.083 571.224Z" fill="#263238"/>
<path d="M334.882 505.902C335.023 505.909 335.089 508.388 335.086 512.389C335.082 516.391 335.006 521.914 334.86 528.011C334.714 534.111 334.526 539.632 334.338 543.629C334.15 547.625 333.965 550.099 333.825 550.099C333.684 550.099 333.616 547.625 333.62 543.625C333.623 539.623 333.699 534.094 333.845 527.987C333.991 521.883 334.179 516.356 334.367 512.359C334.556 508.364 334.742 505.896 334.882 505.902Z" fill="#263238"/>
<path d="M358.046 506.677C358.186 506.685 358.256 509.007 358.26 512.756C358.262 516.505 358.195 521.678 358.059 527.391C357.922 533.105 357.741 538.277 357.56 542.021C357.38 545.764 357.197 548.081 357.056 548.081C356.916 548.081 356.846 545.764 356.842 542.015C356.84 538.266 356.907 533.086 357.044 527.365C357.18 521.646 357.361 516.47 357.542 512.725C357.725 508.981 357.907 506.67 358.046 506.677Z" fill="#263238"/>
<path d="M381.239 506.269C381.379 506.277 381.451 508.529 381.457 512.162C381.462 515.796 381.4 520.81 381.267 526.348C381.134 531.888 380.959 536.9 380.779 540.529C380.6 544.158 380.419 546.405 380.279 546.405C380.139 546.405 380.067 544.158 380.061 540.525C380.056 536.892 380.119 531.87 380.252 526.324C380.384 520.781 380.56 515.761 380.739 512.132C380.92 508.503 381.101 506.262 381.239 506.269Z" fill="#263238"/>
<path d="M404.438 505.61C404.578 505.618 404.652 507.803 404.66 511.329C404.667 514.855 404.608 519.721 404.479 525.095C404.349 530.468 404.178 535.333 404.001 538.855C403.825 542.377 403.646 544.555 403.506 544.555C403.366 544.555 403.292 542.375 403.284 538.851C403.277 535.325 403.336 530.454 403.465 525.071C403.594 519.691 403.768 514.822 403.943 511.3C404.121 507.777 404.3 505.605 404.438 505.61Z" fill="#263238"/>
<path d="M315.503 514.242C315.269 514.12 316.53 511.408 318.974 508.687C321.405 505.955 323.958 504.397 324.106 504.617C324.281 504.853 322.077 506.721 319.729 509.363C317.368 511.99 315.758 514.392 315.503 514.242Z" fill="#263238"/>
<path d="M320.803 514.691C320.547 514.74 320.096 512.116 321.207 509.125C322.293 506.123 324.333 504.412 324.497 504.617C324.72 504.818 323.155 506.703 322.16 509.474C321.128 512.23 321.104 514.681 320.803 514.691Z" fill="#263238"/>
<path d="M415.263 542.582C414.984 542.608 414.039 534.674 413.153 524.864C412.267 515.051 411.774 507.078 412.055 507.054C412.334 507.028 413.279 514.96 414.165 524.773C415.049 534.583 415.542 542.558 415.263 542.582Z" fill="#263238"/>
<path d="M416.515 514.043C416.594 514.174 415.998 514.537 415.931 515.462C415.898 515.9 416.013 516.459 416.376 516.81C416.718 517.168 417.345 517.251 417.931 517.002C418.514 516.745 418.883 516.23 418.854 515.735C418.846 515.232 418.516 514.766 418.174 514.489C417.452 513.908 416.78 514.094 416.74 513.947C416.638 513.862 417.417 513.284 418.566 513.889C419.086 514.181 419.682 514.761 419.788 515.673C419.909 516.603 419.234 517.565 418.335 517.934C417.452 518.338 416.288 518.174 415.691 517.449C415.097 516.749 415.082 515.916 415.224 515.339C415.568 514.085 416.522 513.91 416.515 514.043Z" fill="#263238"/>
<path d="M323.428 505.806C323.43 505.795 323.587 505.798 323.892 505.819C324.233 505.845 324.678 505.88 325.25 505.926C326.445 506.057 328.224 506.166 330.55 506.245C335.198 506.441 342.027 506.531 350.716 506.457C368.092 506.337 392.915 505.701 422.671 504.521L423.107 504.504L423.129 504.94C423.705 516.441 424.334 529.008 424.995 542.19L425.015 542.61L424.63 542.683C419.9 543.581 415.136 543.942 410.238 544.443C405.348 544.867 400.368 545.301 395.311 545.74C385.194 546.564 374.764 547.337 364.136 548.092C350.771 548.995 337.72 549.875 325.123 550.726L325.091 550.728L325.058 550.726C313.75 549.997 302.757 545.94 295.085 538.484C291.208 534.842 288.308 530.363 286.379 525.689C284.402 521.022 283.156 516.243 282.008 511.617C277.448 493.083 274.578 476.346 272.329 462.392C271.214 455.41 270.278 449.117 269.471 443.609C268.702 438.102 267.841 433.382 267.841 429.455C267.786 425.538 268.63 422.518 269.656 420.744C270.671 418.955 271.535 418.281 271.535 418.281C271.594 418.328 270.762 419.04 269.815 420.829C268.857 422.603 268.083 425.577 268.192 429.452C268.244 433.326 269.154 438.028 269.974 443.533C270.852 449.038 271.855 455.316 272.968 462.288C275.303 476.22 278.246 492.926 282.853 511.408C284.014 516.02 285.266 520.755 287.219 525.333C289.13 529.924 291.948 534.247 295.74 537.801C303.233 545.056 313.999 549.026 325.125 549.731H325.062C337.655 548.875 350.707 547.987 364.068 547.079C374.69 546.281 385.116 545.5 395.234 544.74C400.286 544.306 405.263 543.88 410.15 543.459C415.01 542.973 419.867 542.595 424.399 541.746L424.035 542.237C423.406 529.054 422.804 516.485 422.254 504.983L422.71 505.4C392.939 506.493 368.109 507.002 350.719 506.973C342.025 506.969 335.193 506.799 330.539 506.517C328.211 506.395 326.432 506.24 325.237 506.064C324.667 505.99 324.224 505.933 323.884 505.889C323.58 505.845 323.426 505.817 323.428 505.806Z" fill="#263238"/>
<path d="M323.428 505.806C323.36 505.822 323.028 504.791 322.483 502.909C321.933 501.028 321.195 498.291 320.32 494.9C318.562 488.117 316.349 478.694 313.992 468.275C311.634 457.852 309.46 448.43 307.835 441.622C307.06 438.351 306.417 435.636 305.925 433.555C305.483 431.646 305.273 430.583 305.341 430.565C305.41 430.546 305.749 431.576 306.307 433.456C306.87 435.333 307.627 438.065 308.531 441.449C310.335 448.22 312.622 457.627 314.979 468.051C317.316 478.383 319.432 487.73 321.016 494.732C321.765 498.008 322.387 500.729 322.865 502.813C323.294 504.722 323.497 505.787 323.428 505.806Z" fill="#263238"/>
<path d="M305.339 398.382C305.407 398.394 305.337 399.12 305.149 400.421C304.961 401.723 304.658 403.598 304.261 405.913C304.021 407.078 303.94 408.311 303.484 409.744C303.248 410.43 302.725 411.244 301.828 411.534C300.949 411.811 300.104 411.608 299.354 411.459C296.303 410.833 292.976 410.021 289.515 409.074C282.591 407.169 276.42 405.171 271.936 403.792C269.868 403.144 268.1 402.59 266.632 402.131C265.381 401.734 264.698 401.483 264.714 401.415C264.733 401.346 265.451 401.47 266.736 401.751C268.019 402.037 269.866 402.491 272.135 403.104C276.678 404.307 282.888 406.199 289.783 408.095C293.231 409.039 296.53 409.873 299.55 410.545C300.3 410.718 301.005 410.857 301.553 410.685C302.097 410.525 302.47 410.032 302.697 409.443C303.118 408.252 303.283 406.899 303.556 405.777C304.043 403.48 304.455 401.625 304.761 400.346C305.07 399.068 305.271 398.369 305.339 398.382Z" fill="#263238"/>
<path d="M273.04 653.944L285.936 829.077L291.335 827.82L289.33 657.641L273.04 653.944Z" fill="#263238"/>
<path d="M218.357 660.034L179.172 828.869H186.257L242.357 660.034H218.357Z" fill="#263238"/>
<path d="M322.018 660.034L375.478 828.869H381.206L338.724 660.034H322.018Z" fill="#263238"/>
<path d="M329.178 671.375L209.371 749.655V753.951L332.52 671.375H329.178Z" fill="#263238"/>
<path d="M227.51 671.375L357.339 758.724V752.042L231.327 667.558L227.51 671.375Z" fill="#263238"/>
<path d="M200.457 662.939L354.821 660.139C360.655 660.034 365.124 654.916 364.443 649.122C363.852 644.092 359.547 640.324 354.483 640.405L197.93 642.921L200.457 662.939Z" fill="#0A66C2"/>
<g opacity="0.2">
<path d="M200.457 662.939L354.821 660.139C360.655 660.034 365.124 654.916 364.443 649.122C363.852 644.092 359.547 640.324 354.483 640.405L197.93 642.921L200.457 662.939Z" fill="black"/>
</g>
<path d="M184.733 543.614L200.302 662.939L322.02 660.032L321.708 587.562C321.874 575.507 311.569 565.96 299.563 567.041L206.746 575.413L194.531 448.938L182.198 447.897C176.666 447.43 172.128 452.213 172.887 457.714L184.733 543.614Z" fill="#0A66C2"/>
</svg>
