<svg width="166" height="56" viewBox="0 0 166 56" fill="none" xmlns="http://www.w3.org/2000/svg">
<rect x="1" y="1" width="164" height="54" rx="4" stroke="#0A66C2" stroke-width="2"/>
<path d="M63.135 25.12C61.605 25.12 60.315 24.6 59.265 23.56C58.215 22.51 57.69 21.215 57.69 19.675C57.69 18.135 58.215 16.845 59.265 15.805C60.315 14.755 61.605 14.23 63.135 14.23C63.945 14.23 64.71 14.39 65.43 14.71C66.15 15.03 66.725 15.445 67.155 15.955L66.18 16.825C65.39 15.965 64.375 15.535 63.135 15.535C61.975 15.535 61.01 15.935 60.24 16.735C59.47 17.525 59.085 18.505 59.085 19.675C59.085 20.845 59.47 21.83 60.24 22.63C61.01 23.42 61.975 23.815 63.135 23.815C64.265 23.815 65.17 23.55 65.85 23.02V20.215H62.58L63.165 18.895H67.215V23.65C66.875 24.05 66.33 24.395 65.58 24.685C64.83 24.975 64.015 25.12 63.135 25.12ZM72.6028 25.12C71.5028 25.12 70.5828 24.75 69.8428 24.01C69.1128 23.26 68.7478 22.34 68.7478 21.25C68.7478 20.16 69.1128 19.245 69.8428 18.505C70.5728 17.755 71.4628 17.38 72.5128 17.38C73.6228 17.38 74.5078 17.77 75.1678 18.55C75.8378 19.32 76.1728 20.325 76.1728 21.565H70.0828C70.1428 22.265 70.4128 22.83 70.8928 23.26C71.3828 23.69 71.9528 23.905 72.6028 23.905C73.4628 23.905 74.1928 23.605 74.7928 23.005L75.6178 23.905C74.8478 24.715 73.8428 25.12 72.6028 25.12ZM72.4378 18.565C71.9278 18.565 71.4528 18.725 71.0128 19.045C70.5728 19.355 70.2878 19.82 70.1578 20.44H74.7178C74.6278 19.84 74.3728 19.375 73.9528 19.045C73.5328 18.715 73.0278 18.555 72.4378 18.565ZM81.551 25H80.411C79.681 25 79.121 24.815 78.731 24.445C78.341 24.075 78.146 23.535 78.146 22.825V18.67H76.946L76.661 17.5H78.146V15.895L79.436 15.25V17.5H81.701L81.416 18.67H79.436V22.63C79.436 23.03 79.521 23.33 79.691 23.53C79.861 23.73 80.146 23.83 80.546 23.83H81.551V25ZM86.8799 25V17.5H88.1699V25H86.8799ZM88.1699 15.865H86.8799C86.6899 15.705 86.5949 15.475 86.5949 15.175C86.5949 14.915 86.6849 14.695 86.8649 14.515C87.0449 14.325 87.2649 14.23 87.5249 14.23C87.7849 14.23 88.0049 14.325 88.1849 14.515C88.3649 14.695 88.4549 14.915 88.4549 15.175C88.4549 15.475 88.3599 15.705 88.1699 15.865ZM94.3098 25H93.1698C92.4398 25 91.8798 24.815 91.4898 24.445C91.0998 24.075 90.9048 23.535 90.9048 22.825V18.67H89.7048L89.4198 17.5H90.9048V15.895L92.1948 15.25V17.5H94.4598L94.1748 18.67H92.1948V22.63C92.1948 23.03 92.2798 23.33 92.4498 23.53C92.6198 23.73 92.9048 23.83 93.3048 23.83H94.3098V25ZM103.029 25.12C101.909 25.12 100.979 24.75 100.239 24.01C99.4987 23.26 99.1287 22.34 99.1287 21.25C99.1287 20.16 99.4987 19.245 100.239 18.505C100.979 17.755 101.909 17.38 103.029 17.38C104.139 17.38 105.064 17.755 105.804 18.505C106.544 19.245 106.914 20.16 106.914 21.25C106.914 22.34 106.544 23.26 105.804 24.01C105.064 24.75 104.139 25.12 103.029 25.12ZM101.184 23.155C101.664 23.655 102.279 23.905 103.029 23.905C103.779 23.905 104.389 23.655 104.859 23.155C105.339 22.645 105.579 22.01 105.579 21.25C105.579 20.49 105.339 19.86 104.859 19.36C104.389 18.85 103.779 18.595 103.029 18.595C102.279 18.595 101.664 18.85 101.184 19.36C100.704 19.86 100.464 20.49 100.464 21.25C100.464 22.01 100.704 22.645 101.184 23.155ZM108.662 25V17.5H109.952V18.355C110.482 17.705 111.257 17.38 112.277 17.38C113.127 17.38 113.822 17.66 114.362 18.22C114.902 18.77 115.172 19.505 115.172 20.425V25H113.882V20.5C113.882 19.94 113.712 19.485 113.372 19.135C113.032 18.775 112.572 18.595 111.992 18.595C110.932 18.595 110.252 19.115 109.952 20.155V25H108.662Z" fill="#BABABA"/>
<path d="M56.79 42L62.025 31.23L67.26 42H64.965L64.08 40.11H59.97L59.085 42H56.79ZM60.825 38.31H63.225L62.025 35.76L60.825 38.31ZM67.9938 34.5H70.0488V35.01C70.5288 34.59 71.1288 34.38 71.8488 34.38C72.9288 34.38 73.8088 34.76 74.4888 35.52C75.1788 36.27 75.5238 37.18 75.5238 38.25C75.5238 39.32 75.1788 40.235 74.4888 40.995C73.8088 41.745 72.9288 42.12 71.8488 42.12C71.1288 42.12 70.5288 41.91 70.0488 41.49V44.76H67.9938V34.5ZM71.5488 40.23C72.1088 40.23 72.5638 40.04 72.9138 39.66C73.2738 39.27 73.4538 38.8 73.4538 38.25C73.4538 37.7 73.2738 37.235 72.9138 36.855C72.5638 36.465 72.1088 36.27 71.5488 36.27C70.9088 36.27 70.4088 36.515 70.0488 37.005V39.48C70.4188 39.98 70.9188 40.23 71.5488 40.23ZM76.988 34.5H79.043V35.01C79.523 34.59 80.123 34.38 80.843 34.38C81.923 34.38 82.803 34.76 83.483 35.52C84.173 36.27 84.518 37.18 84.518 38.25C84.518 39.32 84.173 40.235 83.483 40.995C82.803 41.745 81.923 42.12 80.843 42.12C80.123 42.12 79.523 41.91 79.043 41.49V44.76H76.988V34.5ZM80.543 40.23C81.103 40.23 81.558 40.04 81.908 39.66C82.268 39.27 82.448 38.8 82.448 38.25C82.448 37.7 82.268 37.235 81.908 36.855C81.558 36.465 81.103 36.27 80.543 36.27C79.903 36.27 79.403 36.515 79.043 37.005V39.48C79.413 39.98 79.913 40.23 80.543 40.23ZM92.5613 42.12C91.7113 42.12 90.9613 41.95 90.3113 41.61C89.6713 41.26 89.1713 40.765 88.8113 40.125L90.4613 38.775C90.7013 39.155 91.0063 39.47 91.3763 39.72C91.7563 39.96 92.1363 40.08 92.5163 40.08C93.3463 40.08 93.7613 39.77 93.7613 39.15C93.7613 38.86 93.6563 38.62 93.4463 38.43C93.2363 38.23 92.8863 38.02 92.3963 37.8L91.7213 37.485C90.0813 36.775 89.2613 35.685 89.2613 34.215C89.2613 33.345 89.5813 32.63 90.2213 32.07C90.8613 31.51 91.6113 31.23 92.4713 31.23C93.1013 31.23 93.6513 31.33 94.1213 31.53C94.6013 31.73 95.0463 32.075 95.4563 32.565L93.9863 34.125C93.7163 33.805 93.4713 33.585 93.2513 33.465C93.0313 33.335 92.7713 33.27 92.4713 33.27C92.1913 33.27 91.9513 33.35 91.7513 33.51C91.5513 33.66 91.4513 33.875 91.4513 34.155C91.4513 34.445 91.5613 34.69 91.7813 34.89C92.0013 35.08 92.3813 35.3 92.9213 35.55L93.5813 35.85C95.1613 36.54 95.9513 37.59 95.9513 39C95.9513 39.93 95.6363 40.685 95.0063 41.265C94.3763 41.835 93.5613 42.12 92.5613 42.12ZM101.842 42H99.9667C99.2567 42 98.6967 41.8 98.2867 41.4C97.8867 41 97.6867 40.44 97.6867 39.72V36.3H96.6667L96.2167 34.5H97.6867V33.27L99.7417 32.25V34.5H102.082L101.632 36.3H99.7417V39.165C99.7417 39.495 99.8117 39.74 99.9517 39.9C100.092 40.05 100.327 40.125 100.657 40.125H101.842V42ZM106.6 42.12C105.51 42.12 104.585 41.745 103.825 40.995C103.075 40.235 102.7 39.32 102.7 38.25C102.7 37.18 103.075 36.27 103.825 35.52C104.585 34.76 105.51 34.38 106.6 34.38C107.68 34.38 108.6 34.76 109.36 35.52C110.12 36.28 110.5 37.19 110.5 38.25C110.5 39.31 110.12 40.22 109.36 40.98C108.6 41.74 107.68 42.12 106.6 42.12ZM106.6 40.2C107.12 40.2 107.55 40.015 107.89 39.645C108.24 39.275 108.415 38.81 108.415 38.25C108.415 37.69 108.24 37.225 107.89 36.855C107.55 36.485 107.12 36.3 106.6 36.3C106.06 36.3 105.62 36.485 105.28 36.855C104.94 37.215 104.77 37.68 104.77 38.25C104.77 38.82 104.94 39.29 105.28 39.66C105.62 40.02 106.06 40.2 106.6 40.2ZM111.954 42V34.5H114.009V35.205C114.449 34.665 115.044 34.395 115.794 34.395C116.124 34.395 116.374 34.43 116.544 34.5V36.63C116.254 36.48 115.899 36.405 115.479 36.405C114.849 36.405 114.359 36.62 114.009 37.05V42H111.954ZM120.984 42.12C119.944 42.12 119.044 41.755 118.284 41.025C117.534 40.285 117.159 39.36 117.159 38.25C117.159 37.13 117.514 36.205 118.224 35.475C118.944 34.745 119.869 34.38 120.999 34.38C122.149 34.38 123.069 34.775 123.759 35.565C124.459 36.345 124.739 37.37 124.599 38.64H119.154C119.214 39.14 119.424 39.53 119.784 39.81C120.144 40.09 120.539 40.23 120.969 40.23C121.729 40.23 122.309 39.92 122.709 39.3L124.299 40.44C123.529 41.56 122.424 42.12 120.984 42.12ZM120.879 36.06C120.509 36.06 120.159 36.165 119.829 36.375C119.509 36.575 119.294 36.905 119.184 37.365H122.559C122.499 36.935 122.314 36.61 122.004 36.39C121.694 36.17 121.319 36.06 120.879 36.06Z" fill="#0A66C2"/>
<path d="M35.375 29.4363C35.4019 27.3408 36.5229 25.3579 38.3013 24.2603C37.1794 22.6517 35.3002 21.6319 33.3451 21.5705C31.2599 21.3507 29.2384 22.8231 28.1758 22.8231C27.0926 22.8231 25.4566 21.5923 23.6948 21.6287C21.3984 21.7032 19.2577 23.0138 18.1404 25.0293C15.7388 29.2035 17.5302 35.3382 19.8307 38.7123C20.9817 40.3646 22.3269 42.2101 24.0871 42.1447C25.8095 42.073 26.4528 41.0421 28.5319 41.0421C30.5917 41.0421 31.1953 42.1447 32.9911 42.1031C34.8394 42.0729 36.0038 40.4435 37.1145 38.7756C37.9415 37.5984 38.5778 36.2973 39 34.9205C36.828 33.9982 35.3775 31.8039 35.375 29.4363Z" fill="#0A66C2"/>
<path d="M31.9828 19.3515C32.9906 18.137 33.487 16.576 33.3668 15C31.8272 15.1623 30.4051 15.901 29.3837 17.0689C28.385 18.21 27.8652 19.7435 27.9635 21.2593C29.5036 21.2752 31.0177 20.5565 31.9828 19.3515Z" fill="#0A66C2"/>
</svg>
