<svg width="15" height="15" viewBox="0 0 15 15" fill="none" xmlns="http://www.w3.org/2000/svg">
<g clip-path="url(#clip0_10_2900)">
<path d="M7.8125 1.875H7.1875C4.38854 1.875 2.98905 1.875 2.11953 2.74453C1.25 3.61405 1.25 5.01354 1.25 7.8125C1.25 10.6115 1.25 12.0109 2.11953 12.8805C2.98905 13.75 4.38854 13.75 7.1875 13.75C9.98646 13.75 11.3859 13.75 12.2555 12.8805C13.125 12.0109 13.125 10.6115 13.125 7.8125V7.1875" stroke="#0A66C2" stroke-width="1.5" stroke-linecap="round"/>
<path d="M13.75 3.4375C13.75 4.64562 12.7706 5.625 11.5625 5.625C10.3544 5.625 9.375 4.64562 9.375 3.4375C9.375 2.22938 10.3544 1.25 11.5625 1.25C12.7706 1.25 13.75 2.22938 13.75 3.4375Z" stroke="#0A66C2" stroke-width="1.5"/>
<path d="M4.375 6.875H6.875" stroke="#0A66C2" stroke-width="1.5" stroke-linecap="round" stroke-linejoin="round"/>
<path d="M4.375 10H9.375" stroke="#0A66C2" stroke-width="1.5" stroke-linecap="round" stroke-linejoin="round"/>
</g>
<defs>
<clipPath id="clip0_10_2900">
<rect width="15" height="15" fill="white"/>
</clipPath>
</defs>
</svg>
