<svg width="20" height="20" viewBox="0 0 20 20" fill="none" xmlns="http://www.w3.org/2000/svg">
<path d="M15 1.66667V3.33334M5 1.66667V3.33334" stroke="#0A66C2" stroke-width="1.5" stroke-linecap="round" stroke-linejoin="round"/>
<path d="M9.9961 10.8333H10.0036M9.9961 14.1667H10.0036M13.3257 10.8333H13.3332M6.6665 10.8333H6.67398M6.6665 14.1667H6.67398" stroke="#0A66C2" stroke-width="2" stroke-linecap="round" stroke-linejoin="round"/>
<path d="M2.9165 6.66667H17.0832" stroke="#0A66C2" stroke-width="1.5" stroke-linecap="round" stroke-linejoin="round"/>
<path d="M2.08325 10.2027C2.08325 6.57161 2.08325 4.75607 3.12668 3.62803C4.17012 2.5 5.84949 2.5 9.20825 2.5H10.7916C14.1503 2.5 15.8297 2.5 16.8732 3.62803C17.9166 4.75607 17.9166 6.57161 17.9166 10.2027V10.6306C17.9166 14.2617 17.9166 16.0773 16.8732 17.2053C15.8297 18.3333 14.1503 18.3333 10.7916 18.3333H9.20825C5.84949 18.3333 4.17012 18.3333 3.12668 17.2053C2.08325 16.0773 2.08325 14.2617 2.08325 10.6306V10.2027Z" stroke="#0A66C2" stroke-width="1.5" stroke-linecap="round" stroke-linejoin="round"/>
<path d="M2.5 6.66667H17.5" stroke="#0A66C2" stroke-width="1.5" stroke-linecap="round" stroke-linejoin="round"/>
</svg>
