<svg width="15" height="15" viewBox="0 0 15 15" fill="none" xmlns="http://www.w3.org/2000/svg">
<g clip-path="url(#clip0_10_2906)">
<path d="M12.5 5.625C12.003 3.13409 9.6955 1.25 6.92453 1.25C3.79093 1.25 1.25 3.65951 1.25 6.63128C1.25 8.05911 1.83637 9.35649 2.79284 10.3192C3.00343 10.5312 3.14403 10.8208 3.08729 11.1189C2.99364 11.6063 2.78141 12.0609 2.47066 12.4398C3.28827 12.5905 4.13842 12.4548 4.86751 12.0705C5.12524 11.9346 5.25411 11.8667 5.34504 11.8529C5.4087 11.8433 5.49162 11.8523 5.625 11.8752" stroke="#0A66C2" stroke-width="1.5" stroke-linecap="round" stroke-linejoin="round"/>
<path d="M6.875 10.1636C6.875 11.9796 8.41424 13.4521 10.3125 13.4521C10.5357 13.4524 10.7583 13.4318 10.9775 13.3906C11.1353 13.361 11.2142 13.3461 11.2693 13.3546C11.3244 13.363 11.4025 13.4045 11.5586 13.4875C12.0003 13.7224 12.5153 13.8053 13.0106 13.7132C12.8223 13.4817 12.6937 13.2039 12.637 12.906C12.6026 12.7239 12.6878 12.5469 12.8154 12.4173C13.3948 11.829 13.75 11.0361 13.75 10.1636C13.75 8.34748 12.2108 6.875 10.3125 6.875C8.41424 6.875 6.875 8.34748 6.875 10.1636Z" stroke="#0A66C2" stroke-width="1.5" stroke-linejoin="round"/>
</g>
<defs>
<clipPath id="clip0_10_2906">
<rect width="15" height="15" fill="white"/>
</clipPath>
</defs>
</svg>
