<svg width="40" height="40" viewBox="0 0 40 40" fill="none" xmlns="http://www.w3.org/2000/svg">
<path d="M20 40C31.0457 40 40 31.0457 40 20C40 8.95431 31.0457 0 20 0C8.9543 0 0 8.95431 0 20C0 31.0457 8.9543 40 20 40Z" fill="#FF863B"/>
<mask id="mask0_9_2222" style="mask-type:luminance" maskUnits="userSpaceOnUse" x="0" y="0" width="40" height="40">
<path d="M20 40C31.0457 40 40 31.0457 40 20C40 8.95431 31.0457 0 20 0C8.9543 0 0 8.95431 0 20C0 31.0457 8.9543 40 20 40Z" fill="white"/>
</mask>
<g mask="url(#mask0_9_2222)">
<path d="M11.9287 11.1191C11.9287 11.1191 11.1463 17.5281 8.9874 21.1929C8.58289 21.8798 8.84695 22.7873 9.52703 23.1912C12.1816 24.7674 19.5928 27.6656 28.7658 23.6763C29.3733 23.4119 29.7253 22.7569 29.625 22.0851C29.3689 20.3703 27.7458 17.046 25.4336 14.0968L11.9287 11.1191Z" fill="#D46919"/>
<path d="M25.0651 16.5374C25.453 17.6621 26.6793 18.2589 27.804 17.871C28.9287 17.483 29.5256 16.2568 29.1376 15.1321C28.7496 14.0073 27.5234 13.4102 26.3987 13.7984C25.274 14.1864 24.6768 15.4126 25.0651 16.5374Z" fill="#C28461"/>
<path d="M22.7188 21.0068L22.8425 29.7299L16.0225 29.1955L16.8229 16.3345L22.7188 21.0068Z" fill="#EDB892"/>
<path d="M22.7811 25.3911C22.7811 25.3911 18.5997 23.7008 18.3333 20.1953L22.7407 22.3067L22.7811 25.3911Z" fill="#C28461"/>
<path d="M26.2724 8.1737C26.8327 8.61185 27.203 9.24295 27.3685 9.93247C27.8586 11.9763 28.8299 16.2285 28.184 18.4422C27.344 21.321 25.104 23.206 21.3466 22.6383C21.3466 22.6383 17.0159 22.6059 15.708 16.2931C13.8524 7.33754 21.4735 4.42101 26.2724 8.1737Z" fill="#EDB892"/>
<path d="M25.7493 15.2937C25.8283 15.5543 26.1036 15.7012 26.3641 15.6221C26.6247 15.5431 26.7716 15.2678 26.6925 15.0073C26.6135 14.7467 26.3382 14.5998 26.0776 14.6789C25.8171 14.7582 25.6702 15.0335 25.7493 15.2937Z" fill="#3D2308"/>
<path d="M21.2563 15.1004C21.3354 15.361 21.6107 15.5079 21.8712 15.4285C22.1317 15.3494 22.2786 15.0742 22.1993 14.8136C22.1202 14.5531 21.8449 14.4062 21.5844 14.4853C21.3242 14.5646 21.1772 14.8399 21.2563 15.1004Z" fill="#3D2308"/>
<path d="M25.1961 15.9729L25.7274 17.1271L24.9464 17.3697" stroke="#1E0A05" stroke-width="0.8275" stroke-miterlimit="10" stroke-linecap="round" stroke-linejoin="round"/>
<path d="M21.8446 12.5106C21.8446 12.5106 23.3913 12.3793 23.4084 13.0865C23.4084 13.0865 23.4084 13.5654 22.0588 13.6504C20.7096 13.7353 20.1806 13.653 20.0561 13.2025C19.9318 12.752 21.1191 12.5097 21.8446 12.5106Z" fill="#3D2308"/>
<path d="M26.8356 12.5781C26.8356 12.5781 25.4893 12.3672 25.3386 13.0499C25.3386 13.0499 25.2459 13.5161 26.427 13.6683C27.287 13.779 27.5954 13.6137 27.6635 13.301C27.7447 12.9301 27.3422 12.6159 26.8356 12.5781Z" fill="#3D2308"/>
<path d="M24.565 18.7561L21.7281 18.405C21.7281 18.405 21.8004 19.6141 22.9443 19.8809C24.0882 20.1482 24.565 18.7561 24.565 18.7561Z" fill="white"/>
<path d="M17.3378 16.0831C17.3378 16.0831 19.7392 14.4907 18.9027 9.60917C18.9027 9.60917 22.7634 10.1438 27.3009 9.63278C27.3009 9.63278 26.0573 3.66399 17.4573 5.43368C8.52123 7.27241 12.2335 17.5462 15.6909 20.4648L17.3378 16.0831Z" fill="#D46919"/>
<path d="M17.8729 17.7452C18.4927 16.4412 17.938 14.8817 16.634 14.2619C15.3301 13.6421 13.7705 14.1968 13.1508 15.5007C12.531 16.8047 13.0856 18.3643 14.3896 18.9841C15.6936 19.6038 17.2531 19.0492 17.8729 17.7452Z" fill="#EDB892"/>
<path d="M14.2985 15.9043C14.2985 15.9043 16.1924 15.2815 16.7822 17.3695" stroke="#1E0A05" stroke-width="0.8275" stroke-miterlimit="10" stroke-linecap="round" stroke-linejoin="round"/>
<path d="M20.7276 5.11001C20.7152 5.09939 28.2542 4.95245 29.4241 10.9024L17.5131 11.6226L16.6477 7.66481L20.7276 5.11001Z" fill="#D46919"/>
<path d="M33.8197 44.3555H29.5967L28.5717 44.4437L28.585 44.3555H25.3415L29.4497 30.9365C29.4497 30.9365 34.0091 34.2281 33.8197 44.3555Z" fill="#28466D"/>
<path d="M29.4497 30.9365L29.0895 40.6984L28.585 44.3555H10.7721L10.4305 41.7556L9.23199 32.6316L13.5456 28.4218C13.5482 28.4192 13.5509 28.4192 13.5509 28.4192L25.1252 28.6139C25.1252 28.6139 27.6615 29.4631 29.4497 30.9365Z" fill="#28466D"/>
<path d="M13.55 28.4195L17.1251 27.6113H22.9649L25.1258 28.613L21.5009 33.843L13.55 28.4195Z" fill="#EDB892"/>
<path d="M12.63 32.194L13.3054 44.3558H2.52116C3.24727 41.6195 4.12828 38.1442 4.63281 35.5655C5.58316 30.7019 13.3057 28.4891 13.5459 28.4221C13.5485 28.4194 13.5512 28.4194 13.5512 28.4194L12.63 32.194Z" fill="#28466D"/>
</g>
</svg>
