<svg width="107" height="30" viewBox="0 0 107 30" fill="none" xmlns="http://www.w3.org/2000/svg">
<path d="M92 30C100.284 30 107 23.2843 107 15C107 6.71573 100.284 0 92 0C83.7157 0 77 6.71573 77 15C77 23.2843 83.7157 30 92 30Z" fill="#BABABA"/>
<mask id="mask0_22_10" style="mask-type:luminance" maskUnits="userSpaceOnUse" x="77" y="0" width="30" height="30">
<path d="M92 30C100.284 30 107 23.2843 107 15C107 6.71573 100.284 0 92 0C83.7157 0 77 6.71573 77 15C77 23.2843 83.7157 30 92 30Z" fill="white"/>
</mask>
<g mask="url(#mask0_22_10)">
<path d="M81.6519 7.78392C81.8316 10.2689 83.9917 12.1379 86.4768 11.9582C88.9618 11.7785 90.8308 9.61836 90.6511 7.13334C90.4714 4.64831 88.3112 2.77934 85.8262 2.95903C83.3412 3.13871 81.4724 5.29889 81.6519 7.78392Z" fill="#171717"/>
<path d="M90.0077 12.8621C91.7254 12.6994 92.986 11.175 92.8233 9.45726C92.6606 7.73951 91.1362 6.47891 89.4184 6.64163C87.7007 6.80434 86.4401 8.32876 86.6028 10.0465C86.7655 11.7643 88.2899 13.0249 90.0077 12.8621Z" fill="#4570B4"/>
<path d="M96.2823 14.7484C96.5317 15.5716 97.4014 16.0367 98.2245 15.7873C99.0477 15.5377 99.5129 14.6683 99.2635 13.8449C99.0141 13.0217 98.1444 12.5566 97.3212 12.8062C96.4978 13.0556 96.0327 13.925 96.2823 14.7484Z" fill="#BA5F3F"/>
<path d="M94.4645 17.913L94.3143 24.2194L89.4013 23.6458L90.3327 14.3753L94.4645 17.913Z" fill="#CE7D5D"/>
<path d="M94.4072 20.2531C94.4072 20.2531 91.8411 20.6171 91.6026 17.5999L94.4446 18.8528L94.4072 20.2531Z" fill="#BA5F3F"/>
<path d="M97.3843 8.73854C97.7771 9.07047 98.0274 9.53672 98.1279 10.0393C98.4259 11.5294 99.011 14.6285 98.4837 16.2102C97.7979 18.2671 96.1274 19.5678 93.4282 19.0546C93.4282 19.0546 90.2999 18.9121 89.5283 14.3151C88.4334 7.79322 94.0199 5.89526 97.3843 8.73854Z" fill="#CE7D5D"/>
<path d="M97.0717 13.4021C97.1217 13.5924 97.3166 13.7061 97.5069 13.6561C97.6972 13.6061 97.811 13.4112 97.761 13.2209C97.711 13.0306 97.516 12.9168 97.3257 12.9668C97.1354 13.0171 97.0217 13.2118 97.0717 13.4021Z" fill="#171717"/>
<path d="M93.8341 13.4021C93.8841 13.5924 94.079 13.7061 94.2693 13.6561C94.4596 13.6061 94.5734 13.4112 94.5234 13.2209C94.4734 13.0306 94.2784 12.9168 94.0881 12.9668C93.8978 13.0171 93.7838 13.2118 93.8341 13.4021Z" fill="#171717"/>
<path d="M96.3839 14.0011L96.7361 14.8498L96.1652 15.0033" stroke="#BA5F3F" stroke-width="1.4337" stroke-miterlimit="10" stroke-linecap="round" stroke-linejoin="round"/>
<path d="M95.4764 10.6538C95.5389 10.891 95.3837 11.1293 95.1416 11.168C94.7763 11.2264 94.249 11.3457 93.7807 11.584C93.6066 11.6728 93.3944 11.6144 93.2988 11.4437C93.2074 11.2802 93.2694 11.0915 93.4125 10.9704C93.7053 10.7228 94.1715 10.3544 95.0511 10.3448C95.2485 10.3426 95.4262 10.4628 95.4764 10.6538Z" fill="#171717"/>
<path d="M97.2235 10.6285C97.2075 10.8673 97.3345 11.0906 97.4976 11.11C97.7437 11.1395 98.1024 11.2167 98.435 11.4159C98.5587 11.49 98.6919 11.4161 98.7364 11.2404C98.7791 11.072 98.7185 10.8905 98.6118 10.7821C98.3934 10.5604 98.0484 10.2329 97.47 10.2913C97.3401 10.3043 97.2363 10.4364 97.2235 10.6285Z" fill="#171717"/>
<path d="M96.4388 16.1031L94.1895 15.4984C94.1895 15.4984 93.912 16.3627 95.0562 16.6778C96.2005 16.9929 96.4388 16.1031 96.4388 16.1031Z" fill="#BABABA"/>
<path d="M90.7117 13.8305C90.7117 13.8305 92.3452 12.3853 92.0202 9.57346C92.0202 9.57346 94.7948 10.0656 98.0873 9.82108C98.0873 9.82108 97.3527 5.93421 91.0903 6.97669C84.5832 8.05987 87.6069 15.2359 90.0248 17.4397L90.7117 13.8305Z" fill="#171717"/>
<path d="M87.5644 15.0958C87.8671 16.0949 88.9224 16.6592 89.9215 16.3565C90.9204 16.0538 91.4849 14.9984 91.1822 13.9996C90.8795 13.0007 89.8242 12.4362 88.8251 12.7389C87.826 13.0414 87.2615 14.0967 87.5644 15.0958Z" fill="#CE7D5D"/>
<path d="M88.5206 13.9953C88.5206 13.9953 89.9063 13.5972 90.2749 15.1221" stroke="#BA5F3F" stroke-width="1.4337" stroke-miterlimit="10" stroke-linecap="round" stroke-linejoin="round"/>
<path d="M97.1605 32.1945H103.266C101.372 24.2178 97.5464 24.0313 97.5464 24.0313L97.1605 32.1945Z" fill="#4570B4"/>
<path d="M82.3053 29.6685C82.2903 30.5521 82.3686 31.3985 82.5084 32.1945H99.4965C99.5542 28.7382 97.5465 24.0313 97.5465 24.0313L96.8028 23.912L86.5927 23.7945C86.5927 23.7945 82.3927 24.3537 82.3053 29.6685Z" fill="#4570B4"/>
<path d="M98.6958 27.6524C98.6958 27.6524 99.6628 29.8257 99.6628 32.1943" stroke="#1E0A05" stroke-width="0.8275" stroke-miterlimit="10" stroke-linecap="round" stroke-linejoin="round"/>
<path d="M96.8034 23.912C96.8034 23.912 93.4122 23.1125 92.6296 23.1125C92.6296 23.1125 90.4577 22.9463 86.5931 23.7954C86.5931 23.7954 90.4236 26.8507 93.8123 30.6245L96.8034 23.912Z" fill="#CE7D5D"/>
<path d="M77.9188 32.1945H85.3717L86.5927 23.7945C86.5927 23.7945 82.9654 24.0313 81.2609 26.0627C80.3027 27.205 78.6123 30.3302 77.9188 32.1945Z" fill="#4570B4"/>
<path d="M84.9751 32.0243L85.5226 27.622" stroke="#1E0A05" stroke-width="0.8275" stroke-miterlimit="10" stroke-linecap="round" stroke-linejoin="round"/>
</g>
<path d="M87 15C87 19.3889 85.1156 23.338 82.1107 26.081C81.1824 26.9259 80.1499 27.6597 79.0295 28.2523C78.6961 28.4306 78.3558 28.5949 78.0063 28.7477C76.1681 29.5532 74.1356 30 71.9988 30C69.7047 30 67.5286 29.4838 65.584 28.5625C65.2645 28.412 64.9497 28.2477 64.6441 28.0741C63.5561 27.463 62.5537 26.7199 61.6578 25.8657C58.7895 23.1319 57 19.2755 57 15C57 6.71528 63.7158 0 71.9988 0C80.2842 0 87 6.71528 87 15Z" fill="#BABABA"/>
<path d="M80.6664 16.9947C80.6544 16.2449 79.9476 15.6671 79.8092 14.9296C79.6768 14.2248 80.0856 13.4945 79.9192 12.7965C79.7328 12.016 78.892 11.528 78.6399 10.7653C78.4135 10.0808 78.6762 9.22848 78.1894 8.6889C78.0415 8.52501 77.8396 8.4139 77.6942 8.24793C77.2048 7.68867 77.5097 6.72547 76.996 6.18751C76.6279 5.80233 75.97 5.78913 75.6135 5.39376C75.3531 5.10511 75.3044 4.66298 75.003 4.41529C74.54 4.03497 73.8252 4.34191 73.2388 4.19585C72.9925 4.1345 72.7732 3.99261 72.5267 3.93149C72.4855 3.92131 72.4413 3.92038 72.3952 3.92663C72.0009 3.98172 71.6086 3.98172 71.2141 3.92663C71.168 3.92015 71.1238 3.92131 71.0826 3.93149C70.836 3.99261 70.6168 4.1345 70.3705 4.19585C69.7841 4.34168 69.0692 4.03473 68.6062 4.41529C68.3048 4.66298 68.2562 5.10511 67.9958 5.39376C67.6393 5.78913 66.9813 5.80233 66.6133 6.18751C66.0993 6.72547 66.4045 7.68867 65.9151 8.24793C65.7697 8.4139 65.5678 8.52501 65.4199 8.6889C64.933 9.22848 65.1958 10.081 64.9694 10.7653C64.7171 11.5278 63.8765 12.016 63.6901 12.7965C63.5234 13.4945 63.9323 14.2248 63.7999 14.9296C63.6614 15.6671 62.9546 16.2452 62.9426 16.9947C62.9296 17.8 63.6834 18.4382 63.861 19.225C63.7589 19.5067 63.6556 19.7954 63.6589 20.0942C63.6621 20.3928 63.7936 20.7086 64.0608 20.8539C64.1735 20.9153 64.3029 20.9428 64.4316 20.9523C65.2419 21.0125 66.0216 20.3975 66.8128 20.5785C67.2272 20.6734 67.5719 20.9773 67.9916 21.0456C68.7394 21.1674 69.4519 20.5116 70.1985 20.6405C70.471 20.6875 70.7145 20.8361 70.9828 20.9028C71.2511 20.9692 71.6773 20.9435 71.8044 20.7035C71.9315 20.9435 72.3579 20.9692 72.6262 20.9028C72.8945 20.8361 73.1378 20.6875 73.4105 20.6405C74.1571 20.5118 74.8697 21.1674 75.6174 21.0456C76.0374 20.9773 76.3818 20.6734 76.7962 20.5785C77.5875 20.3975 78.3672 21.0125 79.1774 20.9523C79.3061 20.9428 79.4356 20.9153 79.5483 20.8539C79.8154 20.7086 79.9469 20.3928 79.9502 20.0942C79.9534 19.7954 79.8502 19.5067 79.7481 19.225C79.9256 18.4382 80.6794 17.8 80.6664 16.9947Z" fill="#E44424"/>
<path d="M82.1107 26.081C81.1824 26.9259 80.1499 27.6597 79.0294 28.2523C78.6961 28.4305 78.3558 28.5949 78.0062 28.7477C76.1681 29.5532 74.1355 30 71.9988 30C69.7046 30 67.5285 29.4838 65.5839 28.5625C65.2645 28.412 64.9496 28.2477 64.6441 28.0741C63.556 27.463 62.5536 26.7199 61.6577 25.8657C62.4008 24.912 63.3963 24.1667 64.5445 23.7245L65.9266 23.1921C66.5655 22.9468 67.1466 22.5972 67.6512 22.1643C67.848 22 68.0309 21.8217 68.2022 21.6319C68.2832 21.5417 68.3643 21.4467 68.4383 21.3518C68.4777 21.3032 68.5147 21.2546 68.5495 21.206C68.5865 21.1597 68.6189 21.1134 68.6536 21.0648C68.6559 21.0625 68.6583 21.0602 68.6583 21.0579C69.4454 22.5509 70.3181 24.8079 72.0567 24.3472C73.0035 24.0949 73.7929 23.0995 74.3786 22.3866C74.6518 22.0555 74.918 21.706 75.1611 21.3403C75.2398 21.4398 75.3208 21.537 75.4065 21.6319C75.5778 21.8217 75.7607 22 75.9574 22.1643C76.4621 22.5972 77.0432 22.9468 77.6821 23.1921L79.0642 23.7245C80.298 24.1991 81.3537 25.0231 82.1107 26.081Z" fill="#662D8E"/>
<path d="M75.4065 21.6319C75.3215 21.5375 75.2396 21.4403 75.1606 21.3407C74.918 21.706 74.6511 22.0553 74.3793 22.3859C73.7927 23.1 73.0021 24.0942 72.0564 24.3461C70.319 24.8088 69.4454 22.5511 68.6578 21.0572C68.5173 21.2576 68.3659 21.45 68.202 21.6317C68.0307 21.8215 67.8478 21.9998 67.651 22.1641C68.7298 25.1086 71.3781 26.4581 71.4939 26.516C71.5911 26.5646 71.6976 26.59 71.8041 26.59C71.9106 26.59 72.0171 26.5646 72.1143 26.516C72.2301 26.4581 74.8784 25.1086 75.9572 22.1641C75.7607 22 75.5778 21.8217 75.4065 21.6319Z" fill="#472063"/>
<path d="M75.4065 21.632C74.4875 24.5556 71.8044 25.8959 71.8044 25.8959C71.8044 25.8959 69.1213 24.5556 68.2023 21.632C68.9014 20.8565 69.3968 19.9005 69.6167 18.8472L69.714 18.375L70.1584 16.2315H73.4504L73.9921 18.8472C74.1032 19.3704 74.2791 19.8681 74.5153 20.3334C74.7537 20.8056 75.0547 21.2408 75.4065 21.632Z" fill="#F69779"/>
<path d="M74.5153 20.3334C73.881 20.5209 73.418 20.5209 73.418 20.5209C73.418 20.5209 71.0567 20.5209 69.714 18.375L70.1585 16.2315H73.4504L73.9921 18.8472C74.1032 19.3704 74.2792 19.8681 74.5153 20.3334Z" fill="#F37A67"/>
<path d="M77.4595 11.7072C77.4315 11.5225 77.3629 11.335 77.222 11.2125C77.0949 11.1021 76.9199 11.0563 76.7516 11.0634C76.5833 11.0706 76.4203 11.1269 76.2687 11.2002C76.2687 11.2002 76.2538 6.93288 74.741 6.88311C73.749 6.83358 73.3075 7.13103 71.8046 7.13103C70.3015 7.13103 69.8603 6.83334 68.8683 6.88311C67.3555 6.93265 67.3406 11.2002 67.3406 11.2002C67.189 11.1269 67.026 11.0706 66.8577 11.0634C66.6894 11.0563 66.5144 11.1019 66.3873 11.2125C66.2463 11.335 66.1781 11.5227 66.1498 11.7072C66.0933 12.078 66.1822 12.4688 66.3931 12.7787C66.604 13.0887 66.9156 13.3218 67.2812 13.4053C67.9256 17.919 71.8044 17.919 71.8044 17.919C71.8044 17.919 75.6832 17.919 76.3281 13.4056C76.6937 13.322 77.0053 13.0889 77.2162 12.7789C77.4271 12.469 77.5157 12.0778 77.4595 11.7072Z" fill="#F69779"/>
<path d="M65.5841 28.5625C65.2646 28.412 64.9497 28.2477 64.6442 28.0741L65.3595 26.0949L65.5841 28.5625Z" fill="#472063"/>
<path d="M79.0295 28.2523C78.6961 28.4306 78.3558 28.5949 78.0062 28.7477L78.2493 26.0949L79.0295 28.2523Z" fill="#472063"/>
<path d="M71.587 10.9782V13.6266H72.0359C72.8052 13.6266 71.7299 11.2826 71.587 10.9782Z" fill="#F37A67"/>
<path d="M74.8504 9.94651C74.23 9.64003 73.5404 9.59466 72.8938 9.8516C72.6197 9.96063 72.7392 10.4085 73.017 10.2981C73.5469 10.0875 74.1018 10.0919 74.6168 10.3463C74.8835 10.478 75.1183 10.0787 74.8504 9.94651Z" fill="#E44424"/>
<path d="M74.292 10.7713C74.151 10.5269 73.8554 10.5417 73.8554 10.5417C73.6141 10.5417 73.4188 10.737 73.4188 10.9783C73.4188 11.2195 73.6141 11.4148 73.8554 11.4148C73.9086 11.4148 73.9589 11.4039 74.0061 11.3866L74.0063 11.3877C74.0091 11.3868 74.0112 11.3852 74.0139 11.384C74.0281 11.3785 74.0413 11.3715 74.0545 11.3646C74.4362 11.1991 74.4769 10.7752 74.4769 10.7752C74.4008 10.8396 74.292 10.7713 74.292 10.7713Z" fill="#051733"/>
<path d="M68.7583 9.94651C69.3787 9.64003 70.0683 9.59466 70.7149 9.8516C70.9888 9.96063 70.8695 10.4085 70.5917 10.2981C70.0618 10.0875 69.5069 10.0919 68.9918 10.3463C68.7252 10.478 68.4906 10.0787 68.7583 9.94651Z" fill="#E44424"/>
<path d="M69.3169 10.7713C69.4579 10.5269 69.7535 10.5417 69.7535 10.5417C69.9948 10.5417 70.1901 10.737 70.1901 10.9783C70.1901 11.2195 69.9948 11.4148 69.7535 11.4148C69.7003 11.4148 69.6501 11.4039 69.6028 11.3866L69.6026 11.3877C69.5998 11.3868 69.5977 11.3852 69.595 11.384C69.5808 11.3785 69.5676 11.3715 69.5544 11.3646C69.1727 11.1991 69.132 10.7752 69.132 10.7752C69.2079 10.8396 69.3169 10.7713 69.3169 10.7713Z" fill="#051733"/>
<path d="M70.3818 15.0356C70.5358 15.6102 71.1134 16.038 71.8046 16.038C72.4957 16.038 73.0735 15.6102 73.2272 15.0356H70.3818Z" fill="white"/>
<path d="M67 14.9988C67 18.55 65.7662 21.8142 63.6991 24.3838C62.5023 25.877 61.0255 27.1364 59.3472 28.0809C58.963 28.2985 58.5671 28.4976 58.162 28.6805C56.2824 29.5277 54.1968 30 52 30C49.8032 30 47.7176 29.5277 45.838 28.6805C45.4329 28.4976 45.037 28.2985 44.6528 28.0809C42.9745 27.1364 41.4977 25.877 40.3009 24.3838C38.2338 21.8142 37 18.55 37 14.9988C37 6.7158 43.7153 0 52 0C60.2847 0 67 6.7158 67 14.9988Z" fill="#BABABA"/>
<path d="M63.6991 24.3838C62.5023 25.877 61.0254 27.1364 59.3472 28.0809C58.9629 28.2985 58.5671 28.4976 58.162 28.6805C56.2824 29.5277 54.1967 30 52 30C49.8032 30 47.7176 29.5277 45.8379 28.6805C45.4328 28.4976 45.037 28.2985 44.6528 28.0809C42.9745 27.1364 41.4977 25.877 40.3009 24.3838C40.6875 23.018 41.7615 21.9369 43.1528 21.5526L46.7477 20.5595L48.4097 20.0988L49.1111 19.9043C49.1227 19.939 49.1366 19.9714 49.1504 20.0039C49.2708 20.3002 49.456 20.5595 49.6574 20.8326C49.9653 21.254 50.1065 21.7239 50.2847 22.2077C50.5139 22.8374 50.919 23.9486 51.7384 23.9903C52.5231 24.0319 52.9375 23.2564 53.2338 22.6453C53.7129 21.6637 54.2592 20.7956 54.8333 19.8788L54.8356 19.8904L55.5903 20.0988L57.2523 20.5595L60.8472 21.5526C62.2384 21.9369 63.3125 23.018 63.6991 24.3838Z" fill="#1DACAC"/>
<path d="M55.5903 20.0988L54.8357 19.8904L54.8336 19.8793C54.2593 20.7954 53.713 21.6635 53.2348 22.6462C52.9376 23.2571 52.5239 24.0322 51.7387 23.991C50.9195 23.9482 50.5144 22.8386 50.2839 22.208C50.1068 21.7239 49.9651 21.2537 49.6568 20.8333C49.4334 20.5289 49.2299 20.2426 49.1114 19.905L48.4095 20.0988L48.4466 20.1405C48.4234 21.0294 48.6781 23.3352 51.5415 25.8585C51.6711 25.9742 51.8355 26.0321 51.9998 26.0321C52.1642 26.0321 52.3285 25.9742 52.4582 25.8585C55.3216 23.3352 55.5762 21.0294 55.5531 20.1405L55.5903 20.0988Z" fill="#007289"/>
<path d="M52 25.3376C48.6712 22.4045 49.1643 19.8904 49.1643 19.8904L49.6412 17.2166L49.9074 15.7234L52 16.543L54.0925 15.7234L54.7199 19.2353L54.8356 19.8904C54.8356 19.8904 55.3287 22.4045 52 25.3376Z" fill="#F69779"/>
<path d="M54.7199 19.2353C53.9861 19.4853 53.4236 19.4853 53.4236 19.4853C53.4236 19.4853 50.9699 19.4853 49.6412 17.2166L49.9074 15.7234L52 16.543L54.0926 15.7234L54.7199 19.2353Z" fill="#F37A67"/>
<path d="M56.5715 6.63778C56.0364 5.634 55.0125 5.07863 54.0695 4.77166C52.7278 4.33482 51.2722 4.33482 49.9308 4.77166C48.9877 5.07863 47.9639 5.63423 47.4287 6.63778C46.4611 8.4907 46.6259 11.3733 46.6259 11.3733L47.6347 12.444L52 11.8898L56.3655 12.4438L57.3743 11.3731C57.3743 11.3731 57.5391 8.49093 56.5715 6.63778Z" fill="#051733"/>
<path d="M57.6546 11.1988C57.6263 11.0141 57.558 10.8265 57.4171 10.7038C57.29 10.5932 57.115 10.5476 56.9467 10.5548C56.7784 10.5619 56.6154 10.6182 56.4638 10.6916C56.4638 10.6916 56.449 6.42388 54.9363 6.37411C53.9444 6.32457 53.5029 6.62205 52.0002 6.62205C50.4971 6.62205 50.0559 6.32434 49.064 6.37411C47.5513 6.42365 47.5365 10.6916 47.5365 10.6916C47.3849 10.6182 47.2219 10.5619 47.0536 10.5548C46.8853 10.5476 46.7103 10.5932 46.5833 10.7038C46.4423 10.8263 46.3738 11.0141 46.3458 11.1988C46.2893 11.5697 46.3779 11.9604 46.589 12.2704C46.7999 12.5804 47.1115 12.8135 47.477 12.8971C48.1215 17.4111 51.9999 17.4111 51.9999 17.4111C51.9999 17.4111 55.8784 17.4111 56.5233 12.8973C56.8888 12.8137 57.2004 12.5806 57.4113 12.2706C57.6221 11.9604 57.7108 11.5694 57.6546 11.1988Z" fill="#F69779"/>
<path d="M48.775 7.68486C48.775 7.68486 48.7412 10.0487 47.5363 10.6916L46.6284 10.2705C46.6284 10.2705 46.1895 6.2998 47.5977 5.95347C47.5977 5.95347 48.2902 3.27549 54.0611 3.80655C56.6002 4.17602 57.2696 6.80771 57.2696 7.50035C57.2696 8.193 56.4636 10.6918 56.4636 10.6918C56.4636 10.6918 57.362 8.23907 56.4618 7.10773C55.5615 5.97662 54.3611 5.51478 53.2761 5.60715C52.1912 5.69952 49.6981 5.79189 49.6981 5.79189L48.775 7.68486Z" fill="#051733"/>
<path d="M48.4098 7.40797L48.7751 7.68507L50.0447 8.19298C50.0447 8.19298 49.8832 7.31584 49.3984 6.94636C49.3984 6.94636 52.6302 7.10794 54.1538 8.19298C54.1538 8.19298 54.1998 7.50566 53.7383 7.21444C53.7383 7.21444 55.1003 7.54664 55.4695 8.33142C55.4695 8.33142 56.0292 7.77837 55.7003 6.57689L54.5461 5.4687L50.8297 5.33026L49.139 5.63029L48.5214 6.36877L48.4098 7.40797Z" fill="#051733"/>
<path d="M45.838 28.6805C45.4329 28.4976 45.0371 28.2985 44.6528 28.0809L45.5556 25.5876L45.838 28.6805Z" fill="#007289"/>
<path d="M59.3472 28.0809C58.9629 28.2985 58.5671 28.4976 58.162 28.6805L58.4444 25.5876L59.3472 28.0809Z" fill="#007289"/>
<path d="M51.7826 10.865V13.5135H52.2314C53.0006 13.5133 51.9254 11.1691 51.7826 10.865Z" fill="#F37A67"/>
<path d="M55.0458 9.83292C54.4254 9.52641 53.7361 9.48104 53.0893 9.738C52.8155 9.84704 52.9347 10.295 53.2125 10.1846C53.7423 9.9739 54.2972 9.9783 54.8122 10.2327C55.0789 10.3644 55.3134 9.96533 55.0458 9.83292Z" fill="#051733"/>
<path d="M54.0507 11.3016C54.2918 11.3016 54.4873 11.1061 54.4873 10.865C54.4873 10.6238 54.2918 10.4283 54.0507 10.4283C53.8096 10.4283 53.6141 10.6238 53.6141 10.865C53.6141 11.1061 53.8096 11.3016 54.0507 11.3016Z" fill="#051733"/>
<path d="M48.9542 9.83292C49.5745 9.52641 50.2641 9.48104 50.9107 9.738C51.1845 9.84704 51.0653 10.295 50.7875 10.1846C50.2576 9.9739 49.7028 9.9783 49.1877 10.2327C48.9211 10.3644 48.6866 9.96533 48.9542 9.83292Z" fill="#051733"/>
<path d="M49.9493 11.3016C50.1904 11.3016 50.3858 11.1061 50.3858 10.865C50.3858 10.6238 50.1904 10.4283 49.9493 10.4283C49.7082 10.4283 49.5127 10.6238 49.5127 10.865C49.5127 11.1061 49.7082 11.3016 49.9493 11.3016Z" fill="#051733"/>
<path d="M50.5773 14.5953C50.7312 15.1699 51.3088 15.5977 52 15.5977C52.6909 15.5977 53.2687 15.1699 53.4226 14.5953H50.5773Z" fill="white"/>
<path d="M48 15.0012C48 19.2445 46.2383 23.0759 43.4047 25.8052C42.4834 26.6919 41.4463 27.4651 40.3212 28.0948C39.9485 28.3031 39.5665 28.4976 39.1729 28.6758C37.2908 29.5254 35.2004 30 33.0012 30C30.8019 30 28.7115 29.5254 26.8294 28.6758C26.4358 28.4976 26.0539 28.3054 25.6811 28.0948C24.5561 27.4651 23.5189 26.6942 22.5976 25.8052C19.764 23.0782 18 19.2445 18 15.0012C18 6.7158 24.7158 0 33.0012 0C41.2842 0 48 6.7158 48 15.0012Z" fill="#BABABA"/>
<path d="M40.1251 17.3048C40.3674 16.9041 40.2371 16.3837 40.0345 15.9612C39.8322 15.5389 39.559 15.1296 39.5246 14.6625C39.4743 13.9793 39.9489 13.3293 39.8605 12.6498C39.7963 12.1574 39.4486 11.7509 39.2926 11.2794C39.0296 10.4837 39.331 9.56741 38.9967 8.79884C38.7375 8.20249 38.1344 7.7983 37.9168 7.18575C37.7594 6.7422 37.8258 6.24609 37.6865 5.79652C37.5073 5.218 36.9663 4.76913 36.3646 4.69991C36.0632 4.66518 35.7511 4.7175 35.4592 4.63463C35.0177 4.50938 34.7156 4.10565 34.3123 3.88665C33.9311 3.67969 33.4202 3.66974 33.0009 3.82831C32.5817 3.66974 32.0707 3.67969 31.6895 3.88665C31.2862 4.10565 30.9841 4.50938 30.5426 4.63463C30.2507 4.7175 29.9386 4.66518 29.6372 4.69991C29.0356 4.76913 28.4945 5.218 28.3154 5.79652C28.176 6.24609 28.2424 6.7422 28.085 7.18575C27.8674 7.79853 27.2646 8.20272 27.0051 8.79884C26.6708 9.56718 26.9722 10.4835 26.7092 11.2794C26.5534 11.7509 26.2055 12.1574 26.1413 12.6498C26.0529 13.3293 26.5275 13.9791 26.4772 14.6625C26.4428 15.1296 26.1698 15.5387 25.9673 15.9612C25.7647 16.3837 25.6346 16.9041 25.8767 17.3048C25.9717 17.4618 26.1159 17.5847 26.2087 17.743C26.5953 18.4037 25.9291 19.2432 26.1069 19.9877C26.2397 20.544 27.1542 20.9384 27.7172 20.8377C28.3448 20.7254 29.1034 20.4972 29.7409 20.4972H32.7215H33.2799H36.2604C36.898 20.4972 37.6566 20.7254 38.2842 20.8377C38.8472 20.9384 39.7618 20.544 39.8945 19.9877C40.0723 19.2432 39.406 18.4037 39.7926 17.743C39.8859 17.5847 40.0301 17.4618 40.1251 17.3048Z" fill="#051733"/>
<path d="M43.4047 25.8052C42.4833 26.6919 41.4462 27.4651 40.3211 28.0948C39.9484 28.3031 39.5664 28.4976 39.1729 28.6758C37.2908 29.5254 35.2004 30 33.0011 30C30.8019 30 28.7114 29.5254 26.8293 28.6758C26.4358 28.4976 26.0538 28.3054 25.6811 28.0948C24.556 27.4651 23.5189 26.6942 22.5975 25.8052C23.3592 24.6802 24.4518 23.8028 25.7413 23.3074L26.9821 22.8282L27.1233 22.7749C27.8155 22.5087 28.4429 22.1198 28.9777 21.6336C28.9915 21.6221 29.0054 21.6082 29.0193 21.5966V23.3189H35.9944V20.4113C36.0129 20.4391 36.0314 20.4692 36.05 20.497C36.0731 20.5317 36.0963 20.5641 36.1171 20.5988C36.3787 20.9762 36.6819 21.3234 37.0246 21.6336C37.5593 22.1198 38.1844 22.5087 38.8789 22.7749L39.0201 22.8282L40.2609 23.3074C41.5504 23.8028 42.6431 24.6802 43.4047 25.8052Z" fill="#4749D6"/>
<path d="M36.1195 20.5965C35.1796 21.6869 34.8347 23.099 34.256 24.4023H32.015C30.9988 23.4787 29.9778 22.4809 29.2949 21.3234C30.0496 20.5317 30.5844 19.5339 30.8136 18.4297L30.8344 18.3232L31.3553 15.8137H34.6472L35.1889 18.4297C35.307 18.9945 35.5037 19.5293 35.7723 20.0247C35.8764 20.2215 35.9922 20.4136 36.1195 20.5965Z" fill="#F69779"/>
<path d="M35.7722 20.0247C35.0152 20.2909 34.4249 20.2909 34.4249 20.2909C34.4249 20.2909 32.1956 20.2909 30.8344 18.3232L31.3552 15.8137H34.6471L35.1889 18.4297C35.3069 18.9945 35.5037 19.5293 35.7722 20.0247Z" fill="#F37A67"/>
<path d="M38.6561 11.2891C38.6281 11.1043 38.5596 10.9168 38.4186 10.7941C38.2915 10.6835 38.1165 10.6379 37.9482 10.645C37.7799 10.6522 37.6169 10.7085 37.4653 10.7819C37.4653 10.7819 37.4505 6.97717 35.9376 6.92739C34.9457 6.87785 34.5042 7.17533 33.0013 7.17533C31.4984 7.17533 31.0569 6.87762 30.065 6.92739C28.5521 6.97694 28.5373 10.7819 28.5373 10.7819C28.3857 10.7085 28.2227 10.6522 28.0544 10.645C27.8861 10.6379 27.7111 10.6835 27.584 10.7941C27.443 10.9166 27.3747 11.1043 27.3465 11.2891C27.29 11.6597 27.3789 12.0507 27.5898 12.3607C27.8007 12.6707 28.1123 12.9038 28.4778 12.9874C29.1225 17.5011 33.0015 17.5011 33.0015 17.5011C33.0015 17.5011 36.8803 17.5011 37.5253 12.9874C37.8908 12.9038 38.2024 12.6707 38.4133 12.3607C38.6237 12.0507 38.7124 11.6597 38.6561 11.2891Z" fill="#F69779"/>
<path d="M38.3858 24.3884C37.6519 25.6524 37.601 29.2407 33.0011 29.2407C28.4012 29.2407 28.3503 25.6524 27.6165 24.3884C26.8826 23.1245 26.4289 21.1012 27.3294 20.4946C27.9868 20.0501 28.2299 19.9599 28.5887 19.6265C28.7207 19.5038 28.8689 19.3487 29.0587 19.1311C29.7648 18.3208 30.8135 18.4297 30.8135 18.4297C30.1421 22.6823 33.0011 23.0735 33.0011 23.0735C33.0011 23.0735 35.8601 22.6823 35.1888 18.4297C35.1888 18.4297 36.2375 18.3208 36.9436 19.1311C37.1334 19.3487 37.2816 19.5038 37.4135 19.6265C37.7723 19.9599 38.0154 20.0501 38.6729 20.4946C39.5734 21.1012 39.1197 23.1245 38.3858 24.3884Z" fill="#3537A1"/>
<path d="M37.4135 19.6265C37.3811 20.4298 37.1519 21.3766 36.8556 22.0873C36.3301 23.3513 36.293 26.9396 33.0011 26.9396C29.7092 26.9396 29.6722 23.3513 29.1467 22.0873C28.8503 21.3766 28.6212 20.4298 28.5887 19.6265C28.7207 19.5038 28.8689 19.3487 29.0587 19.1311C29.7648 18.3208 30.8135 18.4297 30.8135 18.4297C30.1421 22.6823 33.0011 23.0735 33.0011 23.0735C33.0011 23.0735 35.8601 22.6823 35.1888 18.4297C35.1888 18.4297 36.2375 18.3208 36.9436 19.1311C37.1334 19.3487 37.2816 19.5038 37.4135 19.6265Z" fill="#4749D6"/>
<path d="M26.8294 28.6758C26.4358 28.4976 26.0539 28.3054 25.6812 28.0948L26.5562 25.6779L26.8294 28.6758Z" fill="#3537A1"/>
<path d="M40.3212 28.0948C39.9484 28.3031 39.5665 28.4976 39.1729 28.6758L39.4461 25.6779L40.3212 28.0948Z" fill="#3537A1"/>
<path d="M32.7838 10.7916V13.4401H33.2327C34.0022 13.4401 32.9266 11.096 32.7838 10.7916Z" fill="#F37A67"/>
<path d="M36.0473 9.75977C35.4268 9.45326 34.7372 9.40766 34.0906 9.66485C33.8165 9.77389 33.936 10.2218 34.2138 10.1114C34.7437 9.90075 35.2986 9.90515 35.8137 10.1596C36.0804 10.2913 36.3151 9.89195 36.0473 9.75977Z" fill="#051733"/>
<path d="M35.4888 10.5846C35.3478 10.3402 35.0522 10.355 35.0522 10.355C34.811 10.355 34.6156 10.5504 34.6156 10.7916C34.6156 11.0328 34.8112 11.2282 35.0522 11.2282C35.1055 11.2282 35.1557 11.2173 35.2029 11.1999L35.2032 11.2011C35.2059 11.2002 35.208 11.1986 35.2108 11.1974C35.2249 11.1918 35.2381 11.1849 35.2513 11.178C35.633 11.0124 35.6738 10.5886 35.6738 10.5886C35.5976 10.6527 35.4888 10.5846 35.4888 10.5846Z" fill="#051733"/>
<path d="M29.955 9.75977C30.5755 9.45326 31.2651 9.40766 31.9117 9.66485C32.1858 9.77389 32.0663 10.2218 31.7885 10.1114C31.2586 9.90075 30.7037 9.90515 30.1886 10.1596C29.9219 10.2913 29.6874 9.89195 29.955 9.75977Z" fill="#051733"/>
<path d="M30.5137 10.5846C30.6547 10.3402 30.9503 10.355 30.9503 10.355C31.1915 10.355 31.3869 10.5504 31.3869 10.7916C31.3869 11.0328 31.1915 11.2282 30.9503 11.2282C30.8971 11.2282 30.8468 11.2173 30.7996 11.1999L30.7994 11.2011C30.7966 11.2002 30.7945 11.1986 30.7917 11.1974C30.7776 11.1918 30.7644 11.1849 30.751 11.178C30.3692 11.0124 30.3285 10.5886 30.3285 10.5886C30.4047 10.6527 30.5137 10.5846 30.5137 10.5846Z" fill="#051733"/>
<path d="M31.5784 14.8493C31.7323 15.4239 32.3099 15.8517 33.0012 15.8517C33.6924 15.8517 34.27 15.4239 34.424 14.8493H31.5784Z" fill="white"/>
<path d="M30 15.0012C30 19.3047 28.1874 23.1847 25.2844 25.9187C24.3468 26.8007 23.2981 27.5646 22.1568 28.185C21.7702 28.3957 21.3743 28.5879 20.9669 28.7638C19.138 29.5602 17.1194 30 14.9988 30C12.7209 30 10.5587 29.4907 8.62566 28.5809C8.24601 28.405 7.87792 28.2105 7.51678 28.0045C6.40559 27.3632 5.38699 26.5854 4.47951 25.6895C1.71309 22.9694 0 19.1867 0 15.0012C0 6.7158 6.71579 0 14.9988 0C23.2842 0 30 6.7158 30 15.0012Z" fill="#BABABA"/>
<path d="M25.2843 25.9187C24.3468 26.8007 23.2981 27.5646 22.1568 28.185C21.7702 28.3957 21.3743 28.5878 20.9669 28.7638C19.138 29.5601 17.1194 30 14.9988 30C12.7209 30 10.5587 29.4907 8.62565 28.5809C8.24599 28.405 7.8779 28.2105 7.51676 28.0045C6.40557 27.3632 5.38697 26.5854 4.47949 25.6895C5.23881 24.6199 6.30139 23.7865 7.54454 23.3073L8.9266 22.7749C8.95669 22.7633 8.9891 22.7494 9.01919 22.7379C9.08864 22.7101 9.15578 22.6823 9.2206 22.6522C9.36644 22.5874 9.50997 22.5156 9.64887 22.4369C9.6998 22.4091 9.75073 22.3813 9.79935 22.3513C9.85259 22.3212 9.90352 22.2887 9.95445 22.2587C10.0008 22.2286 10.0471 22.1985 10.0957 22.1661C10.1443 22.1336 10.1906 22.1012 10.2369 22.0688V22.599H19.1357V21.8929C19.1866 21.9322 19.2376 21.9716 19.2908 22.0086C19.3232 22.0341 19.358 22.0596 19.395 22.085C19.4066 22.0943 19.4181 22.1012 19.4297 22.1082C19.4297 22.1105 19.432 22.1105 19.4344 22.1105C19.4668 22.1336 19.4992 22.1568 19.5339 22.1799C19.5709 22.2054 19.6103 22.2309 19.6496 22.254C19.6728 22.2702 19.6983 22.2841 19.7214 22.298C19.8001 22.3466 19.8788 22.3929 19.9599 22.4369C20.0988 22.5156 20.2423 22.5874 20.3881 22.6522C20.4529 22.6823 20.5201 22.7101 20.5895 22.7379C20.6196 22.7494 20.652 22.7633 20.6821 22.7749L22.0642 23.3073C23.3953 23.819 24.5204 24.738 25.2843 25.9187Z" fill="#FFA33B"/>
<path d="M20.5895 22.7379C19.0084 27.185 15.1724 28.4165 15.0081 28.4675C14.9432 28.4883 14.8738 28.4976 14.8043 28.4976C14.7349 28.4976 14.6654 28.4883 14.6006 28.4675C14.4362 28.4165 10.6003 27.185 9.01917 22.7379C9.08861 22.7101 9.15575 22.6823 9.22057 22.6522C9.36641 22.5874 9.50994 22.5156 9.64884 22.4369C9.85256 22.3258 10.0493 22.2008 10.2369 22.0688V22.599H19.1357V21.8929C19.3927 22.0943 19.6681 22.2772 19.9598 22.4369C20.0987 22.5156 20.2423 22.5874 20.3881 22.6522C20.4529 22.6823 20.5201 22.7101 20.5895 22.7379Z" fill="#3537A1"/>
<path d="M19.9598 22.4369C18.4945 26.6641 14.8044 27.8031 14.8044 27.8031C14.8044 27.8031 11.1143 26.6641 9.64886 22.4369C11.1652 21.6081 12.2579 20.1497 12.6167 18.4297L12.6491 18.2722L13.1584 15.8137H16.4503L16.992 18.4297C17.1309 19.0894 17.3763 19.7122 17.712 20.2724C18.2514 21.1752 19.0246 21.9253 19.9598 22.4369Z" fill="#86201B"/>
<path d="M17.7121 20.2724C16.9805 20.5224 16.418 20.5224 16.418 20.5224C16.418 20.5224 13.9803 20.5224 12.6492 18.2722L13.1585 15.8137H16.4504L16.9921 18.4297C17.131 19.0894 17.3764 19.7122 17.7121 20.2724Z" fill="#611714"/>
<path d="M19.3763 6.72807C18.841 5.72428 17.8171 5.16892 16.874 4.86172C15.5322 4.42488 14.0765 4.42488 12.735 4.86172C11.7919 5.16869 10.768 5.72428 10.2327 6.72807C9.26507 8.58099 9.42989 11.4636 9.42989 11.4636L10.4388 12.5343L14.8044 11.9801L19.1702 12.5341L20.1791 11.4634C20.1791 11.4634 20.3439 8.58122 19.3763 6.72807Z" fill="#051733"/>
<path d="M22.5467 6.28172C22.7178 5.98702 22.405 5.49346 22.0675 5.44508C22.0612 5.06334 21.4943 4.67002 21.1218 4.75382C20.9436 4.3869 20.4051 4.13387 20.0069 4.22323C19.8761 3.84357 19.205 3.61508 18.8432 3.7894C18.7172 3.46669 18.1873 3.25556 17.85 3.33427C17.672 3.06087 17.1342 2.93493 16.831 3.05555C16.6076 2.79094 16.0133 2.74372 15.7293 2.94188C15.5492 2.69857 15.107 2.65436 14.8042 2.65436C14.5014 2.65436 14.0592 2.69857 13.8791 2.94188C13.5951 2.74372 13.0008 2.79094 12.7774 3.05555C12.4741 2.93517 11.9364 3.0611 11.7584 3.33427C11.4211 3.25556 10.8912 3.46669 10.7652 3.7894C10.4034 3.61508 9.73204 3.84334 9.60148 4.22323C9.20353 4.13364 8.66483 4.3869 8.48657 4.75382C8.11409 4.67002 7.54715 5.06357 7.5409 5.44508C7.20337 5.49323 6.89062 5.98702 7.06169 6.28172C6.89895 6.5829 7.05961 7.1466 7.3645 7.30217C7.26426 7.60821 7.41589 8.02676 7.7173 8.1395C7.60965 8.52009 7.97913 9.05693 8.37407 9.07661C8.49259 9.36761 8.87457 9.47294 9.17853 9.39353C9.37854 9.72921 9.79385 9.88987 10.1643 9.76555C10.4427 10.239 11.0226 10.3531 11.5366 10.1589L14.8044 7.7911L18.0716 10.1591C18.5855 10.3533 19.1654 10.239 19.4439 9.76579C19.8143 9.8901 20.2296 9.72921 20.4296 9.39377C20.7336 9.47317 21.1156 9.36784 21.2341 9.07684C21.629 9.05693 21.9985 8.52032 21.8908 8.13973C22.1925 8.02699 22.3439 7.60844 22.2437 7.3024C22.5488 7.1466 22.7097 6.5829 22.5467 6.28172Z" fill="#051733"/>
<path d="M20.4595 11.2891C20.4315 11.1043 20.3629 10.9168 20.222 10.7941C20.0949 10.6835 19.9199 10.6379 19.7516 10.645C19.5833 10.6522 19.4203 10.7085 19.2687 10.7818C19.2687 10.7818 19.2538 6.51415 17.741 6.46438C16.749 6.41484 16.3075 6.71232 14.8046 6.71232C13.3015 6.71232 12.8603 6.41461 11.8683 6.46438C10.3555 6.51392 10.3406 10.7818 10.3406 10.7818C10.189 10.7085 10.026 10.6522 9.85774 10.645C9.68944 10.6379 9.51443 10.6835 9.38733 10.7941C9.24635 10.9166 9.17806 11.1043 9.14981 11.2891C9.09333 11.6597 9.18222 12.0507 9.39312 12.3607C9.60402 12.6706 9.91561 12.9038 10.2812 12.9873C10.9256 17.5013 14.8044 17.5013 14.8044 17.5013C14.8044 17.5013 18.6832 17.5013 19.3281 12.9876C19.6937 12.904 20.0053 12.6709 20.2162 12.3609C20.4271 12.0507 20.5157 11.6597 20.4595 11.2891Z" fill="#86201B"/>
<path d="M8.62567 28.5809C8.24601 28.405 7.87792 28.2105 7.51678 28.0045L8.35944 25.6779L8.62567 28.5809Z" fill="#FF863B"/>
<path d="M22.1568 28.1851C21.7702 28.3957 21.3744 28.5879 20.9669 28.7638L21.2493 25.6779L22.1568 28.1851Z" fill="#FF863B"/>
<path d="M14.587 10.3286V12.9771H15.0359C15.8051 12.9771 14.7298 10.633 14.587 10.3286Z" fill="#611714"/>
<path d="M17.8504 9.29679C17.23 8.99028 16.5404 8.94468 15.8938 9.20187C15.6197 9.31091 15.7392 9.75886 16.017 9.64844C16.5469 9.43777 17.1018 9.44217 17.6168 9.69659C17.8835 9.82831 18.1183 9.42897 17.8504 9.29679Z" fill="#051733"/>
<path d="M17.2921 10.1216C17.1511 9.87714 16.8555 9.89196 16.8555 9.89196C16.6143 9.89196 16.4189 10.0873 16.4189 10.3286C16.4189 10.5698 16.6143 10.7652 16.8555 10.7652C16.9087 10.7652 16.959 10.7543 17.0062 10.7369L17.0064 10.7381C17.0092 10.7372 17.0113 10.7355 17.0141 10.7344C17.0282 10.7288 17.0414 10.7219 17.0546 10.7149C17.4363 10.5494 17.4771 10.1255 17.4771 10.1255C17.4009 10.1897 17.2921 10.1216 17.2921 10.1216Z" fill="#051733"/>
<path d="M11.7583 9.29679C12.3787 8.99028 13.0684 8.94468 13.715 9.20187C13.9888 9.31091 13.8696 9.75886 13.5918 9.64844C13.0619 9.43777 12.507 9.44217 11.9919 9.69659C11.7252 9.82831 11.4907 9.42897 11.7583 9.29679Z" fill="#051733"/>
<path d="M12.3169 10.1216C12.4579 9.87714 12.7535 9.89196 12.7535 9.89196C12.9948 9.89196 13.1901 10.0873 13.1901 10.3286C13.1901 10.5698 12.9948 10.7652 12.7535 10.7652C12.7003 10.7652 12.6501 10.7543 12.6028 10.7369L12.6026 10.7381C12.5998 10.7372 12.5977 10.7355 12.595 10.7344C12.5808 10.7288 12.5676 10.7219 12.5544 10.7149C12.1727 10.5494 12.132 10.1255 12.132 10.1255C12.2079 10.1897 12.3169 10.1216 12.3169 10.1216Z" fill="#051733"/>
<path d="M13.3818 14.3863C13.5357 14.9609 14.1133 15.3887 14.8046 15.3887C15.4956 15.3887 16.0734 14.9609 16.2271 14.3863H13.3818Z" fill="white"/>
</svg>
