<svg width="120" height="120" viewBox="0 0 120 120" fill="none" xmlns="http://www.w3.org/2000/svg">
<path d="M120 60C120 74.4907 114.87 87.7778 106.315 98.1389C101.472 104.028 95.5185 108.972 88.7778 112.667C87.5 113.37 86.1852 114.028 84.8426 114.639C77.2778 118.083 68.8611 120 60 120C51.1389 120 42.7222 118.083 35.1574 114.639C33.8148 114.028 32.5 113.37 31.2222 112.667C24.4815 108.972 18.5278 104.028 13.6852 98.1389C5.12963 87.7778 0 74.4907 0 60C0 26.8611 26.8611 0 60 0C93.1389 0 120 26.8611 120 60Z" fill="#D7EAF1"/>
<path d="M106.315 98.1389C101.472 104.028 95.5186 108.972 88.7779 112.667C87.5001 113.37 86.1853 114.028 84.8427 114.639C77.2779 118.083 68.8612 120 60.0001 120C51.139 120 42.7223 118.083 35.1575 114.639C33.8149 114.028 32.5001 113.37 31.2223 112.667C24.4816 108.972 18.5279 104.028 13.6853 98.1389C15.5279 93.3518 19.5464 89.6389 24.6112 88.2407L38.9909 84.2685L44.0372 82.8704L48.6575 81.5926L49.2038 78.5185H70.7964L70.9075 79.1481L71.3427 81.5926L75.9631 82.8704L81.0094 84.2685L95.389 88.2407C100.454 89.6389 104.472 93.3518 106.315 98.1389Z" fill="#0C415B"/>
<path d="M70.7945 78.5185H49.2056L48.6575 81.5926L44.0371 82.8704L44.176 83.1111C45.213 89.2963 50.889 93.0833 59.3149 93.0833C59.6019 93.0833 59.8334 93.0833 60.0001 93.0741C60.1667 93.0833 60.3982 93.0833 60.6853 93.0833C69.1019 93.0833 74.7871 89.2963 75.8241 83.1111L75.963 82.8704L71.3427 81.5926L70.7945 78.5185Z" fill="#1D627D"/>
<path d="M71.3427 81.5926C70.8334 89.1203 60.0001 88.4351 60.0001 88.4351C60.0001 88.4351 49.1667 89.1203 48.6575 81.5926L50.6297 70.5555L51.6297 64.9259L60.0001 68.2037L68.3704 64.9259L70.9075 79.1481L71.3427 81.5926Z" fill="#F69779"/>
<path d="M70.9074 79.1481C68.1019 80.0555 65.9907 80.0555 65.9907 80.0555C65.9907 80.0555 55.8796 80.0555 50.6296 70.5555L51.6296 64.9259L60 68.2037L68.3704 64.9259L70.9074 79.1481Z" fill="#F37A67"/>
<path d="M79.9446 37.5463C79.9446 37.5463 86.6205 50.9723 85.0001 55.1389C83.3798 59.3056 71.5742 61.9389 71.3427 61.5482C71.1112 61.1574 74.7159 37.5463 74.7159 37.5463H79.9446Z" fill="#051733"/>
<path d="M81.6484 51.1111C80.8058 52.3518 79.5558 53.287 78.0928 53.6203C78.0743 53.7222 78.065 53.824 78.0465 53.9166C75.3428 71.6759 60.0002 71.6759 60.0002 71.6759C60.0002 71.6759 44.6576 71.6759 41.9539 53.9166C41.9354 53.824 41.9261 53.7222 41.9076 53.6203C40.4446 53.287 39.1946 52.3518 38.352 51.1111C37.5095 49.8703 37.1576 48.3148 37.3798 46.824C37.4909 46.0925 37.7687 45.3425 38.3335 44.8518C38.8428 44.4074 39.5372 44.2222 40.2132 44.25C40.8613 44.2777 41.4817 44.4907 42.065 44.7685C42.0928 44.7777 42.1206 44.7962 42.1483 44.8055C42.1483 44.8055 42.1483 44.75 42.1483 44.6481C42.1761 42.9074 42.5465 27.7222 48.2595 27.537C52.2224 27.3333 53.9909 28.5277 60.0002 28.5277C66.0095 28.5277 67.778 27.3333 71.7409 27.537C77.4539 27.7222 77.8243 42.9166 77.852 44.6481C77.852 44.75 77.852 44.8055 77.852 44.8055C77.8798 44.7962 77.9076 44.7777 77.9354 44.7685C78.5187 44.4907 79.1391 44.2777 79.7872 44.25C80.4632 44.2222 81.1576 44.4074 81.6669 44.8518C82.2317 45.3425 82.5095 46.0925 82.6206 46.824C82.8428 48.3148 82.4909 49.8703 81.6484 51.1111Z" fill="#F69779"/>
<path d="M79.9443 41.5417L77.611 49.5954C77.611 49.5954 74.8878 48.7093 74.6341 44.4686C74.5814 43.5899 74.4175 42.7204 74.0767 41.9084L73.573 40.7075C73.1582 39.7186 72.9443 38.6565 72.9443 37.5843V32.4686L78.9064 37.3945L79.9443 41.5417Z" fill="#E44424"/>
<path d="M40.0557 41.5417L42.389 49.5954C42.389 49.5954 45.1121 48.7093 45.3659 44.4686C45.4186 43.5899 45.5825 42.7204 45.9232 41.9084L46.427 40.7075C46.8418 39.7186 47.0557 38.6565 47.0557 37.5843V32.4686L41.0936 37.3945L40.0557 41.5417Z" fill="#E44424"/>
<path d="M59.9999 21.4194C61.5341 21.4194 62.7777 20.1758 62.7777 18.6417C62.7777 17.1075 61.5341 15.8639 59.9999 15.8639C58.4658 15.8639 57.2222 17.1075 57.2222 18.6417C57.2222 20.1758 58.4658 21.4194 59.9999 21.4194Z" fill="#3537A1"/>
<path d="M81.389 44.6481H79.0464C78.3797 42.6574 77.4538 40.4259 76.4445 38.8148C76.2964 38.5741 76.139 38.3518 75.9908 38.1389C72.8242 36.5093 68.4723 35.6018 65.1112 35.1111C61.7223 34.6204 58.2779 34.6204 54.889 35.1111C51.5279 35.6018 47.176 36.5093 44.0093 38.1389C42.8242 39.7685 41.7223 42.3611 40.9538 44.6481H38.6112C38.6112 44.6481 37.2686 31.0185 41.8427 25.5556C41.8427 25.5556 47.8149 19.0741 60.0001 19.0833C72.1853 19.0741 78.1575 25.5556 78.1575 25.5556C82.7316 31.0185 81.389 44.6481 81.389 44.6481Z" fill="#3537A1"/>
<path d="M78.1576 25.5556L76.4446 38.8148C76.2965 38.5741 76.1391 38.3518 75.9909 38.1389C72.8242 36.5093 68.4724 35.6018 65.1113 35.1111C61.7224 34.6204 58.278 34.6204 54.8891 35.1111C51.528 35.6018 47.1761 36.5093 44.0094 38.1389L41.8428 25.5556C41.8428 25.5556 47.815 19.0741 60.0002 19.0833C72.1854 19.0741 78.1576 25.5556 78.1576 25.5556Z" fill="#4749D6"/>
<path d="M62.701 32.2223H57.3001C56.2769 32.2223 55.4482 31.3936 55.4482 30.3704C55.4482 29.3473 56.2769 28.5186 57.3001 28.5186H62.701C63.7242 28.5186 64.5529 29.3473 64.5529 30.3704C64.5529 31.3936 63.7233 32.2223 62.701 32.2223Z" fill="#E44424"/>
<path d="M35.1574 114.639C33.8148 114.028 32.4999 113.37 31.2222 112.667L34.2222 104.38L35.1574 114.639Z" fill="#051733"/>
<path d="M88.7775 112.667C87.4997 113.37 86.1849 114.028 84.8423 114.639L85.7775 104.38L88.7775 112.667Z" fill="#051733"/>
<path d="M59.1306 46.7639V57.3574H60.926C64.0028 57.3564 59.7019 47.9805 59.1306 46.7639Z" fill="#F37A67"/>
<path d="M72.1834 42.6361C69.7019 41.4102 66.9445 41.2287 64.3574 42.2565C63.2621 42.6926 63.7389 44.4843 64.8501 44.0426C66.9695 43.2 69.1889 43.2176 71.2491 44.2352C72.3158 44.7621 73.2537 43.1648 72.1834 42.6361Z" fill="#E44424"/>
<path d="M68.2031 48.5102C69.1676 48.5102 69.9494 47.7284 69.9494 46.7639C69.9494 45.7995 69.1676 45.0176 68.2031 45.0176C67.2386 45.0176 66.4568 45.7995 66.4568 46.7639C66.4568 47.7284 67.2386 48.5102 68.2031 48.5102Z" fill="#051733"/>
<path d="M47.8167 42.6361C50.2982 41.4102 53.0565 41.2287 55.6426 42.2565C56.738 42.6926 56.2611 44.4843 55.15 44.0426C53.0306 43.2 50.8111 43.2176 48.751 44.2352C47.6843 44.7621 46.7463 43.1648 47.8167 42.6361Z" fill="#E44424"/>
<path d="M51.7973 48.5102C52.7618 48.5102 53.5436 47.7284 53.5436 46.7639C53.5436 45.7995 52.7618 45.0176 51.7973 45.0176C50.8329 45.0176 50.051 45.7995 50.051 46.7639C50.051 47.7284 50.8329 48.5102 51.7973 48.5102Z" fill="#051733"/>
<path d="M54.3093 61.6843C54.9251 63.9824 57.2352 65.6935 60.0001 65.6935C62.764 65.6935 65.0751 63.9824 65.6908 61.6843H54.3093Z" fill="white"/>
</svg>
