<svg width="166" height="56" viewBox="0 0 166 56" fill="none" xmlns="http://www.w3.org/2000/svg">
<rect x="1" y="1" width="164" height="54" rx="4" stroke="#0A66C2" stroke-width="2"/>
<g filter="url(#filter0_ii_29_52)">
<path d="M29.9632 29.4998L17.6288 41.8823C17.5502 41.6838 17.5 41.4282 17.5 41.1079V17.8917C17.5 17.5714 17.5503 17.3155 17.6292 17.1166L29.9632 29.4998Z" fill="white" stroke="#0A66C2"/>
<path d="M39.8002 30.5823L34.919 33.3665L31.069 29.4996L34.9189 25.6348L39.8005 28.4191C40.4395 28.7837 40.6438 29.194 40.6438 29.5003C40.6438 29.8065 40.4394 30.2171 39.8005 30.5822C39.8005 30.5822 39.8005 30.5822 39.8005 30.5822C39.8004 30.5822 39.8003 30.5823 39.8002 30.5823ZM34.6841 25.5008C34.6839 25.5007 34.6837 25.5006 34.6835 25.5005L34.8592 25.1935L34.9318 25.0665L34.8593 25.1937L34.6841 25.5008Z" fill="white" stroke="#0A66C2"/>
<g filter="url(#filter1_i_29_52)">
<path d="M34.9321 33.9337L30.5152 29.4996L17.4841 42.5825C17.9651 43.0948 18.7609 43.1578 19.657 42.6476L34.9321 33.9337Z" fill="white"/>
</g>
<path d="M30.5152 30.2081L18.2909 42.481C18.5715 42.5371 18.9434 42.4784 19.4093 42.2133L30.5152 30.2081ZM30.5152 30.2081L34.1164 33.8234L19.4096 42.2131L30.5152 30.2081Z" stroke="#0A66C2"/>
<path d="M19.4093 16.7871L19.4093 16.7871L34.1165 25.1761L30.5161 28.7923L18.2907 16.5191C18.5714 16.4627 18.9435 16.5214 19.4093 16.7871Z" fill="white" stroke="#0A66C2"/>
</g>
<path d="M63.135 25.12C61.605 25.12 60.315 24.6 59.265 23.56C58.215 22.51 57.69 21.215 57.69 19.675C57.69 18.135 58.215 16.845 59.265 15.805C60.315 14.755 61.605 14.23 63.135 14.23C63.945 14.23 64.71 14.39 65.43 14.71C66.15 15.03 66.725 15.445 67.155 15.955L66.18 16.825C65.39 15.965 64.375 15.535 63.135 15.535C61.975 15.535 61.01 15.935 60.24 16.735C59.47 17.525 59.085 18.505 59.085 19.675C59.085 20.845 59.47 21.83 60.24 22.63C61.01 23.42 61.975 23.815 63.135 23.815C64.265 23.815 65.17 23.55 65.85 23.02V20.215H62.58L63.165 18.895H67.215V23.65C66.875 24.05 66.33 24.395 65.58 24.685C64.83 24.975 64.015 25.12 63.135 25.12ZM72.6028 25.12C71.5028 25.12 70.5828 24.75 69.8428 24.01C69.1128 23.26 68.7478 22.34 68.7478 21.25C68.7478 20.16 69.1128 19.245 69.8428 18.505C70.5728 17.755 71.4628 17.38 72.5128 17.38C73.6228 17.38 74.5078 17.77 75.1678 18.55C75.8378 19.32 76.1728 20.325 76.1728 21.565H70.0828C70.1428 22.265 70.4128 22.83 70.8928 23.26C71.3828 23.69 71.9528 23.905 72.6028 23.905C73.4628 23.905 74.1928 23.605 74.7928 23.005L75.6178 23.905C74.8478 24.715 73.8428 25.12 72.6028 25.12ZM72.4378 18.565C71.9278 18.565 71.4528 18.725 71.0128 19.045C70.5728 19.355 70.2878 19.82 70.1578 20.44H74.7178C74.6278 19.84 74.3728 19.375 73.9528 19.045C73.5328 18.715 73.0278 18.555 72.4378 18.565ZM81.551 25H80.411C79.681 25 79.121 24.815 78.731 24.445C78.341 24.075 78.146 23.535 78.146 22.825V18.67H76.946L76.661 17.5H78.146V15.895L79.436 15.25V17.5H81.701L81.416 18.67H79.436V22.63C79.436 23.03 79.521 23.33 79.691 23.53C79.861 23.73 80.146 23.83 80.546 23.83H81.551V25ZM86.8799 25V17.5H88.1699V25H86.8799ZM88.1699 15.865H86.8799C86.6899 15.705 86.5949 15.475 86.5949 15.175C86.5949 14.915 86.6849 14.695 86.8649 14.515C87.0449 14.325 87.2649 14.23 87.5249 14.23C87.7849 14.23 88.0049 14.325 88.1849 14.515C88.3649 14.695 88.4549 14.915 88.4549 15.175C88.4549 15.475 88.3599 15.705 88.1699 15.865ZM94.3098 25H93.1698C92.4398 25 91.8798 24.815 91.4898 24.445C91.0998 24.075 90.9048 23.535 90.9048 22.825V18.67H89.7048L89.4198 17.5H90.9048V15.895L92.1948 15.25V17.5H94.4598L94.1748 18.67H92.1948V22.63C92.1948 23.03 92.2798 23.33 92.4498 23.53C92.6198 23.73 92.9048 23.83 93.3048 23.83H94.3098V25ZM103.029 25.12C101.909 25.12 100.979 24.75 100.239 24.01C99.4987 23.26 99.1287 22.34 99.1287 21.25C99.1287 20.16 99.4987 19.245 100.239 18.505C100.979 17.755 101.909 17.38 103.029 17.38C104.139 17.38 105.064 17.755 105.804 18.505C106.544 19.245 106.914 20.16 106.914 21.25C106.914 22.34 106.544 23.26 105.804 24.01C105.064 24.75 104.139 25.12 103.029 25.12ZM101.184 23.155C101.664 23.655 102.279 23.905 103.029 23.905C103.779 23.905 104.389 23.655 104.859 23.155C105.339 22.645 105.579 22.01 105.579 21.25C105.579 20.49 105.339 19.86 104.859 19.36C104.389 18.85 103.779 18.595 103.029 18.595C102.279 18.595 101.664 18.85 101.184 19.36C100.704 19.86 100.464 20.49 100.464 21.25C100.464 22.01 100.704 22.645 101.184 23.155ZM108.662 25V17.5H109.952V18.355C110.482 17.705 111.257 17.38 112.277 17.38C113.127 17.38 113.822 17.66 114.362 18.22C114.902 18.77 115.172 19.505 115.172 20.425V25H113.882V20.5C113.882 19.94 113.712 19.485 113.372 19.135C113.032 18.775 112.572 18.595 111.992 18.595C110.932 18.595 110.252 19.115 109.952 20.155V25H108.662Z" fill="#BABABA"/>
<path d="M63.03 42.12C61.52 42.12 60.235 41.59 59.175 40.53C58.115 39.47 57.585 38.185 57.585 36.675C57.585 35.165 58.115 33.88 59.175 32.82C60.235 31.76 61.52 31.23 63.03 31.23C64.78 31.23 66.195 31.88 67.275 33.18L65.64 34.53C65 33.73 64.13 33.33 63.03 33.33C62.11 33.33 61.335 33.655 60.705 34.305C60.085 34.955 59.775 35.745 59.775 36.675C59.775 37.605 60.085 38.395 60.705 39.045C61.335 39.695 62.11 40.02 63.03 40.02C63.96 40.02 64.69 39.83 65.22 39.45V37.68H62.505L63.435 35.625H67.35V40.44C66.35 41.56 64.91 42.12 63.03 42.12ZM72.5721 42.12C71.4821 42.12 70.5571 41.745 69.7971 40.995C69.0471 40.235 68.6721 39.32 68.6721 38.25C68.6721 37.18 69.0471 36.27 69.7971 35.52C70.5571 34.76 71.4821 34.38 72.5721 34.38C73.6521 34.38 74.5721 34.76 75.3321 35.52C76.0921 36.28 76.4721 37.19 76.4721 38.25C76.4721 39.31 76.0921 40.22 75.3321 40.98C74.5721 41.74 73.6521 42.12 72.5721 42.12ZM72.5721 40.2C73.0921 40.2 73.5221 40.015 73.8621 39.645C74.2121 39.275 74.3871 38.81 74.3871 38.25C74.3871 37.69 74.2121 37.225 73.8621 36.855C73.5221 36.485 73.0921 36.3 72.5721 36.3C72.0321 36.3 71.5921 36.485 71.2521 36.855C70.9121 37.215 70.7421 37.68 70.7421 38.25C70.7421 38.82 70.9121 39.29 71.2521 39.66C71.5921 40.02 72.0321 40.2 72.5721 40.2ZM81.3905 42.12C80.3005 42.12 79.3755 41.745 78.6155 40.995C77.8655 40.235 77.4905 39.32 77.4905 38.25C77.4905 37.18 77.8655 36.27 78.6155 35.52C79.3755 34.76 80.3005 34.38 81.3905 34.38C82.4705 34.38 83.3905 34.76 84.1505 35.52C84.9105 36.28 85.2905 37.19 85.2905 38.25C85.2905 39.31 84.9105 40.22 84.1505 40.98C83.3905 41.74 82.4705 42.12 81.3905 42.12ZM81.3905 40.2C81.9105 40.2 82.3405 40.015 82.6805 39.645C83.0305 39.275 83.2055 38.81 83.2055 38.25C83.2055 37.69 83.0305 37.225 82.6805 36.855C82.3405 36.485 81.9105 36.3 81.3905 36.3C80.8505 36.3 80.4105 36.485 80.0705 36.855C79.7305 37.215 79.5605 37.68 79.5605 38.25C79.5605 38.82 79.7305 39.29 80.0705 39.66C80.4105 40.02 80.8505 40.2 81.3905 40.2ZM90.1488 44.91C88.7888 44.91 87.6788 44.625 86.8188 44.055L87.7638 42.255C88.4338 42.775 89.1938 43.035 90.0438 43.035C91.2938 43.035 91.9188 42.585 91.9188 41.685C91.9188 41.405 91.8538 41.17 91.7238 40.98C91.2338 41.41 90.6288 41.625 89.9088 41.625C88.8288 41.625 87.9638 41.27 87.3138 40.56C86.6638 39.85 86.3388 39 86.3388 38.01C86.3388 37.02 86.6638 36.17 87.3138 35.46C87.9638 34.74 88.8288 34.38 89.9088 34.38C90.5988 34.38 91.1988 34.595 91.7088 35.025V34.5H93.7638V40.53C93.9738 41.02 94.0788 41.51 94.0788 42C94.0788 42.98 93.6988 43.71 92.9388 44.19C92.1788 44.67 91.2488 44.91 90.1488 44.91ZM90.1488 39.735C90.8188 39.735 91.3388 39.485 91.7088 38.985V37.02C91.3388 36.52 90.8188 36.27 90.1488 36.27C89.6288 36.27 89.2088 36.44 88.8888 36.78C88.5688 37.12 88.4088 37.53 88.4088 38.01C88.4088 38.48 88.5688 38.885 88.8888 39.225C89.2088 39.565 89.6288 39.735 90.1488 39.735ZM95.7087 42V31.35H97.7637V42H95.7087ZM103.054 42.12C102.014 42.12 101.114 41.755 100.354 41.025C99.6041 40.285 99.2291 39.36 99.2291 38.25C99.2291 37.13 99.5841 36.205 100.294 35.475C101.014 34.745 101.939 34.38 103.069 34.38C104.219 34.38 105.139 34.775 105.829 35.565C106.529 36.345 106.809 37.37 106.669 38.64H101.224C101.284 39.14 101.494 39.53 101.854 39.81C102.214 40.09 102.609 40.23 103.039 40.23C103.799 40.23 104.379 39.92 104.779 39.3L106.369 40.44C105.599 41.56 104.494 42.12 103.054 42.12ZM102.949 36.06C102.579 36.06 102.229 36.165 101.899 36.375C101.579 36.575 101.364 36.905 101.254 37.365H104.629C104.569 36.935 104.384 36.61 104.074 36.39C103.764 36.17 103.389 36.06 102.949 36.06ZM111.784 42V31.35H115.189C116.239 31.35 117.109 31.69 117.799 32.37C118.499 33.05 118.849 33.89 118.849 34.89C118.849 35.89 118.499 36.73 117.799 37.41C117.109 38.09 116.239 38.43 115.189 38.43H113.959V42H111.784ZM113.959 36.405H115.159C115.629 36.405 116.004 36.26 116.284 35.97C116.574 35.68 116.719 35.32 116.719 34.89C116.719 34.46 116.574 34.105 116.284 33.825C116.004 33.535 115.629 33.39 115.159 33.39H113.959V36.405ZM120.128 42V31.35H122.183V42H120.128ZM129.138 42V41.49C128.648 41.91 128.043 42.12 127.323 42.12C126.243 42.12 125.358 41.745 124.668 40.995C123.988 40.235 123.648 39.32 123.648 38.25C123.648 37.18 123.988 36.27 124.668 35.52C125.358 34.76 126.243 34.38 127.323 34.38C128.043 34.38 128.648 34.59 129.138 35.01V34.5H131.193V42H129.138ZM127.623 40.23C128.273 40.23 128.778 39.985 129.138 39.495V37.02C128.768 36.52 128.263 36.27 127.623 36.27C127.063 36.27 126.608 36.465 126.258 36.855C125.908 37.235 125.733 37.7 125.733 38.25C125.733 38.8 125.908 39.27 126.258 39.66C126.608 40.04 127.063 40.23 127.623 40.23ZM133.857 44.76L134.997 41.865L132.162 34.5H134.352L136.077 39.39L137.817 34.5H139.992L136.032 44.76H133.857Z" fill="#0A66C2"/>
<defs>
<filter id="filter0_ii_29_52" x="17" y="16" width="24.1439" height="27" filterUnits="userSpaceOnUse" color-interpolation-filters="sRGB">
<feFlood flood-opacity="0" result="BackgroundImageFix"/>
<feBlend mode="normal" in="SourceGraphic" in2="BackgroundImageFix" result="shape"/>
<feColorMatrix in="SourceAlpha" type="matrix" values="0 0 0 0 0 0 0 0 0 0 0 0 0 0 0 0 0 0 127 0" result="hardAlpha"/>
<feOffset dy="-0.795"/>
<feComposite in2="hardAlpha" operator="arithmetic" k2="-1" k3="1"/>
<feColorMatrix type="matrix" values="0 0 0 0 0 0 0 0 0 0 0 0 0 0 0 0 0 0 0.12 0"/>
<feBlend mode="normal" in2="shape" result="effect1_innerShadow_29_52"/>
<feColorMatrix in="SourceAlpha" type="matrix" values="0 0 0 0 0 0 0 0 0 0 0 0 0 0 0 0 0 0 127 0" result="hardAlpha"/>
<feOffset dy="0.795"/>
<feComposite in2="hardAlpha" operator="arithmetic" k2="-1" k3="1"/>
<feColorMatrix type="matrix" values="0 0 0 0 1 0 0 0 0 1 0 0 0 0 1 0 0 0 0.25 0"/>
<feBlend mode="normal" in2="effect1_innerShadow_29_52" result="effect2_innerShadow_29_52"/>
</filter>
<filter id="filter1_i_29_52" x="17.4841" y="29.4996" width="17.4479" height="13.5004" filterUnits="userSpaceOnUse" color-interpolation-filters="sRGB">
<feFlood flood-opacity="0" result="BackgroundImageFix"/>
<feBlend mode="normal" in="SourceGraphic" in2="BackgroundImageFix" result="shape"/>
<feColorMatrix in="SourceAlpha" type="matrix" values="0 0 0 0 0 0 0 0 0 0 0 0 0 0 0 0 0 0 127 0" result="hardAlpha"/>
<feOffset dy="-0.795"/>
<feComposite in2="hardAlpha" operator="arithmetic" k2="-1" k3="1"/>
<feColorMatrix type="matrix" values="0 0 0 0 0 0 0 0 0 0 0 0 0 0 0 0 0 0 0.08 0"/>
<feBlend mode="normal" in2="shape" result="effect1_innerShadow_29_52"/>
</filter>
</defs>
</svg>
