<svg width="160" height="160" viewBox="0 0 160 160" fill="none" xmlns="http://www.w3.org/2000/svg">
<path d="M119.938 119.938C142.018 97.8584 142.018 62.0596 119.938 39.9796C97.8583 17.8995 62.0594 17.8995 39.9794 39.9796C17.8994 62.0596 17.8994 97.8584 39.9794 119.938C62.0595 142.018 97.8583 142.018 119.938 119.938Z" fill="#BABABA"/>
<mask id="mask0_9_1775" style="mask-type:luminance" maskUnits="userSpaceOnUse" x="23" y="23" width="114" height="114">
<path d="M119.938 119.938C142.018 97.8582 142.018 62.0594 119.938 39.9793C97.8583 17.8993 62.0594 17.8993 39.9794 39.9793C17.8994 62.0594 17.8994 97.8581 39.9794 119.938C62.0595 142.018 97.8583 142.018 119.938 119.938Z" fill="white"/>
</mask>
<g mask="url(#mask0_9_1775)">
<path d="M135.402 139.5H26.312C31.342 116.92 44.842 112.41 44.842 112.41L70.8621 100.24L80.722 100.15H80.992L90.8621 100.24L116.882 112.41C116.882 112.41 130.372 116.92 135.402 139.5Z" fill="white"/>
<path d="M86.8181 35.3762C86.8181 35.3762 95.8971 31.3302 99.1161 38.9802C102.214 46.3452 89.9091 53.3632 89.9091 53.3632L86.8181 35.3762Z" fill="#1E0B02"/>
<path d="M69.837 65.9101C69.933 69.3111 67.2541 72.1471 63.8531 72.2431C60.4521 72.3391 57.616 69.6601 57.52 66.2591C57.424 62.8581 60.1031 60.0221 63.5041 59.9261C66.9051 59.8301 69.74 62.5091 69.837 65.9101Z" fill="#C67D69"/>
<path d="M60.1801 65.2191C60.1801 65.2191 62.6301 64.0261 64.9651 68.2821" stroke="#A8523F" stroke-width="0.7482" stroke-miterlimit="10" stroke-linecap="round" stroke-linejoin="round"/>
<path d="M98.492 72.2451C101.895 72.2451 104.653 69.4867 104.653 66.0841C104.653 62.6815 101.895 59.9231 98.492 59.9231C95.0894 59.9231 92.3311 62.6815 92.3311 66.0841C92.3311 69.4867 95.0894 72.2451 98.492 72.2451Z" fill="#C67D69"/>
<path d="M101.964 65.1202C101.964 65.1202 99.481 63.9972 97.268 68.3172" stroke="#A8523F" stroke-width="0.7482" stroke-miterlimit="10" stroke-linecap="round" stroke-linejoin="round"/>
<path d="M88.989 80.2813C88.989 80.2813 85.515 82.7323 82.35 83.3373C79.185 83.9423 76.1071 82.1053 76.0681 82.0823C76.0291 82.0603 72.372 79.9563 72.372 79.9563L70.8581 100.235L71.268 100.573C76.635 105 84.372 105.053 89.799 100.699L90.593 100.062L88.989 80.2813Z" fill="#C67D69"/>
<path d="M70.8581 77.8242C70.8581 77.8242 74.3101 89.1242 82.2541 88.9992C88.7841 88.8962 89.837 77.8242 89.837 77.8242H70.8581Z" fill="#1E0B02"/>
<path d="M97.721 55.3592C97.756 62.3232 96.792 68.3382 95.82 72.6082C94.869 76.7892 92.1481 79.7212 88.2931 82.0902L87.591 82.5212C83.513 85.0272 78.228 85.1122 74.062 82.7382C69.861 80.3442 66.912 77.1742 65.986 72.6972C64.303 64.5552 64.078 55.5292 64.078 55.5292C64.078 55.5292 61.713 36.6912 79.857 36.9412C98.003 37.1912 97.721 55.3592 97.721 55.3592Z" fill="#C67D69"/>
<path d="M73.0731 62.3523C73.8838 62.3523 74.541 61.695 74.541 60.8843C74.541 60.0735 73.8838 59.4163 73.0731 59.4163C72.2623 59.4163 71.605 60.0735 71.605 60.8843C71.605 61.695 72.2623 62.3523 73.0731 62.3523Z" fill="#1E0B02"/>
<path d="M87.48 62.3523C88.2908 62.3523 88.9481 61.695 88.9481 60.8843C88.9481 60.0735 88.2908 59.4163 87.48 59.4163C86.6693 59.4163 86.0121 60.0735 86.0121 60.8843C86.0121 61.695 86.6693 62.3523 87.48 62.3523Z" fill="#1E0B02"/>
<path d="M78.945 63.0283V67.0783H81.561" stroke="#A8523F" stroke-width="0.7482" stroke-miterlimit="10" stroke-linecap="round" stroke-linejoin="round"/>
<path d="M67.6031 54.6792L77.1971 53.8142C77.1971 53.8142 76.338 51.3282 72.459 51.7312C68.49 52.1442 67.6031 54.6792 67.6031 54.6792Z" fill="black"/>
<path d="M92.3311 54.6792L82.738 53.8142C82.738 53.8142 83.597 51.3282 87.476 51.7312C91.444 52.1442 92.3311 54.6792 92.3311 54.6792Z" fill="black"/>
<path d="M75.661 70.4321H85.1251C85.1251 70.4321 84.6801 73.3311 80.2531 73.3311C75.8251 73.3311 75.661 70.4321 75.661 70.4321Z" fill="white"/>
<path d="M64.6971 64.4441C64.6971 64.4441 67.3831 44.0701 66.0691 40.7131C66.0691 40.7131 56.9311 48.2721 64.6971 64.4441Z" fill="#1E0B02"/>
<path d="M97.036 64.2801C97.036 64.2801 94.013 44.8241 94.851 39.2261C94.851 39.2261 103.676 47.0421 97.036 64.2801Z" fill="#1E0B02"/>
<path d="M94.2201 37.8392L85.854 36.5742L85.117 35.1272L80.7021 35.7952L76.287 35.1272L75.55 36.5742L67.1851 37.8392L66.0691 42.3152L66.3441 47.4752C66.3441 47.4752 67.668 41.6222 72.278 42.7882C73.365 43.0632 74.666 43.5182 76.188 43.8252C77.609 44.1352 78.9641 44.2752 80.2411 44.2972C80.3921 44.3012 80.5491 44.2972 80.7021 44.2982C80.8561 44.2972 81.0121 44.3012 81.1631 44.2972C82.4411 44.2752 83.795 44.1352 85.216 43.8252C86.737 43.5182 88.067 43.1562 89.126 42.7882C93.399 41.3012 94.9731 47.2082 94.9731 47.2082L95.3351 42.3152L94.2201 37.8392Z" fill="#1E0B02"/>
<path d="M94.053 42.9312C94.053 42.9312 88.6121 47.7862 81.6411 44.0562C81.6411 44.0562 63.9071 54.9812 58.9011 43.0882C54.7281 33.1732 72.051 19.7182 89.924 34.8802L94.053 42.9312Z" fill="#1E0B02"/>
<path d="M70.8581 100.236L65.045 102.907C65.045 102.907 64.982 112.653 80.778 112.147C96.975 111.629 96.8791 103.054 96.8791 103.054L90.592 100.062L70.8581 100.236Z" fill="#C67D69"/>
</g>
</svg>
