<svg width="71" height="71" viewBox="0 0 71 71" fill="none" xmlns="http://www.w3.org/2000/svg">
<path d="M55.0538 50.4625C54.438 49.7771 53.6202 49.2661 53.14 48.4797C51.8636 46.3883 53.5516 43.7693 53.6067 41.3193C53.6693 38.5393 51.6048 36.1687 51.0328 33.4475C50.632 31.5409 50.9831 29.5689 51.2397 27.6374C51.3601 26.7305 51.459 25.8075 51.312 24.9044C50.9507 22.6888 49.1951 20.975 48.3627 18.8901C47.7464 17.347 47.6562 15.6531 47.3451 14.0209C47.0339 12.3886 46.4236 10.697 45.0877 9.70856C44.2813 9.11172 43.283 8.82762 42.4523 8.26535C41.3941 7.54914 40.6535 6.4138 39.5381 5.78996C38.1887 5.03486 36.5429 5.15531 35.0018 5.30601C33.4607 5.15531 31.8148 5.03486 30.4655 5.78996C29.35 6.4138 28.61 7.54968 27.5513 8.26535C26.7205 8.82762 25.7217 9.11172 24.9158 9.70856C23.58 10.6975 22.9696 12.3886 22.6584 14.0209C22.3473 15.6531 22.2571 17.347 21.6408 18.8901C20.8084 20.975 19.0528 22.6888 18.6915 24.9044C18.544 25.8075 18.6434 26.7305 18.7639 27.6374C19.0204 29.5689 19.3721 31.5409 18.9707 33.4475C18.3987 36.1687 16.3342 38.5398 16.3968 41.3193C16.4519 43.7687 18.14 46.3878 16.8636 48.4797C16.3839 49.2661 15.5661 49.7771 14.9497 50.4625C13.7538 51.7928 13.1818 53.7184 13.871 55.3684L34.3055 59.3157V59.5846L35.0012 59.4501L35.697 59.5846V59.3157L56.1314 55.3684C56.8217 53.7184 56.2492 51.7928 55.0538 50.4625Z" fill="#051733"/>
<path d="M58.8618 57.6018C56.7335 59.5895 54.3622 61.3125 51.7856 62.7168C51.0402 63.1273 50.2786 63.5108 49.4953 63.8673C45.0822 65.8819 40.1721 67 35.0027 67C29.8333 67 24.9232 65.8819 20.5101 63.8673C19.7268 63.5108 18.9652 63.1327 18.2198 62.7168C15.6432 61.3125 13.2664 59.5895 11.1382 57.6073C11.8836 56.6026 12.7479 55.6952 13.7148 54.9012C15.0058 53.8318 16.4696 52.973 18.0631 52.3572L21.2879 51.115C22.5735 50.6181 23.7672 49.9429 24.826 49.1165C25.2797 48.7654 25.7064 48.3873 26.1116 47.9822C26.333 47.7608 26.5437 47.5339 26.749 47.2963C27.9589 49.7214 30.6814 50.5694 33.2201 50.8665C35.4564 51.1312 37.7197 50.4776 39.7885 49.7214C41.2686 49.1813 42.1869 48.2523 43.2078 47.2423C43.2888 47.3395 43.3752 47.4367 43.4671 47.534C43.6021 47.6852 43.748 47.8364 43.8938 47.9822C44.2989 48.3873 44.7257 48.7654 45.1794 49.1165C46.2381 49.9429 47.4319 50.6181 48.7175 51.115L51.9423 52.3572C53.5358 52.973 54.9996 53.8318 56.2906 54.9012C57.2521 55.6952 58.1218 56.6026 58.8618 57.6018Z" fill="#A1CC36"/>
<path d="M43.894 47.9822C43.6558 47.7446 43.4262 47.4977 43.2058 47.2433C42.1876 48.2507 41.2699 49.1792 39.7904 49.7198C37.7205 50.4765 35.4577 51.1285 33.222 50.8676C30.6816 50.5711 27.957 49.7209 26.7519 47.2957C26.5461 47.5312 26.3338 47.7608 26.1118 47.9817C25.7066 48.3868 25.2799 48.7649 24.8262 49.116C25.6958 50.9848 28.1752 54.1445 35.0029 54.1445C41.8306 54.1445 44.3099 50.9848 45.1796 49.116C44.7259 48.7654 44.2991 48.3873 43.894 47.9822Z" fill="#718F26"/>
<path d="M43.8936 47.9822C43.3588 49.5 41.479 52.5247 35.0024 52.5247C28.5259 52.5247 26.6461 49.5 26.1113 47.9822C28.0019 46.0972 29.3361 43.672 29.8979 40.9768L30.1356 39.8264L31.1619 34.8734H38.843L40.107 40.9768C40.3015 41.9166 40.5932 42.8187 40.9659 43.6829C41.6627 45.2924 42.662 46.7508 43.8936 47.9822Z" fill="#F69779"/>
<path d="M40.966 43.6829C39.4482 44.1474 38.3246 44.1474 38.3246 44.1474C38.3246 44.1474 33.3227 44.1474 30.1357 39.8264L31.1621 34.8734H38.8432L40.1072 40.9768C40.3016 41.9166 40.5933 42.8187 40.966 43.6829Z" fill="#F37A67"/>
<path d="M20.5105 63.8673C19.7273 63.5108 18.9656 63.1327 18.2202 62.7168L19.9649 57.8881L20.5105 63.8673Z" fill="#718F26"/>
<path d="M51.7859 62.7168C51.0405 63.1273 50.2788 63.5108 49.4956 63.8673L50.0412 57.8881L51.7859 62.7168Z" fill="#718F26"/>
<path d="M48.1976 24.3167C48.1323 23.8857 47.9724 23.4482 47.6434 23.1625C47.3469 22.9049 46.9385 22.7979 46.5458 22.8147C46.1531 22.8314 45.7728 22.9627 45.419 23.1339C45.419 23.1339 45.3844 13.1767 41.8545 13.0606C39.5399 12.945 38.5098 10.6003 35.003 10.6003C32.1693 10.6003 30.9528 12.1299 29.3691 12.7786C29.3378 12.8969 29.2897 13.0168 29.2065 13.1389C27.8442 15.1444 25.9423 17.192 25.7181 19.7116C25.6619 20.3458 25.2006 20.7076 24.7042 20.7978C24.5903 22.1498 24.5865 23.1333 24.5865 23.1333C24.2327 22.9621 23.8524 22.8309 23.4597 22.8141C23.067 22.7974 22.6586 22.9038 22.3621 23.162C22.0331 23.4477 21.8738 23.8857 21.8079 24.3162C21.6761 25.1815 21.8835 26.0932 22.3756 26.8164C22.8677 27.5397 23.5947 28.0836 24.4476 28.2785C25.952 38.8099 35.003 38.8099 35.003 38.8099C35.003 38.8099 44.0535 38.8099 45.5584 28.2785C46.4113 28.0836 47.1384 27.5397 47.6304 26.8164C48.1225 26.0932 48.3289 25.1815 48.1976 24.3167Z" fill="#F69779"/>
<path d="M45.4195 23.1339C45.4195 23.1339 43.7266 21.8376 43.3766 19.4292C43.026 17.0208 42.7197 17.0645 41.4936 15.7947C40.2674 14.5248 39.9168 12.4227 38.5156 12.5545C37.1144 12.6857 36.0195 13.9118 35.3627 14.9191C34.7058 15.9265 32.9978 15.6634 31.7717 16.014C30.5455 16.364 31.6404 18.2911 30.1074 19.561C28.5744 20.8308 28.0051 19.4297 27.5238 20.1302C27.042 20.8308 26.41 23.344 24.5875 23.1344L23.8015 20.9626L26.1129 15.8147L28.0056 11.9857L34.0927 9.22678L39.4793 8.48248L44.4715 12.8613L45.9607 15.2259L46.8363 19.1672L46.6176 21.5319L45.4195 23.1339Z" fill="#051733"/>
<path d="M34.4954 22.6159V28.7955H35.5427C37.3382 28.7955 34.8286 23.3262 34.4954 22.6159Z" fill="#F37A67"/>
<path d="M42.1105 20.2086C40.6628 19.4934 39.0542 19.3876 37.545 19.9871C36.9054 20.2415 37.1841 21.2867 37.8323 21.029C39.0688 20.5375 40.3636 20.5478 41.5654 21.1414C42.1877 21.4487 42.7354 20.517 42.1105 20.2086Z" fill="#051733"/>
<path d="M40.8075 22.133C40.4786 21.5626 39.7888 21.5972 39.7888 21.5972C39.2259 21.5972 38.77 22.0531 38.77 22.6159C38.77 23.1787 39.2259 23.6345 39.7888 23.6345C39.913 23.6345 40.0302 23.6092 40.1404 23.5687L40.141 23.5714C40.1475 23.5692 40.1523 23.5654 40.1588 23.5627C40.1917 23.5497 40.2225 23.5335 40.2539 23.5173C41.1446 23.1312 41.2397 22.1422 41.2397 22.1422C41.0614 22.2923 40.8075 22.133 40.8075 22.133Z" fill="#051733"/>
<path d="M27.8952 20.2086C29.3429 19.4934 30.9515 19.3876 32.4607 19.9871C33.1003 20.2415 32.8216 21.2867 32.1734 21.029C30.9369 20.5375 29.6421 20.5478 28.4403 21.1414C27.818 21.4487 27.2708 20.517 27.8952 20.2086Z" fill="#051733"/>
<path d="M29.1987 22.133C29.5277 21.5626 30.2175 21.5972 30.2175 21.5972C30.7803 21.5972 31.2362 22.0531 31.2362 22.6159C31.2362 23.1787 30.7803 23.6345 30.2175 23.6345C30.0932 23.6345 29.976 23.6092 29.8658 23.5687L29.8653 23.5714C29.8588 23.5692 29.854 23.5654 29.8475 23.5627C29.8145 23.5497 29.7837 23.5335 29.7524 23.5173C28.8617 23.1312 28.7666 22.1422 28.7666 22.1422C28.9443 22.2923 29.1987 22.133 29.1987 22.133Z" fill="#051733"/>
<path d="M31.6826 32.0832C32.0418 33.4238 33.3895 34.4219 35.0025 34.4219C36.6154 34.4219 37.9631 33.4238 38.3223 32.0832H31.6826Z" fill="white"/>
<path d="M35.49 70.771C54.82 70.771 70.49 55.101 70.49 35.771C70.49 16.441 54.82 0.770996 35.49 0.770996C16.16 0.770996 0.48999 16.441 0.48999 35.771C0.48999 55.101 16.16 70.771 35.49 70.771Z" fill="#BABABA"/>
<mask id="mask0_69_151" style="mask-type:luminance" maskUnits="userSpaceOnUse" x="0" y="0" width="71" height="71">
<path d="M35.49 70.771C54.82 70.771 70.49 55.101 70.49 35.771C70.49 16.441 54.82 0.770996 35.49 0.770996C16.16 0.770996 0.48999 16.441 0.48999 35.771C0.48999 55.101 16.16 70.771 35.49 70.771Z" fill="white"/>
</mask>
<g mask="url(#mask0_69_151)">
<path d="M21.9786 20.6963C21.9786 20.6963 22.402 25.5994 19.0211 28.0649C15.6396 30.5304 15.6396 33.2184 17.0193 36.0122C18.3989 38.8061 14.8972 38.7003 14.8972 42.202C14.8972 45.7033 17.0193 46.4463 16.0646 48.0381C15.1094 49.63 13.4494 51.2042 13.8552 52.1145C14.2605 53.0248 19.6722 54.4706 20.0966 54.2253C20.521 53.98 46.8684 54.2527 46.8684 54.2527C46.8684 54.2527 49.0024 51.6452 47.3351 48.1439C45.6679 44.6422 45.0333 44.7026 46.0298 41.6785C47.0264 38.6543 45.8801 34.5727 45.6679 34.4612C45.4557 34.3497 40.6807 26.9522 40.6807 26.9522L21.9786 20.6963Z" fill="#7B5231"/>
<path d="M49.6601 14.7942C49.6601 14.7942 52.8401 19.7546 48.8133 20.5668L45.2305 15.7886L49.6601 14.7942Z" fill="#7B5231"/>
<path d="M33.1918 16.1536C33.1918 16.1536 50.9231 21.2879 51.7668 13.924C51.7668 13.924 52.1158 10.5039 48.0414 9.79391C43.9671 9.08396 29.4313 6.23019 28.189 11.0217C28.189 11.0217 19.6711 13.2435 21.9781 20.6962C24.2851 28.1495 29.0833 37.7914 29.0833 37.7914L30.3633 27.2108L33.1918 16.1536Z" fill="#7B5231"/>
<path d="M43.7199 29.4017C44.1562 31.3984 46.128 32.6634 48.1247 32.2271C50.1213 31.7908 51.3863 29.8189 50.95 27.8222C50.5137 25.8256 48.5419 24.5606 46.5452 24.9969C44.5486 25.4332 43.2836 27.405 43.7199 29.4017Z" fill="#C28461"/>
<path d="M39.5969 37.3211L39.1611 51.8682L27.7244 49.0294L30.3639 27.2108L39.5969 37.3211Z" fill="#DBA884"/>
<path d="M39.345 45.7967L31.3862 37.2329L39.5943 37.7347L39.345 45.7967Z" fill="#C28461"/>
<path d="M43.3418 12.5868C46.6562 13.9226 48.8697 17.0861 49.2151 20.6431C49.6127 24.7387 49.9468 31.0844 48.6528 34.1824C46.652 38.9719 42.4563 41.759 36.1525 40.0019C36.1525 40.0019 28.7648 39.0488 27.774 27.893C26.6024 14.6924 35.8989 9.58696 43.3418 12.5868Z" fill="#DBA884"/>
<path d="M31.2013 27.9043C31.2013 27.9043 34.2337 22.2902 33.1917 16.1536C33.1917 16.1536 43.3423 12.5868 47.6134 16.1051C47.6134 16.1051 46.4253 8.55998 34.1294 9.44756C17.2913 10.6635 30.0865 31.7572 30.0865 31.7572L31.2013 27.9043Z" fill="#7B5231"/>
<path d="M33.1919 16.1536C33.1919 16.1536 40.7112 20.0735 48.292 17.3086L49.5715 12.5031L40.2574 11.8195L33.5518 12.5919L33.1919 16.1536Z" fill="#7B5231"/>
<path d="M29.4865 34.4611L30.1035 30.6919L27.5054 32.3127L29.4865 34.4611Z" fill="#7B5231"/>
<path d="M46.0351 26.2556C46.1177 26.7157 46.5581 27.0219 47.0182 26.9392C47.4782 26.8566 47.7844 26.4162 47.7018 25.9561C47.6192 25.4961 47.1788 25.1899 46.7187 25.2725C46.2582 25.3551 45.952 25.795 46.0351 26.2556Z" fill="#221915"/>
<path d="M38.3099 25.7775C38.3925 26.2375 38.8329 26.5437 39.293 26.4611C39.753 26.3785 40.0592 25.9381 39.9766 25.478C39.894 25.0179 39.4535 24.7118 38.9935 24.7944C38.5329 24.8775 38.2273 25.3174 38.3099 25.7775Z" fill="#221915"/>
<path d="M44.3587 26.4745L44.9416 28.9183C45.0036 29.1795 44.8347 29.4393 44.5709 29.4883L43.675 29.6551" stroke="#1E0A05" stroke-width="0.8275" stroke-miterlimit="10" stroke-linecap="round" stroke-linejoin="round"/>
<path d="M42.586 20.9689L36.5134 23.4819C36.5134 23.4819 37.7423 21.4615 39.4942 20.7458C41.2461 20.0302 42.586 20.9689 42.586 20.9689Z" fill="#3D2308"/>
<path d="M46.03 21.2514L49.8096 22.9444C49.8096 22.9444 49.3206 21.1951 48.2286 20.7159C47.1365 20.2368 46.03 21.2514 46.03 21.2514Z" fill="#3D2308"/>
<path d="M43.1565 31.2728C43.1565 31.2728 41.464 31.2021 39.41 32.228C37.3561 33.254 36.7814 33.9345 34.8715 33.793C32.9616 33.6515 31.9485 26.3486 32.2573 25.3758L31.1002 26.8995L29.861 32.1759C29.861 32.1759 29.0829 38.0285 36.5088 40.858C43.9346 43.6875 47.6486 38.4529 48.356 36.4366C49.0634 34.4209 48.8883 33.5271 48.8883 33.5271C48.8883 33.5271 47.9713 30.9547 43.1565 31.2728Z" fill="#7B5231"/>
<path d="M23.7929 29.4992C24.254 31.6089 26.3374 32.9457 28.4472 32.4846C30.5569 32.0235 31.8937 29.9401 31.4326 27.8304C30.9715 25.7206 28.8881 24.3839 26.7779 24.8449C24.6692 25.3055 23.3324 27.3894 23.7929 29.4992Z" fill="#DBA884"/>
<path d="M25.9456 27.3863C25.9456 27.3863 28.868 26.7926 29.3786 29.9974" stroke="#1E0A05" stroke-width="0.8275" stroke-miterlimit="10" stroke-linecap="round" stroke-linejoin="round"/>
<path d="M45.137 33.7135L40.3269 33.5271C40.3269 33.5271 40.4235 35.6234 42.5859 35.7649C44.7482 35.9063 45.137 33.7135 45.137 33.7135Z" fill="white"/>
<path d="M57.7031 83.4985H43.7296L37.7681 64.7267L50.4641 61.4439L51.3058 61.226L52.9843 60.7902L55.9357 74.9966V75.0012L57.7031 83.4985Z" fill="#DBA884"/>
<path d="M51.247 56.923C51.247 56.923 56.2187 59.1231 57.699 74.1112L47.3796 79.292L51.247 56.923Z" fill="#4570B4"/>
<path d="M51.6027 83.4988H8.74625L8.51339 80.5227L8.45917 79.8194L7.00828 61.201L6.87455 59.4925C6.70622 57.3187 7.84526 55.2488 9.77633 54.2337C9.79131 54.2285 9.80111 54.2239 9.80111 54.2239L22.918 47.3954L42.3434 50.7624L51.2465 56.9222L51.3059 61.2253L51.5191 77.214L51.5687 80.7643L51.6027 83.4988Z" fill="#4570B4"/>
<path d="M37.6803 47.3973L42.3423 50.7643C42.3423 50.7643 42.0521 56.3324 33.5863 54.9079C25.1206 53.4833 22.9189 47.3973 22.9189 47.3973L28.974 45.0392L37.6803 47.3973Z" fill="#DBA884"/>
<path d="M51.5774 77.0859V65.8619" stroke="#1E0A05" stroke-width="0.8275" stroke-miterlimit="10" stroke-linecap="round" stroke-linejoin="round"/>
<path d="M19.0211 66.7518L11.2023 81.5081L10.1475 83.4985H-5.27173L-2.44429 76.5115L-1.34038 73.7884L4.2649 59.9337L7.00817 61.2013L19.0211 66.7518Z" fill="#DBA884"/>
<path d="M9.79841 54.2253C9.79841 54.2253 1.897 56.9334 -3.82446 72.2586L12.0186 82.0096L22.9179 63.4485L9.79841 54.2253Z" fill="#4570B4"/>
<path d="M20.4225 70.9357L12.7095 82.232L11.2034 81.5076" stroke="#1E0A05" stroke-width="0.8275" stroke-miterlimit="10" stroke-linecap="round" stroke-linejoin="round"/>
<path d="M39.3723 41.5959C39.3723 41.5959 43.3579 42.5077 46.4228 39.3044" stroke="#1E0A05" stroke-width="0.8275" stroke-miterlimit="10" stroke-linecap="round" stroke-linejoin="round"/>
</g>
</svg>
