<svg width="20" height="20" viewBox="0 0 20 20" fill="none" xmlns="http://www.w3.org/2000/svg">
<path d="M2.08325 9.99999C2.08325 6.26804 2.08325 4.40207 3.24262 3.2427C4.40199 2.08333 6.26797 2.08333 9.99992 2.08333C13.7319 2.08333 15.5978 2.08333 16.7572 3.2427C17.9166 4.40207 17.9166 6.26804 17.9166 9.99999C17.9166 13.7319 17.9166 15.5979 16.7572 16.7573C15.5978 17.9167 13.7319 17.9167 9.99992 17.9167C6.26797 17.9167 4.40199 17.9167 3.24262 16.7573C2.08325 15.5979 2.08325 13.7319 2.08325 9.99999Z" stroke="#0A66C2" stroke-width="1.5"/>
<circle cx="13.75" cy="6.25" r="1.25" stroke="#0A66C2" stroke-width="1.5"/>
<path d="M13.3333 18.3333C12.8171 16.479 11.6121 14.8184 9.89712 13.6118C8.04801 12.3108 5.72636 11.6222 3.34641 11.6689C3.06382 11.6682 2.78146 11.6772 2.5 11.6959" stroke="#0A66C2" stroke-width="1.5" stroke-linejoin="round"/>
<path d="M10.8333 15C12.2512 13.8945 13.7787 13.3273 15.3218 13.3334C16.1968 13.3325 17.0676 13.518 17.9166 13.8847" stroke="#0A66C2" stroke-width="1.5" stroke-linejoin="round"/>
</svg>
