<svg width="59" height="59" viewBox="0 0 59 59" fill="none" xmlns="http://www.w3.org/2000/svg">
<path d="M46.4025 42.5327C45.8834 41.955 45.1941 41.5243 44.7894 40.8614C43.7136 39.0987 45.1363 36.8912 45.1828 34.8262C45.2356 32.4831 43.4955 30.485 43.0133 28.1915C42.6755 26.5845 42.9715 24.9224 43.1877 23.2944C43.2893 22.53 43.3726 21.752 43.2487 20.9908C42.9441 19.1234 41.4645 17.6789 40.7629 15.9217C40.2434 14.621 40.1674 13.1934 39.9051 11.8176C39.6429 10.4419 39.1284 9.01602 38.0025 8.18292C37.3228 7.67987 36.4814 7.44041 35.7812 6.9665C34.8893 6.36284 34.2651 5.40591 33.3249 4.8801C32.1876 4.24367 30.8004 4.34519 29.5015 4.4722C28.2026 4.34519 26.8153 4.24367 25.678 4.8801C24.7379 5.40591 24.1141 6.3633 23.2218 6.9665C22.5216 7.44041 21.6797 7.67987 21.0005 8.18292C19.8745 9.01648 19.3601 10.4419 19.0978 11.8176C18.8356 13.1934 18.7596 14.621 18.2401 15.9217C17.5385 17.6789 16.0588 19.1234 15.7542 20.9908C15.6299 21.752 15.7137 22.53 15.8152 23.2944C16.0315 24.9224 16.3279 26.5845 15.9896 28.1915C15.5075 30.485 13.7674 32.4835 13.8202 34.8262C13.8666 36.8908 15.2894 39.0983 14.2136 40.8614C13.8093 41.5243 13.12 41.955 12.6005 42.5327C11.5925 43.6539 11.1104 45.2769 11.6913 46.6677L28.9146 49.9946V50.2213L29.501 50.108L30.0874 50.2213V49.9946L47.3108 46.6677C47.8926 45.2769 47.41 43.6539 46.4025 42.5327Z" fill="#051733"/>
<path d="M49.6121 48.5501C47.8183 50.2254 45.8196 51.6777 43.6479 52.8613C43.0196 53.2073 42.3777 53.5305 41.7175 53.831C37.9979 55.5291 33.8593 56.4714 29.5023 56.4714C25.1452 56.4714 21.0067 55.5291 17.2871 53.831C16.6269 53.5305 15.985 53.2119 15.3567 52.8613C13.185 51.6777 11.1818 50.2254 9.38794 48.5547C10.0162 47.7079 10.7447 46.9431 11.5596 46.2739C12.6478 45.3725 13.8816 44.6487 15.2247 44.1297L17.9427 43.0826C19.0263 42.6638 20.0324 42.0947 20.9248 41.3982C21.3072 41.1023 21.6669 40.7836 22.0084 40.4422C22.195 40.2555 22.3726 40.0643 22.5456 39.864C23.5654 41.9081 25.86 42.6228 27.9999 42.8732C29.8847 43.0963 31.7924 42.5454 33.5361 41.9081C34.7836 41.4528 35.5576 40.6698 36.418 39.8185C36.4863 39.9004 36.5592 39.9824 36.6366 40.0643C36.7504 40.1918 36.8733 40.3193 36.9963 40.4422C37.3377 40.7836 37.6974 41.1023 38.0798 41.3982C38.9722 42.0947 39.9783 42.6638 41.0619 43.0826L43.78 44.1297C45.123 44.6487 46.3568 45.3725 47.445 46.2739C48.2554 46.9431 48.9884 47.7079 49.6121 48.5501Z" fill="#A1CC36"/>
<path d="M36.9963 40.4422C36.7955 40.2419 36.602 40.0338 36.4162 39.8194C35.558 40.6684 34.7845 41.451 33.5375 41.9067C31.7928 42.5445 29.8857 43.094 28.0013 42.8741C25.8601 42.6242 23.5636 41.9076 22.5479 39.8636C22.3744 40.0621 22.1955 40.2555 22.0084 40.4417C21.6669 40.7832 21.3072 41.1018 20.9248 41.3977C21.6578 42.9729 23.7476 45.6361 29.5023 45.6361C35.2571 45.6361 37.3468 42.9729 38.0798 41.3977C37.6974 41.1023 37.3377 40.7836 36.9963 40.4422Z" fill="#718F26"/>
<path d="M36.996 40.4422C36.5452 41.7214 34.9608 44.2708 29.502 44.2708C24.0432 44.2708 22.4588 41.7214 22.0081 40.4422C23.6015 38.8534 24.7261 36.8093 25.1996 34.5376L25.3999 33.5679L26.2649 29.3933H32.7391L33.8044 34.5376C33.9683 35.3298 34.2142 36.09 34.5283 36.8184C35.1156 38.1751 35.9579 39.4042 36.996 40.4422Z" fill="#F69779"/>
<path d="M34.5285 36.8184C33.2492 37.2099 32.3022 37.2099 32.3022 37.2099C32.3022 37.2099 28.0863 37.2099 25.4001 33.5679L26.2652 29.3933H32.7393L33.8046 34.5376C33.9686 35.3298 34.2144 36.09 34.5285 36.8184Z" fill="#F37A67"/>
<path d="M17.2873 53.831C16.6272 53.5305 15.9852 53.2119 15.3569 52.8613L16.8275 48.7914L17.2873 53.831Z" fill="#718F26"/>
<path d="M43.6482 52.8613C43.0199 53.2073 42.3779 53.5305 41.7178 53.831L42.1776 48.7914L43.6482 52.8613Z" fill="#718F26"/>
<path d="M40.6237 20.4955C40.5686 20.1323 40.4338 19.7635 40.1565 19.5227C39.9066 19.3055 39.5624 19.2154 39.2314 19.2295C38.9004 19.2436 38.5799 19.3542 38.2817 19.4986C38.2817 19.4986 38.2526 11.1061 35.2773 11.0082C33.3264 10.9108 32.4582 8.93456 29.5025 8.93456C27.1141 8.93456 26.0888 10.2238 24.7539 10.7706C24.7275 10.8703 24.687 10.9713 24.6169 11.0742C23.4686 12.7645 21.8656 14.4904 21.6766 16.6141C21.6293 17.1486 21.2405 17.4536 20.8221 17.5296C20.726 18.6691 20.7228 19.4981 20.7228 19.4981C20.4246 19.3538 20.1041 19.2432 19.7731 19.2291C19.4421 19.2149 19.0979 19.3046 18.848 19.5222C18.5707 19.7631 18.4364 20.1323 18.3809 20.4951C18.2698 21.2244 18.4446 21.9929 18.8594 22.6024C19.2741 23.212 19.8869 23.6704 20.6058 23.8348C21.8738 32.7112 29.5025 32.7112 29.5025 32.7112C29.5025 32.7112 37.1307 32.7112 38.3992 23.8348C39.118 23.6704 39.7309 23.212 40.1456 22.6024C40.5604 21.9929 40.7343 21.2244 40.6237 20.4955Z" fill="#F69779"/>
<path d="M38.2821 19.4985C38.2821 19.4985 36.8553 18.4059 36.5603 16.376C36.2648 14.346 36.0066 14.3829 34.9731 13.3126C33.9397 12.2424 33.6442 10.4705 32.4632 10.5816C31.2822 10.6922 30.3593 11.7257 29.8057 12.5747C29.2521 13.4237 27.8125 13.202 26.779 13.4975C25.7455 13.7925 26.6683 15.4168 25.3762 16.4871C24.0842 17.5574 23.6043 16.3765 23.1986 16.9669C22.7925 17.5574 22.2598 19.6756 20.7237 19.499L20.0613 17.6684L22.0094 13.3295L23.6047 10.1022L28.7353 7.77684L33.2754 7.14951L37.4831 10.8402L38.7383 12.8333L39.4763 16.1552L39.2919 18.1483L38.2821 19.4985Z" fill="#051733"/>
<path d="M29.0747 19.062V24.2705H29.9575C31.4709 24.2705 29.3556 19.6606 29.0747 19.062Z" fill="#F37A67"/>
<path d="M35.4931 17.0329C34.273 16.4302 32.9172 16.341 31.6451 16.8463C31.106 17.0607 31.341 17.9416 31.8873 17.7245C32.9294 17.3102 34.0208 17.3188 35.0338 17.8191C35.5582 18.0782 36.0199 17.2929 35.4931 17.0329Z" fill="#051733"/>
<path d="M34.3948 18.655C34.1175 18.1742 33.5362 18.2034 33.5362 18.2034C33.0618 18.2034 32.6775 18.5876 32.6775 19.062C32.6775 19.5363 33.0618 19.9206 33.5362 19.9206C33.6409 19.9206 33.7397 19.8992 33.8325 19.865L33.833 19.8673C33.8385 19.8655 33.8426 19.8623 33.848 19.86C33.8758 19.8491 33.9017 19.8354 33.9282 19.8218C34.6789 19.4963 34.759 18.6627 34.759 18.6627C34.6088 18.7893 34.3948 18.655 34.3948 18.655Z" fill="#051733"/>
<path d="M23.5116 17.0329C24.7318 16.4302 26.0876 16.341 27.3596 16.8463C27.8987 17.0607 27.6638 17.9416 27.1174 17.7245C26.0753 17.3102 24.984 17.3188 23.971 17.8191C23.4465 18.0782 22.9853 17.2929 23.5116 17.0329Z" fill="#051733"/>
<path d="M24.6103 18.655C24.8876 18.1742 25.469 18.2034 25.469 18.2034C25.9434 18.2034 26.3276 18.5876 26.3276 19.062C26.3276 19.5363 25.9434 19.9206 25.469 19.9206C25.3643 19.9206 25.2655 19.8992 25.1726 19.865L25.1721 19.8673C25.1667 19.8655 25.1626 19.8623 25.1571 19.86C25.1293 19.8491 25.1034 19.8354 25.077 19.8218C24.3262 19.4963 24.2461 18.6627 24.2461 18.6627C24.3959 18.7893 24.6103 18.655 24.6103 18.655Z" fill="#051733"/>
<path d="M26.7039 27.0415C27.0066 28.1715 28.1425 29.0128 29.502 29.0128C30.8615 29.0128 31.9974 28.1715 32.3002 27.0415H26.7039Z" fill="white"/>
<path d="M29.5 59C45.7924 59 59 45.7924 59 29.5C59 13.2076 45.7924 0 29.5 0C13.2076 0 0 13.2076 0 29.5C0 45.7924 13.2076 59 29.5 59Z" fill="#0A66C2"/>
<mask id="mask0_69_120" style="mask-type:luminance" maskUnits="userSpaceOnUse" x="0" y="0" width="59" height="59">
<path d="M29.5 59C45.7924 59 59 45.7924 59 29.5C59 13.2076 45.7924 0 29.5 0C13.2076 0 0 13.2076 0 29.5C0 45.7924 13.2076 59 29.5 59Z" fill="white"/>
</mask>
<g mask="url(#mask0_69_120)">
<path d="M38.153 48.5092L38.1194 52.5326L38.065 58.7302L37.9693 69.7275H2.43579L2.47322 68.6839L8.81268 57.1191L14.5346 46.6771L19.0589 38.4219L20.8492 38.4054H20.9576L21.1121 38.401L29.5801 38.3218C29.5801 38.3218 29.5801 38.3218 29.5844 38.3262L31.6464 40.7802H31.6507L38.153 48.5092Z" fill="white"/>
<path d="M23.2077 54.3648L19.0594 38.4219C17.9741 38.3301 16.9144 38.3053 15.8873 38.3301C8.45421 38.522 6.22471 40.013 4.07573 42.0749C1.86974 44.1913 -2.98963 49.9449 -5.94067 69.728H0.846163H7.3066H23.0906C23.3034 61.2469 23.2077 54.3648 23.2077 54.3648Z" fill="#D3445B"/>
<path d="M7.03931 69.7275L8.49981 64.0935L9.83542 58.9391" stroke="#934453" stroke-width="2.2081" stroke-miterlimit="10" stroke-linecap="round" stroke-linejoin="round"/>
<path d="M33.3408 40.275C32.846 39.9821 32.3599 39.7449 31.9304 39.5155C30.5821 38.8062 29.66 38.3597 29.5847 38.3262C29.5803 38.3218 29.5803 38.3218 29.5803 38.3218L30.8071 44.5485L32.7063 54.2059L32.9483 69.7271H34.8305H41.1491H46.8962C47.072 48.8435 40.0576 44.2509 33.3408 40.275Z" fill="#D3445B"/>
<path d="M30.7185 44.9376L32.7078 54.2059L38.3453 58.9704C39.2313 59.7194 40.5756 58.9883 40.4285 57.8376L39.8088 52.9865C39.6047 51.3876 39.039 49.8566 38.1546 48.5092L32.1969 38.3214L30.7185 44.9376Z" fill="#EF758D"/>
<path d="M44.7056 8.63597C44.7435 8.62814 44.7774 8.62858 44.8148 8.63903C45.1303 8.72955 46.6775 9.27136 46.2771 11.1074C45.831 13.1524 39.1948 17.3081 34.6531 14.7248L36.3146 10.2558L44.7056 8.63597Z" fill="#934453"/>
<path d="M36.3693 25.6438C36.7453 27.3084 38.3995 28.3529 40.0637 27.9768C41.7279 27.6008 42.7727 25.9467 42.3967 24.2825C42.0207 22.6179 40.3666 21.5734 38.7024 21.9494C37.0382 22.325 35.9933 23.9792 36.3693 25.6438Z" fill="#D68A65"/>
<path d="M33.4477 32.7248L30.7186 44.9372L22.7119 41.9452C21.224 41.3895 20.4258 39.7719 20.8893 38.2526L25.4588 23.2772L33.4477 32.7248Z" fill="#EDB892"/>
<path d="M32.4648 37.1355C32.4648 37.1355 27.1741 36.5545 27.6293 30.3343L33.1976 33.9002L32.4648 37.1355Z" fill="#D68A65"/>
<path d="M40.1051 15.2596C40.1051 15.2596 41.758 25.7286 40.1156 29.7398C38.4731 33.751 34.9859 36.1028 29.7123 34.6727C29.7123 34.6727 23.5377 33.9203 22.6452 24.611C21.3013 10.5952 34.1852 7.42309 40.1051 15.2596Z" fill="#EDB892"/>
<path d="M25.7021 22.6892C25.7021 22.6892 26.7801 20.9828 25.6913 16.355C24.6024 11.7271 37.1347 11.8499 40.1053 15.2592C40.1053 15.2592 38.1078 10.0939 30.622 9.82143C23.1358 9.54944 17.0792 14.3235 19.6651 22.6888L21.5021 25.6146L25.7021 22.6892Z" fill="#171717"/>
<path d="M26.177 20.1847C26.177 20.1847 25.6017 26.2848 30.8031 27.3645C34.1223 28.0534 37.4825 25.615 40.6141 27.7975C40.6141 27.7975 39.3834 37.0166 29.9292 34.7941C28.6637 34.4964 27.4969 33.8876 26.5147 33.0355C24.5951 31.3692 21.8412 27.9742 23.4766 23.0813L26.177 20.1847Z" fill="#171717"/>
<path d="M17.8465 25.7891C18.3025 27.8088 20.3097 29.0766 22.3298 28.6205C24.3496 28.1644 25.6173 26.1569 25.1612 24.1371C24.7051 22.1174 22.698 20.8497 20.6778 21.3057C18.6577 21.7618 17.3899 23.7694 17.8465 25.7891Z" fill="#EDB892"/>
<path d="M19.896 23.7489C19.896 23.7489 22.6947 23.1597 23.2056 26.2295" stroke="#D68A65" stroke-width="1.4443" stroke-miterlimit="10" stroke-linecap="round" stroke-linejoin="round"/>
<path d="M38.6882 23.1305C38.76 23.5144 39.1295 23.7672 39.5133 23.6954C39.8972 23.6236 40.15 23.2546 40.0782 22.8707C40.0064 22.4869 39.6374 22.234 39.2535 22.3058C38.8693 22.3776 38.6164 22.7467 38.6882 23.1305Z" fill="#171717"/>
<path d="M32.7199 22.8194C32.7917 23.2032 33.1612 23.456 33.5446 23.3842C33.9285 23.3124 34.1813 22.943 34.1095 22.5591C34.0377 22.1753 33.6682 21.9224 33.2848 21.9942C32.9014 22.0665 32.6481 22.4355 32.7199 22.8194Z" fill="#171717"/>
<path d="M37.1125 23.7076L38.2641 25.615L37.1125 26.2186" stroke="#D68A65" stroke-width="1.4443" stroke-miterlimit="10" stroke-linecap="round" stroke-linejoin="round"/>
<path d="M34.926 18.393C34.9661 18.9688 34.503 19.4523 33.926 19.4357C33.0551 19.4105 31.7831 19.4553 30.595 19.8013C30.1528 19.9301 29.6876 19.7021 29.5418 19.2651C29.4021 18.8469 29.6284 18.437 30.0127 18.2198C30.7991 17.7755 32.039 17.1279 34.0778 17.4917C34.5352 17.5735 34.8938 17.9291 34.926 18.393Z" fill="#171717"/>
<path d="M37.6891 18.6115C37.7091 19.1742 38.0525 19.669 38.4302 19.679C39.0008 19.6938 39.8403 19.7956 40.6493 20.189C40.95 20.3353 41.2377 20.1329 41.2986 19.7116C41.3569 19.3078 41.175 18.8961 40.9052 18.6654C40.3525 18.1937 39.4852 17.5026 38.1744 17.7668C37.8797 17.8259 37.673 18.1584 37.6891 18.6115Z" fill="#171717"/>
<path opacity="0.26" d="M35.9292 22.4364C35.9053 24.5022 34.2472 26.1577 32.2257 26.1347C30.2043 26.1116 28.5849 24.4178 28.6084 22.352C28.6323 20.2861 30.2904 18.6302 32.3119 18.6537C34.3334 18.6772 35.9527 20.3705 35.9292 22.4364Z" fill="white"/>
<path opacity="0.26" d="M44.4029 22.503C44.3803 24.4866 42.9572 26.0785 41.2247 26.0589C39.4922 26.0389 38.1065 24.4148 38.1292 22.4307C38.1518 20.4471 39.5749 18.8552 41.3074 18.8748C43.0403 18.8948 44.426 20.5194 44.4029 22.503Z" fill="white"/>
<path d="M35.9292 22.4364C35.9053 24.5022 34.2472 26.1577 32.2257 26.1347C30.2043 26.1116 28.5849 24.4178 28.6084 22.352C28.6323 20.2861 30.2904 18.6302 32.3119 18.6537C34.3334 18.6772 35.9527 20.3705 35.9292 22.4364Z" stroke="white" stroke-width="1.3744" stroke-miterlimit="10" stroke-linecap="round" stroke-linejoin="round"/>
<path d="M44.4029 22.503C44.3803 24.4866 42.9572 26.0785 41.2247 26.0589C39.4922 26.0389 38.1065 24.4148 38.1292 22.4307C38.1518 20.4471 39.5749 18.8552 41.3074 18.8748C43.0403 18.8948 44.426 20.5194 44.4029 22.503Z" stroke="white" stroke-width="1.3744" stroke-miterlimit="10" stroke-linecap="round" stroke-linejoin="round"/>
<path d="M35.929 22.4364C35.929 22.4364 37.0396 21.5111 38.1293 22.4307" stroke="white" stroke-width="1.3744" stroke-miterlimit="10" stroke-linecap="round" stroke-linejoin="round"/>
<path d="M28.6084 22.3524L24.9036 22.8955" stroke="white" stroke-width="1.3744" stroke-miterlimit="10" stroke-linecap="round" stroke-linejoin="round"/>
<path d="M37.7362 28.2079L34.4666 28.2619C34.4666 28.2619 34.4592 29.2724 36.1255 29.2554C37.7919 29.2389 37.7362 28.2079 37.7362 28.2079Z" fill="white"/>
<path d="M21.714 8.53502C21.8433 9.35884 22.6157 9.92199 23.4396 9.79273C24.2634 9.66348 24.8265 8.89101 24.6973 8.06719C24.568 7.24337 23.7955 6.68023 22.9717 6.80948C22.1479 6.93873 21.5848 7.7112 21.714 8.53502Z" fill="#A8527E"/>
<path d="M25.392 7.16981C19.9207 9.36884 17.1333 15.2587 19.1396 20.3496L37.6444 10.0247C34.9005 6.63669 29.9345 5.34417 25.392 7.16981Z" fill="#28466D"/>
<path d="M25.7502 16.6614C25.7502 16.6614 30.503 10.3702 37.3516 9.67348L44.7203 8.63338C44.7203 8.63338 39.0223 10.7367 36.7685 13.1537C34.5146 15.5712 28.4924 17.3599 25.7502 16.6614Z" fill="#EF758D"/>
<path d="M30.7187 44.9376L31.3419 47.8399C31.3419 47.8399 26.0921 51.227 21.9648 45.7318L20.8894 38.253L30.7187 44.9376Z" fill="#EDB892"/>
<path d="M20.8893 38.253C20.8893 38.253 25.2539 47.8399 23.2054 54.3652C22.6184 56.2361 17.047 59.2215 17.047 59.2215C15.5295 60.6533 13.0515 59.4091 13.293 57.3367L15.2941 40.1661C15.6178 37.387 18.2329 35.3612 20.9703 35.9417C21.1578 35.9813 21.3515 36.0292 21.5508 36.0849L20.8893 38.253Z" fill="#EF758D"/>
</g>
</svg>
