<svg width="79" height="77" viewBox="0 0 79 77" fill="none" xmlns="http://www.w3.org/2000/svg">
<path d="M79 38.3164C79 47.4835 75.623 55.8891 69.9906 62.4437C66.8025 66.1691 62.883 69.2971 58.4454 71.6343C57.6042 72.0794 56.7386 72.4953 55.8547 72.8819C50.8745 75.0609 45.3336 76.2734 39.5 76.2734C33.6664 76.2734 28.1255 75.0609 23.1453 72.8819C22.2614 72.4953 21.3958 72.0794 20.5546 71.6343C16.117 69.2971 12.1975 66.1691 9.00941 62.4437C3.37701 55.8891 0 47.4835 0 38.3164C0 17.3522 17.6836 0.359375 39.5 0.359375C61.3164 0.359375 79 17.3522 79 38.3164Z" fill="#D7EAF1"/>
<path d="M69.9907 62.4437C66.8027 66.1691 62.8831 69.2971 58.4455 71.6342C57.6043 72.0794 56.7387 72.4953 55.8548 72.8819C50.8746 75.0609 45.3337 76.2734 39.5001 76.2734C33.6665 76.2734 28.1256 75.0609 23.1454 72.8819C22.2615 72.4953 21.3959 72.0794 20.5547 71.6342C16.1171 69.2971 12.1976 66.1691 9.00952 62.4437C10.2226 59.4153 12.8681 57.0665 16.2024 56.182L25.669 53.6691L28.9912 52.7846L32.0329 51.9762L32.3925 50.0315H46.6077L46.6808 50.4298L46.9673 51.9762L50.0091 52.7846L53.3312 53.6691L62.7978 56.182C66.1321 57.0665 68.7777 59.4153 69.9907 62.4437Z" fill="#0C415B"/>
<path d="M46.6063 50.0315H32.3936L32.0327 51.9762L28.991 52.7846L29.0824 52.9369C29.7651 56.8497 33.5018 59.2455 39.0488 59.2455C39.2378 59.2455 39.3902 59.2455 39.4999 59.2396C39.6096 59.2455 39.762 59.2455 39.951 59.2455C45.492 59.2455 49.2347 56.8497 49.9174 52.9369L50.0089 52.7846L46.9671 51.9762L46.6063 50.0315Z" fill="#1D627D"/>
<path d="M46.9671 51.9762C46.6319 56.7384 39.4999 56.305 39.4999 56.305C39.4999 56.305 32.368 56.7384 32.0327 51.9762L33.3311 44.994L33.9894 41.4326L39.4999 43.5062L45.0104 41.4326L46.6806 50.4298L46.9671 51.9762Z" fill="#F69779"/>
<path d="M46.6806 50.4298C44.8336 51.0039 43.4438 51.0039 43.4438 51.0039C43.4438 51.0039 36.7873 51.0039 33.3311 44.994L33.9894 41.4326L39.4999 43.5062L45.0104 41.4326L46.6806 50.4298Z" fill="#F37A67"/>
<path d="M52.6301 24.1118C52.6301 24.1118 57.0251 32.6053 55.9584 35.2412C54.8916 37.8771 47.1196 39.543 46.9672 39.2958C46.8149 39.0486 49.1879 24.1118 49.1879 24.1118H52.6301Z" fill="#051733"/>
<path d="M53.7518 32.6931C53.197 33.478 52.3741 34.0697 51.411 34.2805C51.3988 34.345 51.3927 34.4094 51.3805 34.468C49.6006 45.7028 39.5001 45.7028 39.5001 45.7028C39.5001 45.7028 29.3995 45.7028 27.6196 34.468C27.6074 34.4094 27.6013 34.345 27.5891 34.2805C26.626 34.0697 25.8031 33.478 25.2483 32.6931C24.6936 31.9082 24.462 30.9242 24.6083 29.9811C24.6815 29.5183 24.8643 29.0439 25.2362 28.7334C25.5714 28.4523 26.0286 28.3351 26.4736 28.3527C26.9003 28.3703 27.3087 28.505 27.6927 28.6807C27.711 28.6866 27.7293 28.6983 27.7476 28.7041C27.7476 28.7041 27.7476 28.669 27.7476 28.6046C27.7659 27.5033 28.0097 17.8969 31.7707 17.7798C34.3797 17.6509 35.544 18.4065 39.5001 18.4065C43.4561 18.4065 44.6204 17.6509 47.2294 17.7798C50.9904 17.8969 51.2342 27.5092 51.2525 28.6046C51.2525 28.669 51.2525 28.7041 51.2525 28.7041C51.2708 28.6983 51.2891 28.6866 51.3074 28.6807C51.6914 28.505 52.0998 28.3703 52.5265 28.3527C52.9715 28.3351 53.4287 28.4523 53.7639 28.7334C54.1358 29.0439 54.3186 29.5183 54.3918 29.9811C54.5381 30.9242 54.3065 31.9082 53.7518 32.6931Z" fill="#F69779"/>
<path d="M52.6301 26.6394L51.0939 31.7343C51.0939 31.7343 49.3012 31.1737 49.1342 28.4909C49.0994 27.9351 48.9915 27.385 48.7672 26.8713L48.4356 26.1116C48.1625 25.486 48.0217 24.8141 48.0217 24.1358V20.8995L51.9467 24.0158L52.6301 26.6394Z" fill="#E44424"/>
<path d="M26.3701 26.6394L27.9062 31.7343C27.9062 31.7343 29.699 31.1737 29.866 28.4909C29.9007 27.9351 30.0086 27.385 30.2329 26.8713L30.5646 26.1116C30.8376 25.486 30.9784 24.8141 30.9784 24.1358V20.8995L27.0534 24.0158L26.3701 26.6394Z" fill="#E44424"/>
<path d="M39.5001 13.9097C40.5101 13.9097 41.3288 13.1229 41.3288 12.1524C41.3288 11.1819 40.5101 10.3951 39.5001 10.3951C38.4901 10.3951 37.6714 11.1819 37.6714 12.1524C37.6714 13.1229 38.4901 13.9097 39.5001 13.9097Z" fill="#3537A1"/>
<path d="M53.5811 28.6046H52.0389C51.6 27.3452 50.9904 25.9335 50.326 24.9143C50.2285 24.762 50.1248 24.6214 50.0273 24.4867C47.9426 23.4558 45.0776 22.8817 42.8649 22.5713C40.6339 22.2608 38.3663 22.2608 36.1352 22.5713C33.9225 22.8817 31.0575 23.4558 28.9728 24.4867C28.1926 25.5176 27.4672 27.1578 26.9612 28.6046H25.419C25.419 28.6046 24.5352 19.9822 27.5464 16.5263C27.5464 16.5263 31.4781 12.426 39.5001 12.4318C47.522 12.426 51.4537 16.5263 51.4537 16.5263C54.4649 19.9822 53.5811 28.6046 53.5811 28.6046Z" fill="#3537A1"/>
<path d="M51.4539 16.5263L50.3262 24.9143C50.2287 24.762 50.125 24.6214 50.0275 24.4867C47.9428 23.4558 45.0778 22.8817 42.8651 22.5713C40.6341 22.2608 38.3665 22.2608 36.1354 22.5713C33.9227 22.8817 31.0577 23.4558 28.973 24.4867L27.5466 16.5263C27.5466 16.5263 31.4783 12.426 39.5003 12.4318C47.5222 12.426 51.4539 16.5263 51.4539 16.5263Z" fill="#4749D6"/>
<path d="M41.2782 20.7437H37.7226C37.049 20.7437 36.5034 20.2195 36.5034 19.5722C36.5034 18.9249 37.049 18.4007 37.7226 18.4007H41.2782C41.9517 18.4007 42.4973 18.9249 42.4973 19.5722C42.4973 20.2195 41.9511 20.7437 41.2782 20.7437Z" fill="#E44424"/>
<path d="M23.1451 72.8819C22.2612 72.4953 21.3956 72.0794 20.5544 71.6343L22.5294 66.3917L23.1451 72.8819Z" fill="#051733"/>
<path d="M58.4454 71.6343C57.6042 72.0794 56.7386 72.4953 55.8547 72.8819L56.4704 66.3917L58.4454 71.6343Z" fill="#051733"/>
<path d="M38.9277 29.943V36.6446H40.1097C42.1353 36.644 39.3038 30.7127 38.9277 29.943Z" fill="#F37A67"/>
<path d="M47.5209 27.3317C45.8872 26.5561 44.0719 26.4413 42.3688 27.0915C41.6477 27.3674 41.9616 28.5009 42.6931 28.2215C44.0884 27.6884 45.5495 27.6995 46.9058 28.3433C47.608 28.6766 48.2255 27.6662 47.5209 27.3317Z" fill="#E44424"/>
<path d="M44.9004 31.0477C45.5353 31.0477 46.05 30.5531 46.05 29.943C46.05 29.3329 45.5353 28.8383 44.9004 28.8383C44.2655 28.8383 43.7507 29.3329 43.7507 29.943C43.7507 30.5531 44.2655 31.0477 44.9004 31.0477Z" fill="#051733"/>
<path d="M31.4795 27.3317C33.1131 26.5561 34.929 26.4413 36.6316 27.0915C37.3527 27.3674 37.0387 28.5009 36.3073 28.2215C34.912 27.6884 33.4508 27.6995 32.0945 28.3433C31.3923 28.6766 30.7748 27.6662 31.4795 27.3317Z" fill="#E44424"/>
<path d="M34.0998 31.0477C34.7348 31.0477 35.2495 30.5531 35.2495 29.943C35.2495 29.3329 34.7348 28.8383 34.0998 28.8383C33.4649 28.8383 32.9502 29.3329 32.9502 29.943C32.9502 30.5531 33.4649 31.0477 34.0998 31.0477Z" fill="#051733"/>
<path d="M35.7537 39.3819C36.159 40.8357 37.6799 41.9182 39.5001 41.9182C41.3196 41.9182 42.8411 40.8357 43.2465 39.3819H35.7537Z" fill="white"/>
</svg>
