<svg width="758" height="861" viewBox="0 0 758 861" fill="none" xmlns="http://www.w3.org/2000/svg">
<path d="M774.361 292.051C775.304 292.051 775.391 290.167 774.294 290.03C769.839 289.47 765.379 285.477 760.93 284.888C756.614 284.316 752.099 283.813 748.152 281.829C741.521 278.497 737.397 271.831 730.541 268.641C718.511 263.029 706.115 265.434 694.404 270.375C687.095 273.454 680.172 274.642 672.276 273.634C665.439 272.768 658.779 270.879 651.968 269.899C645.886 269.021 639.641 268.863 633.729 270.776C627.616 272.756 622.361 276.595 616.611 279.369C609.03 283.031 601.542 282.41 593.386 282.644C587.5 282.818 575.211 286.536 575.211 290.503C575.208 293.179 762.696 292.051 774.361 292.051Z" fill="#EBEBEB"/>
<path d="M91.6846 356.692C99.8958 356.692 304.839 355.262 362.727 355.262C366.776 355.262 361.659 348.245 359.427 347.756C352.308 346.196 344.893 346.115 337.66 345.366C330.4 344.61 323.647 343.009 316.915 340.162C311.22 337.756 305.537 334.972 299.368 334.009C287.441 332.138 276.98 338.607 265.793 341.464C258.523 343.319 251.923 342.569 245.461 338.683C240.289 335.578 235.59 331.853 230.182 329.11C209.649 318.728 184.635 317.769 163.212 326.038C158.092 328.024 153.154 330.526 148.562 333.546C143.101 337.133 138.389 341.722 132.908 345.266C120.768 353.132 105.761 350.573 92.5205 355.08C91.7946 355.323 90.9759 356.692 91.6846 356.692Z" fill="#EBEBEB"/>
<path d="M465.411 196.41C473.623 196.41 678.566 194.98 736.454 194.98C740.503 194.98 735.386 187.963 733.155 187.474C726.036 185.914 718.621 185.833 711.389 185.084C704.128 184.328 697.376 182.727 690.644 179.88C684.949 177.474 679.266 174.69 673.096 173.727C661.17 171.856 650.709 178.325 639.522 181.182C632.251 183.037 625.652 182.287 619.19 178.401C614.018 175.296 609.319 171.571 603.911 168.828C583.378 158.446 558.364 157.487 536.941 165.756C531.821 167.742 526.882 170.244 522.29 173.264C516.829 176.851 512.118 181.44 506.636 184.984C494.497 192.85 479.49 190.291 466.249 194.798C465.521 195.039 464.703 196.41 465.411 196.41Z" fill="#EBEBEB"/>
<path d="M207.664 150.214C218.523 150.214 401.24 151.417 412.723 151.052C413.548 151.028 413.99 149.812 413.172 149.406C405.932 145.817 397.721 146.537 390.199 144.001C385.772 142.508 383.054 139.609 379.982 136.288C377.33 133.414 374.253 131.211 370.474 130.073C367.132 129.069 363.519 128.94 360.123 129.748C356.415 130.633 353.197 132.758 349.661 134.097C340.883 137.414 332.354 134.263 326.086 127.759C320.916 122.4 315.835 117.342 308.809 114.456C302.926 112.037 296.394 111.534 290.505 114.203C283.802 117.242 279.204 123.357 272.909 127.034C265.446 131.401 256.521 130.367 248.28 131.685C240.016 133.007 233.708 139.954 226.481 143.954C224.011 145.323 221.483 146.468 218.6 146.398C216.985 146.356 215.399 145.919 213.801 145.719C211.314 145.413 208.951 145.483 207.276 147.56C206.868 148.064 206.952 150.214 207.664 150.214Z" fill="#EBEBEB"/>
<path d="M465.649 628.819C473.576 628.819 606.978 629.698 615.361 629.431C615.963 629.413 616.286 628.525 615.688 628.229C610.402 625.609 604.408 626.135 598.916 624.282C595.684 623.192 593.699 621.075 591.458 618.651C589.521 616.552 587.275 614.945 584.516 614.113C582.076 613.382 579.437 613.287 576.958 613.876C574.251 614.521 571.902 616.073 569.32 617.051C562.911 619.472 556.683 617.172 552.11 612.424C548.336 608.512 544.626 604.82 539.495 602.712C535.2 600.945 530.431 600.578 526.133 602.526C521.239 604.746 517.882 609.209 513.286 611.894C507.837 615.083 501.322 614.329 495.305 615.29C489.271 616.254 484.665 621.327 479.39 624.247C477.587 625.248 475.74 626.083 473.636 626.031C472.456 626 471.299 625.682 470.133 625.535C468.316 625.312 466.591 625.363 465.368 626.88C465.067 627.252 465.128 628.819 465.649 628.819Z" fill="#EBEBEB"/>
<path d="M88.2085 102.352C97.9127 102.352 311.009 102.352 314.714 102.352C315.629 102.352 315.967 101.379 315.051 100.947C306.941 97.1346 297.851 98.123 289.452 95.4815C284.509 93.9282 281.428 90.777 277.945 87.1625C274.937 84.037 271.474 81.6659 267.257 80.4897C263.528 79.4548 259.517 79.3928 255.771 80.3692C251.679 81.4368 248.158 83.8666 244.268 85.4336C234.61 89.315 225.077 86.0156 217.979 78.9485C212.122 73.1247 206.371 67.6333 198.512 64.5939C191.933 62.0454 184.678 61.6407 178.207 64.7351C170.844 68.2601 165.885 75.1464 158.988 79.3687C150.813 84.3832 140.892 83.4447 131.783 85.0944C122.648 86.7509 115.078 90.6857 107.156 95.2903C104.449 96.8659 101.671 98.1936 98.4717 98.1816C96.6795 98.1729 94.9113 97.7252 93.1346 97.5392C90.3688 97.2568 87.7492 97.3894 85.9398 99.7314C85.5012 100.303 82.8765 102.352 88.2085 102.352Z" fill="#EBEBEB"/>
<path d="M596.751 142.675C596.616 142.552 593.455 139.599 592.671 132.849C592.418 130.677 592.992 126.607 593.718 121.453C595.221 110.788 597.494 94.6721 591.553 92.5833C576.406 87.2606 552.49 88.9189 552.249 88.9361L552.125 87.2296C553.118 87.1573 576.633 85.5265 592.117 90.9681C599.38 93.5201 597.179 109.14 595.409 121.69C594.728 126.524 594.14 130.696 594.367 132.649C595.072 138.714 597.874 141.383 597.903 141.409L596.751 142.675Z" fill="#C7C7C7"/>
<path d="M606.46 153.172C606.431 153.112 603.576 147.062 601.548 145.047C599.578 143.09 597.181 142.478 597.156 142.473L597.568 140.813C597.685 140.842 600.45 141.548 602.75 143.833C604.991 146.06 607.884 152.183 608.005 152.443L606.46 153.172Z" fill="#C7C7C7"/>
<path d="M596.714 157.542C596.396 156.778 593.612 150.002 594.005 147.56C594.386 145.204 595.796 142.039 595.856 141.905L597.414 142.606C597.401 142.637 596.037 145.702 595.693 147.832C595.454 149.309 597.16 154.167 598.292 156.883L596.714 157.542Z" fill="#C7C7C7"/>
<path d="M605.146 156.526C605.115 156.463 602.141 150.153 601.303 148.426C600.655 147.088 597.554 143.661 596.415 142.452L597.657 141.278C598.096 141.741 601.959 145.862 602.841 147.679C603.682 149.414 606.661 155.732 606.69 155.796L605.146 156.526Z" fill="#C7C7C7"/>
<path d="M600.111 157.878C600.096 157.828 598.472 152.884 597.709 151.336C596.869 149.635 596.028 142.897 595.935 142.134L597.631 141.925C597.97 144.694 598.706 149.494 599.241 150.579C600.058 152.235 601.668 157.136 601.735 157.344L600.111 157.878Z" fill="#C7C7C7"/>
<path d="M545.773 107.797L487.434 77.2007L555.176 67.2992L610.058 105.459L545.773 107.797Z" fill="#C7C7C7"/>
<path d="M512.563 105.935L514.756 86.7248C514.756 86.7248 535.765 82.3939 550.491 85.8224C565.22 89.2509 581.486 100.719 581.486 100.719L575.589 120.605C575.589 120.605 556.835 111.88 544.886 109.354C532.937 106.829 512.563 105.935 512.563 105.935Z" fill="#C7C7C7"/>
<path d="M512.563 105.936C512.563 105.936 512.584 105.934 512.625 105.936C513.872 105.996 533.322 106.91 544.884 109.356C556.645 111.839 575.003 120.33 575.571 120.599C575.581 120.604 575.586 120.602 575.586 120.602L581.486 100.72C581.486 100.72 565.22 89.2478 550.486 85.821C535.759 82.3925 514.753 86.7251 514.753 86.7251L512.563 105.936Z" fill="#C7C7C7"/>
<path d="M566.09 114.194C566.116 114.205 566.138 114.22 566.166 114.232L565.478 115.612C563.353 114.74 561.166 113.922 558.978 113.163C557.33 112.708 555.66 112.297 553.983 111.925C550.796 110.861 547.657 109.939 544.886 109.356C542.937 108.944 540.765 108.574 538.491 108.245C540.386 108.464 542.28 108.703 544.172 108.97C542.215 108.55 540.249 108.212 538.277 107.909L538.489 105.908C538.52 105.91 538.549 105.912 538.58 105.915C542.271 106.141 545.93 106.476 549.588 106.969C549.229 106.866 548.868 106.773 548.505 106.683C546.896 106.414 545.28 106.17 543.666 105.941C541.434 105.627 539.18 105.331 536.951 105.076L536.874 105.07L537.061 102.44C537.087 102.442 537.118 102.445 537.144 102.447V102.444C537.178 102.445 537.209 102.452 537.244 102.454C538.221 102.524 539.206 102.578 540.182 102.674L540.042 100.921C541.196 100.773 542.254 100.701 543.355 100.639C543.384 100.637 543.419 100.634 543.45 100.637L543.448 97.9387C543.499 97.9387 543.551 97.9353 543.603 97.937C544.039 97.9267 544.471 97.9164 544.908 97.9112C543.059 97.634 541.198 97.4428 539.335 97.324L539.323 97.3257L539.476 94.2227L539.494 94.221C539.545 94.2261 539.602 94.2296 539.652 94.2313C541.234 94.3174 542.803 94.431 544.366 94.5671L544.512 92.7383C544.034 92.7039 543.556 92.6746 543.078 92.6402C543.061 92.6419 543.049 92.6419 543.032 92.6402L543.081 90.064C543.099 90.0623 543.112 90.0658 543.128 90.064C543.136 90.064 543.145 90.0623 543.154 90.0658C546.891 90.1553 550.582 90.4825 554.246 91.1007C550.426 89.5629 546.336 88.6933 542.235 88.3989H542.23L542.347 86.3359V86.3307C542.416 86.3342 542.485 86.3428 542.553 86.3462C543.448 86.3979 544.346 86.4771 545.24 86.589C545.288 86.5942 545.331 86.5994 545.378 86.6045C548.536 86.9111 551.683 87.314 554.796 87.8892C551.515 86.6941 548.157 85.716 544.752 84.886C545.187 84.9273 545.615 84.9773 546.043 85.0375C547.569 85.2304 549.062 85.4921 550.491 85.8262C551.446 86.0483 552.411 86.3049 553.374 86.5908C555.856 87.3243 558.352 88.2456 560.773 89.2668C562.173 89.8557 563.551 90.4808 564.888 91.1179C564.927 91.1403 564.968 91.1592 565.003 91.1747L564.502 92.2407C562.516 91.5484 560.491 90.9836 558.439 90.5152C559.186 90.8906 559.919 91.3004 560.636 91.7327C562.361 92.6712 566.174 95.9894 567.763 97.2327L565.111 96.3924L564.055 98.3779C564.052 98.3779 564.047 98.3744 564.041 98.3744L563.097 100.823C562.873 100.758 562.65 100.692 562.425 100.635L562.017 101.459C563.453 101.96 564.874 102.524 566.269 103.153L565.189 106.036C561.974 105.183 558.702 104.546 555.4 104.143C558.496 105.192 561.52 106.363 564.544 107.653C564.557 107.659 564.566 107.665 564.58 107.668C564.588 107.677 564.602 107.68 564.611 107.684L563.498 110.308C563.489 110.304 563.481 110.301 563.472 110.298C563.035 110.118 562.59 109.95 562.134 109.795C565.307 111.846 568.936 114.537 570.909 115.849L561.217 111.92C559.636 111.279 557.925 110.816 556.195 110.418C558.329 111.138 560.441 111.92 562.542 112.75C562.564 112.757 562.586 112.763 562.603 112.77C563.811 113.175 565.018 113.645 566.095 114.203L566.09 114.194Z" fill="#C7C7C7"/>
<path d="M512.563 105.936C512.563 105.936 529.889 113.371 542.631 115.892C555.178 118.375 574.956 120.537 575.572 120.6C575.005 120.332 556.645 111.84 544.886 109.357C533.324 106.912 513.874 105.996 512.627 105.937C512.584 105.934 512.563 105.936 512.563 105.936Z" fill="#C7C7C7"/>
<path d="M263.563 235.471C263.693 235.349 266.789 232.386 267.486 225.694C267.709 223.541 267.094 219.517 266.313 214.422C264.698 203.88 262.255 187.949 268.114 185.811C283.047 180.361 306.75 181.717 306.987 181.731L307.089 180.04C306.105 179.98 282.801 178.647 267.534 184.22C260.372 186.834 262.739 202.273 264.639 214.678C265.372 219.455 266.003 223.581 265.802 225.518C265.176 231.531 262.432 234.209 262.405 234.235L263.563 235.471Z" fill="#C7C7C7"/>
<path d="M259.563 247.563C259.567 247.498 259.976 240.884 261.103 238.285C262.197 235.761 264.177 234.318 264.197 234.304L263.21 232.928C263.114 232.997 260.828 234.664 259.551 237.612C258.306 240.482 257.892 247.178 257.874 247.462L259.563 247.563Z" fill="#C7C7C7"/>
<path d="M270.129 248.001C270.143 247.179 270.217 239.925 268.962 237.825C267.749 235.799 265.291 233.407 265.186 233.305L264.008 234.523C264.032 234.547 266.411 236.863 267.508 238.697C268.268 239.968 268.482 245.063 268.435 247.975L270.129 248.001Z" fill="#C7C7C7"/>
<path d="M262.002 250.165C262.008 250.096 262.429 243.2 262.565 241.304C262.672 239.833 264.266 235.544 264.871 234.015L263.298 233.391C263.065 233.978 261.02 239.187 260.878 241.183C260.74 243.09 260.317 249.995 260.313 250.064L262.002 250.165Z" fill="#C7C7C7"/>
<path d="M267.128 249.557C267.125 249.506 266.805 244.362 266.941 242.659C267.088 240.786 265.393 234.28 265.198 233.544L263.563 233.977C264.266 236.648 265.348 241.331 265.253 242.526C265.109 244.35 265.425 249.449 265.439 249.666L267.128 249.557Z" fill="#C7C7C7"/>
<path d="M313.623 200.329L371.025 169.338L303.831 160.341L249.942 198.779L313.623 200.329Z" fill="#C7C7C7"/>
<path d="M346.485 198.09L344.086 179.095C344.086 179.095 323.234 175.057 308.692 178.626C294.149 182.196 278.179 193.747 278.179 193.747L284.254 213.366C284.254 213.366 302.722 204.503 314.523 201.86C326.322 199.218 346.485 198.09 346.485 198.09Z" fill="#C7C7C7"/>
<path d="M346.485 198.089C346.485 198.089 346.465 198.087 346.423 198.09C345.19 198.164 325.942 199.303 314.523 201.861C302.907 204.46 284.83 213.087 284.27 213.361C284.259 213.366 284.254 213.364 284.254 213.364L278.177 193.749C278.177 193.749 294.148 182.196 308.694 178.626C323.234 175.057 344.086 179.095 344.086 179.095L346.485 198.089Z" fill="#C7C7C7"/>
<path d="M293.583 206.907C293.558 206.919 293.535 206.934 293.509 206.945L294.208 208.302C296.301 207.415 298.458 206.576 300.615 205.8C302.242 205.33 303.89 204.902 305.546 204.515C308.688 203.423 311.786 202.473 314.523 201.861C316.447 201.431 318.596 201.038 320.842 200.685C318.967 200.925 317.094 201.185 315.224 201.471C317.158 201.031 319.1 200.673 321.048 200.35L320.816 198.371C320.787 198.373 320.756 198.376 320.727 198.378C317.073 198.645 313.456 199.02 309.839 199.552C310.193 199.445 310.551 199.349 310.907 199.256C312.497 198.97 314.094 198.71 315.689 198.462C317.897 198.125 320.125 197.804 322.328 197.527L322.405 197.519L322.189 194.917C322.163 194.92 322.134 194.922 322.108 194.925V194.922C322.073 194.924 322.044 194.93 322.01 194.932C321.043 195.013 320.068 195.078 319.103 195.185L319.22 193.448C318.074 193.315 317.027 193.257 315.937 193.207C315.907 193.205 315.873 193.203 315.844 193.205L315.814 190.534C315.763 190.536 315.713 190.532 315.661 190.534C315.23 190.529 314.801 190.524 314.37 190.524C316.198 190.226 318.037 190.016 319.88 189.876H319.893L319.705 186.806L319.688 186.804C319.636 186.809 319.581 186.815 319.53 186.816C317.964 186.921 316.413 187.052 314.865 187.205L314.698 185.396C315.171 185.356 315.644 185.322 316.117 185.282C316.134 185.284 316.146 185.284 316.164 185.28L316.084 182.73C316.067 182.728 316.055 182.732 316.038 182.732C316.029 182.732 316.021 182.73 316.012 182.735C312.312 182.868 308.663 183.236 305.04 183.892C308.805 182.325 312.844 181.414 316.9 181.075H316.903L316.764 179.035V179.031C316.695 179.036 316.628 179.045 316.559 179.048C315.673 179.109 314.786 179.2 313.902 179.32C313.855 179.326 313.812 179.333 313.766 179.338C310.642 179.679 307.531 180.114 304.454 180.722C307.689 179.5 311.002 178.49 314.364 177.629C313.934 177.676 313.511 177.731 313.086 177.795C311.578 178.005 310.102 178.28 308.692 178.628C307.749 178.859 306.796 179.124 305.847 179.419C303.398 180.175 300.938 181.117 298.552 182.157C297.173 182.756 295.816 183.391 294.502 184.037C294.462 184.059 294.423 184.078 294.388 184.094L294.897 185.143C296.857 184.433 298.853 183.849 300.88 183.36C300.145 183.741 299.425 184.156 298.719 184.592C297.022 185.542 293.286 188.872 291.728 190.123L294.344 189.258L295.412 191.211C295.417 191.211 295.42 191.207 295.426 191.207L296.39 193.622C296.611 193.555 296.831 193.487 297.054 193.429L297.467 194.238C296.05 194.751 294.65 195.328 293.277 195.967L294.381 198.808C297.555 197.927 300.787 197.257 304.051 196.818C300.998 197.894 298.018 199.089 295.04 200.401C295.026 200.41 295.018 200.413 295.006 200.417C294.997 200.425 294.983 200.429 294.975 200.432L296.107 203.017C296.115 203.013 296.124 203.01 296.132 203.005C296.562 202.822 297.001 202.65 297.452 202.49C294.335 204.56 290.771 207.267 288.836 208.589L298.386 204.584C299.942 203.931 301.633 203.453 303.341 203.038C301.237 203.776 299.153 204.575 297.085 205.423C297.063 205.429 297.042 205.436 297.025 205.445C295.835 205.862 294.645 206.34 293.585 206.905L293.583 206.907Z" fill="#C7C7C7"/>
<path d="M346.484 198.089C346.484 198.089 329.418 205.658 316.831 208.307C304.437 210.916 284.877 213.29 284.27 213.361C284.829 213.087 302.906 204.462 314.523 201.861C325.942 199.301 345.19 198.164 346.423 198.09C346.463 198.089 346.484 198.089 346.484 198.089Z" fill="#C7C7C7"/>
<path d="M574.43 248.86C574.279 248.832 570.687 248.128 567.108 243.63C565.956 242.184 564.549 239.003 562.767 234.976C559.079 226.643 553.506 214.048 548.305 215.21C535.047 218.174 518.609 230.082 518.446 230.202L517.594 229.031C518.276 228.535 534.437 216.827 547.99 213.797C554.349 212.376 559.75 224.58 564.088 234.388C565.76 238.165 567.203 241.426 568.238 242.728C571.455 246.768 574.662 247.429 574.695 247.436L574.43 248.86Z" fill="#C7C7C7"/>
<path d="M582.872 255.72C582.837 255.674 579.501 251.102 577.495 249.752C575.546 248.44 573.457 248.314 573.436 248.312L573.513 246.866C573.615 246.871 576.026 247.017 578.302 248.55C580.519 250.043 583.899 254.672 584.042 254.868L582.872 255.72Z" fill="#C7C7C7"/>
<path d="M575.469 260.907C575.082 260.322 571.69 255.135 571.628 253.043C571.57 251.025 572.237 248.168 572.266 248.047L573.673 248.38C573.666 248.407 573.021 251.173 573.075 252.998C573.113 254.264 575.304 258.03 576.676 260.105L575.469 260.907Z" fill="#C7C7C7"/>
<path d="M582.315 258.718C582.28 258.67 578.802 253.9 577.832 252.598C577.079 251.589 573.957 249.235 572.818 248.414L573.663 247.24C574.102 247.555 577.968 250.363 578.992 251.732C579.967 253.041 583.448 257.816 583.484 257.864L582.315 258.718Z" fill="#C7C7C7"/>
<path d="M578.345 260.645C578.324 260.607 576.186 256.757 575.306 255.593C574.337 254.312 572.564 248.846 572.366 248.228L573.742 247.785C574.465 250.033 575.841 253.904 576.458 254.72C577.401 255.965 579.52 259.783 579.609 259.944L578.345 260.645Z" fill="#C7C7C7"/>
<path d="M522.225 246.651L466.645 250.816L510.876 213.351L567.354 216.166L522.225 246.651Z" fill="#C7C7C7"/>
<path d="M497.539 260.194L490.527 245.414C490.527 245.414 503.68 232.89 515.79 228.754C527.901 224.616 544.712 225.566 544.712 225.566L549.366 242.49C549.366 242.49 531.994 244.627 522.285 248.168C512.572 251.708 497.539 260.194 497.539 260.194Z" fill="#C7C7C7"/>
<path d="M497.541 260.194C497.541 260.194 497.555 260.184 497.586 260.166C498.508 259.652 512.887 251.593 522.285 248.169C531.843 244.682 548.824 242.556 549.353 242.495C549.363 242.494 549.366 242.492 549.366 242.492L544.715 225.568C544.715 225.568 527.904 224.617 515.79 228.757C503.68 232.893 490.529 245.418 490.529 245.418L497.541 260.194Z" fill="#C7C7C7"/>
<path d="M539.678 242.142C539.702 242.139 539.724 242.139 539.748 242.136L539.87 243.436C537.956 243.761 536.017 244.154 534.106 244.589C532.718 245.001 531.336 245.454 529.966 245.939C527.202 246.602 524.536 247.348 522.285 248.169C520.701 248.746 518.976 249.456 517.195 250.238C518.656 249.545 520.123 248.869 521.6 248.213C520.006 248.788 518.444 249.427 516.893 250.091L516.15 248.56C516.172 248.548 516.194 248.536 516.217 248.524C518.969 247.031 521.745 245.635 524.595 244.348C524.292 244.436 523.989 244.531 523.688 244.629C522.412 245.156 521.143 245.705 519.88 246.263C518.136 247.038 516.385 247.835 514.67 248.652L514.612 248.681L513.57 246.709C513.59 246.699 513.613 246.687 513.632 246.678L513.63 246.675C513.656 246.661 513.68 246.652 513.706 246.637C514.44 246.249 515.171 245.846 515.914 245.478L515.03 244.281C515.794 243.658 516.519 243.133 517.283 242.594C517.304 242.578 517.326 242.563 517.35 242.551L516.143 240.615C516.181 240.593 516.215 240.567 516.253 240.544C516.562 240.341 516.867 240.142 517.178 239.942C515.727 240.57 514.304 241.268 512.913 242.018L512.904 242.025L511.626 239.728L511.638 239.72C511.678 239.701 511.719 239.678 511.757 239.656C512.932 239.008 514.108 238.389 515.293 237.784L514.581 236.405C514.223 236.594 513.867 236.787 513.508 236.976C513.496 236.985 513.487 236.992 513.473 236.997L512.357 235.124C512.369 235.115 512.379 235.112 512.391 235.103C512.397 235.098 512.403 235.094 512.41 235.093C515.135 233.483 517.933 232.064 520.84 230.865C517.409 231.473 514.082 232.682 511.007 234.307L511.003 234.309L510.166 232.775L510.164 232.771C510.216 232.744 510.269 232.718 510.319 232.689C510.984 232.324 511.664 231.981 512.357 231.659C512.393 231.642 512.428 231.626 512.464 231.609C514.868 230.414 517.309 229.293 519.803 228.311C516.912 228.924 514.063 229.725 511.246 230.655C511.578 230.49 511.906 230.335 512.242 230.185C513.425 229.641 514.614 229.159 515.788 228.757C516.573 228.489 517.381 228.241 518.2 228.015C520.31 227.43 522.515 226.973 524.71 226.622C525.979 226.417 527.249 226.248 528.492 226.107C528.532 226.105 528.568 226.1 528.601 226.095L528.718 227.085C526.982 227.478 525.274 227.979 523.592 228.561C524.296 228.496 525.006 228.463 525.713 228.453C527.373 228.353 531.594 229.028 533.291 229.209L531.01 229.792L531.139 231.692C531.136 231.693 531.131 231.693 531.129 231.695L531.545 233.877C531.356 233.93 531.167 233.984 530.978 234.044L531.053 234.817C532.309 234.533 533.582 234.302 534.865 234.128L535.378 236.684C532.687 237.512 530.052 238.521 527.5 239.709C530.192 239.076 532.887 238.561 535.636 238.134C535.649 238.134 535.656 238.132 535.668 238.128C535.679 238.13 535.689 238.127 535.697 238.125L536.071 240.508C536.062 240.51 536.055 240.512 536.047 240.512C535.653 240.579 535.257 240.658 534.86 240.749C538.056 240.801 541.867 241.108 543.869 241.166L535.152 242.687C533.731 242.935 532.294 243.369 530.875 243.859C532.729 243.42 534.597 243.034 536.475 242.69C536.494 242.685 536.513 242.68 536.528 242.678C537.577 242.428 538.654 242.225 539.678 242.142Z" fill="#C7C7C7"/>
<path d="M497.539 260.194C497.539 260.194 513.307 257.773 523.585 253.874C533.707 250.036 548.88 242.725 549.351 242.495C548.823 242.556 531.841 244.684 522.283 248.169C512.885 251.593 498.506 259.652 497.584 260.167C497.555 260.184 497.539 260.194 497.539 260.194Z" fill="#C7C7C7"/>
<path d="M317.018 556.323H542.878V809.068H317.018V556.323Z" fill="#DBDBDB"/>
<path d="M311.81 540.975H548.085V556.323H311.81V540.975Z" fill="#EBEBEB"/>
<path d="M374.673 705.865H485.224V721.213H374.673V705.865Z" fill="#EBEBEB"/>
<path d="M476.216 592.938H514.574V652.457H476.216V592.938Z" fill="#C7C7C7"/>
<path d="M480.171 597.296H510.618V648.101H480.171V597.296Z" fill="white"/>
<path d="M470.728 652.457H520.063V661.014H470.728V652.457Z" fill="#EBEBEB"/>
<g opacity="0.5">
<path d="M480.164 597.302V603.583L510.625 634.078V622.479L485.477 597.302H480.164Z" fill="#EBEBEB"/>
<path d="M480.164 634.963V640.763L487.498 648.106H493.293L480.164 634.963Z" fill="#EBEBEB"/>
<path d="M500.369 597.302L510.625 607.568V601.767L506.179 597.302H500.369Z" fill="#EBEBEB"/>
<path d="M480.164 625.868V627.733L500.513 648.106H502.376L480.164 625.868Z" fill="#EBEBEB"/>
</g>
<path d="M476.216 627.18H514.574V631.538H476.216V627.18Z" fill="#C7C7C7"/>
<path d="M410.769 592.938H449.126V652.457H410.769V592.938Z" fill="#C7C7C7"/>
<path d="M414.725 597.296H445.172V648.101H414.725V597.296Z" fill="white"/>
<path d="M405.282 652.457H454.617V661.014H405.282V652.457Z" fill="#EBEBEB"/>
<g opacity="0.5">
<path d="M414.718 597.302V603.583L445.177 634.078V622.479L420.029 597.302H414.718Z" fill="#EBEBEB"/>
<path d="M414.718 634.963V640.763L422.052 648.106H427.845L414.718 634.963Z" fill="#EBEBEB"/>
<path d="M434.923 597.302L445.177 607.568V601.767L440.733 597.302H434.923Z" fill="#EBEBEB"/>
<path d="M414.718 625.868V627.733L435.067 648.106H436.928L414.718 625.868Z" fill="#EBEBEB"/>
</g>
<path d="M410.769 627.18H449.126V631.538H410.769V627.18Z" fill="#C7C7C7"/>
<path d="M345.324 592.938H383.68V652.457H345.324V592.938Z" fill="#C7C7C7"/>
<path d="M349.277 597.296H379.724V648.101H349.277V597.296Z" fill="white"/>
<path d="M339.834 652.457H389.169V661.014H339.834V652.457Z" fill="#EBEBEB"/>
<g opacity="0.5">
<path d="M349.27 597.302V603.583L379.731 634.078V622.479L354.583 597.302H349.27Z" fill="#EBEBEB"/>
<path d="M349.27 634.963V640.763L356.604 648.106H362.399L349.27 634.963Z" fill="#EBEBEB"/>
<path d="M369.475 597.302L379.731 607.568V601.767L375.285 597.302H369.475Z" fill="#EBEBEB"/>
<path d="M349.27 625.868V627.733L369.619 648.106H371.482L349.27 625.868Z" fill="#EBEBEB"/>
</g>
<path d="M345.324 627.18H383.68V631.538H345.324V627.18Z" fill="#C7C7C7"/>
<path d="M382.986 721.213H476.913V809.07H382.986V721.213Z" fill="#C7C7C7"/>
<path d="M389.312 727.7H470.585V809.07H389.312V727.7Z" fill="white"/>
<g opacity="0.5">
<path d="M389.313 761.653V776.772L421.572 809.066H436.656L389.313 761.653Z" fill="#EBEBEB"/>
<path d="M449.367 727.702L470.583 748.943V733.823L464.469 727.702H449.367Z" fill="#EBEBEB"/>
<path d="M404.014 727.702L470.583 794.348V786.797L411.556 727.702H404.014Z" fill="#EBEBEB"/>
<path d="M389.313 784.612V792.18L406.197 809.066H413.739L389.313 784.612Z" fill="#EBEBEB"/>
<path d="M389.313 735.254V736.635L461.645 809.066H463.057L389.313 735.254Z" fill="#EBEBEB"/>
<path d="M440.573 727.702L470.583 757.747V756.351L441.97 727.702H440.573Z" fill="#EBEBEB"/>
<path d="M414.974 727.702L470.583 783.376V781.96L416.388 727.702H414.974Z" fill="#EBEBEB"/>
</g>
<path d="M427.336 727.7H432.559V809.07H427.336V727.7Z" fill="#C7C7C7"/>
<path d="M542.878 607.229H734.313V809.07H542.878V607.229Z" fill="#DBDBDB"/>
<path d="M560.008 607.229H542.878V809.068H550.465L560.008 607.229Z" fill="#C7C7C7"/>
<path d="M679.049 634.963H712.584V687.002H679.049V634.963Z" fill="#C7C7C7"/>
<path d="M682.506 638.772H709.127V683.191H682.506V638.772Z" fill="white"/>
<path d="M674.25 687.002H717.385V694.484H674.25V687.002Z" fill="#EBEBEB"/>
<g opacity="0.5">
<path d="M682.501 638.778V644.269L709.132 670.933V660.79L687.145 638.778H682.501Z" fill="#EBEBEB"/>
<path d="M682.501 671.706V676.777L688.913 683.197H693.977L682.501 671.706Z" fill="#EBEBEB"/>
<path d="M700.166 638.778L709.132 647.754V642.683L705.245 638.778H700.166Z" fill="#EBEBEB"/>
<path d="M682.501 663.754V665.384L700.291 683.197H701.92L682.501 663.754Z" fill="#EBEBEB"/>
</g>
<path d="M679.049 664.9H712.584V668.711H679.049V664.9Z" fill="#C7C7C7"/>
<path d="M621.828 634.963H655.365V687.002H621.828V634.963Z" fill="#C7C7C7"/>
<path d="M625.285 638.772H651.906V683.191H625.285V638.772Z" fill="white"/>
<path d="M617.029 687.002H660.164V694.484H617.029V687.002Z" fill="#EBEBEB"/>
<g opacity="0.5">
<path d="M625.28 638.778V644.269L651.911 670.933V660.79L629.924 638.778H625.28Z" fill="#EBEBEB"/>
<path d="M625.28 671.706V676.777L631.692 683.197H636.758L625.28 671.706Z" fill="#EBEBEB"/>
<path d="M642.945 638.778L651.911 647.754V642.683L648.024 638.778H642.945Z" fill="#EBEBEB"/>
<path d="M625.28 663.754V665.384L643.072 683.197H644.699L625.28 663.754Z" fill="#EBEBEB"/>
</g>
<path d="M621.828 664.9H655.365V668.711H621.828V664.9Z" fill="#C7C7C7"/>
<path d="M564.607 634.963H598.144V687.002H564.607V634.963Z" fill="#C7C7C7"/>
<path d="M568.064 638.772H594.685V683.191H568.064V638.772Z" fill="white"/>
<path d="M559.808 687.002H602.943V694.484H559.808V687.002Z" fill="#EBEBEB"/>
<g opacity="0.5">
<path d="M568.059 638.778V644.269L594.69 670.933V660.79L572.703 638.778H568.059Z" fill="#EBEBEB"/>
<path d="M568.059 671.706V676.777L574.471 683.197H579.537L568.059 671.706Z" fill="#EBEBEB"/>
<path d="M585.724 638.778L594.69 647.754V642.683L590.805 638.778H585.724Z" fill="#EBEBEB"/>
<path d="M568.059 663.754V665.384L585.851 683.197H587.478L568.059 663.754Z" fill="#EBEBEB"/>
</g>
<path d="M564.607 664.9H598.144V668.711H564.607V664.9Z" fill="#C7C7C7"/>
<path d="M679.049 713.538H712.584V765.577H679.049V713.538Z" fill="#C7C7C7"/>
<path d="M682.506 717.349H709.127V761.768H682.506V717.349Z" fill="white"/>
<path d="M674.25 765.577H717.385V773.059H674.25V765.577Z" fill="#EBEBEB"/>
<g opacity="0.5">
<path d="M682.501 717.353V722.846L709.132 749.507V739.367L687.145 717.353H682.501Z" fill="#EBEBEB"/>
<path d="M682.501 750.281V755.352L688.913 761.772H693.977L682.501 750.281Z" fill="#EBEBEB"/>
<path d="M700.166 717.353L709.132 726.329V721.258L705.245 717.353H700.166Z" fill="#EBEBEB"/>
<path d="M682.501 742.33V743.959L700.291 761.772H701.92L682.501 742.33Z" fill="#EBEBEB"/>
</g>
<path d="M679.049 743.477H712.584V747.288H679.049V743.477Z" fill="#C7C7C7"/>
<path d="M621.828 713.538H655.365V765.577H621.828V713.538Z" fill="#C7C7C7"/>
<path d="M625.285 717.349H651.906V761.768H625.285V717.349Z" fill="white"/>
<path d="M617.029 765.577H660.164V773.059H617.029V765.577Z" fill="#EBEBEB"/>
<g opacity="0.5">
<path d="M625.28 717.352V722.846L651.911 749.507V739.367L629.924 717.352H625.28Z" fill="#EBEBEB"/>
<path d="M625.28 750.281V755.352L631.692 761.771H636.758L625.28 750.281Z" fill="#EBEBEB"/>
<path d="M642.945 717.352L651.911 726.329V721.258L648.024 717.352H642.945Z" fill="#EBEBEB"/>
<path d="M625.28 742.33V743.959L643.072 761.772H644.699L625.28 742.33Z" fill="#EBEBEB"/>
</g>
<path d="M621.828 743.477H655.365V747.288H621.828V743.477Z" fill="#C7C7C7"/>
<path d="M564.607 713.538H598.144V765.577H564.607V713.538Z" fill="#C7C7C7"/>
<path d="M568.064 717.349H594.685V761.768H568.064V717.349Z" fill="white"/>
<path d="M559.808 765.577H602.943V773.059H559.808V765.577Z" fill="#EBEBEB"/>
<g opacity="0.5">
<path d="M568.059 717.352V722.846L594.69 749.507V739.367L572.703 717.352H568.059Z" fill="#EBEBEB"/>
<path d="M568.059 750.281V755.352L574.471 761.771H579.537L568.059 750.281Z" fill="#EBEBEB"/>
<path d="M585.724 717.352L594.69 726.329V721.258L590.805 717.352H585.724Z" fill="#EBEBEB"/>
<path d="M568.059 742.33V743.959L585.851 761.772H587.478L568.059 742.33Z" fill="#EBEBEB"/>
</g>
<path d="M564.607 743.477H598.144V747.288H564.607V743.477Z" fill="#C7C7C7"/>
<path d="M542.88 591.881H740.842V607.229H542.88V591.881Z" fill="#EBEBEB"/>
<path d="M317.121 809.068H125.686L125.686 607.227H317.121V809.068Z" fill="#DBDBDB"/>
<path d="M299.992 607.229H317.122V809.068H309.535L299.992 607.229Z" fill="#C7C7C7"/>
<path d="M180.952 687.001H147.416V634.962H180.952V687.001Z" fill="#C7C7C7"/>
<path d="M177.493 683.191H150.873V638.772H177.493V683.191Z" fill="white"/>
<path d="M185.751 694.482H142.617V687H185.751V694.482Z" fill="#EBEBEB"/>
<g opacity="0.5">
<path d="M177.501 638.778V644.269L150.868 670.933V660.79L172.855 638.778H177.501Z" fill="#EBEBEB"/>
<path d="M177.501 671.706V676.777L171.088 683.197H166.023L177.501 671.706Z" fill="#EBEBEB"/>
<path d="M159.834 638.778L150.868 647.754V642.683L154.755 638.778H159.834Z" fill="#EBEBEB"/>
<path d="M177.501 663.754V665.384L159.709 683.197H158.08L177.501 663.754Z" fill="#EBEBEB"/>
</g>
<path d="M180.952 668.711H147.416V664.9H180.952V668.711Z" fill="#C7C7C7"/>
<path d="M238.171 687.001H204.636V634.962H238.171V687.001Z" fill="#C7C7C7"/>
<path d="M234.714 683.191H208.093V638.772H234.714V683.191Z" fill="white"/>
<path d="M242.971 694.482H199.837V687H242.971V694.482Z" fill="#EBEBEB"/>
<g opacity="0.5">
<path d="M234.72 638.778V644.269L208.089 670.933V660.79L230.076 638.778H234.72Z" fill="#EBEBEB"/>
<path d="M234.72 671.706V676.777L228.308 683.197H223.242L234.72 671.706Z" fill="#EBEBEB"/>
<path d="M217.055 638.778L208.089 647.754V642.683L211.976 638.778H217.055Z" fill="#EBEBEB"/>
<path d="M234.72 663.754V665.384L216.928 683.197H215.301L234.72 663.754Z" fill="#EBEBEB"/>
</g>
<path d="M238.171 668.711H204.636V664.9H238.171V668.711Z" fill="#C7C7C7"/>
<path d="M295.393 687.001H261.856V634.962H295.393V687.001Z" fill="#C7C7C7"/>
<path d="M291.934 683.191H265.314V638.772H291.934V683.191Z" fill="white"/>
<path d="M300.192 694.482H257.058V687H300.192V694.482Z" fill="#EBEBEB"/>
<g opacity="0.5">
<path d="M291.941 638.778V644.269L265.31 670.933V660.79L287.297 638.778H291.941Z" fill="#EBEBEB"/>
<path d="M291.941 671.706V676.777L285.529 683.197H280.463L291.941 671.706Z" fill="#EBEBEB"/>
<path d="M274.276 638.778L265.31 647.754V642.683L269.196 638.778H274.276Z" fill="#EBEBEB"/>
<path d="M291.941 663.754V665.384L274.149 683.197H272.522L291.941 663.754Z" fill="#EBEBEB"/>
</g>
<path d="M295.393 668.711H261.856V664.9H295.393V668.711Z" fill="#C7C7C7"/>
<path d="M180.952 765.577H147.416V713.539H180.952V765.577Z" fill="#C7C7C7"/>
<path d="M177.493 761.767H150.873V717.348H177.493V761.767Z" fill="white"/>
<path d="M185.751 773.059H142.617V765.577H185.751V773.059Z" fill="#EBEBEB"/>
<g opacity="0.5">
<path d="M177.501 717.352V722.846L150.868 749.507V739.367L172.855 717.352H177.501Z" fill="#EBEBEB"/>
<path d="M177.501 750.281V755.352L171.088 761.771H166.023L177.501 750.281Z" fill="#EBEBEB"/>
<path d="M159.834 717.352L150.868 726.329V721.258L154.755 717.352H159.834Z" fill="#EBEBEB"/>
<path d="M177.501 742.33V743.959L159.709 761.772H158.08L177.501 742.33Z" fill="#EBEBEB"/>
</g>
<path d="M180.952 747.286H147.416V743.475H180.952V747.286Z" fill="#C7C7C7"/>
<path d="M238.171 765.577H204.636V713.539H238.171V765.577Z" fill="#C7C7C7"/>
<path d="M234.714 761.767H208.093V717.348H234.714V761.767Z" fill="white"/>
<path d="M242.971 773.059H199.837V765.577H242.971V773.059Z" fill="#EBEBEB"/>
<g opacity="0.5">
<path d="M234.72 717.352V722.846L208.089 749.507V739.367L230.076 717.352H234.72Z" fill="#EBEBEB"/>
<path d="M234.72 750.281V755.352L228.308 761.771H223.242L234.72 750.281Z" fill="#EBEBEB"/>
<path d="M217.055 717.352L208.089 726.329V721.258L211.976 717.352H217.055Z" fill="#EBEBEB"/>
<path d="M234.72 742.33V743.959L216.928 761.772H215.301L234.72 742.33Z" fill="#EBEBEB"/>
</g>
<path d="M238.171 747.286H204.636V743.475H238.171V747.286Z" fill="#C7C7C7"/>
<path d="M295.393 765.577H261.856V713.539H295.393V765.577Z" fill="#C7C7C7"/>
<path d="M291.934 761.767H265.314V717.348H291.934V761.767Z" fill="white"/>
<path d="M300.192 773.059H257.058V765.577H300.192V773.059Z" fill="#EBEBEB"/>
<g opacity="0.5">
<path d="M291.941 717.352V722.846L265.31 749.507V739.367L287.297 717.352H291.941Z" fill="#EBEBEB"/>
<path d="M291.941 750.281V755.352L285.529 761.771H280.463L291.941 750.281Z" fill="#EBEBEB"/>
<path d="M274.276 717.352L265.31 726.329V721.258L269.196 717.352H274.276Z" fill="#EBEBEB"/>
<path d="M291.941 742.33V743.959L274.149 761.772H272.522L291.941 742.33Z" fill="#EBEBEB"/>
</g>
<path d="M295.393 747.286H261.856V743.475H295.393V747.286Z" fill="#C7C7C7"/>
<path d="M317.12 607.228H119.159V591.88H317.12V607.228Z" fill="#EBEBEB"/>
<path d="M352.225 522.813V540.968H507.672V522.813H480.164C480.164 522.813 466.715 502.151 429.948 502.151C393.182 502.151 379.718 522.813 379.718 522.813H352.225Z" fill="#DBDBDB"/>
<path d="M800.548 809.068C563.152 808.014 296.848 808.005 59.4536 809.068C296.848 810.13 563.152 810.122 800.548 809.068Z" fill="#263238"/>
<path d="M277.364 770.698C281.741 763.409 286.752 755.348 285.341 746.521C284.041 738.375 280.221 729.623 272.197 726.157C269.908 725.17 268.293 724.928 267.93 727.767C267.379 732.096 269.773 736.999 271.158 740.975C272.955 746.136 274.417 751.291 275.222 756.707C275.785 760.475 275.96 764.298 276.43 768.084C276.48 768.56 276.543 769.035 276.621 769.512C276.641 769.689 276.664 769.874 276.695 770.056C276.662 770.128 276.621 770.202 276.585 770.271C276.512 770.418 276.518 770.559 276.576 770.666C276.598 770.712 276.629 770.757 276.671 770.793C276.862 770.96 277.193 770.984 277.364 770.698Z" fill="#455A64"/>
<path d="M276.671 770.793C280.174 764.196 284.375 757.305 282.835 749.619C282.121 746.065 280.615 742.6 278.826 739.465C278.014 738.029 275.606 733.732 273.63 733.861C270.05 734.099 276.493 747.849 276.927 749.499C278.54 755.688 278.024 762.007 276.43 768.086C276.48 768.561 276.543 769.037 276.621 769.514C277.907 765.259 278.607 760.817 278.459 756.368C278.262 750.194 275.604 745.349 273.796 739.602C273.403 738.359 271.937 734.455 274.158 734.523C275.621 734.566 277.997 738.741 278.504 739.64C280.193 742.619 281.612 745.905 282.329 749.261C283.993 756.995 279.949 763.929 276.574 770.667C276.598 770.712 276.629 770.757 276.671 770.793Z" fill="white"/>
<path d="M279.626 777.313C279.947 777.406 280.262 777.509 280.585 777.61C280.596 777.616 280.604 777.614 280.618 777.614C280.706 777.641 280.788 777.617 280.845 777.566C280.981 777.454 281.017 777.226 280.912 777.092C280.879 777.04 280.816 777.004 280.735 776.989C280.692 776.978 280.649 776.97 280.597 776.961C280.498 776.941 280.4 776.922 280.3 776.901C280.298 776.892 280.295 776.884 280.288 776.873C280.264 776.854 280.238 776.825 280.214 776.806C276.029 772.763 271.204 769.417 267.052 765.302C263.093 761.375 259.402 757.175 255.14 753.564C252.455 751.288 238.464 740.782 236.653 748.514C235.853 751.941 239.013 756.347 240.953 758.891C243.555 762.302 246.853 765.121 250.478 767.39C259.447 773.002 269.73 774.275 279.626 777.313Z" fill="#455A64"/>
<path d="M259.575 768.988C256.076 767.154 252.74 764.971 249.886 762.214C248.888 761.27 244.121 756.728 245.304 754.913C246.061 753.735 248.582 754.863 249.434 755.199C253.044 756.643 255.88 759.646 258.797 762.123C264.74 767.18 271.083 771.678 277.68 775.802C278.137 775.981 278.614 776.154 279.064 776.345C279.453 776.484 279.83 776.648 280.211 776.799C280.344 776.858 280.473 776.899 280.605 776.958C280.703 776.997 280.803 777.037 280.911 777.083C281.018 777.218 280.979 777.452 280.844 777.559C280.549 777.44 280.247 777.333 279.952 777.214C280.175 777.354 280.395 777.474 280.619 777.614C280.607 777.607 280.602 777.619 280.59 777.612C280.323 777.524 280.067 777.443 279.811 777.361C279.747 777.34 279.694 777.326 279.63 777.306C279.25 777.096 278.877 776.873 278.515 776.656C272.136 774.239 265.621 772.146 259.575 768.988ZM276.125 775.215C272.255 772.828 268.512 770.24 264.886 767.492C261.957 765.281 259.147 762.937 256.384 760.533C254.822 759.17 253.264 757.795 251.491 756.705C250.141 755.882 244.92 753.242 246.627 757.639C247.877 760.818 252.514 763.993 255.208 765.787C258.192 767.79 261.412 769.393 264.716 770.819C268.46 772.425 272.308 773.791 276.125 775.215Z" fill="white"/>
<path d="M297.791 792.618L297.792 792.613C297.887 792.501 297.968 792.373 297.976 792.358C301.394 785.368 307.042 776.663 305.678 768.518C304.671 762.5 300.384 754.76 294.089 752.994C286.985 751.019 289.82 763.674 290.393 766.925C291.862 775.21 297.144 792.442 297.366 792.564C297.395 792.614 297.41 792.668 297.44 792.718C297.446 792.726 297.453 792.735 297.455 792.742C297.532 792.862 297.672 792.752 297.791 792.618Z" fill="#455A64"/>
<path d="M297.464 792.743C297.438 792.216 297.414 791.691 297.378 791.159C297.042 785.129 296.449 779.105 295.551 773.14C295.331 771.633 292.763 760.206 295.83 760.401C297.686 760.526 299.283 764.711 299.849 766.08C300.854 768.535 301.451 771.155 301.597 773.798C301.912 779.892 299.48 785.728 298 791.61C297.913 791.877 297.847 792.158 297.782 792.439C297.79 792.504 297.796 792.55 297.792 792.609L297.785 792.621C297.668 792.752 297.534 792.859 297.464 792.743ZM301.036 777.147C301.261 774.456 301.007 771.707 300.322 769.085C299.872 767.344 298.033 761.067 295.771 761.214C294.572 761.288 294.784 762.021 294.713 763.399C294.681 764.029 294.701 764.673 294.744 765.3C294.861 766.857 295.155 768.389 295.41 769.917C295.874 772.613 296.267 775.303 296.6 778.017C297.156 782.453 297.522 786.902 297.746 791.366C298.747 786.587 300.637 782.002 301.036 777.147Z" fill="white"/>
<path d="M276.929 797.279C285.658 799.857 295.051 799.649 303.704 796.9C303.764 796.878 303.814 796.85 303.848 796.814C303.969 796.707 303.981 796.535 303.912 796.394C303.85 796.256 303.699 796.153 303.503 796.212C303.327 796.267 303.145 796.311 302.964 796.365C293.109 792.371 283.243 788.523 273.458 784.338C271.155 783.352 256.32 777.361 256.218 782.887C256.156 786.298 261.748 789.63 264.18 791.273C268.084 793.916 272.415 795.943 276.929 797.279Z" fill="#455A64"/>
<path d="M265.918 787.948C265.275 787.29 264.704 786.446 265.722 785.881C267.676 784.796 274.568 787.758 276.529 788.485C284.609 791.474 292.746 793.682 301.028 795.926C301.721 796.113 302.427 796.31 303.13 796.504C303.392 796.468 303.651 796.432 303.913 796.396C303.983 796.54 303.964 796.711 303.847 796.812C303.777 796.804 303.701 796.776 303.631 796.768C303.287 796.818 302.925 796.873 302.576 796.905C302.564 796.899 302.564 796.899 302.564 796.899C296.973 797.624 291.204 797.391 285.738 796.365C282.225 795.698 278.811 794.662 275.51 793.284C272.48 792.024 268.238 790.364 265.918 787.948ZM302.084 796.601C302.256 796.59 302.421 796.563 302.593 796.551C302.296 796.49 302.009 796.437 301.718 796.366C295.218 795.006 288.744 793.329 282.468 791.13C279.281 790.011 276.173 788.693 272.951 787.691C271.59 787.267 267.77 785.933 266.644 786.634C265.538 787.3 266.89 788.065 267.616 788.604C268.142 788.986 269.165 789.554 269.69 789.859C279.687 795.614 290.849 797.737 302.084 796.601Z" fill="white"/>
<path d="M322.99 809.068L323.744 807.708C322.558 807.02 321.375 806.333 320.207 805.641C315.472 802.805 310.758 799.933 306.093 796.971C303.43 795.283 300.811 793.575 298.263 791.786C298.177 791.724 298.092 791.66 298 791.61C297.801 791.454 297.594 791.311 297.378 791.159C297.161 791.009 296.937 790.841 296.715 790.672C291.045 786.563 285.818 781.977 281.567 776.171C280.169 774.266 278.862 772.305 277.591 770.306C277.469 770.118 277.353 769.918 277.231 769.731C277.199 769.682 277.164 769.634 277.138 769.574C277.006 769.379 276.889 769.179 276.763 768.975C276.671 768.818 276.581 768.678 276.488 768.52C272.703 762.309 269.409 755.782 265.977 749.42C265 747.596 264.011 745.769 263.009 743.963C262.955 743.842 262.895 743.734 262.828 743.637C262.77 743.499 262.692 743.367 262.615 743.232C258.229 735.198 253.746 727.199 249.577 719.071C249.431 718.765 248.989 719.047 249.142 719.341C251.875 724.788 254.483 730.302 257.126 735.804C257.472 736.537 257.837 737.267 258.182 738.001C258.881 739.458 259.574 740.897 260.279 742.342C261.689 745.233 263.112 748.1 264.588 750.952C268.716 758.965 272.792 767.206 277.89 774.688C278.272 775.246 278.662 775.794 279.063 776.348C279.307 776.694 279.553 777.04 279.81 777.364C280.087 777.76 280.382 778.149 280.678 778.54C285.928 785.397 292.46 790.42 299.538 794.979C300.026 795.294 300.525 795.616 301.029 795.926C301.253 796.065 301.482 796.222 301.717 796.368C301.845 796.439 301.965 796.52 302.084 796.602C302.245 796.692 302.4 796.794 302.567 796.9C302.567 796.9 302.567 796.9 302.579 796.907C302.694 796.971 302.815 797.054 302.94 797.122C303.365 797.388 303.797 797.642 304.232 797.915C308.948 800.785 313.7 803.587 318.456 806.359C319.968 807.243 321.478 808.155 322.99 809.068Z" fill="#455A64"/>
<path d="M258.055 720.022C255.116 713.528 247.439 703.036 239.04 705.548C235.662 706.556 233.746 709.504 234.164 713.006C234.654 717.067 237.893 720.561 240.65 723.316C248.005 730.681 255.998 737.29 262.833 745.183C262.854 745.268 263.418 745.855 263.564 746.034C263.705 746.198 263.937 745.955 263.802 745.793C263.58 745.533 263.356 745.278 263.134 745.018C262.119 736.706 261.543 727.724 258.055 720.022Z" fill="#455A64"/>
<path d="M262.823 745.245C262.795 745.185 262.751 745.13 262.725 745.07C261.351 742.606 259.828 740.271 258.181 738.001C254.751 733.296 250.821 728.979 246.818 724.711C245.274 723.071 237.565 715.302 243.045 714.046C245.353 713.519 247.972 715.228 249.739 716.493C252.594 718.513 254.914 721.17 256.768 724.127C260.444 730.021 261.923 736.837 262.826 743.634C262.878 743.949 262.917 744.257 262.959 744.565C263.014 744.657 263.057 744.741 263.114 744.832C263.146 744.88 263.186 744.948 263.212 745.008C263.234 745.051 263.243 745.085 263.236 745.127C263.229 745.273 263.077 745.385 262.95 745.344C262.897 745.33 262.85 745.306 262.823 745.245ZM262.613 743.231C261.7 737.648 260.46 732.003 257.911 726.93C256.584 724.297 254.899 721.795 252.845 719.662C251.935 718.721 250.938 717.835 249.88 717.053C249.104 716.471 248.255 715.911 247.384 715.474C245.465 714.484 242.969 714.125 242.155 715.135C241.137 716.378 241.688 717.285 242.773 719.076C243.131 719.682 243.549 720.259 243.979 720.814C245.057 722.21 246.27 723.5 247.477 724.771C249.479 726.891 251.462 729.016 253.373 731.22C254.672 732.708 255.933 734.235 257.126 735.802C259.197 738.502 261.106 741.307 262.79 744.274C262.737 743.932 262.675 743.582 262.613 743.231Z" fill="white"/>
<path d="M605.433 754.744C601.233 758.613 597.299 762.763 593.421 766.95C591.216 769.321 589.043 771.721 586.828 774.096C584.394 776.706 582.101 779.625 578.68 780.91C578.672 780.906 578.668 780.896 578.663 780.899C578.615 780.889 578.247 781.146 578.245 781.154C578.231 781.178 578.223 781.201 578.218 781.221C578.132 781.492 578.393 781.859 578.749 781.743C578.828 781.716 578.902 781.683 578.976 781.657C579.007 781.657 579.04 781.661 579.069 781.661C580.072 781.678 581.549 781.089 582.17 780.944C584.979 780.293 587.752 779.443 590.469 778.468C596.035 776.474 601.381 773.857 606.285 770.536C610.671 767.569 614.682 764.046 618.132 760.031C620.892 756.812 625.048 752.068 625.827 747.737C626.524 743.816 621.469 744.588 619.126 745.278C613.813 746.857 609.408 751.081 605.433 754.744Z" fill="#455A64"/>
<path d="M618.163 751.873C619.365 753.556 614.809 758.663 612.893 760.941C609.881 764.54 606.401 767.711 602.612 770.471C595.796 775.448 588.083 778.943 580.039 781.364C579.721 781.463 579.392 781.568 579.066 781.655C579.036 781.661 579 781.654 578.971 781.659C578.902 781.676 578.83 781.711 578.751 781.736C578.4 781.857 578.121 781.49 578.216 781.213C578.859 780.913 579.478 780.602 580.091 780.259C580.651 779.956 581.191 779.649 581.718 779.32C587.561 775.835 592.636 771.003 597.611 766.392C603.453 760.978 616.56 749.652 618.163 751.873ZM580.859 780.405C580.049 780.856 579.225 781.266 578.398 781.649C579.057 781.437 579.714 781.225 580.364 781.003C587.387 778.649 594.188 775.644 600.349 771.492C603.808 769.178 607.045 766.505 609.948 763.504C611.51 761.883 612.97 760.191 614.313 758.403C614.874 757.646 618.54 753.175 617.573 752.297C616.892 751.682 612.679 754.439 612.587 754.489C611.742 755.03 610.918 755.619 610.101 756.22C608.424 757.453 606.818 758.78 605.235 760.124C601.814 763.058 598.55 766.188 595.223 769.235C590.794 773.293 586.147 777.478 580.859 780.405Z" fill="white"/>
<path d="M573.785 737.357C569.972 744.755 569.077 753.256 568.964 761.458C568.907 765.853 569.053 770.249 569.098 774.637C569.138 778.315 569.444 782.578 568.685 786.398C568.658 786.563 568.623 786.739 568.58 786.911C568.336 787.999 567.996 789.05 567.536 790.036C567.504 790.117 567.511 790.19 567.547 790.246C567.478 790.343 567.413 790.434 567.354 790.539C567.309 790.608 567.394 790.701 567.464 790.639C567.554 790.563 567.648 790.467 567.738 790.391C567.746 790.381 567.751 790.379 567.758 790.369C567.86 790.376 567.953 790.334 568.002 790.221C568.025 790.186 568.042 790.141 568.061 790.097C568.149 790.016 568.242 789.933 568.328 789.847C574.736 783.93 578.328 773.917 580.77 765.873C583.206 757.869 584.33 749.263 582.213 741.058C581.676 738.996 580.767 734.095 578.278 733.391C576.002 732.749 574.588 735.786 573.785 737.357Z" fill="#455A64"/>
<path d="M577.163 742.151C579.68 742.569 579.145 749.48 579.072 751.167C578.864 756.29 577.856 761.336 576.773 766.321C574.968 774.513 572.61 782.356 568.426 789.546L568.415 789.552C568.389 789.652 568.355 789.74 568.331 789.84C568.238 789.938 568.15 790.017 568.061 790.098C568.044 790.143 568.027 790.188 568.002 790.221C567.956 790.336 567.855 790.376 567.751 790.367C567.784 790.231 567.824 790.105 567.844 789.976C568.125 788.965 568.362 787.937 568.58 786.906C568.618 786.734 568.656 786.56 568.684 786.394C570.142 779.26 570.393 771.888 570.926 764.59C571.305 759.524 571.898 754.419 573.214 749.509C573.546 748.255 575.051 741.8 577.163 742.151ZM574.905 745.809C571.468 753.774 571.566 763.246 570.994 771.756C570.622 777.512 570.07 783.286 568.611 788.833C572.139 782.241 574.28 774.862 575.911 767.654C576.855 763.495 577.724 759.294 578.192 755.056C578.457 752.776 578.648 750.437 578.568 748.13C578.534 747.085 578.402 745.042 578.047 744C577.182 741.521 575.5 744.443 574.905 745.809Z" fill="white"/>
<path d="M553.902 801.272C553.837 801.405 553.861 801.579 553.95 801.713C553.89 801.715 553.838 801.712 553.783 801.712C553.697 801.712 553.651 801.775 553.647 801.837C553.634 801.904 553.67 801.975 553.756 801.987C563.637 803.544 574.616 804 584.336 801.341C588.434 800.22 592.382 798.519 595.913 796.136C598.326 794.505 603.182 791.219 603.462 787.956C604.011 781.394 586.644 788.204 584.031 789.237C579.265 791.12 574.671 793.401 569.944 795.378C564.769 797.536 559.447 799.313 554.132 801.093C554.017 801.13 553.941 801.195 553.902 801.272Z" fill="#455A64"/>
<path d="M553.904 801.269C554.439 801.226 554.967 801.173 555.498 801.1C564.229 800.163 572.289 797.878 580.514 794.307C584.478 792.587 588.522 790.68 592.74 789.654C593.79 789.404 597.655 788.177 597.034 790.662C596.708 791.948 590.352 795.623 588.622 796.439C584.662 798.302 580.421 799.523 576.15 800.36C569.031 801.763 561.575 802.288 554.286 801.868C554.071 801.861 553.854 801.853 553.649 801.837C553.651 801.772 553.699 801.703 553.783 801.708C553.831 801.706 553.886 801.715 553.943 801.706C553.862 801.574 553.835 801.4 553.904 801.269ZM572.464 800.504C576.738 799.874 581.011 798.924 585.073 797.408C586.683 796.807 588.271 796.108 589.809 795.316C591.008 794.684 592.21 794.035 593.295 793.243C595.968 791.299 596.51 790.586 596.284 790.066C596.138 789.749 595.574 789.57 593.402 789.926C592.024 790.15 590.615 790.624 589.317 791.116C587.433 791.832 585.579 792.609 583.727 793.417C580.029 795.011 576.338 796.664 572.535 797.977C567.106 799.869 561.381 801.117 555.627 801.51C561.253 801.613 566.854 801.346 572.464 800.504Z" fill="white"/>
<path d="M554.929 772.863C552.473 775.446 550.954 778.83 549.827 782.175C547.571 788.909 546.781 796.024 545.004 802.889C544.74 803.914 544.452 804.935 544.136 805.951C544.096 806.06 543.425 807.186 543.503 807.122C543.522 807.108 543.845 806.778 544.387 806.206L544.39 806.199C547.061 803.387 555.022 794.75 558.068 788.898C559.941 785.299 561.718 781.404 562.658 777.438C563.095 775.541 563.899 771.241 562.013 769.786C559.982 768.219 556.208 771.511 554.929 772.863Z" fill="#455A64"/>
<path d="M558.976 774.525C561.623 775.627 556.153 787.269 555.464 788.798C552.909 794.465 549.643 799.767 545.72 804.584C545.288 805.135 544.843 805.665 544.385 806.204C543.838 806.774 543.527 807.11 543.506 807.126C543.484 807.093 544.089 806.061 544.136 805.946C544.193 805.775 544.241 805.595 544.297 805.424C544.55 804.579 544.786 803.73 544.999 802.896C546.735 798.302 548.391 793.666 550.225 789.098C551.546 785.804 553.021 782.594 554.858 779.546C555.276 778.857 557.822 774.039 558.976 774.525ZM556.812 776.932C550.892 785.43 548.749 795.66 544.843 805.099C544.779 805.257 544.717 805.398 544.653 805.558C544.81 805.348 544.987 805.142 545.144 804.932C548.291 800.864 551.073 796.558 553.398 791.977C554.812 789.199 556.055 786.319 557.127 783.379C557.686 781.829 558.431 780.13 558.776 778.506C558.935 777.776 559.289 775.758 558.802 775.506C558.119 775.138 557.208 776.374 556.812 776.932Z" fill="white"/>
<path d="M606.195 706.084C596.881 721.651 601.625 741.622 593.376 757.652C593.359 757.683 593.345 757.709 593.331 757.733C593.082 758.222 592.815 758.706 592.538 759.189C592.406 759.424 592.595 759.662 592.788 759.683C592.879 759.693 592.967 759.655 593.03 759.548C593.099 759.438 593.164 759.318 593.225 759.201C600.607 752.335 606.592 743.005 610.985 733.985C614.802 726.138 617.32 717.33 616.016 708.558C615.7 706.395 615.208 702.082 612.6 701.271C609.84 700.406 607.341 704.164 606.195 706.084Z" fill="#455A64"/>
<path d="M609.401 711.804C610.493 712.155 610.631 713.774 610.758 714.656C611.092 716.846 611.094 719.112 610.899 721.31C610.521 725.856 609.212 730.276 607.521 734.498C604.663 741.598 601.107 748.808 596.51 755.08C595.471 756.504 594.384 757.88 593.223 759.199C593.082 759.364 592.934 759.519 592.793 759.684C592.599 759.662 592.411 759.423 592.535 759.188C592.819 758.725 593.056 758.265 593.314 757.788C593.338 757.754 593.355 757.711 593.383 757.658C595.235 754.565 596.852 751.369 598.09 747.939C600.005 742.666 601.023 737.092 602.241 731.638C602.71 729.486 605.653 710.566 609.401 711.804ZM606.948 714.985C605.046 719.05 604.439 723.681 603.471 728.036C602.485 732.434 601.556 736.84 600.509 741.219C599.68 744.681 598.572 748.113 597.157 751.41C595.994 754.153 594.59 756.81 592.951 759.295C594.817 757.036 596.51 754.627 598.072 752.147C598.096 752.113 598.109 752.087 598.116 752.051C600.889 747.62 603.24 742.891 605.407 738.199C605.435 738.147 605.466 738.077 605.493 738.025C607.403 733.856 609.066 729.524 609.929 725.002C610.394 722.548 610.659 720.042 610.555 717.54C610.423 714.704 610.027 712.428 609.062 712.39C608.4 712.374 607.497 713.783 606.948 714.985Z" fill="white"/>
<path d="M605.041 738.006C602.492 742.502 599.836 746.962 597.155 751.41C595.901 753.506 594.64 755.591 593.381 757.658C593.354 757.709 593.336 757.754 593.312 757.788C592.858 758.534 592.401 759.299 591.947 760.044C587.838 766.841 583.771 773.994 578.598 780.047C575.892 783.214 572.757 786.074 569.447 788.735C569.102 788.998 568.763 789.272 568.426 789.546L568.415 789.553C568.223 789.69 568.039 789.84 567.846 789.978C567.746 790.066 567.64 790.141 567.533 790.217C564.643 792.447 561.637 794.534 558.708 796.551C554.617 799.364 550.369 801.889 546.1 804.36C545.983 804.444 545.857 804.518 545.723 804.58C545.534 804.701 545.336 804.809 545.147 804.928C545.044 804.987 544.949 805.037 544.846 805.095C544.667 805.207 544.481 805.309 544.303 805.421C542.925 806.211 541.557 807.014 540.185 807.833L541.066 809.066C545.524 807.107 549.881 804.668 554.034 802.035C554.127 801.984 554.203 801.93 554.289 801.87C554.697 801.627 555.109 801.364 555.502 801.099C556.005 800.785 556.492 800.47 556.982 800.136C558.169 799.351 559.337 798.564 560.488 797.772C567.167 793.169 573.986 788.175 579.413 782.088C579.564 781.915 579.705 781.748 579.857 781.576C579.924 781.513 579.984 781.437 580.042 781.361C580.156 781.247 580.261 781.123 580.368 780.999L580.863 780.402C581.157 780.045 581.446 779.677 581.723 779.317C581.807 779.208 581.891 779.1 581.976 778.992C586.408 773.259 589.967 766.664 593.529 760.437C594.183 759.29 594.824 758.15 595.459 757C595.81 756.359 596.162 755.719 596.513 755.078C597.033 754.107 597.556 753.117 598.075 752.146C598.099 752.111 598.113 752.085 598.12 752.049C600.572 747.443 602.931 742.79 605.411 738.197C605.514 737.991 605.161 737.791 605.041 738.006Z" fill="#455A64"/>
<path d="M548.627 695.335C552.383 692.947 627.427 594.422 628.03 588.998C628.132 588.37 609.002 574.134 609.002 574.134C601.479 567.986 527.791 527.979 527.791 527.979L479.402 593.205L551.017 627.55C551.017 627.55 545.904 644.973 542.12 660.685C542.122 660.709 542.111 660.723 542.125 660.735C539.765 670.411 537.87 678.929 537.849 681.227C537.816 687.212 544.896 697.746 548.627 695.335Z" fill="#F4F4F4"/>
<path d="M548.63 695.332C552.386 692.948 627.428 594.426 628.03 589C628.131 588.375 608.996 574.135 608.996 574.135C606.52 572.133 596.901 566.435 585.066 559.707L538.107 621.349L551.024 627.545C551.024 627.545 545.915 644.975 542.128 660.694C542.126 660.721 542.126 660.721 542.138 660.737C539.775 670.402 537.874 678.94 537.854 681.227C537.816 687.217 544.899 697.744 548.63 695.332Z" fill="#EBEBEB"/>
<path d="M548.579 695.821C552.402 693.281 628.761 594.818 629.286 589.227C629.523 587.106 596.293 563.759 596.114 563.614L547.074 626.439L548.169 627.251C548.169 627.251 537.106 675.286 537.171 681.499C537.252 687.669 544.769 698.374 548.579 695.821Z" fill="#FFC727"/>
<path opacity="0.5" d="M548.579 695.821C552.402 693.281 628.761 594.818 629.286 589.227C629.523 587.106 596.293 563.759 596.114 563.614L547.074 626.439L548.169 627.251C548.169 627.251 537.106 675.286 537.171 681.499C537.252 687.669 544.769 698.374 548.579 695.821Z" fill="black"/>
<path d="M545.632 691.748C558.097 674.835 609.965 607.792 623.571 592.02C623.681 591.891 623.772 591.962 623.675 592.101C611.685 609.133 559.277 675.754 545.904 691.96C545.622 692.301 545.369 692.106 545.632 691.748Z" fill="#263238"/>
<path d="M543.112 630.936C546.96 623.46 554.156 616.249 562.67 614.864C563.001 614.811 563.071 615.281 562.841 615.441C555.816 620.311 549.848 625.318 543.955 631.55C543.541 631.988 542.837 631.471 543.112 630.936Z" fill="#263238"/>
<path d="M542.292 637.851C546.14 630.376 553.336 623.164 561.85 621.78C562.18 621.725 562.251 622.196 562.02 622.355C554.996 627.225 549.029 632.232 543.135 638.464C542.72 638.905 542.017 638.387 542.292 637.851Z" fill="#263238"/>
<path d="M541.471 644.768C545.321 637.293 552.516 630.081 561.031 628.697C561.362 628.644 561.432 629.114 561.202 629.274C554.177 634.144 548.209 639.151 542.316 645.383C541.9 645.821 541.196 645.302 541.471 644.768Z" fill="#263238"/>
<path d="M522.309 628.391C520.771 623.085 526.064 619.538 530.465 618.587C537.593 617.046 546.374 617.673 553.198 620.121C553.367 620.182 553.377 620.335 553.314 620.457C553.795 620.862 553.974 621.714 553.334 622.114C547.158 625.959 541.031 630.836 533.864 632.671C529.677 633.742 523.762 633.408 522.309 628.391ZM542.782 626.03C545.864 624.211 548.84 622.255 551.991 620.55C547.555 620.263 543.155 619.786 538.694 619.948C536.564 620.025 534.378 620.144 532.276 620.511C529.005 621.082 519.284 625.861 527.328 630.262C531.764 632.689 539.107 628.196 542.782 626.03Z" fill="#263238"/>
<path d="M564.37 602.199C562.485 609.361 557.569 615.458 553.683 621.613C553.281 622.252 552.43 622.064 552.029 621.582C551.905 621.645 551.754 621.632 551.693 621.463C549.296 614.614 548.732 605.822 550.321 598.7C551.303 594.302 554.884 589.029 560.173 590.605C565.178 592.096 565.471 598.018 564.37 602.199ZM562.008 595.641C557.667 587.558 552.825 597.255 552.23 600.525C551.848 602.626 551.714 604.813 551.621 606.943C551.429 611.408 551.874 615.815 552.13 620.256C553.854 617.115 555.83 614.151 557.669 611.079C559.86 607.417 564.401 600.098 562.008 595.641Z" fill="#263238"/>
<path d="M544.545 629.389L597.389 561.282C597.389 561.282 441.538 481.29 441.091 471.1C440.867 466.004 495.711 417.988 506.265 387.257C513.009 367.621 496.839 341.362 496.839 341.362L416.527 339.082C416.527 339.082 419.806 372.489 418.932 376.765C418.369 379.601 338.061 470.192 351.516 504.407C368.015 546.361 544.545 629.389 544.545 629.389Z" fill="#37474F"/>
<path d="M533.011 619.18C534.131 617.048 546.95 598.46 549.906 594.402C555.861 586.229 561.85 578.081 567.968 570.028C571.157 565.832 577.966 556.805 578.508 556.428C578.768 556.246 579.055 556.552 578.885 556.81C573.393 565.226 567.586 573.423 561.792 581.636C556.009 589.838 535.503 617.358 533.475 619.446C533.281 619.646 532.853 619.481 533.011 619.18Z" fill="#263238"/>
<path d="M422.865 800.952C427.021 799.359 518.964 721.165 520.634 715.97C520.928 713.523 512.204 700.709 500.823 685.196L464.452 608.45L404.198 657.413L438.693 734.982C438.693 734.982 430.217 751.043 423.383 765.689C423.381 765.715 423.368 765.725 423.378 765.739C419.142 774.754 415.592 782.727 415.112 784.974C413.89 790.835 418.732 802.571 422.865 800.952Z" fill="#F4F4F4"/>
<path d="M421.013 802.595C425.291 800.933 520.935 721.108 522.646 715.758C523.332 713.736 512.543 699.125 499 681.847C498.857 681.667 498.714 681.488 498.57 681.309L436.292 732.119L437.186 733.147C437.186 733.147 414.209 780.071 412.943 786.155C411.698 792.201 416.746 804.272 421.013 802.595Z" fill="#FFC727"/>
<path opacity="0.5" d="M421.013 802.595C425.291 800.933 520.935 721.108 522.646 715.758C523.332 713.736 512.543 699.125 499 681.847C498.857 681.667 498.714 681.488 498.57 681.309L436.292 732.119L437.186 733.147C437.186 733.147 414.209 780.071 412.943 786.155C411.698 792.201 416.746 804.272 421.013 802.595Z" fill="black"/>
<path d="M419.008 797.983C434.801 784.132 499.803 729.753 516.464 717.261C516.6 717.16 516.674 717.247 516.549 717.363C501.194 731.433 435.753 785.284 419.228 798.249C418.878 798.521 418.674 798.276 419.008 797.983Z" fill="#263238"/>
<path d="M429.568 738.025C434.928 731.547 443.497 726.043 452.109 726.517C452.443 726.536 452.41 727.009 452.152 727.116C444.25 730.367 437.351 733.98 430.261 738.805C429.761 739.146 429.185 738.49 429.568 738.025Z" fill="#263238"/>
<path d="M427.288 744.607C432.645 738.127 441.216 732.625 449.826 733.098C450.16 733.117 450.129 733.591 449.869 733.698C441.968 736.949 435.069 740.562 427.979 745.387C427.48 745.728 426.902 745.071 427.288 744.607Z" fill="#263238"/>
<path d="M425.005 751.188C430.365 744.708 438.935 739.206 447.546 739.68C447.879 739.697 447.848 740.172 447.589 740.279C439.687 743.53 432.786 747.143 425.698 751.968C425.198 752.309 424.622 751.651 425.005 751.188Z" fill="#263238"/>
<path d="M409.799 731.077C409.432 725.563 415.361 723.233 419.862 723.247C427.152 723.271 435.592 725.766 441.732 729.622C441.883 729.716 441.861 729.868 441.773 729.975C442.157 730.472 442.148 731.345 441.438 731.597C434.584 734.03 427.556 737.481 420.165 737.736C415.848 737.886 410.144 736.291 409.799 731.077ZM430.296 733.16C433.695 732.046 437.021 730.772 440.461 729.782C436.192 728.549 431.997 727.14 427.606 726.34C425.511 725.959 423.35 725.606 421.219 725.515C417.903 725.372 407.387 727.955 414.3 733.982C418.111 737.304 426.244 734.488 430.296 733.16Z" fill="#263238"/>
<path d="M456.478 714.508C453.105 721.101 446.999 726.004 441.887 731.184C441.357 731.721 440.564 731.356 440.277 730.798C440.143 730.834 439.997 730.788 439.976 730.61C439.101 723.405 440.434 714.692 443.511 708.074C445.411 703.988 450.038 699.604 454.864 702.278C459.431 704.809 458.449 710.659 456.478 714.508ZM455.576 707.594C453.069 698.765 446.264 707.201 444.983 710.268C444.159 712.238 443.56 714.346 443.015 716.409C441.871 720.729 441.364 725.131 440.662 729.525C443.017 726.827 445.583 724.354 448.036 721.747C450.958 718.639 456.959 712.462 455.576 707.594Z" fill="#263238"/>
<path d="M430.991 737.61L500.78 679.84C500.78 679.84 432.781 536.422 432.494 525.286C432.112 510.442 514.156 449.948 521.733 403.563C525.453 380.786 511.208 341.845 511.208 341.845L421.572 339.229C421.572 339.229 420.301 364.539 425.316 378.024C426.264 380.569 432.976 383.451 432.976 383.451C432.976 383.451 351.688 484.312 349.234 532.763C347.578 565.463 430.991 737.61 430.991 737.61Z" fill="#37474F"/>
<path d="M420.492 375.701C422.845 376.298 425.131 377.459 427.325 378.504C429.63 379.603 431.89 380.829 434.09 382.139C438.445 384.733 442.566 387.643 446.619 390.708C446.744 390.803 446.601 390.985 446.474 390.904C442.178 388.189 437.714 385.707 433.237 383.324C431.084 382.177 428.928 381.034 426.775 379.887C424.608 378.732 422.284 377.717 420.246 376.331C419.976 376.147 420.167 375.618 420.492 375.701Z" fill="#263238"/>
<path d="M423.337 350.73C424.145 355.218 424.816 359.729 425.783 364.187C426.226 366.233 426.66 368.312 427.286 370.311C427.816 371.997 428.658 373.937 430.535 374.433C432.697 375.005 433.45 373.171 433.395 371.349C433.333 369.316 432.953 367.256 432.688 365.243C432.382 362.92 432.073 360.601 431.813 358.272C431.682 357.108 430.889 351.643 430.886 351.576C430.874 351.4 430.879 351.365 431.018 351.252C431.078 351.202 431.159 351.212 431.221 351.25C431.625 351.508 432.291 354.797 432.542 355.946C433.01 358.093 433.462 360.246 433.855 362.409C434.247 364.57 434.623 366.733 435.003 368.895C435.287 370.514 435.64 372.221 435.098 373.827C434.508 375.582 433.02 376.384 431.441 376.414C431.507 376.564 431.589 376.706 431.644 376.86C431.808 377.306 431.918 377.779 432.052 378.236C432.19 378.704 432.31 379.169 432.41 379.646C432.456 379.871 432.482 380.106 432.491 380.336C432.501 380.595 432.432 380.839 432.448 381.099C432.472 381.497 431.92 381.704 431.746 381.299C431.646 381.063 431.49 380.879 431.376 380.655C431.256 380.417 431.178 380.149 431.109 379.894C430.989 379.443 430.893 378.993 430.81 378.533C430.729 378.081 430.623 377.623 430.569 377.164C430.538 376.892 430.547 376.619 430.542 376.345C429.651 376.193 428.777 375.825 428.063 375.205C426.813 374.12 426.147 372.55 425.698 370.995C425.156 369.114 424.769 367.177 424.379 365.259C423.416 360.511 422.647 355.7 422.527 350.851C422.515 350.337 423.24 350.198 423.337 350.73Z" fill="#263238"/>
<path d="M427.898 719.121C429.513 717.337 431.419 715.756 433.208 714.146C435.105 712.441 437 710.731 438.917 709.049C442.69 705.738 446.497 702.466 450.354 699.254C458.125 692.788 465.924 686.35 473.819 680.035C477.933 676.744 486.738 669.655 487.352 669.414C487.648 669.298 487.84 669.655 487.613 669.863C480.219 676.665 472.584 683.188 464.956 689.732C457.339 696.265 449.701 702.781 441.856 709.04C439.684 710.774 437.479 712.46 435.292 714.174C433.003 715.968 430.741 717.938 428.273 719.477C428.036 719.626 427.669 719.371 427.898 719.121Z" fill="#263238"/>
<path d="M432.931 531.177C431.79 528.346 430.421 525.424 431.386 522.334C432.282 519.462 458.927 490.543 461.861 487.245C461.997 487.092 462.255 487.28 462.119 487.436C459.641 490.303 436.125 518.064 434.334 520.922C433.588 522.114 433.029 523.459 433.079 524.888C433.141 526.651 433.951 528.33 434.598 529.939C435.955 533.315 437.312 536.692 438.671 540.069C441.397 546.849 444.13 553.626 446.963 560.363C450.176 568 453.361 576.142 456.885 583.639C457.154 584.211 456.292 584.542 455.996 584.011C448.518 570.664 434.353 534.709 432.931 531.177Z" fill="#263238"/>
<path d="M432.976 383.451C420.449 396.339 404.152 421.077 393.94 435.845C383.643 450.735 374.353 466.355 366.345 482.597C361.845 491.721 357.886 501.031 354.134 510.48C354.06 510.666 354.351 510.762 354.428 510.58C361.451 493.983 369.783 477.791 378.914 462.262C388.017 446.783 424.974 392.571 433.865 384.233C434.352 383.777 433.445 382.969 432.976 383.451Z" fill="#263238"/>
<path d="M464.698 354.105C464.71 353.917 464.988 353.955 465.012 354.122C465.998 361.363 466.56 368.875 470.054 375.444C473.258 381.473 478.848 385.358 484.94 388.08C488.461 389.652 492.126 390.892 495.788 392.086C496.051 392.172 495.993 392.583 495.704 392.523C488.793 391.085 481.765 389.473 475.759 385.587C469.326 381.425 466.019 374.767 464.961 367.313C464.336 362.932 464.403 358.507 464.698 354.105Z" fill="#263238"/>
<path d="M456.104 251.825C422.852 243.303 380.892 226.686 372.65 214.448C365.999 204.577 359.867 151.601 359.631 148.758C359.098 141.715 405.155 130.702 406.097 138.199C407.339 148.095 408.677 191.077 411.161 193.622C413.758 196.261 434.828 212.665 459.247 231.253C476.122 244.08 476.738 257.114 456.104 251.825Z" fill="#D3766A"/>
<path d="M406.773 145.721C407.509 128.019 406.403 108.121 396.216 92.282C394.217 89.1755 391.513 88.3902 391.513 88.3902C387.074 81.2095 382.354 81.1527 382.354 81.1527C376.173 75.7318 371.338 76.338 371.338 76.338C371.338 76.338 366.033 67.9656 360.447 70.3351C354.172 72.9732 362.85 84.2161 363.845 93.3203C366.124 114.181 363.854 147.55 363.914 153.632L406.773 145.721Z" fill="#D3766A"/>
<path d="M381.543 113.473C380.75 107.348 380.13 101.31 378.512 95.323C376.737 88.7553 373.93 82.7335 371.222 76.5308C371.138 76.338 371.398 76.2002 371.511 76.3776C378.185 86.8284 381.916 101.062 381.819 113.44C381.819 113.742 381.582 113.781 381.543 113.473Z" fill="black"/>
<path d="M394.319 113.926C393.216 108.007 391.214 97.6201 382.141 81.2215C382.112 81.1682 382.193 81.101 382.234 81.1544C389.539 91.0163 393.38 101.758 394.599 113.871C394.637 114.249 394.391 114.32 394.319 113.926Z" fill="black"/>
<path d="M401.188 114.041C398.932 104.05 396.245 98.0369 391.458 88.423C391.431 88.3679 391.519 88.3059 391.555 88.3627C398.142 98.7188 399.36 103.222 401.543 114.012C401.617 114.382 401.276 114.43 401.188 114.041Z" fill="black"/>
<path d="M253.693 88.8449C254.07 88.8035 262.978 87.7393 265.955 80.6051C267.436 77.056 268.7 73.0472 269.923 69.171C272.335 61.527 274.829 53.6231 278.109 52.998C281.134 52.4211 288.578 53.32 306.862 60.8727C317.921 65.4412 327.755 70.3351 327.853 70.385L328.881 68.3169C327.261 67.5093 289.082 48.5552 277.677 50.7301C273.041 51.6135 270.577 59.4279 267.721 68.4753C266.514 72.3033 265.265 76.2622 263.824 79.7148C261.376 85.5817 253.516 86.5391 253.437 86.5477L253.693 88.8449Z" fill="#0A66C2"/>
<path d="M233.858 86.7285C233.953 86.7061 243.38 84.5261 247.494 85.0255C251.469 85.5076 254.359 87.6997 254.388 87.7221L255.8 85.8934C255.664 85.7866 252.403 83.2931 247.773 82.73C243.256 82.1825 233.739 84.3832 233.335 84.4762L233.858 86.7285Z" fill="#0A66C2"/>
<path d="M237.635 101.713C238.784 101.39 248.937 98.4864 251.335 95.8689C253.655 93.3359 255.974 88.9069 256.072 88.7192L254.025 87.6498C254.003 87.6929 251.748 91.9979 249.634 94.3071C248.162 95.9137 241.11 98.3383 237.013 99.4886L237.635 101.713Z" fill="#0A66C2"/>
<path d="M231.233 91.2281C231.331 91.2057 241.147 88.9292 243.855 88.3334C245.963 87.8685 252.635 88.3179 255.028 88.5297L255.233 86.2291C254.316 86.1482 246.196 85.4508 243.359 86.0759C240.64 86.6734 230.812 88.9533 230.712 88.9757L231.233 91.2281Z" fill="#0A66C2"/>
<path d="M234.206 98.1592C234.276 98.1333 241.338 95.5452 243.783 95.0234C246.449 94.4534 254.827 89.3787 255.774 88.8018L254.574 86.8284C250.991 89.0119 245.033 92.3939 243.301 92.7624C240.699 93.3186 233.707 95.881 233.411 95.9894L234.206 98.1592Z" fill="#0A66C2"/>
<path d="M315.223 96.7523L383.459 114.621L339.937 58.7632L273.198 40.3757L315.223 96.7523Z" fill="#263238"/>
<g opacity="0.1">
<path d="M315.223 96.7523L383.459 114.621L339.937 58.7632L273.198 40.3757L315.223 96.7523Z" fill="black"/>
</g>
<path d="M341.764 121.497L355.201 105.264C355.201 105.264 342.738 85.4506 328.923 76.4428C315.108 67.435 293.81 63.2867 293.81 63.2867L282.641 82.9468C282.641 82.9468 303.659 91.1263 314.667 98.6274C325.677 106.13 341.764 121.497 341.764 121.497Z" fill="#FFC727"/>
<path d="M341.766 121.497C341.766 121.497 341.752 121.48 341.718 121.449C340.73 120.512 325.321 105.888 314.669 98.6293C303.836 91.2436 283.301 83.1984 282.66 82.9556C282.648 82.9505 282.644 82.9453 282.644 82.9453L293.809 63.2852C293.809 63.2852 315.106 67.4318 328.924 76.443C342.739 85.4508 355.201 105.264 355.201 105.264L341.766 121.497Z" fill="#263238"/>
<path d="M332.872 80.4863C332.846 80.4742 332.825 80.4587 332.799 80.4484C332.817 80.4897 332.839 80.5052 332.872 80.4863Z" fill="#263238"/>
<path d="M295.696 88.113C294.416 87.5516 293.09 87.0557 291.808 86.7113L291.795 86.7647C291.826 86.7716 291.851 86.7836 291.877 86.794C295.331 88.3093 299.388 90.1639 303.365 92.17C306.387 93.6906 309.359 95.3006 311.987 96.909C312.933 97.4841 313.83 98.0576 314.667 98.631C315.899 99.4713 317.197 100.412 318.534 101.419C318.56 101.44 318.584 101.46 318.615 101.476L319.729 99.9397C316.612 97.4514 313.444 95.0802 310.162 92.8296C310.515 93.0069 310.863 93.1877 311.21 93.3772C312.684 94.3208 314.146 95.2903 315.594 96.2632C317.596 97.6167 319.593 98.9909 321.547 100.386C321.568 100.401 321.594 100.422 321.614 100.437L323.346 98.216C323.326 98.2005 323.3 98.1798 323.279 98.1643C322.419 97.4945 321.578 96.8074 320.703 96.1685L322.068 94.877C321.256 93.9368 320.469 93.1154 319.636 92.282C319.61 92.2613 319.586 92.232 319.562 92.2114L321.502 90.0726C321.117 89.7076 320.725 89.3425 320.335 88.9826C322.017 90.0985 323.639 91.2901 325.214 92.5454L327.311 89.971C327.307 89.9659 327.302 89.9607 327.294 89.9607L327.299 89.9573C327.22 89.8918 327.139 89.835 327.06 89.7678C325.775 88.7346 324.487 87.7273 323.183 86.7406L324.375 85.1891C324.791 85.5111 325.2 85.8382 325.615 86.1689L327.419 84.0853C327.407 84.0698 327.393 84.0646 327.381 84.0508C327.335 84.0146 327.294 83.975 327.247 83.9389C324.251 81.3679 321.122 79.0122 317.816 76.9045C321.944 78.4285 325.813 80.6705 329.279 83.3723L329.282 83.3775C329.282 83.3775 329.328 83.3138 329.409 83.2139L329.451 83.164L329.547 83.0417L329.604 82.9694C329.643 82.9281 329.679 82.8816 329.715 82.8265L329.776 82.7507L329.781 82.7473L329.973 82.5131C330.166 82.2703 330.364 82.0309 330.496 81.8639L330.572 81.7674C330.637 81.6968 330.668 81.6555 330.668 81.6555L330.665 81.6503C329.812 80.9581 328.936 80.3003 328.037 79.6718C325.312 77.657 322.528 75.7181 319.636 73.9478C324.167 75.7887 328.532 78.0049 332.796 80.4553C332.796 80.4467 332.792 80.4415 332.794 80.4329C332.82 80.4535 332.853 80.4742 332.884 80.4914C332.879 80.4949 332.87 80.4949 332.87 80.4949C332.904 80.5155 332.934 80.5328 332.968 80.5534L332.994 80.5655C333.028 80.5775 332.994 80.5655 333.071 80.5999C333.339 81.1423 333.625 80.5517 333.735 80.0403C333.493 79.8371 333.247 79.6304 332.999 79.441C332.423 78.964 331.829 78.5077 331.236 78.0703C331.165 78.0135 331.093 77.9584 331.012 77.9102C329.714 77.1594 328.401 76.4275 327.075 75.7335C323.914 73.9754 320.737 72.2379 317.521 70.5658C315.381 69.6635 313.238 68.8559 311.16 68.1275C312.887 69.0177 314.621 69.958 316.354 70.9171C314.118 70.0871 311.836 69.3708 309.507 68.7749C309.468 68.7577 309.419 68.7491 309.376 68.7353L308.857 70.4625C310.918 71.3304 312.921 72.3274 314.868 73.4226C314.017 73.1988 313.157 72.9973 312.295 72.832C310.248 72.3395 304.855 72.2396 302.705 72.0881L305.415 73.3228L304.825 75.6509C304.829 75.6561 304.834 75.6509 304.839 75.6561L303.84 78.2838C304.063 78.394 304.292 78.5008 304.511 78.6162L304.239 79.5598C302.736 78.9296 301.21 78.3596 299.65 77.8585L298.453 80.9237C301.614 82.5509 304.665 84.3849 307.565 86.4341C304.352 85.041 301.102 83.8011 297.765 82.6577C297.761 82.6525 297.748 82.6474 297.739 82.6457L296.738 85.5214C296.752 85.5266 296.76 85.5283 296.772 85.5335C297.242 85.7039 297.72 85.8916 298.186 86.0983C294.203 85.4439 289.399 84.9841 286.896 84.6156L297.398 88.4436C299.113 89.0618 300.806 89.9314 302.471 90.8475C300.26 89.8901 298.018 88.9912 295.756 88.1509C295.74 88.1268 295.718 88.1199 295.696 88.113Z" fill="#37474F"/>
<path d="M365.001 118.629C364.224 121.463 362.733 121.074 360.708 116.257C358.649 111.389 354.757 90.6581 347.633 92.6419C340.479 94.6205 347.781 123.323 350.452 131.63C354.936 145.578 364.766 154.706 364.766 154.706C364.745 148.781 364.895 130.25 365.001 118.629Z" fill="#D3766A"/>
<path d="M407.803 141.199L353.298 158.135C353.298 158.135 366.536 212.142 375.452 219.62C384.368 227.099 429.935 246.978 454.606 251.958C479.276 256.938 474.706 244.25 462.63 233.073C450.554 221.894 412.848 193.599 412.287 192.666C411.725 191.731 407.803 141.199 407.803 141.199Z" fill="#263238"/>
<path d="M365.59 166.82C367.414 166.194 369.217 165.5 371.054 164.911C374.878 163.686 378.699 162.464 382.525 161.248C386.353 160.031 390.189 158.832 394.031 157.661C397.876 156.488 401.782 155.466 405.605 154.236C405.777 154.181 405.877 154.438 405.705 154.503C401.943 155.898 398.244 157.456 394.463 158.815C390.617 160.198 386.739 161.503 382.845 162.741C379.014 163.957 375.17 165.114 371.309 166.225C369.372 166.783 367.397 167.204 365.445 167.706C363.555 168.191 361.675 168.732 359.752 169.08C359.621 169.104 359.585 168.908 359.7 168.861C361.628 168.078 363.625 167.497 365.59 166.82Z" fill="#37474F"/>
<path d="M421.017 241.488C433.121 246.117 445.336 250.093 454.605 251.96C479.275 256.934 474.707 244.243 462.629 233.08C459.832 230.483 455.656 226.975 450.873 223.089L421.017 241.488Z" fill="#37474F"/>
<path d="M527.273 372.765C527.275 372.754 413.939 364.787 413.939 364.795C413.939 364.795 422.564 285.196 445.404 230.951C452.16 214.906 472.885 211.84 486.573 231.075C515.405 271.592 527.182 374.294 527.273 372.765Z" fill="#EBEBEB"/>
<path d="M473.962 220.003C473.962 220.003 465.738 262.624 462.898 293.162C459.108 333.935 413.352 528.215 429.011 552.285C443.574 574.671 571.596 510.02 571.596 510.02C571.596 510.02 539.837 426.093 538.955 412.138C538.148 399.383 520.911 238.714 473.962 220.003Z" fill="#263238"/>
<path d="M532.62 419.782C531.637 419.801 529.261 394.543 534.253 390.725C539.244 386.908 550.531 394.331 550.634 401.6C550.725 407.961 535.453 419.729 532.62 419.782Z" fill="#0A66C2"/>
<path opacity="0.1" d="M533.838 418.921C533.228 419.34 542.13 396.997 548.611 398.409C550.753 398.877 553.701 405.3 533.838 418.921Z" fill="black"/>
<path d="M533.649 418.482C533.69 417.499 508.482 414.546 504.55 419.446C500.616 424.347 507.784 435.795 515.049 436.067C521.409 436.305 533.53 421.311 533.649 418.482Z" fill="#0A66C2"/>
<path opacity="0.1" d="M532.76 419.681C533.191 419.081 510.642 427.464 511.906 433.973C512.324 436.124 518.682 439.217 532.76 419.681Z" fill="black"/>
<path d="M485.341 463.077C485.341 463.077 482.231 480.817 500.699 479.684L602.27 389.702C602.27 389.702 602.145 376.091 584.521 373.314L485.341 463.077Z" fill="#EBEBEB"/>
<path d="M537.189 414.703L554.177 433.299L546.566 440.268L529.577 421.672L537.189 414.703Z" fill="#0A66C2"/>
<path d="M602.27 389.701C602.27 389.701 582.827 390.172 584.521 373.312C584.521 373.312 600.003 372.687 602.27 389.701Z" fill="#DBDBDB"/>
<path d="M495.195 233.167C508.088 240.679 548.594 280.448 554.103 296.113C560.462 314.198 560.221 361.956 561.205 371.234C561.91 377.874 511.485 387.085 508.626 380.743C504.617 371.845 512.52 322.429 512.625 307.938C512.665 302.361 486.917 260.563 481.012 250.129C469.017 228.935 480.79 224.774 495.195 233.167Z" fill="#D3766A"/>
<path d="M508.573 367.921C508.573 367.921 499.524 398.059 509.855 427.07C512.858 435.504 533.388 467.451 541.279 462.762C548.422 458.519 527.732 433.08 527.732 433.08C527.732 433.08 546.343 460.597 554.005 453.904C561.668 447.21 534.475 421.58 534.475 421.58C534.475 421.58 554.231 449.425 561.042 441.271C566.19 435.11 542.865 410.506 542.865 410.506C542.865 410.506 560.01 434.321 565.577 428.213C571.728 421.463 551.623 397.401 551.623 397.401C563.161 379.491 562.707 367.02 558.458 356.724C557.571 354.579 508.573 367.921 508.573 367.921Z" fill="#D3766A"/>
<path d="M520.687 423.975C522.756 427.287 524.829 430.653 527.185 433.768C529.542 436.885 532.008 439.921 534.643 442.804C541.107 449.874 546.258 453.289 545.962 453.043C538.979 447.234 530.372 436.21 528.014 433.092C525.663 429.982 523.155 426.991 520.801 423.881C520.742 423.803 520.637 423.896 520.687 423.975Z" fill="#37474F"/>
<path d="M531.771 415.253C534.595 419.367 537.249 423.555 540.257 427.547C543.25 431.518 546.437 435.022 549.695 438.776C549.946 439.065 550.018 438.834 549.777 438.535C546.673 434.653 544.1 430.825 541.04 426.908C537.99 423.004 534.767 419.19 531.862 415.178C531.817 415.116 531.728 415.191 531.771 415.253Z" fill="#37474F"/>
<path d="M539.939 406.054C543.935 412.564 549.126 418.325 554.353 423.857C554.614 424.132 554.674 423.824 554.425 423.528C549.523 417.7 545.636 413.163 540.166 405.915C540.08 405.801 539.855 405.918 539.939 406.054Z" fill="#37474F"/>
<path d="M505.1 370.397L565.044 365.971C565.044 365.971 560.041 300.367 554.182 290.424C548.324 280.483 523.157 253.525 500.317 235.101C477.477 216.676 468.832 228.534 479.667 249.626C490.501 270.717 509.786 303.604 510.436 306.096C511.086 308.588 505.1 370.397 505.1 370.397Z" fill="#263238"/>
<path d="M510.704 357.041C510.47 357.046 510.467 356.821 510.692 356.788C518.668 355.617 526.8 355.051 534.839 354.362C538.821 354.021 542.805 353.706 546.788 353.401C548.78 353.248 550.773 353.115 552.765 352.976C554.64 352.843 556.68 352.643 558.529 352.822C558.697 352.84 558.696 353.013 558.541 353.055C556.823 353.518 554.872 353.651 553.08 353.831C551.091 354.031 549.1 354.221 547.11 354.401C543.038 354.772 538.965 355.123 534.891 355.452C526.86 356.096 518.754 356.881 510.704 357.041Z" fill="#37474F"/>
<path d="M506.292 357.869C508.38 340.973 510.198 323.924 511.241 306.924L511.249 306.039L510.985 305.07C507.383 296.887 502.802 289.429 498.406 281.697C493.955 274.108 489.421 266.571 484.687 259.152C487.804 264.962 494.122 276.555 497.305 282.32C500.886 289.091 506.525 298.597 509.412 305.54L509.621 306.149C509.627 306.919 509.602 307.739 509.56 308.526C509.474 310.625 509.07 316.214 508.926 318.379C508.048 330.092 506.92 346.138 506.292 357.869Z" fill="#37474F"/>
<path d="M490.422 269.014C488.299 267.096 486.636 265.09 484.775 262.92C485.601 265.627 487.709 268.095 490.422 269.014Z" fill="#37474F"/>
<path d="M451.177 221.914C451.177 221.914 437.89 276.121 433.972 288.776C430.052 301.431 413.937 364.795 413.937 364.795C413.937 364.795 422.871 249.365 451.177 221.914Z" fill="#263238"/>
<path d="M480.888 219.41C470.294 212.834 448.421 217.979 446.187 223.089C442.995 230.39 412.191 283.982 405.404 297.984C398.619 311.985 340.878 364.795 340.878 364.795L362.304 371.935L372.065 390.925C372.065 390.925 412.864 339.718 427.769 315.4C442.41 291.514 447.474 225.971 450.871 223.09C454.269 220.209 469.816 216.8 473.514 218.92C477.214 221.039 480.687 231.321 481.141 240.181C481.595 249.041 472.037 301.877 465.683 320.202C459.329 338.528 413.801 403.032 413.801 403.032L434.574 401.309L447.651 423.967C447.651 423.967 483.554 362.481 494.811 333.033C501.975 314.294 501.404 272.26 493.977 244.092C489.734 227.988 487.262 223.368 480.888 219.41Z" fill="#0A66C2"/>
<path d="M454.88 239.539C460.645 240.736 472.395 233.648 476.251 225.339C476.512 224.767 475.289 219.028 474.132 211.983C473.447 207.706 472.783 202.926 472.494 198.521C472.439 197.617 445.341 207.052 445.341 207.052C445.341 207.052 448.66 216.106 449.12 223.789C449.15 224.432 449.126 225.033 449.049 225.61C449.046 225.694 449.028 225.796 449.028 225.911C448.695 229.382 448.71 238.258 454.88 239.539Z" fill="#D3766A"/>
<path d="M449.04 225.61C449.044 225.699 449.028 225.806 449.032 225.911C449.902 225.971 450.841 225.959 451.865 225.873C468.084 224.444 471.031 203.806 471.517 198.593C466.66 199.619 445.337 207.052 445.337 207.052C445.337 207.052 448.66 216.114 449.121 223.798C449.144 224.435 449.128 225.038 449.04 225.61Z" fill="#263238"/>
<path d="M486.376 175.754C486.151 186.016 472.372 211.332 463.772 215.154C451.304 220.695 435.308 216.343 431.72 202.349C428.242 188.785 446.782 156.11 455.977 153.091C469.52 148.646 486.708 160.595 486.376 175.754Z" fill="#D3766A"/>
<path d="M455.071 183.257C455.121 183.198 455.162 183.414 455.121 183.483C454.13 185.194 453.284 187.321 454.546 188.747C454.586 188.791 454.534 188.876 454.479 188.836C452.706 187.533 453.858 184.721 455.071 183.257Z" fill="#263238"/>
<path d="M457.601 182.275C460.513 183.57 457.713 189.305 455.016 188.106C452.36 186.925 455.16 181.191 457.601 182.275Z" fill="#263238"/>
<path d="M444.656 178.521C444.677 178.447 444.477 178.537 444.443 178.611C443.633 180.416 442.4 182.344 440.508 182.15C440.449 182.143 440.41 182.236 440.473 182.256C442.567 182.938 444.176 180.361 444.656 178.521Z" fill="#263238"/>
<path d="M443.977 175.892C441.228 174.278 438.208 179.901 440.753 181.394C443.26 182.864 446.282 177.242 443.977 175.892Z" fill="#263238"/>
<path d="M461.142 180.758C460.458 180.18 459.923 179.532 459.305 178.892C458.609 178.167 457.979 177.662 457.795 176.629C457.697 176.074 458.179 175.403 458.707 175.257C459.938 174.916 461.012 175.591 461.885 176.428C462.835 177.337 463.334 178.28 463.495 179.582C463.652 180.844 462.044 181.521 461.142 180.758Z" fill="#263238"/>
<path d="M441.65 173.488C442.427 173.932 443.22 174.211 444.033 174.569C444.954 174.974 445.643 175.393 446.675 175.208C447.229 175.11 447.694 174.427 447.649 173.879C447.544 172.605 446.541 171.83 445.454 171.296C444.274 170.717 443.218 170.574 441.94 170.871C440.702 171.16 440.623 172.904 441.65 173.488Z" fill="#263238"/>
<path d="M448.662 200.551C448.034 200.759 447.331 201.124 446.66 200.863C446.017 200.613 445.428 199.979 444.971 199.482C444.926 199.433 444.84 199.464 444.849 199.535C444.976 200.443 445.738 201.343 446.631 201.601C447.503 201.855 448.239 201.353 448.793 200.713C448.872 200.623 448.755 200.52 448.662 200.551Z" fill="#263238"/>
<path d="M449.393 194.317C447.647 195.373 445.776 195.502 444.046 195.035C443.272 194.832 442.518 194.493 441.823 194.071C441.682 193.999 441.546 193.913 441.431 193.82C441.309 193.74 441.199 193.668 441.072 193.568C440.879 193.437 440.848 193.21 440.91 192.997L440.917 192.985C440.95 192.921 440.977 192.867 441.022 192.811C441.022 192.811 441.022 192.811 441.029 192.797L441.108 192.642C441.737 191.256 442.886 189.241 442.886 189.241C442.265 189.246 439.161 189.148 439.549 188.452C442.79 182.709 446.393 176.321 450.829 171.291C450.967 171.117 451.244 171.308 451.132 171.494C448.235 177.137 444.367 182.232 441.367 187.855C442.331 187.943 443.935 188.02 444.642 188.383C444.809 188.535 442.353 192.239 442.121 192.885C442.121 192.885 442.107 192.91 442.1 192.955C444.252 194.372 446.321 194.524 449.304 194.071C449.488 194.04 449.57 194.23 449.393 194.317Z" fill="#263238"/>
<path d="M442.969 193.773C442.969 193.773 443.382 196.001 444.752 197.405C445.256 197.923 445.872 198.331 446.651 198.485C448.251 198.805 448.922 197.52 449.206 196.279C449.441 195.259 449.403 194.262 449.403 194.262C449.403 194.262 446.386 195.192 442.969 193.773Z" fill="#263238"/>
<path d="M444.753 197.405C445.257 197.923 445.872 198.331 446.652 198.485C448.251 198.805 448.922 197.52 449.206 196.279C447.611 195.693 445.602 195.989 444.753 197.405Z" fill="#FF9CBD"/>
<path d="M479.201 198.929C472.185 196.082 472.603 186.25 477.376 180.514C477.376 180.514 458.17 174.072 464.393 159.154C464.393 159.154 456.856 163.585 448.573 159.791L444.861 164.272C443.273 162.831 443.877 156.602 450.422 154.691C450.422 154.691 454.266 147.618 461.707 145.888C469.146 144.159 473.04 149.599 473.04 149.599C473.04 149.599 478.998 148.137 485.226 152.244C491.454 156.351 491.223 163.757 491.223 163.757C491.223 163.757 499.321 169.844 497.737 176.942C496.151 184.04 490.79 186.694 490.79 186.694C490.79 186.694 491.812 190.288 488.023 195.153C485.584 198.28 481.306 199.783 479.201 198.929Z" fill="#263238"/>
<path d="M465.422 158.062C464.723 159.187 464.097 160.351 463.65 161.582C463.144 162.788 462.826 164.057 462.63 165.327C462.286 167.876 462.794 170.499 464.262 172.575C465.599 174.778 467.905 176.154 470.093 177.504C471.278 178.041 472.436 178.666 473.661 179.141C474.892 179.598 476.137 180.026 477.376 180.514C476.086 180.23 474.804 179.887 473.509 179.572C472.24 179.181 471.024 178.618 469.772 178.144C467.439 176.88 465.023 175.448 463.494 173.097C461.956 170.803 461.402 167.886 461.928 165.216C462.462 162.546 463.715 160.087 465.422 158.062Z" fill="#263238"/>
<path d="M452.028 161.884C454.393 162.135 456.72 162.128 458.939 161.615C460.057 161.391 461.111 160.959 462.128 160.446C463.17 159.95 464.044 159.19 464.985 158.445C464.34 159.44 463.533 160.392 462.499 161.057C461.498 161.76 460.344 162.261 459.147 162.522C457.95 162.782 456.72 162.875 455.515 162.753C454.312 162.636 453.12 162.386 452.028 161.884Z" fill="#263238"/>
<path d="M454.587 196.437C458.499 197.787 462.986 196.377 465.361 192.759C468.169 188.48 466.977 182.711 462.704 179.901C458.43 177.089 452.67 178.282 449.861 182.56C447.054 186.837 448.246 192.606 452.518 195.418C453.179 195.852 453.874 196.191 454.587 196.437ZM460.232 180.056C460.85 180.269 461.454 180.562 462.025 180.937C465.726 183.372 466.758 188.37 464.328 192.077C461.894 195.781 456.899 196.819 453.201 194.381C449.5 191.944 448.468 186.947 450.898 183.241C452.955 180.107 456.842 178.885 460.232 180.056Z" fill="#0A66C2"/>
<path d="M435.463 187.088C438.817 188.247 443.046 185.857 445.146 181.494C446.208 179.291 446.579 176.911 446.196 174.793C445.802 172.603 444.649 170.945 442.953 170.128C441.252 169.304 439.245 169.441 437.286 170.495C435.392 171.515 433.767 173.29 432.707 175.491C430.488 180.102 431.472 185.201 434.9 186.856C435.086 186.945 435.272 187.021 435.463 187.088ZM441.978 171.067C442.126 171.119 442.272 171.177 442.413 171.246C443.741 171.887 444.651 173.225 444.976 175.014C445.311 176.875 444.976 178.985 444.03 180.953C442.105 184.948 438.261 187.1 435.439 185.737C432.626 184.38 431.902 180.025 433.824 176.03C434.771 174.061 436.209 172.484 437.874 171.587C439.303 170.819 440.741 170.64 441.978 171.067Z" fill="#0A66C2"/>
<path d="M449.677 183.663L450.807 183.154C450.052 181.476 447.811 178.632 444.72 179.834L445.169 180.991C447.936 179.908 449.606 183.512 449.677 183.663Z" fill="#0A66C2"/>
<path d="M484.068 203.282L485.308 203.248C485.291 202.669 485.083 197.548 482.783 195.939C480.632 194.443 466.78 189.113 466.115 188.869L465.685 190.033C470.172 191.696 480.413 195.797 482.071 196.957C483.59 198.02 484.027 201.884 484.068 203.282Z" fill="#0A66C2"/>
<path d="M472.212 195.769C472.212 195.769 481.294 189.246 484.459 192.783C487.622 196.322 478.673 207.262 473.466 207.356C468.26 207.451 468.077 202.628 468.077 202.628L472.212 195.769Z" fill="#D3766A"/>
<path d="M481.815 195.855C481.891 195.874 481.868 195.984 481.796 195.988C478.108 196.16 475.356 198.559 473.076 201.247C474.455 200.389 475.993 200.195 477.192 201.901C477.254 201.991 477.128 202.094 477.044 202.042C475.821 201.293 474.787 201.186 473.521 201.932C472.625 202.461 471.86 203.258 471.101 203.964C470.848 204.2 470.382 203.862 470.609 203.568C470.626 203.547 470.644 203.525 470.663 203.503C472.025 199.352 477.25 194.713 481.815 195.855Z" fill="#263238"/>
<path d="M448.874 222.4L454.617 239.088L475.957 219.41L481.376 226.341C481.376 226.341 459.868 258.226 459.818 256.735L453.791 242.297L443.578 251.619L445.6 227.03L448.874 222.4Z" fill="#EBEBEB"/>
<path d="M443.892 239.406C444.362 235.358 444.721 231.268 445.379 227.245C445.403 227.103 445.63 227.049 445.657 227.22C446.273 231.184 444.395 246.656 444.224 250.379C444.238 250.365 444.255 250.351 444.269 250.337C444.696 249.933 453.712 242.158 453.789 242.294C455.138 244.605 459.565 255.121 459.856 256.073C463.258 251.009 476.247 232.623 480.214 227.872C480.327 227.736 480.54 227.864 480.449 228.026C477.4 233.402 460.188 258.173 459.947 258.088C459.773 258.209 454.266 245.254 453.652 242.828C452.105 244.543 442.957 253.368 442.958 252.764C442.964 248.677 443.423 243.46 443.892 239.406Z" fill="#263238"/>
<path d="M613.404 206.247L605.253 204.739L603.431 196.138L601.61 204.739L593.46 206.253L601.575 208.238L603.431 216.362L605.287 208.238L613.404 206.247Z" fill="#FFC727"/>
<path d="M659.211 479.208L651.06 477.7L649.238 469.099L647.417 477.7L639.267 479.214L647.382 481.199L649.238 489.324L651.094 481.199L659.211 479.208Z" fill="#FFC727"/>
<path d="M288.669 110.559L280.518 109.051L278.699 100.449L276.877 109.051L268.726 110.564L276.841 112.55L278.699 120.674L280.554 112.55L288.669 110.559Z" fill="#FFC727"/>
<path d="M247.618 414.306L239.469 412.798L237.647 404.196L235.826 412.798L227.675 414.311L235.79 416.297L237.647 424.421L239.503 416.297L247.618 414.306Z" fill="#FFC727"/>
<path d="M501.223 601.217L493.072 599.709L491.251 591.107L489.429 599.709L481.28 601.222L489.395 603.206L491.251 611.332L493.107 603.206L501.223 601.217Z" fill="#FFC727"/>
<path d="M691.688 402.889L687.131 402.046L686.113 397.238L685.097 402.046L680.54 402.891L685.076 404.002L686.113 408.543L687.152 404.002L691.688 402.889Z" fill="#FFC727"/>
<path d="M632.864 356.891L628.307 356.048L627.289 351.24L626.271 356.048L621.716 356.893L626.252 358.004L627.289 362.545L628.328 358.004L632.864 356.891Z" fill="#FFC727"/>
<path d="M506.817 137.35L502.262 136.506L501.244 131.699L500.226 136.506L495.67 137.352L500.207 138.463L501.244 143.003L502.281 138.463L506.817 137.35Z" fill="#FFC727"/>
<path d="M314.246 546.397L309.691 545.554L308.673 540.746L307.655 545.554L303.098 546.399L307.636 547.51L308.673 552.051L309.71 547.51L314.246 546.397Z" fill="#FFC727"/>
<path d="M334 263.831L329.444 262.989L328.427 258.181L327.409 262.989L322.853 263.835L327.388 264.943L328.427 269.484L329.464 264.943L334 263.831Z" fill="#FFC727"/>
<path d="M544.437 244.417L539.88 243.573L538.862 238.766L537.844 243.573L533.289 244.419L537.825 245.528L538.862 250.071L539.901 245.528L544.437 244.417Z" fill="#FFC727"/>
<path d="M209.243 362.543L204.689 361.699L203.67 356.893L202.652 361.699L198.096 362.546L202.633 363.655L203.67 368.196L204.708 363.655L209.243 362.543Z" fill="#FFC727"/>
<path d="M545.085 546.397L540.531 545.554L539.512 540.746L538.494 545.554L533.94 546.399L538.475 547.51L539.512 552.051L540.55 547.51L545.085 546.397Z" fill="#FFC727"/>
<path d="M504.442 216.483C502.742 216.483 502.739 213.84 504.442 213.84C506.141 213.84 506.143 216.483 504.442 216.483Z" fill="#FFC727"/>
<path d="M213.607 456.561C211.907 456.561 211.904 453.917 213.607 453.917C215.306 453.917 215.308 456.561 213.607 456.561Z" fill="#FFC727"/>
<path d="M420.891 251.391C419.191 251.391 419.188 248.748 420.891 248.748C422.59 248.748 422.594 251.391 420.891 251.391Z" fill="#FFC727"/>
<path d="M684.839 309.6C683.139 309.6 683.136 306.957 684.839 306.957C686.538 306.955 686.54 309.6 684.839 309.6Z" fill="#FFC727"/>
<path d="M266.554 315.102C264.854 315.102 264.851 312.459 266.554 312.459C268.253 312.459 268.256 315.102 266.554 315.102Z" fill="#FFC727"/>
<path d="M573.539 481.855C571.84 481.855 571.836 479.212 573.539 479.212C575.238 479.21 575.242 481.855 573.539 481.855Z" fill="#FFC727"/>
<path d="M321.951 388.929C320.749 388.929 320.747 387.059 321.951 387.059C323.152 387.059 323.155 388.929 321.951 388.929Z" fill="#FFC727"/>
<path d="M448.502 128.644C447.3 128.644 447.298 126.774 448.502 126.774C449.704 126.772 449.706 128.644 448.502 128.644Z" fill="#FFC727"/>
<path d="M588.257 246.289C587.055 246.289 587.053 244.419 588.257 244.419C589.459 244.417 589.461 246.289 588.257 246.289Z" fill="#FFC727"/>
<path d="M587.356 324.096C586.154 324.096 586.152 322.226 587.356 322.226C588.558 322.224 588.56 324.096 587.356 324.096Z" fill="#FFC727"/>
<path d="M330.871 419.379C327.614 419.379 327.608 414.31 330.871 414.31C334.131 414.308 334.136 419.379 330.871 419.379Z" fill="#FFC727"/>
<path d="M328.427 147.849C325.169 147.849 325.163 142.78 328.427 142.78C331.685 142.78 331.69 147.849 328.427 147.849Z" fill="#FFC727"/>
</svg>
