<svg width="40" height="40" viewBox="0 0 40 40" fill="none" xmlns="http://www.w3.org/2000/svg">
<path d="M20 40C31.0457 40 40 31.0457 40 20C40 8.95431 31.0457 0 20 0C8.9543 0 0 8.95431 0 20C0 31.0457 8.9543 40 20 40Z" fill="#C28461"/>
<mask id="mask0_9_2176" style="mask-type:luminance" maskUnits="userSpaceOnUse" x="0" y="0" width="40" height="40">
<path d="M20 40C31.0457 40 40 31.0457 40 20C40 8.95431 31.0457 0 20 0C8.9543 0 0 8.95431 0 20C0 31.0457 8.9543 40 20 40Z" fill="white"/>
</mask>
<g mask="url(#mask0_9_2176)">
<path d="M12.2792 11.386C12.2792 11.386 12.5212 14.1877 10.5892 15.5966C8.65696 17.0054 8.65696 18.5414 9.44533 20.1379C10.2337 21.7344 8.23269 21.674 8.23269 23.675C8.23269 25.6757 9.44533 26.1002 8.89979 27.0099C8.35395 27.9195 7.40537 28.8191 7.63728 29.3393C7.86889 29.8594 10.9613 30.6856 11.2038 30.5454C11.4463 30.4053 26.5019 30.561 26.5019 30.561C26.5019 30.561 27.7214 29.0711 26.7687 27.0703C25.816 25.0693 25.4533 25.1039 26.0228 23.3758C26.5922 21.6477 25.9372 19.3154 25.816 19.2516C25.6947 19.1879 22.9661 14.9608 22.9661 14.9608L12.2792 11.386Z" fill="#7B5231"/>
<path d="M28.0973 8.01318C28.0973 8.01318 29.9144 10.8477 27.6134 11.3118L25.5661 8.58144L28.0973 8.01318Z" fill="#7B5231"/>
<path d="M18.6868 8.78996C18.6868 8.78996 28.8189 11.7239 29.301 7.51595C29.301 7.51595 29.5005 5.56157 27.1723 5.15588C24.8441 4.75019 16.5379 3.11947 15.8281 5.8575C15.8281 5.8575 10.9607 7.12708 12.279 11.3858C13.5972 15.6448 16.3391 21.1545 16.3391 21.1545L17.0705 15.1084L18.6868 8.78996Z" fill="#7B5231"/>
<path d="M24.7028 16.3604C24.9521 17.5014 26.0789 18.2242 27.2198 17.9749C28.3607 17.7256 29.0836 16.5988 28.8343 15.4579C28.585 14.3169 27.4582 13.5941 26.3173 13.8434C25.1763 14.0927 24.4534 15.2195 24.7028 16.3604Z" fill="#C28461"/>
<path d="M22.3468 20.8857L22.0978 29.1983L15.5625 27.5762L17.0708 15.1084L22.3468 20.8857Z" fill="#DBA884"/>
<path d="M22.2028 25.7291L17.655 20.8354L22.3453 21.1222L22.2028 25.7291Z" fill="#C28461"/>
<path d="M24.4868 6.75175C26.3807 7.51504 27.6455 9.32279 27.8429 11.3554C28.0701 13.6957 28.261 17.3218 27.5216 19.0921C26.3783 21.8289 23.9808 23.4216 20.3786 22.4175C20.3786 22.4175 16.157 21.8729 15.5908 15.4981C14.9214 7.95496 20.2337 5.03754 24.4868 6.75175Z" fill="#DBA884"/>
<path d="M17.5494 15.5047C17.5494 15.5047 19.2822 12.2967 18.6868 8.79004C18.6868 8.79004 24.4871 6.75186 26.9277 8.7623C26.9277 8.7623 26.2488 4.4508 19.2226 4.95798C9.60082 5.65282 16.9124 17.7063 16.9124 17.7063L17.5494 15.5047Z" fill="#7B5231"/>
<path d="M18.6868 8.78984C18.6868 8.78984 22.9835 11.0298 27.3154 9.44986L28.0465 6.70388L22.7242 6.31323L18.8924 6.75462L18.6868 8.78984Z" fill="#7B5231"/>
<path d="M16.5695 19.2515L16.9221 17.0977L15.4374 18.0238L16.5695 19.2515Z" fill="#7B5231"/>
<path d="M26.0258 14.5626C26.073 14.8255 26.3246 15.0005 26.5875 14.9533C26.8504 14.9061 27.0254 14.6544 26.9782 14.3915C26.931 14.1286 26.6793 13.9536 26.4164 14.0009C26.1532 14.0481 25.9783 14.2994 26.0258 14.5626Z" fill="#221915"/>
<path d="M21.6113 14.2894C21.6585 14.5523 21.9102 14.7273 22.173 14.6801C22.4359 14.6329 22.6109 14.3812 22.5637 14.1183C22.5165 13.8554 22.2648 13.6805 22.0019 13.7277C21.7387 13.7752 21.5641 14.0265 21.6113 14.2894Z" fill="#221915"/>
<path d="M25.0677 14.6877L25.4008 16.0842C25.4362 16.2335 25.3398 16.3819 25.189 16.4099L24.6771 16.5052" stroke="#1E0A05" stroke-width="0.8275" stroke-miterlimit="10" stroke-linecap="round" stroke-linejoin="round"/>
<path d="M24.0549 11.5417L20.5848 12.9777C20.5848 12.9777 21.287 11.8231 22.2881 11.4142C23.2892 11.0053 24.0549 11.5417 24.0549 11.5417Z" fill="#3D2308"/>
<path d="M26.0228 11.7032L28.1825 12.6706C28.1825 12.6706 27.9031 11.671 27.2791 11.3972C26.6551 11.1234 26.0228 11.7032 26.0228 11.7032Z" fill="#3D2308"/>
<path d="M24.3809 17.4295C24.3809 17.4295 23.4137 17.3891 22.24 17.9754C21.0663 18.5616 20.7379 18.9505 19.6466 18.8697C18.5552 18.7888 17.9763 14.6157 18.1527 14.0598L17.4915 14.9305L16.7834 17.9456C16.7834 17.9456 16.3388 21.2899 20.5821 22.9068C24.8255 24.5236 26.9478 21.5324 27.352 20.3803C27.7562 19.2284 27.6562 18.7177 27.6562 18.7177C27.6562 18.7177 27.1322 17.2478 24.3809 17.4295Z" fill="#7B5231"/>
<path d="M13.316 16.4161C13.5795 17.6217 14.77 18.3856 15.9756 18.1221C17.1812 17.8586 17.945 16.6681 17.6815 15.4625C17.4181 14.257 16.2276 13.4931 15.0217 13.7566C13.8167 14.0198 13.0529 15.2106 13.316 16.4161Z" fill="#DBA884"/>
<path d="M14.5461 15.2086C14.5461 15.2086 16.216 14.8693 16.5078 16.7007" stroke="#1E0A05" stroke-width="0.8275" stroke-miterlimit="10" stroke-linecap="round" stroke-linejoin="round"/>
<path d="M25.5127 18.8243L22.764 18.7178C22.764 18.7178 22.8192 19.9157 24.0548 19.9965C25.2905 20.0774 25.5127 18.8243 25.5127 18.8243Z" fill="white"/>
<path d="M32.6932 47.2728H24.7084L21.3017 36.5461L28.5566 34.6702L29.0376 34.5456L29.9968 34.2966L31.6832 42.4145V42.4172L32.6932 47.2728Z" fill="#DBA884"/>
<path d="M29.0039 32.0869C29.0039 32.0869 31.8449 33.3441 32.6908 41.9087L26.794 44.8692L29.0039 32.0869Z" fill="#4570B4"/>
<path d="M29.2072 47.2729H4.7178L4.58473 45.5722L4.55375 45.1703L3.72467 34.5313L3.64825 33.555C3.55207 32.3128 4.20294 31.13 5.30642 30.5499C5.31497 30.547 5.32058 30.5443 5.32058 30.5443L12.8159 26.6423L23.9162 28.5663L29.0036 32.0862L29.0376 34.5451L29.1594 43.6815L29.1877 45.7103L29.2072 47.2729Z" fill="#4570B4"/>
<path d="M21.2516 26.6436L23.9156 28.5676C23.9156 28.5676 23.7498 31.7494 18.9122 30.9354C14.0746 30.1213 12.8165 26.6436 12.8165 26.6436L16.2765 25.2961L21.2516 26.6436Z" fill="#DBA884"/>
<path d="M29.1928 43.6085V37.1948" stroke="#1E0A05" stroke-width="0.8275" stroke-miterlimit="10" stroke-linecap="round" stroke-linejoin="round"/>
<path d="M10.5892 37.7035L6.12132 46.1356L5.51855 47.273H-3.29242L-1.67674 43.2804L-1.04593 41.7243L2.15708 33.8074L3.72466 34.5317L10.5892 37.7035Z" fill="#DBA884"/>
<path d="M5.31911 30.5454C5.31911 30.5454 0.804013 32.0929 -2.46539 40.8502L6.5878 46.4221L12.8159 35.8158L5.31911 30.5454Z" fill="#4570B4"/>
<path d="M11.39 40.0942L6.98257 46.5493L6.12192 46.1353" stroke="#1E0A05" stroke-width="0.8275" stroke-miterlimit="10" stroke-linecap="round" stroke-linejoin="round"/>
<path d="M22.2185 23.3285C22.2185 23.3285 24.4959 23.8495 26.2473 22.019" stroke="#1E0A05" stroke-width="0.8275" stroke-miterlimit="10" stroke-linecap="round" stroke-linejoin="round"/>
</g>
</svg>
