<svg width="40" height="40" viewBox="0 0 40 40" fill="none" xmlns="http://www.w3.org/2000/svg">
<path d="M20 40C31.0457 40 40 31.0457 40 20C40 8.9543 31.0457 0 20 0C8.9543 0 0 8.9543 0 20C0 31.0457 8.9543 40 20 40Z" fill="#FFC727"/>
<mask id="mask0_9_1873" style="mask-type:luminance" maskUnits="userSpaceOnUse" x="0" y="0" width="40" height="40">
<path d="M20 40C31.0457 40 40 31.0457 40 20C40 8.9543 31.0457 0 20 0C8.9543 0 0 8.9543 0 20C0 31.0457 8.9543 40 20 40Z" fill="white"/>
</mask>
<g mask="url(#mask0_9_1873)">
<path d="M16.2158 13.4382C16.2497 14.6412 15.3021 15.6444 14.099 15.6784C12.896 15.7123 11.8928 14.7647 11.8589 13.5616C11.8249 12.3586 12.7725 11.3554 13.9756 11.3214C15.179 11.2875 16.1818 12.2351 16.2158 13.4382Z" fill="#E8B499"/>
<path d="M12.8001 13.1934C12.8001 13.1934 13.6668 12.7714 14.4927 14.2769" stroke="#C47268" stroke-width="0.6887" stroke-miterlimit="10" stroke-linecap="round" stroke-linejoin="round"/>
<path d="M24.173 13.4997C24.173 14.7034 25.1486 15.679 26.3523 15.679C27.5561 15.679 28.5317 14.7034 28.5317 13.4997C28.5317 12.2959 27.5561 11.3203 26.3523 11.3203C25.1486 11.3203 24.173 12.2963 24.173 13.4997Z" fill="#E8B499"/>
<path d="M27.5805 13.1586C27.5805 13.1586 26.7022 12.761 25.9193 14.2895" stroke="#C47268" stroke-width="0.6887" stroke-miterlimit="10" stroke-linecap="round" stroke-linejoin="round"/>
<path d="M22.9908 18.5215C22.9908 18.5215 21.7619 19.3885 20.6424 19.6025C19.5228 19.8165 18.434 19.1667 18.4202 19.1585C18.4064 19.1507 17.1128 18.4065 17.1128 18.4065L16.5773 25.5798L16.7223 25.6994C18.6208 27.2654 21.3576 27.2841 23.2773 25.744L23.5582 25.5186L22.9908 18.5215Z" fill="#E8B499"/>
<path d="M16.5773 17.6523C16.5773 17.6523 17.7984 21.6495 20.6084 21.6053C22.9183 21.5689 23.2908 17.6523 23.2908 17.6523H16.5773Z" fill="#1E0B02"/>
<path d="M26.2522 8.40688C26.2646 10.8703 25.7506 14.2969 25.4071 15.8073C25.0707 17.2863 23.7697 18.3234 22.4064 19.161L22.1581 19.3135C20.7156 20.2 19.5228 20.23 18.0492 19.3903C16.5631 18.5434 15.1815 17.4221 14.8543 15.8384C14.2589 12.9583 13.8065 11.3429 13.6463 9.81544C13.3827 7.3004 13.486 1.89043 19.9339 1.89185C26.353 1.89291 26.2522 8.40688 26.2522 8.40688Z" fill="#E8B499"/>
<path d="M17.8801 11.6601C17.8801 11.947 17.6477 12.1794 17.3608 12.1794C17.0739 12.1794 16.8415 11.947 16.8415 11.6601C16.8415 11.3733 17.0743 11.1409 17.3608 11.1409C17.6477 11.1409 17.8801 11.3733 17.8801 11.6601Z" fill="#1E0B02"/>
<path d="M22.9763 11.6601C22.9763 11.947 22.7439 12.1794 22.457 12.1794C22.1701 12.1794 21.9377 11.947 21.9377 11.6601C21.9377 11.3733 22.1705 11.1409 22.457 11.1409C22.7435 11.1409 22.9763 11.3733 22.9763 11.6601Z" fill="#1E0B02"/>
<path d="M19.4376 13.0188V13.8511H20.1118" stroke="#C47268" stroke-width="0.6887" stroke-miterlimit="10" stroke-linecap="round" stroke-linejoin="round"/>
<path d="M15.4259 9.46489L18.8192 9.15891C18.8192 9.15891 18.5154 8.27954 17.1433 8.42244C15.7393 8.56818 15.4259 9.46489 15.4259 9.46489Z" fill="black"/>
<path d="M24.173 9.46489L20.7793 9.15891C20.7793 9.15891 21.0831 8.27954 22.4553 8.42244C23.8592 8.56818 24.173 9.46489 24.173 9.46489Z" fill="black"/>
<path d="M36.873 40.7034H3.12699C3.74248 38.1494 4.37566 35.8784 5.00177 34.1098C5.92854 31.4992 7.26212 29.9711 8.36576 29.101C9.46587 28.2272 10.336 28.0079 10.336 28.0079L12.6778 27.0281L27.492 27.0422L29.664 28.0079C29.664 28.0079 33.1447 28.8852 34.9982 34.1098C35.6247 35.8784 36.2579 38.1494 36.873 40.7034Z" fill="white"/>
<path d="M20.2639 23.9077L27.4938 27.0418C27.4938 27.0418 20.0654 33.7549 12.6788 27.0269L20.2639 23.9077Z" fill="#E8B499"/>
<path d="M12.6788 27.0269C12.6788 27.0269 15.2526 30.0721 20.0676 30.0721C24.8826 30.0721 27.4938 27.0421 27.4938 27.0421" stroke="white" stroke-width="1.9384" stroke-miterlimit="10"/>
<path d="M25.5759 12.9234C25.5759 12.9234 25.4623 12.8633 25.0644 13.4996C24.6664 14.136 24.3442 15.8417 24.3442 15.8417C24.3442 15.8417 23.9668 15.0458 22.971 14.5343C22.0619 14.067 20.1525 14.3256 19.8274 14.3741C19.323 14.2863 18.1298 14.1392 17.3608 14.5343C16.3654 15.0458 15.9876 15.8417 15.9876 15.8417C15.9876 15.8417 15.6654 14.1364 15.2674 13.4996C14.8695 12.8629 14.7556 12.9234 14.7556 12.9234C14.7556 12.9234 14.5472 16.2397 15.4379 18.2103C16.22 19.9411 19.2204 20.6574 19.9339 20.6928C19.9339 20.6928 24.0028 20.1813 24.8935 18.2103C25.7842 16.2397 25.5759 12.9234 25.5759 12.9234Z" fill="#A74B22"/>
<path d="M18.2763 15.0376H21.624C21.624 15.0376 21.4666 16.0631 19.9006 16.0631C18.3343 16.0631 18.2763 15.0376 18.2763 15.0376Z" fill="white"/>
</g>
</svg>
