<svg width="89" height="68" viewBox="0 0 89 68" fill="none" xmlns="http://www.w3.org/2000/svg">
<path d="M67.4795 40.0826L59.2334 31.8505L68.7954 22.9059L70.3593 21.443L68.793 19.9825L59.2186 11.0553L67.4315 2.82843L86.0826 21.4477L76.781 30.7651L67.4795 40.0826ZM53.4637 11.1584L44.5846 20.0526L44.4659 20.1715L44.324 20.0299L35.7771 11.4976L44.4789 2.78095L53.4637 11.1584ZM44.5271 40.1301L35.7907 31.4086L44.3264 22.8583L44.4451 22.7394L44.587 22.8811L53.4781 31.757L44.5271 40.1301ZM64.4989 21.4477L56.4009 29.0228L48.8284 21.4632L56.3909 13.8878L64.4989 21.4477ZM40.0826 21.4477L32.9599 28.5826L25.8284 21.4632L32.9511 14.3284L40.0826 21.4477ZM30.1203 11.5024L21.5846 20.0526L20.1716 21.4681L21.587 22.8811L30.1339 31.4134L21.4795 40.0826L2.82843 21.4632L21.4315 2.82843L30.1203 11.5024Z" stroke="white" stroke-width="4"/>
<mask id="path-2-outside-1_1_7" maskUnits="userSpaceOnUse" x="16" y="46" width="63" height="18" fill="black">
<rect fill="white" x="16" y="46" width="63" height="18"/>
<path d="M17.6348 58.0645C17.2572 57.1465 17.0684 56.1243 17.0684 54.998C17.0684 53.8717 17.2572 52.8496 17.6348 51.9316C18.0189 51.0137 18.543 50.2585 19.207 49.666C19.8711 49.0671 20.6491 48.6081 21.541 48.2891C22.4329 47.9635 23.3965 47.8008 24.4316 47.8008C25.291 47.8008 26.0983 47.8952 26.8535 48.084C27.6152 48.2728 28.3086 48.5625 28.9336 48.9531C29.5586 49.3372 30.0957 49.8125 30.5449 50.3789C30.9941 50.9388 31.3424 51.6126 31.5898 52.4004C31.8438 53.1882 31.9707 54.054 31.9707 54.998C31.9707 56.1243 31.7786 57.1465 31.3945 58.0645C31.0104 58.9759 30.4798 59.7311 29.8027 60.3301C29.1257 60.929 28.3281 61.3913 27.4102 61.7168C26.4987 62.0358 25.5059 62.1953 24.4316 62.1953C23.3965 62.1953 22.4329 62.0358 21.541 61.7168C20.6491 61.3913 19.8711 60.929 19.207 60.3301C18.543 59.7311 18.0189 58.9759 17.6348 58.0645ZM23.2305 48.416C22.6901 48.416 22.1986 48.5007 21.7559 48.6699C21.3132 48.8392 20.9388 49.0736 20.6328 49.373C20.3333 49.6725 20.0794 50.0273 19.8711 50.4375C19.6628 50.8477 19.5098 51.2904 19.4121 51.7656C19.321 52.2344 19.2786 52.7324 19.2852 53.2598C19.2917 54.002 19.3893 54.7604 19.5781 55.5352C19.7669 56.3099 20.0436 57.0521 20.4082 57.7617C20.7728 58.4714 21.1992 59.1061 21.6875 59.666C22.1758 60.2259 22.7487 60.6719 23.4062 61.0039C24.0638 61.3359 24.7572 61.502 25.4863 61.502C26.209 61.502 26.847 61.375 27.4004 61.1211C27.9538 60.8672 28.3965 60.5189 28.7285 60.0762C29.0671 59.627 29.3177 59.1191 29.4805 58.5527C29.6497 57.9798 29.7311 57.3613 29.7246 56.6973C29.7181 55.9486 29.6139 55.1868 29.4121 54.4121C29.2103 53.6309 28.9173 52.8854 28.5332 52.1758C28.1491 51.4596 27.6999 50.8216 27.1855 50.2617C26.6712 49.7018 26.069 49.2559 25.3789 48.9238C24.6953 48.5853 23.9792 48.416 23.2305 48.416ZM34.1289 62V47.9961H42.3516V50.8574L41.0332 49.7832C40.4863 49.3796 39.8418 49.054 39.0996 48.8066C38.3574 48.5592 37.6543 48.4355 36.9902 48.4355H36.7754V54.998H36.9707C37.498 54.998 38.0645 54.9232 38.6699 54.7734C39.2754 54.6172 39.8158 54.4121 40.291 54.1582L41.209 53.6602V56.7559L40.291 56.2578C39.8158 56.0039 39.2754 55.8021 38.6699 55.6523C38.0645 55.4961 37.498 55.418 36.9707 55.418H36.7754V62H34.1289ZM48.7773 57.7031H46.6094V62H43.9922V47.9961H48.7773C49.5521 47.9961 50.2422 48.0807 50.8477 48.25C51.4596 48.4128 51.9642 48.6374 52.3613 48.9238C52.765 49.2038 53.097 49.5456 53.3574 49.9492C53.6178 50.3529 53.8034 50.7793 53.9141 51.2285C54.0312 51.6777 54.0898 52.1628 54.0898 52.6836C54.0898 53.3867 53.9922 54.0312 53.7969 54.6172C53.6081 55.1966 53.3118 55.724 52.9082 56.1992C52.5046 56.668 51.9512 57.0358 51.248 57.3027C50.5449 57.5697 49.7214 57.7031 48.7773 57.7031ZM48.6504 48.416H46.6094V57.2637H48.6699C49.0475 57.2637 49.3958 57.1628 49.7148 56.9609C50.0339 56.7591 50.2975 56.4889 50.5059 56.1504C50.7142 55.8053 50.8932 55.4115 51.043 54.9688C51.1927 54.526 51.2839 54.0605 51.3164 53.5723C51.3555 53.084 51.3587 52.5957 51.3262 52.1074C51.3001 51.6191 51.2155 51.1536 51.0723 50.7109C50.929 50.2682 50.7533 49.8776 50.5449 49.5391C50.3366 49.194 50.0664 48.9206 49.7344 48.7188C49.4089 48.5169 49.0475 48.416 48.6504 48.416ZM60.5938 57.7031H58.4258V62H55.8086V47.9961H60.5938C61.3685 47.9961 62.0586 48.0807 62.6641 48.25C63.276 48.4128 63.7806 48.6374 64.1777 48.9238C64.5814 49.2038 64.9134 49.5456 65.1738 49.9492C65.4342 50.3529 65.6198 50.7793 65.7305 51.2285C65.8477 51.6777 65.9062 52.1628 65.9062 52.6836C65.9062 53.3867 65.8086 54.0312 65.6133 54.6172C65.4245 55.1966 65.1283 55.724 64.7246 56.1992C64.321 56.668 63.7676 57.0358 63.0645 57.3027C62.3613 57.5697 61.5378 57.7031 60.5938 57.7031ZM60.4668 48.416H58.4258V57.2637H60.4863C60.8639 57.2637 61.2122 57.1628 61.5312 56.9609C61.8503 56.7591 62.1139 56.4889 62.3223 56.1504C62.5306 55.8053 62.7096 55.4115 62.8594 54.9688C63.0091 54.526 63.1003 54.0605 63.1328 53.5723C63.1719 53.084 63.1751 52.5957 63.1426 52.1074C63.1165 51.6191 63.0319 51.1536 62.8887 50.7109C62.7454 50.2682 62.5697 49.8776 62.3613 49.5391C62.153 49.194 61.8828 48.9206 61.5508 48.7188C61.2253 48.5169 60.8639 48.416 60.4668 48.416ZM68.6309 49.041L66.4043 50.8184V47.9961H77.6836V50.8184L75.4668 49.041C75.1934 48.8587 74.8776 48.7122 74.5195 48.6016C74.1615 48.4909 73.8164 48.4355 73.4844 48.4355H73.3672V62H70.7305V48.4355H70.6035C70.2715 48.4355 69.9264 48.4909 69.5684 48.6016C69.2168 48.7122 68.9043 48.8587 68.6309 49.041Z"/>
</mask>
<path d="M17.6348 58.0645C17.2572 57.1465 17.0684 56.1243 17.0684 54.998C17.0684 53.8717 17.2572 52.8496 17.6348 51.9316C18.0189 51.0137 18.543 50.2585 19.207 49.666C19.8711 49.0671 20.6491 48.6081 21.541 48.2891C22.4329 47.9635 23.3965 47.8008 24.4316 47.8008C25.291 47.8008 26.0983 47.8952 26.8535 48.084C27.6152 48.2728 28.3086 48.5625 28.9336 48.9531C29.5586 49.3372 30.0957 49.8125 30.5449 50.3789C30.9941 50.9388 31.3424 51.6126 31.5898 52.4004C31.8438 53.1882 31.9707 54.054 31.9707 54.998C31.9707 56.1243 31.7786 57.1465 31.3945 58.0645C31.0104 58.9759 30.4798 59.7311 29.8027 60.3301C29.1257 60.929 28.3281 61.3913 27.4102 61.7168C26.4987 62.0358 25.5059 62.1953 24.4316 62.1953C23.3965 62.1953 22.4329 62.0358 21.541 61.7168C20.6491 61.3913 19.8711 60.929 19.207 60.3301C18.543 59.7311 18.0189 58.9759 17.6348 58.0645ZM23.2305 48.416C22.6901 48.416 22.1986 48.5007 21.7559 48.6699C21.3132 48.8392 20.9388 49.0736 20.6328 49.373C20.3333 49.6725 20.0794 50.0273 19.8711 50.4375C19.6628 50.8477 19.5098 51.2904 19.4121 51.7656C19.321 52.2344 19.2786 52.7324 19.2852 53.2598C19.2917 54.002 19.3893 54.7604 19.5781 55.5352C19.7669 56.3099 20.0436 57.0521 20.4082 57.7617C20.7728 58.4714 21.1992 59.1061 21.6875 59.666C22.1758 60.2259 22.7487 60.6719 23.4062 61.0039C24.0638 61.3359 24.7572 61.502 25.4863 61.502C26.209 61.502 26.847 61.375 27.4004 61.1211C27.9538 60.8672 28.3965 60.5189 28.7285 60.0762C29.0671 59.627 29.3177 59.1191 29.4805 58.5527C29.6497 57.9798 29.7311 57.3613 29.7246 56.6973C29.7181 55.9486 29.6139 55.1868 29.4121 54.4121C29.2103 53.6309 28.9173 52.8854 28.5332 52.1758C28.1491 51.4596 27.6999 50.8216 27.1855 50.2617C26.6712 49.7018 26.069 49.2559 25.3789 48.9238C24.6953 48.5853 23.9792 48.416 23.2305 48.416ZM34.1289 62V47.9961H42.3516V50.8574L41.0332 49.7832C40.4863 49.3796 39.8418 49.054 39.0996 48.8066C38.3574 48.5592 37.6543 48.4355 36.9902 48.4355H36.7754V54.998H36.9707C37.498 54.998 38.0645 54.9232 38.6699 54.7734C39.2754 54.6172 39.8158 54.4121 40.291 54.1582L41.209 53.6602V56.7559L40.291 56.2578C39.8158 56.0039 39.2754 55.8021 38.6699 55.6523C38.0645 55.4961 37.498 55.418 36.9707 55.418H36.7754V62H34.1289ZM48.7773 57.7031H46.6094V62H43.9922V47.9961H48.7773C49.5521 47.9961 50.2422 48.0807 50.8477 48.25C51.4596 48.4128 51.9642 48.6374 52.3613 48.9238C52.765 49.2038 53.097 49.5456 53.3574 49.9492C53.6178 50.3529 53.8034 50.7793 53.9141 51.2285C54.0312 51.6777 54.0898 52.1628 54.0898 52.6836C54.0898 53.3867 53.9922 54.0312 53.7969 54.6172C53.6081 55.1966 53.3118 55.724 52.9082 56.1992C52.5046 56.668 51.9512 57.0358 51.248 57.3027C50.5449 57.5697 49.7214 57.7031 48.7773 57.7031ZM48.6504 48.416H46.6094V57.2637H48.6699C49.0475 57.2637 49.3958 57.1628 49.7148 56.9609C50.0339 56.7591 50.2975 56.4889 50.5059 56.1504C50.7142 55.8053 50.8932 55.4115 51.043 54.9688C51.1927 54.526 51.2839 54.0605 51.3164 53.5723C51.3555 53.084 51.3587 52.5957 51.3262 52.1074C51.3001 51.6191 51.2155 51.1536 51.0723 50.7109C50.929 50.2682 50.7533 49.8776 50.5449 49.5391C50.3366 49.194 50.0664 48.9206 49.7344 48.7188C49.4089 48.5169 49.0475 48.416 48.6504 48.416ZM60.5938 57.7031H58.4258V62H55.8086V47.9961H60.5938C61.3685 47.9961 62.0586 48.0807 62.6641 48.25C63.276 48.4128 63.7806 48.6374 64.1777 48.9238C64.5814 49.2038 64.9134 49.5456 65.1738 49.9492C65.4342 50.3529 65.6198 50.7793 65.7305 51.2285C65.8477 51.6777 65.9062 52.1628 65.9062 52.6836C65.9062 53.3867 65.8086 54.0312 65.6133 54.6172C65.4245 55.1966 65.1283 55.724 64.7246 56.1992C64.321 56.668 63.7676 57.0358 63.0645 57.3027C62.3613 57.5697 61.5378 57.7031 60.5938 57.7031ZM60.4668 48.416H58.4258V57.2637H60.4863C60.8639 57.2637 61.2122 57.1628 61.5312 56.9609C61.8503 56.7591 62.1139 56.4889 62.3223 56.1504C62.5306 55.8053 62.7096 55.4115 62.8594 54.9688C63.0091 54.526 63.1003 54.0605 63.1328 53.5723C63.1719 53.084 63.1751 52.5957 63.1426 52.1074C63.1165 51.6191 63.0319 51.1536 62.8887 50.7109C62.7454 50.2682 62.5697 49.8776 62.3613 49.5391C62.153 49.194 61.8828 48.9206 61.5508 48.7188C61.2253 48.5169 60.8639 48.416 60.4668 48.416ZM68.6309 49.041L66.4043 50.8184V47.9961H77.6836V50.8184L75.4668 49.041C75.1934 48.8587 74.8776 48.7122 74.5195 48.6016C74.1615 48.4909 73.8164 48.4355 73.4844 48.4355H73.3672V62H70.7305V48.4355H70.6035C70.2715 48.4355 69.9264 48.4909 69.5684 48.6016C69.2168 48.7122 68.9043 48.8587 68.6309 49.041Z" fill="white"/>
<path d="M17.6348 58.0645L16.7099 58.4449L16.7133 58.4528L17.6348 58.0645ZM17.6348 51.9316L16.7123 51.5456L16.71 51.5512L17.6348 51.9316ZM19.207 49.666L19.8728 50.4122L19.8768 50.4086L19.207 49.666ZM21.541 48.2891L21.8778 49.2307L21.8839 49.2285L21.541 48.2891ZM26.8535 48.084L26.611 49.0541L26.6129 49.0546L26.8535 48.084ZM28.9336 48.9531L28.4036 49.8011L28.41 49.8051L28.9336 48.9531ZM30.5449 50.3789L29.7614 51.0003L29.7649 51.0047L30.5449 50.3789ZM31.5898 52.4004L30.6358 52.7L30.6381 52.7072L31.5898 52.4004ZM31.3945 58.0645L32.316 58.4528L32.317 58.4505L31.3945 58.0645ZM27.4102 61.7168L27.7405 62.6607L27.7444 62.6593L27.4102 61.7168ZM21.541 61.7168L21.1982 62.6562L21.2042 62.6584L21.541 61.7168ZM20.6328 49.373L19.9333 48.6583L19.9257 48.6659L20.6328 49.373ZM19.4121 51.7656L18.4325 51.5643L18.4305 51.5748L19.4121 51.7656ZM19.2852 53.2598L20.2851 53.251L20.2851 53.2474L19.2852 53.2598ZM28.7285 60.0762L27.9299 59.4743L27.9285 59.4762L28.7285 60.0762ZM29.4805 58.5527L28.5214 58.2694L28.5194 58.2766L29.4805 58.5527ZM29.7246 56.6973L28.7246 56.706L28.7247 56.7071L29.7246 56.6973ZM29.4121 54.4121L28.4439 54.6622L28.4444 54.6642L29.4121 54.4121ZM28.5332 52.1758L27.652 52.6485L27.6538 52.6518L28.5332 52.1758ZM25.3789 48.9238L24.9351 49.82L24.9453 49.825L25.3789 48.9238ZM18.5596 57.684C18.2379 56.9019 18.0684 56.0113 18.0684 54.998H16.0684C16.0684 56.2374 16.2765 57.391 16.71 58.4449L18.5596 57.684ZM18.0684 54.998C18.0684 53.9848 18.2379 53.0942 18.5596 52.3121L16.71 51.5512C16.2765 52.6051 16.0684 53.7587 16.0684 54.998H18.0684ZM18.5573 52.3176C18.8906 51.521 19.3326 50.8941 19.8728 50.4122L18.5413 48.9198C17.7533 49.6229 17.1472 50.5063 16.7123 51.5456L18.5573 52.3176ZM19.8768 50.4086C20.4383 49.9022 21.1014 49.5083 21.8778 49.2306L21.2042 47.3475C20.1968 47.7078 19.3039 48.2319 18.5373 48.9234L19.8768 50.4086ZM21.8839 49.2285C22.6564 48.9465 23.5029 48.8008 24.4316 48.8008V46.8008C23.2901 46.8008 22.2095 46.9806 21.1982 47.3497L21.8839 49.2285ZM24.4316 48.8008C25.2176 48.8008 25.9428 48.8871 26.611 49.0541L27.0961 47.1138C26.2538 46.9033 25.3644 46.8008 24.4316 46.8008V48.8008ZM26.6129 49.0546C27.279 49.2197 27.8736 49.4699 28.4036 49.8011L29.4636 48.1051C28.7436 47.6551 27.9515 47.3259 27.0941 47.1134L26.6129 49.0546ZM28.41 49.8051C28.9371 50.129 29.3858 50.5267 29.7614 51.0003L31.3284 49.7575C30.8056 49.0983 30.1801 48.5455 29.4572 48.1012L28.41 49.8051ZM29.7649 51.0047C30.1256 51.4542 30.4201 52.0132 30.6358 52.7L32.5439 52.1008C32.2648 51.212 31.8627 50.4234 31.3249 49.7531L29.7649 51.0047ZM30.6381 52.7072C30.8559 53.383 30.9707 54.1438 30.9707 54.998H32.9707C32.9707 53.9643 32.8316 52.9933 32.5416 52.0936L30.6381 52.7072ZM30.9707 54.998C30.9707 56.0092 30.7987 56.8978 30.472 57.6784L32.317 58.4505C32.7586 57.3951 32.9707 56.2395 32.9707 54.998H30.9707ZM30.473 57.6761C30.1415 58.4626 29.6948 59.0905 29.1402 59.5811L30.4653 61.0791C31.2649 60.3718 31.8793 59.4892 32.316 58.4528L30.473 57.6761ZM29.1402 59.5811C28.5663 60.0887 27.8825 60.4883 27.0759 60.7743L27.7444 62.6593C28.7738 62.2943 29.685 61.7694 30.4653 61.0791L29.1402 59.5811ZM27.0798 60.7729C26.2858 61.0509 25.4059 61.1953 24.4316 61.1953V63.1953C25.6058 63.1953 26.7116 63.0208 27.7405 62.6607L27.0798 60.7729ZM24.4316 61.1953C23.5006 61.1953 22.6521 61.0521 21.8778 60.7752L21.2042 62.6584C22.2138 63.0195 23.2923 63.1953 24.4316 63.1953V61.1953ZM21.8839 60.7774C21.105 60.4931 20.4398 60.0953 19.8768 59.5875L18.5373 61.0726C19.3024 61.7628 20.1932 62.2894 21.1982 62.6562L21.8839 60.7774ZM19.8768 59.5875C19.3327 59.0967 18.8896 58.4669 18.5563 57.6761L16.7133 58.4528C17.1482 59.4849 17.7533 60.3655 18.5373 61.0726L19.8768 59.5875ZM23.2305 47.416C22.585 47.416 21.9703 47.5173 21.3987 47.7359L22.113 49.604C22.4269 49.484 22.7953 49.416 23.2305 49.416V47.416ZM21.3987 47.7359C20.8418 47.9488 20.3472 48.2533 19.9333 48.6584L21.3323 50.0877C21.5304 49.8938 21.7845 49.7296 22.113 49.604L21.3987 47.7359ZM19.9257 48.6659C19.5456 49.0461 19.2315 49.4886 18.9795 49.9846L20.7627 50.8904C20.9274 50.5661 21.1211 50.299 21.3399 50.0802L19.9257 48.6659ZM18.9795 49.9846C18.7286 50.4786 18.5472 51.0065 18.4326 51.5644L20.3916 51.9669C20.4723 51.5743 20.5969 51.2167 20.7627 50.8904L18.9795 49.9846ZM18.4305 51.5748C18.3251 52.117 18.278 52.6836 18.2852 53.2721L20.2851 53.2474C20.2793 52.7813 20.3169 52.3518 20.3937 51.9565L18.4305 51.5748ZM18.2852 53.2685C18.2924 54.093 18.4009 54.928 18.6066 55.7719L20.5497 55.2984C20.3777 54.5928 20.2909 53.9109 20.2851 53.251L18.2852 53.2685ZM18.6066 55.7719C18.814 56.6231 19.1182 57.4392 19.5187 58.2187L21.2977 57.3047C20.969 56.665 20.7199 55.9967 20.5497 55.2984L18.6066 55.7719ZM19.5187 58.2187C19.9176 58.9951 20.3886 59.698 20.9338 60.3233L22.4412 59.0088C22.0099 58.5142 21.628 57.9476 21.2977 57.3047L19.5187 58.2187ZM20.9338 60.3233C21.5062 60.9796 22.1817 61.5058 22.9555 61.8966L23.857 60.1113C23.3157 59.8379 22.8453 59.4722 22.4412 59.0088L20.9338 60.3233ZM22.9555 61.8966C23.7513 62.2984 24.5989 62.502 25.4863 62.502V60.502C24.9154 60.502 24.3763 60.3735 23.857 60.1113L22.9555 61.8966ZM25.4863 62.502C26.3264 62.502 27.111 62.3541 27.8174 62.03L26.9834 60.2122C26.583 60.3959 26.0916 60.502 25.4863 60.502V62.502ZM27.8174 62.03C28.5067 61.7137 29.0868 61.2651 29.5285 60.6762L27.9285 59.4762C27.7062 59.7726 27.4009 60.0206 26.9834 60.2122L27.8174 62.03ZM29.5271 60.678C29.9428 60.1265 30.2467 59.5072 30.4416 58.8289L28.5194 58.2766C28.3888 58.7311 28.1913 59.1274 27.9299 59.4743L29.5271 60.678ZM30.4395 58.8361C30.6398 58.1581 30.7319 57.4398 30.7246 56.6875L28.7247 56.7071C28.7303 57.2829 28.6597 57.8016 28.5215 58.2694L30.4395 58.8361ZM30.7246 56.6886C30.7173 55.8523 30.6009 55.0088 30.3798 54.16L28.4444 54.6642C28.6269 55.3649 28.7189 56.0449 28.7246 56.706L30.7246 56.6886ZM30.3803 54.162C30.1582 53.3021 29.8354 52.4808 29.4126 51.6998L27.6538 52.6518C27.9992 53.29 28.2624 53.9596 28.4439 54.6622L30.3803 54.162ZM29.4144 51.7031C28.9935 50.9183 28.4967 50.2108 27.922 49.5852L26.4491 50.9382C26.9031 51.4324 27.3047 52.001 27.652 52.6484L29.4144 51.7031ZM27.922 49.5852C27.3212 48.9312 26.616 48.4093 25.8125 48.0227L24.9453 49.825C25.522 50.1024 26.0212 50.4724 26.4491 50.9382L27.922 49.5852ZM25.8227 48.0277C25.0038 47.6222 24.1361 47.416 23.2305 47.416V49.416C23.8222 49.416 24.3868 49.5484 24.9351 49.82L25.8227 48.0277ZM34.1289 62H33.1289V63H34.1289V62ZM34.1289 47.9961V46.9961H33.1289V47.9961H34.1289ZM42.3516 47.9961H43.3516V46.9961H42.3516V47.9961ZM42.3516 50.8574L41.7199 51.6327L43.3516 52.9622V50.8574H42.3516ZM41.0332 49.7832L41.6649 49.008L41.6463 48.9928L41.6271 48.9786L41.0332 49.7832ZM36.7754 48.4355V47.4355H35.7754V48.4355H36.7754ZM36.7754 54.998H35.7754V55.998H36.7754V54.998ZM38.6699 54.7734L38.91 55.7442L38.9198 55.7417L38.6699 54.7734ZM40.291 54.1582L40.7622 55.0402L40.7679 55.0372L40.291 54.1582ZM41.209 53.6602H42.209V51.9799L40.7321 52.7812L41.209 53.6602ZM41.209 56.7559L40.7321 57.6348L42.209 58.4361V56.7559H41.209ZM40.291 56.2578L40.7679 55.3788L40.7622 55.3758L40.291 56.2578ZM38.6699 55.6523L38.42 56.6207L38.4298 56.6231L38.6699 55.6523ZM36.7754 55.418V54.418H35.7754V55.418H36.7754ZM36.7754 62V63H37.7754V62H36.7754ZM35.1289 62V47.9961H33.1289V62H35.1289ZM34.1289 48.9961H42.3516V46.9961H34.1289V48.9961ZM41.3516 47.9961V50.8574H43.3516V47.9961H41.3516ZM42.9832 50.0822L41.6649 49.008L40.4015 50.5584L41.7199 51.6327L42.9832 50.0822ZM41.6271 48.9786C40.9841 48.5041 40.2428 48.1336 39.4158 47.858L38.7834 49.7553C39.4408 49.9745 39.9885 50.255 40.4394 50.5878L41.6271 48.9786ZM39.4158 47.858C38.5894 47.5825 37.779 47.4355 36.9902 47.4355V49.4355C37.5296 49.4355 38.1255 49.536 38.7834 49.7553L39.4158 47.858ZM36.9902 47.4355H36.7754V49.4355H36.9902V47.4355ZM35.7754 48.4355V54.998H37.7754V48.4355H35.7754ZM36.7754 55.998H36.9707V53.998H36.7754V55.998ZM36.9707 55.998C37.5921 55.998 38.2398 55.9099 38.91 55.7442L38.4298 53.8027C37.8891 53.9364 37.404 53.998 36.9707 53.998V55.998ZM38.9198 55.7417C39.5902 55.5687 40.2067 55.337 40.7622 55.0402L39.8198 53.2762C39.4248 53.4872 38.9606 53.6657 38.42 53.8052L38.9198 55.7417ZM40.7679 55.0372L41.6859 54.5391L40.7321 52.7812L39.8141 53.2792L40.7679 55.0372ZM40.209 53.6602V56.7559H42.209V53.6602H40.209ZM41.6859 55.8769L40.7679 55.3788L39.8141 57.1368L40.7321 57.6348L41.6859 55.8769ZM40.7622 55.3758C40.2035 55.0773 39.5836 54.8482 38.91 54.6816L38.4298 56.6231C38.9672 56.756 39.428 56.9305 39.8198 57.1398L40.7622 55.3758ZM38.9198 54.6841C38.2473 54.5105 37.5962 54.418 36.9707 54.418V56.418C37.3999 56.418 37.8816 56.4817 38.42 56.6206L38.9198 54.6841ZM36.9707 54.418H36.7754V56.418H36.9707V54.418ZM35.7754 55.418V62H37.7754V55.418H35.7754ZM36.7754 61H34.1289V63H36.7754V61ZM46.6094 57.7031V56.7031H45.6094V57.7031H46.6094ZM46.6094 62V63H47.6094V62H46.6094ZM43.9922 62H42.9922V63H43.9922V62ZM43.9922 47.9961V46.9961H42.9922V47.9961H43.9922ZM50.8477 48.25L50.5784 49.2131L50.5906 49.2164L50.8477 48.25ZM52.3613 48.9238L51.7763 49.7349L51.7838 49.7403L51.7914 49.7455L52.3613 48.9238ZM53.9141 51.2285L52.943 51.4678L52.9464 51.4809L53.9141 51.2285ZM53.7969 54.6172L52.8482 54.301L52.8461 54.3074L53.7969 54.6172ZM52.9082 56.1992L53.666 56.8518L53.6704 56.8466L52.9082 56.1992ZM46.6094 48.416V47.416H45.6094V48.416H46.6094ZM46.6094 57.2637H45.6094V58.2637H46.6094V57.2637ZM49.7148 56.9609L49.1802 56.1159L49.7148 56.9609ZM50.5059 56.1504L51.3575 56.6745L51.3619 56.6673L50.5059 56.1504ZM51.3164 53.5723L50.3195 53.4925L50.3186 53.5057L51.3164 53.5723ZM51.3262 52.1074L50.3275 52.1607L50.3284 52.1739L51.3262 52.1074ZM50.5449 49.5391L49.6888 50.056L49.6933 50.0632L50.5449 49.5391ZM49.7344 48.7188L49.2074 49.5687L49.215 49.5733L49.7344 48.7188ZM48.7773 56.7031H46.6094V58.7031H48.7773V56.7031ZM45.6094 57.7031V62H47.6094V57.7031H45.6094ZM46.6094 61H43.9922V63H46.6094V61ZM44.9922 62V47.9961H42.9922V62H44.9922ZM43.9922 48.9961H48.7773V46.9961H43.9922V48.9961ZM48.7773 48.9961C49.4813 48.9961 50.0781 49.0732 50.5784 49.2131L51.1169 47.2869C50.4062 47.0883 49.6229 46.9961 48.7773 46.9961V48.9961ZM50.5906 49.2164C51.1176 49.3566 51.5024 49.5373 51.7763 49.7349L52.9463 48.1128C52.426 47.7375 51.8017 47.469 51.1047 47.2836L50.5906 49.2164ZM51.7914 49.7455C52.09 49.9526 52.3293 50.2002 52.5171 50.4913L54.1977 49.4071C53.8647 48.8909 53.4399 48.4549 52.9312 48.1021L51.7914 49.7455ZM52.5171 50.4913C52.7198 50.8056 52.8599 51.1301 52.9431 51.4677L54.885 50.9893C54.7469 50.4285 54.5158 49.9002 54.1977 49.4071L52.5171 50.4913ZM52.9464 51.4809C53.0397 51.8384 53.0898 52.2377 53.0898 52.6836H55.0898C55.0898 52.0878 55.0228 51.517 54.8817 50.9761L52.9464 51.4809ZM53.0898 52.6836C53.0898 53.2939 53.0052 53.83 52.8482 54.301L54.7456 54.9334C54.9792 54.2325 55.0898 53.4796 55.0898 52.6836H53.0898ZM52.8461 54.3074C52.6985 54.7602 52.4674 55.1734 52.146 55.5519L53.6704 56.8466C54.1563 56.2745 54.5176 55.633 54.7477 54.927L52.8461 54.3074ZM52.1504 55.5467C51.8766 55.8647 51.4739 56.1474 50.8931 56.3678L51.603 58.2376C52.4285 57.9242 53.1326 57.4712 53.666 56.8517L52.1504 55.5467ZM50.8931 56.3678C50.3282 56.5823 49.6298 56.7031 48.7773 56.7031V58.7031C49.8129 58.7031 50.7616 58.557 51.603 58.2376L50.8931 56.3678ZM48.6504 47.416H46.6094V49.416H48.6504V47.416ZM45.6094 48.416V57.2637H47.6094V48.416H45.6094ZM46.6094 58.2637H48.6699V56.2637H46.6094V58.2637ZM48.6699 58.2637C49.2368 58.2637 49.7705 58.1091 50.2495 57.806L49.1802 56.1159C49.0212 56.2165 48.8583 56.2637 48.6699 56.2637V58.2637ZM50.2495 57.806C50.7041 57.5184 51.0737 57.1357 51.3575 56.6745L49.6542 55.6263C49.5214 55.8422 49.3636 55.9998 49.1802 56.1159L50.2495 57.806ZM51.3619 56.6673C51.6131 56.2513 51.8209 55.7899 51.9902 55.2892L50.0957 54.6483C49.9656 55.0331 49.8153 55.3594 49.6498 55.6335L51.3619 56.6673ZM51.9902 55.2892C52.169 54.7606 52.2761 54.2094 52.3142 53.6388L50.3186 53.5057C50.2916 53.9116 50.2164 54.2915 50.0957 54.6483L51.9902 55.2892ZM52.3132 53.652C52.3562 53.1151 52.3598 52.5779 52.324 52.0409L50.3284 52.1739C50.3577 52.6135 50.3548 53.0529 50.3196 53.4925L52.3132 53.652ZM52.3248 52.0542C52.2943 51.4837 52.1949 50.9324 52.0237 50.4031L50.1208 51.0188C50.2361 51.3749 50.3059 51.7545 50.3276 52.1607L52.3248 52.0542ZM52.0237 50.4031C51.86 49.8971 51.653 49.4317 51.3966 49.015L49.6933 50.0632C49.8535 50.3235 49.9981 50.6393 50.1208 51.0188L52.0237 50.4031ZM51.401 49.0222C51.1125 48.5444 50.7289 48.153 50.2538 47.8642L49.215 49.5733C49.404 49.6882 49.5607 49.8436 49.6889 50.0559L51.401 49.0222ZM50.2613 47.8688C49.7715 47.5652 49.2265 47.416 48.6504 47.416V49.416C48.8685 49.416 49.0462 49.4687 49.2074 49.5687L50.2613 47.8688ZM58.4258 57.7031V56.7031H57.4258V57.7031H58.4258ZM58.4258 62V63H59.4258V62H58.4258ZM55.8086 62H54.8086V63H55.8086V62ZM55.8086 47.9961V46.9961H54.8086V47.9961H55.8086ZM62.6641 48.25L62.3948 49.2131L62.407 49.2164L62.6641 48.25ZM64.1777 48.9238L63.5927 49.7349L63.6002 49.7403L63.6078 49.7455L64.1777 48.9238ZM65.7305 51.2285L64.7594 51.4678L64.7629 51.4809L65.7305 51.2285ZM65.6133 54.6172L64.6646 54.301L64.6625 54.3074L65.6133 54.6172ZM64.7246 56.1992L65.4824 56.8518L65.4868 56.8466L64.7246 56.1992ZM58.4258 48.416V47.416H57.4258V48.416H58.4258ZM58.4258 57.2637H57.4258V58.2637H58.4258V57.2637ZM61.5312 56.9609L60.9966 56.1159L61.5312 56.9609ZM62.3223 56.1504L63.174 56.6745L63.1783 56.6673L62.3223 56.1504ZM63.1328 53.5723L62.1359 53.4925L62.135 53.5057L63.1328 53.5723ZM63.1426 52.1074L62.1439 52.1607L62.1448 52.1739L63.1426 52.1074ZM62.3613 49.5391L61.5052 50.056L61.5097 50.0632L62.3613 49.5391ZM61.5508 48.7188L61.0238 49.5687L61.0314 49.5733L61.5508 48.7188ZM60.5938 56.7031H58.4258V58.7031H60.5938V56.7031ZM57.4258 57.7031V62H59.4258V57.7031H57.4258ZM58.4258 61H55.8086V63H58.4258V61ZM56.8086 62V47.9961H54.8086V62H56.8086ZM55.8086 48.9961H60.5938V46.9961H55.8086V48.9961ZM60.5938 48.9961C61.2977 48.9961 61.8945 49.0732 62.3948 49.2131L62.9333 47.2869C62.2227 47.0883 61.4393 46.9961 60.5938 46.9961V48.9961ZM62.407 49.2164C62.934 49.3566 63.3188 49.5373 63.5927 49.7349L64.7627 48.1128C64.2424 47.7375 63.6181 47.469 62.9211 47.2836L62.407 49.2164ZM63.6078 49.7455C63.9064 49.9526 64.1457 50.2002 64.3335 50.4913L66.0141 49.4071C65.6811 48.8909 65.2564 48.4549 64.7476 48.1021L63.6078 49.7455ZM64.3335 50.4913C64.5362 50.8056 64.6763 51.1301 64.7595 51.4677L66.7014 50.9893C66.5633 50.4285 66.3322 49.9002 66.0141 49.4071L64.3335 50.4913ZM64.7629 51.4809C64.8561 51.8384 64.9062 52.2377 64.9062 52.6836H66.9062C66.9062 52.0878 66.8392 51.517 66.6981 50.9761L64.7629 51.4809ZM64.9062 52.6836C64.9062 53.2939 64.8216 53.83 64.6646 54.301L66.562 54.9334C66.7956 54.2325 66.9062 53.4796 66.9062 52.6836H64.9062ZM64.6625 54.3074C64.5149 54.7602 64.2838 55.1734 63.9624 55.5519L65.4868 56.8466C65.9727 56.2745 66.334 55.633 66.5641 54.927L64.6625 54.3074ZM63.9668 55.5467C63.693 55.8647 63.2903 56.1474 62.7095 56.3678L63.4194 58.2376C64.2449 57.9242 64.949 57.4712 65.4824 56.8517L63.9668 55.5467ZM62.7095 56.3678C62.1446 56.5823 61.4462 56.7031 60.5938 56.7031V58.7031C61.6293 58.7031 62.5781 58.557 63.4194 58.2376L62.7095 56.3678ZM60.4668 47.416H58.4258V49.416H60.4668V47.416ZM57.4258 48.416V57.2637H59.4258V48.416H57.4258ZM58.4258 58.2637H60.4863V56.2637H58.4258V58.2637ZM60.4863 58.2637C61.0532 58.2637 61.5869 58.1091 62.0659 57.806L60.9966 56.1159C60.8376 56.2165 60.6747 56.2637 60.4863 56.2637V58.2637ZM62.0659 57.806C62.5205 57.5184 62.8901 57.1357 63.1739 56.6745L61.4706 55.6263C61.3378 55.8422 61.18 55.9998 60.9966 56.1159L62.0659 57.806ZM63.1783 56.6673C63.4295 56.2513 63.6373 55.7899 63.8067 55.2892L61.9121 54.6483C61.782 55.0331 61.6317 55.3594 61.4662 55.6335L63.1783 56.6673ZM63.8067 55.2892C63.9854 54.7606 64.0926 54.2094 64.1306 53.6388L62.135 53.5057C62.108 53.9116 62.0328 54.2915 61.9121 54.6483L63.8067 55.2892ZM64.1296 53.652C64.1726 53.1151 64.1762 52.5779 64.1404 52.0409L62.1448 52.1739C62.1741 52.6135 62.1712 53.0529 62.136 53.4925L64.1296 53.652ZM64.1412 52.0542C64.1107 51.4837 64.0113 50.9324 63.8401 50.4031L61.9372 51.0188C62.0525 51.3749 62.1223 51.7545 62.144 52.1607L64.1412 52.0542ZM63.8401 50.4031C63.6764 49.8971 63.4695 49.4317 63.213 49.015L61.5097 50.0632C61.6699 50.3235 61.8145 50.6393 61.9372 51.0188L63.8401 50.4031ZM63.2174 49.0222C62.9289 48.5444 62.5453 48.153 62.0702 47.8642L61.0314 49.5733C61.2204 49.6882 61.3771 49.8436 61.5053 50.0559L63.2174 49.0222ZM62.0777 47.8688C61.5879 47.5652 61.0429 47.416 60.4668 47.416V49.416C60.685 49.416 60.8626 49.4687 61.0238 49.5687L62.0777 47.8688ZM68.6309 49.041L68.0762 48.209L68.0405 48.2327L68.007 48.2595L68.6309 49.041ZM66.4043 50.8184H65.4043V52.8961L67.0282 51.5999L66.4043 50.8184ZM66.4043 47.9961V46.9961H65.4043V47.9961H66.4043ZM77.6836 47.9961H78.6836V46.9961H77.6836V47.9961ZM77.6836 50.8184L77.0581 51.5986L78.6836 52.9018V50.8184H77.6836ZM75.4668 49.041L76.0923 48.2608L76.0581 48.2333L76.0215 48.209L75.4668 49.041ZM73.3672 48.4355V47.4355H72.3672V48.4355H73.3672ZM73.3672 62V63H74.3672V62H73.3672ZM70.7305 62H69.7305V63H70.7305V62ZM70.7305 48.4355H71.7305V47.4355H70.7305V48.4355ZM69.5684 48.6016L69.273 47.6461L69.2681 47.6477L69.5684 48.6016ZM68.007 48.2595L65.7804 50.0368L67.0282 51.5999L69.2547 49.8226L68.007 48.2595ZM67.4043 50.8184V47.9961H65.4043V50.8184H67.4043ZM66.4043 48.9961H77.6836V46.9961H66.4043V48.9961ZM76.6836 47.9961V50.8184H78.6836V47.9961H76.6836ZM78.3091 50.0382L76.0923 48.2608L74.8413 49.8212L77.0581 51.5986L78.3091 50.0382ZM76.0215 48.209C75.6577 47.9664 75.2522 47.7813 74.8148 47.6462L74.2242 49.557C74.503 49.6431 74.7291 49.751 74.9121 49.8731L76.0215 48.209ZM74.8148 47.6462C74.3732 47.5097 73.9285 47.4355 73.4844 47.4355V49.4355C73.7043 49.4355 73.9497 49.4721 74.2242 49.557L74.8148 47.6462ZM73.4844 47.4355H73.3672V49.4355H73.4844V47.4355ZM72.3672 48.4355V62H74.3672V48.4355H72.3672ZM73.3672 61H70.7305V63H73.3672V61ZM71.7305 62V48.4355H69.7305V62H71.7305ZM70.7305 47.4355H70.6035V49.4355H70.7305V47.4355ZM70.6035 47.4355C70.1594 47.4355 69.7146 47.5097 69.2731 47.6462L69.8637 49.557C70.1382 49.4721 70.3835 49.4355 70.6035 49.4355V47.4355ZM69.2681 47.6477C68.8372 47.7834 68.4371 47.9683 68.0762 48.209L69.1856 49.8731C69.3715 49.7491 69.5964 49.6411 69.8686 49.5554L69.2681 47.6477Z" fill="white" mask="url(#path-2-outside-1_1_7)"/>
</svg>
