<svg width="89" height="68" viewBox="0 0 89 68" fill="none" xmlns="http://www.w3.org/2000/svg">
<path d="M67.4795 40.0826L59.2334 31.8505L68.7954 22.9059L70.3593 21.443L68.793 19.9825L59.2186 11.0553L67.4315 2.82843L86.0826 21.4477L76.781 30.7651L67.4795 40.0826ZM53.4637 11.1584L44.5846 20.0526L44.4659 20.1715L44.324 20.0299L35.7771 11.4976L44.4789 2.78095L53.4637 11.1584ZM44.5271 40.1301L35.7907 31.4086L44.3264 22.8583L44.4451 22.7394L44.587 22.8811L53.4781 31.757L44.5271 40.1301ZM64.4989 21.4477L56.4009 29.0228L48.8284 21.4632L56.3909 13.8878L64.4989 21.4477ZM40.0826 21.4477L32.9599 28.5826L25.8284 21.4632L32.9511 14.3284L40.0826 21.4477ZM30.1203 11.5024L21.5846 20.0526L20.1716 21.4681L21.587 22.8811L30.1339 31.4134L21.4795 40.0826L2.82843 21.4632L21.4315 2.82843L30.1203 11.5024Z" stroke="#0A66C2" stroke-width="4"/>
<path d="M17.6348 58.0645C17.2572 57.1465 17.0684 56.1243 17.0684 54.998C17.0684 53.8717 17.2572 52.8496 17.6348 51.9316C18.0189 51.0137 18.543 50.2585 19.207 49.666C19.8711 49.0671 20.6491 48.6081 21.541 48.2891C22.4329 47.9635 23.3965 47.8008 24.4316 47.8008C25.291 47.8008 26.0983 47.8952 26.8535 48.084C27.6152 48.2728 28.3086 48.5625 28.9336 48.9531C29.5586 49.3372 30.0957 49.8125 30.5449 50.3789C30.9941 50.9388 31.3424 51.6126 31.5898 52.4004C31.8438 53.1882 31.9707 54.054 31.9707 54.998C31.9707 56.1243 31.7786 57.1465 31.3945 58.0645C31.0104 58.9759 30.4798 59.7311 29.8027 60.3301C29.1257 60.929 28.3281 61.3913 27.4102 61.7168C26.4987 62.0358 25.5059 62.1953 24.4316 62.1953C23.3965 62.1953 22.4329 62.0358 21.541 61.7168C20.6491 61.3913 19.8711 60.929 19.207 60.3301C18.543 59.7311 18.0189 58.9759 17.6348 58.0645ZM23.2305 48.416C22.6901 48.416 22.1986 48.5007 21.7559 48.6699C21.3132 48.8392 20.9388 49.0736 20.6328 49.373C20.3333 49.6725 20.0794 50.0273 19.8711 50.4375C19.6628 50.8477 19.5098 51.2904 19.4121 51.7656C19.321 52.2344 19.2786 52.7324 19.2852 53.2598C19.2917 54.002 19.3893 54.7604 19.5781 55.5352C19.7669 56.3099 20.0436 57.0521 20.4082 57.7617C20.7728 58.4714 21.1992 59.1061 21.6875 59.666C22.1758 60.2259 22.7487 60.6719 23.4062 61.0039C24.0638 61.3359 24.7572 61.502 25.4863 61.502C26.209 61.502 26.847 61.375 27.4004 61.1211C27.9538 60.8672 28.3965 60.5189 28.7285 60.0762C29.0671 59.627 29.3177 59.1191 29.4805 58.5527C29.6497 57.9798 29.7311 57.3613 29.7246 56.6973C29.7181 55.9486 29.6139 55.1868 29.4121 54.4121C29.2103 53.6309 28.9173 52.8854 28.5332 52.1758C28.1491 51.4596 27.6999 50.8216 27.1855 50.2617C26.6712 49.7018 26.069 49.2559 25.3789 48.9238C24.6953 48.5853 23.9792 48.416 23.2305 48.416ZM34.1289 62V47.9961H42.3516V50.8574L41.0332 49.7832C40.4863 49.3796 39.8418 49.054 39.0996 48.8066C38.3574 48.5592 37.6543 48.4355 36.9902 48.4355H36.7754V54.998H36.9707C37.498 54.998 38.0645 54.9232 38.6699 54.7734C39.2754 54.6172 39.8158 54.4121 40.291 54.1582L41.209 53.6602V56.7559L40.291 56.2578C39.8158 56.0039 39.2754 55.8021 38.6699 55.6523C38.0645 55.4961 37.498 55.418 36.9707 55.418H36.7754V62H34.1289ZM48.7773 57.7031H46.6094V62H43.9922V47.9961H48.7773C49.5521 47.9961 50.2422 48.0807 50.8477 48.25C51.4596 48.4128 51.9642 48.6374 52.3613 48.9238C52.765 49.2038 53.097 49.5456 53.3574 49.9492C53.6178 50.3529 53.8034 50.7793 53.9141 51.2285C54.0312 51.6777 54.0898 52.1628 54.0898 52.6836C54.0898 53.3867 53.9922 54.0312 53.7969 54.6172C53.6081 55.1966 53.3118 55.724 52.9082 56.1992C52.5046 56.668 51.9512 57.0358 51.248 57.3027C50.5449 57.5697 49.7214 57.7031 48.7773 57.7031ZM48.6504 48.416H46.6094V57.2637H48.6699C49.0475 57.2637 49.3958 57.1628 49.7148 56.9609C50.0339 56.7591 50.2975 56.4889 50.5059 56.1504C50.7142 55.8053 50.8932 55.4115 51.043 54.9688C51.1927 54.526 51.2839 54.0605 51.3164 53.5723C51.3555 53.084 51.3587 52.5957 51.3262 52.1074C51.3001 51.6191 51.2155 51.1536 51.0723 50.7109C50.929 50.2682 50.7533 49.8776 50.5449 49.5391C50.3366 49.194 50.0664 48.9206 49.7344 48.7188C49.4089 48.5169 49.0475 48.416 48.6504 48.416ZM60.5938 57.7031H58.4258V62H55.8086V47.9961H60.5938C61.3685 47.9961 62.0586 48.0807 62.6641 48.25C63.276 48.4128 63.7806 48.6374 64.1777 48.9238C64.5814 49.2038 64.9134 49.5456 65.1738 49.9492C65.4342 50.3529 65.6198 50.7793 65.7305 51.2285C65.8477 51.6777 65.9062 52.1628 65.9062 52.6836C65.9062 53.3867 65.8086 54.0312 65.6133 54.6172C65.4245 55.1966 65.1283 55.724 64.7246 56.1992C64.321 56.668 63.7676 57.0358 63.0645 57.3027C62.3613 57.5697 61.5378 57.7031 60.5938 57.7031ZM60.4668 48.416H58.4258V57.2637H60.4863C60.8639 57.2637 61.2122 57.1628 61.5312 56.9609C61.8503 56.7591 62.1139 56.4889 62.3223 56.1504C62.5306 55.8053 62.7096 55.4115 62.8594 54.9688C63.0091 54.526 63.1003 54.0605 63.1328 53.5723C63.1719 53.084 63.1751 52.5957 63.1426 52.1074C63.1165 51.6191 63.0319 51.1536 62.8887 50.7109C62.7454 50.2682 62.5697 49.8776 62.3613 49.5391C62.153 49.194 61.8828 48.9206 61.5508 48.7188C61.2253 48.5169 60.8639 48.416 60.4668 48.416ZM68.6309 49.041L66.4043 50.8184V47.9961H77.6836V50.8184L75.4668 49.041C75.1934 48.8587 74.8776 48.7122 74.5195 48.6016C74.1615 48.4909 73.8164 48.4355 73.4844 48.4355H73.3672V62H70.7305V48.4355H70.6035C70.2715 48.4355 69.9264 48.4909 69.5684 48.6016C69.2168 48.7122 68.9043 48.8587 68.6309 49.041Z" fill="#BABABA"/>
</svg>
