<svg width="60" height="64" viewBox="0 0 60 64" fill="none" xmlns="http://www.w3.org/2000/svg">
<g filter="url(#filter0_d_9_1734)">
<path d="M54.3869 35.6131C57.4869 22.1446 49.0816 8.71318 35.6131 5.61315C22.1446 2.51311 8.71315 10.9184 5.61311 24.3869C2.51308 37.8554 10.9184 51.2869 24.3869 54.3869C37.8554 57.487 51.2869 49.0816 54.3869 35.6131Z" fill="#BABABA"/>
<mask id="mask0_9_1734" style="mask-type:luminance" maskUnits="userSpaceOnUse" x="4" y="4" width="52" height="52">
<path d="M54.3869 35.6131C57.4869 22.1446 49.0816 8.71318 35.6131 5.61315C22.1446 2.51311 8.71315 10.9184 5.61311 24.3869C2.51308 37.8554 10.9184 51.2869 24.3869 54.3869C37.8554 57.487 51.2869 49.0816 54.3869 35.6131Z" fill="white"/>
</mask>
<g mask="url(#mask0_9_1734)">
<path d="M20.2241 40.8092L19.1619 54.3795H10.5488C11.4472 52.2727 12.5006 49.7366 13.47 47.2491C15.652 41.628 19.7948 40.8756 20.1932 40.8136C20.2153 40.8092 20.2241 40.8092 20.2241 40.8092Z" fill="#D3445B"/>
<path d="M50.9898 54.3795H42.1421L40.7302 40.6543C40.7346 40.6543 40.739 40.6587 40.7434 40.6587C41.0311 40.6941 45.6342 41.4156 48.011 47.2491C49.0733 49.8605 50.1356 52.379 50.9898 54.3795Z" fill="#D3445B"/>
<path d="M43.0361 54.3795L30.0022 56.9701L18.4626 54.3795L18.5068 41.5572C19.007 41.2473 19.6001 41.0039 20.1932 40.8136C21.6139 40.3621 23.0037 40.2338 23.0037 40.2338L30.7405 41.0128L38.4773 40.2338C38.4773 40.2338 39.5263 40.3311 40.7302 40.6542C40.7346 40.6542 40.739 40.6587 40.7434 40.6587C41.4959 40.8578 42.3103 41.15 42.9697 41.5572L43.0361 54.3795Z" fill="#D3445B"/>
<path d="M20.225 40.8075L29.3427 38.4116H32.4866L40.7315 40.6556C36.5152 44.6081 26.0497 47.848 20.6964 40.9916L20.225 40.8075Z" fill="#E8B499"/>
<path d="M44.0435 32.4634C43.9572 31.7433 44.0143 31.005 44.1953 30.311C45.1155 26.7843 44.063 23.7808 42.2045 21.5363C40.5235 19.5061 40.1043 16.5021 40.1043 16.5021C38.8694 12.4337 34.6859 9.61072 30.8786 9.61072C27.0708 9.61072 22.9002 12.2708 21.6657 16.3392C21.6657 16.3392 21.1085 19.5601 19.5523 21.5359C17.7509 23.8237 16.6412 26.7843 17.5614 30.3106C17.7425 31.0046 17.7995 31.7429 17.7128 32.463C17.6491 32.995 17.5039 33.5469 17.1998 33.9289H44.5569C44.2524 33.5469 44.1072 32.9954 44.0435 32.4634Z" fill="#1E0B02"/>
<path d="M26.1347 24.7227C26.1763 26.201 25.0118 27.4336 23.5331 27.4757C22.0548 27.5173 20.8221 26.3528 20.7805 24.874C20.7389 23.3957 21.9034 22.1631 23.3822 22.1215C24.8605 22.0794 26.0931 23.2439 26.1347 24.7227Z" fill="#E8B499"/>
<path d="M21.9375 24.4217C21.9375 24.4217 23.0024 23.903 24.0173 25.7531" stroke="#C47268" stroke-width="0.6887" stroke-miterlimit="10" stroke-linecap="round" stroke-linejoin="round"/>
<path d="M35.9128 24.7983C35.9128 26.2775 37.1118 27.4766 38.591 27.4766C40.0702 27.4766 41.2692 26.2775 41.2692 24.7983C41.2692 23.3191 40.0702 22.1201 38.591 22.1201C37.1123 22.1201 35.9128 23.3191 35.9128 24.7983Z" fill="#E8B499"/>
<path d="M40.1003 24.3791C40.1003 24.3791 39.0212 23.8905 38.059 25.7689" stroke="#C47268" stroke-width="0.6887" stroke-miterlimit="10" stroke-linecap="round" stroke-linejoin="round"/>
<path d="M30.9494 28.11C35.5949 28.11 39.3607 24.3441 39.3607 19.6987C39.3607 15.0532 35.5949 11.2874 30.9494 11.2874C26.304 11.2874 22.5381 15.0532 22.5381 19.6987C22.5381 24.3441 26.304 28.11 30.9494 28.11Z" fill="#1E0B02"/>
<path d="M33.6113 30.1442C33.6113 30.1442 32.4525 31.2077 31.3956 31.4693C30.3386 31.7305 29.31 30.9307 29.2967 30.9209C29.2839 30.9112 28.061 29.995 28.061 29.995L27.5657 38.8095L27.7029 38.9565C29.4977 40.8836 32.0821 40.9106 33.8923 39.0206L34.157 38.744L33.6113 30.1442Z" fill="#E8B499"/>
<path d="M27.2266 28.8301C27.2266 28.8301 28.7134 33.9807 31.3664 33.9302C33.5475 33.8886 34.1526 29.0859 34.1526 29.0859L27.2266 28.8301Z" fill="#1E0B02"/>
<path d="M38.2542 19.7906C38.2688 22.6879 37.8492 25.1904 37.4265 26.967C37.0127 28.7065 35.8296 29.9267 34.1539 30.9124L33.8489 31.0921C32.0759 32.1354 29.7787 32.1708 27.968 31.1837C26.1418 30.1879 24.8605 28.8694 24.4586 27.0073C23.7278 23.62 23.6309 19.865 23.6309 19.865C23.6309 19.865 23.0201 12.0281 30.9078 12.1304C38.7942 12.2322 38.2542 19.7906 38.2542 19.7906Z" fill="#E8B499"/>
<path d="M30.3081 24.0826V25.2303H31.0818" stroke="#C47268" stroke-width="0.6887" stroke-miterlimit="10" stroke-linecap="round" stroke-linejoin="round"/>
<path d="M24.9508 19.726L29.121 19.3503C29.121 19.3503 28.7474 18.2699 27.0616 18.4451C25.3363 18.6239 24.9508 19.726 24.9508 19.726Z" fill="black"/>
<path d="M36.4143 19.726L32.244 19.3503C32.244 19.3503 32.6176 18.2699 34.3035 18.4451C36.0288 18.6239 36.4143 19.726 36.4143 19.726Z" fill="black"/>
<path d="M28.4181 26.2891H32.9717C32.9717 26.2891 32.7969 27.4766 30.6135 27.4766C28.8214 27.4766 28.4181 26.2891 28.4181 26.2891Z" fill="white"/>
<path d="M28.6302 22.5379C28.6302 22.5379 27.5515 21.6558 26.6043 22.5379" stroke="#1E0B02" stroke-width="0.9565" stroke-miterlimit="10" stroke-linecap="round" stroke-linejoin="round"/>
<path d="M34.7253 22.5379C34.7253 22.5379 33.8804 21.6328 32.7513 22.5379" stroke="#1E0B02" stroke-width="0.9565" stroke-miterlimit="10" stroke-linecap="round" stroke-linejoin="round"/>
<path opacity="0.23" d="M26.6092 19.6549L29.6658 23.8043C29.6658 23.8043 28.7439 25.5663 27.2758 25.3707L24.1908 21.3226C24.1908 21.3226 25.0242 19.5429 26.6092 19.6549Z" fill="white"/>
<path opacity="0.23" d="M34.1269 19.6549L37.1835 23.8043C37.1835 23.8043 36.2616 25.5663 34.7935 25.3707L31.7085 21.3226C31.7085 21.3226 32.5419 19.5429 34.1269 19.6549Z" fill="white"/>
<path d="M29.9084 22.5379C29.9084 24.1884 28.5704 25.5269 26.9199 25.5269C25.2694 25.5269 23.9314 24.1888 23.9314 22.5379C23.9314 20.8874 25.2694 19.5494 26.9199 19.5494C28.5704 19.549 29.9084 20.8874 29.9084 22.5379Z" stroke="white" stroke-width="0.4927" stroke-miterlimit="10"/>
<path d="M37.4345 22.5379C37.4345 24.1884 36.0965 25.5269 34.446 25.5269C32.7955 25.5269 31.4575 24.1888 31.4575 22.5379C31.4575 20.8874 32.7955 19.5494 34.446 19.5494C36.0961 19.549 37.4345 20.8874 37.4345 22.5379Z" stroke="white" stroke-width="0.4927" stroke-miterlimit="10"/>
<path d="M29.9084 22.538C29.9084 22.538 30.7622 22.2237 31.4571 22.538" stroke="white" stroke-width="0.4927" stroke-miterlimit="10"/>
<path d="M22.8705 18.0096C22.8705 18.0096 29.9009 16.6712 31.3526 11.4236C31.3526 11.4236 23.8734 8.77017 22.8705 18.0096Z" fill="#1E0B02"/>
<path d="M38.2542 18.0096C38.2542 18.0096 31.2238 16.6712 29.7721 11.4236C29.7721 11.4236 37.2517 8.77017 38.2542 18.0096Z" fill="#1E0B02"/>
</g>
</g>
<defs>
<filter id="filter0_d_9_1734" x="0.969934" y="4.96997" width="58.0601" height="58.0601" filterUnits="userSpaceOnUse" color-interpolation-filters="sRGB">
<feFlood flood-opacity="0" result="BackgroundImageFix"/>
<feColorMatrix in="SourceAlpha" type="matrix" values="0 0 0 0 0 0 0 0 0 0 0 0 0 0 0 0 0 0 127 0" result="hardAlpha"/>
<feOffset dy="4"/>
<feGaussianBlur stdDeviation="2"/>
<feComposite in2="hardAlpha" operator="out"/>
<feColorMatrix type="matrix" values="0 0 0 0 0 0 0 0 0 0 0 0 0 0 0 0 0 0 0.25 0"/>
<feBlend mode="normal" in2="BackgroundImageFix" result="effect1_dropShadow_9_1734"/>
<feBlend mode="normal" in="SourceGraphic" in2="effect1_dropShadow_9_1734" result="shape"/>
</filter>
</defs>
</svg>
