<svg width="41" height="41" viewBox="0 0 41 41" fill="none" xmlns="http://www.w3.org/2000/svg">
<path d="M20.4 40.771C31.4457 40.771 40.4 31.8167 40.4 20.771C40.4 9.7253 31.4457 0.770996 20.4 0.770996C9.3543 0.770996 0.399994 9.7253 0.399994 20.771C0.399994 31.8167 9.3543 40.771 20.4 40.771Z" fill="#4570B4"/>
<mask id="mask0_9_2129" style="mask-type:luminance" maskUnits="userSpaceOnUse" x="0" y="0" width="41" height="41">
<path d="M20.4 40.771C31.4457 40.771 40.4 31.8167 40.4 20.771C40.4 9.7253 31.4457 0.770996 20.4 0.770996C9.3543 0.770996 0.399994 9.7253 0.399994 20.771C0.399994 31.8167 9.3543 40.771 20.4 40.771Z" fill="white"/>
</mask>
<g mask="url(#mask0_9_2129)">
<path d="M26.2664 33.6587L26.2437 36.3864L26.2068 40.5881L26.1419 48.044H2.05136L2.07674 47.3364L6.37467 39.4959L10.2539 32.4165L13.3212 26.8198L14.5351 26.8086H14.6085L14.7133 26.8057L20.4543 26.752C20.4543 26.752 20.4543 26.752 20.4572 26.7549L21.8552 28.4187H21.8581L26.2664 33.6587Z" fill="white"/>
<path d="M16.1339 37.6283L13.3215 26.8196C12.5857 26.7574 11.8673 26.7405 11.1709 26.7574C6.13156 26.8875 4.62004 27.8983 3.1631 29.2962C1.66751 30.731 -1.62698 34.6318 -3.62769 48.0441H0.97356H5.35352H16.0546C16.1988 42.2942 16.1339 37.6283 16.1339 37.6283Z" fill="#D3445B"/>
<path d="M5.17236 48.0439L6.16254 44.2243L7.06803 40.7297" stroke="#934453" stroke-width="2.2081" stroke-miterlimit="10" stroke-linecap="round" stroke-linejoin="round"/>
<path d="M23.0038 28.0761C22.6683 27.8776 22.3387 27.7168 22.0475 27.5613C21.1335 27.0803 20.5083 26.7776 20.4572 26.7549C20.4543 26.752 20.4543 26.752 20.4543 26.752L21.286 30.9735L22.5736 37.5208L22.7376 48.0437H24.0137H28.2975H32.1939C32.3131 33.8853 27.5575 30.7717 23.0038 28.0761Z" fill="#D3445B"/>
<path d="M21.2261 31.2373L22.5748 37.5209L26.3968 40.7511C26.9975 41.2588 27.9089 40.7632 27.8092 39.9831L27.389 36.6942C27.2507 35.6102 26.8671 34.5722 26.2676 33.6587L22.2284 26.7517L21.2261 31.2373Z" fill="#EF758D"/>
<path d="M30.7089 6.62597C30.7346 6.62066 30.7576 6.62096 30.783 6.62804C30.9969 6.68941 32.0458 7.05674 31.7743 8.30154C31.4719 9.68796 26.9727 12.5054 23.8936 10.754L25.0201 7.72414L30.7089 6.62597Z" fill="#934453"/>
<path d="M25.057 18.1567C25.3119 19.2852 26.4334 19.9934 27.5616 19.7384C28.6899 19.4835 29.3983 18.362 29.1434 17.2338C28.8885 16.1052 27.767 15.3971 26.6387 15.652C25.5105 15.9067 24.8021 17.0281 25.057 18.1567Z" fill="#D68A65"/>
<path d="M23.0764 22.9574L21.2261 31.237L15.7979 29.2085C14.7891 28.8318 14.248 27.7351 14.5622 26.7051L17.6602 16.5522L23.0764 22.9574Z" fill="#EDB892"/>
<path d="M22.4098 25.9476C22.4098 25.9476 18.823 25.5538 19.1316 21.3367L22.9067 23.7543L22.4098 25.9476Z" fill="#D68A65"/>
<path d="M27.59 11.1165C27.59 11.1165 28.7106 18.2141 27.5971 20.9335C26.4836 23.653 24.1194 25.2474 20.544 24.2779C20.544 24.2779 16.3579 23.7677 15.7527 17.4564C14.8416 7.95416 23.5765 5.80356 27.59 11.1165Z" fill="#EDB892"/>
<path d="M17.8251 16.1535C17.8251 16.1535 18.556 14.9966 17.8178 11.8591C17.0795 8.7216 25.576 8.80481 27.59 11.1162C27.59 11.1162 26.2357 7.61429 21.1606 7.42959C16.0852 7.24519 11.9791 10.4819 13.7322 16.1532L14.9776 18.1368L17.8251 16.1535Z" fill="#171717"/>
<path d="M18.147 14.4556C18.147 14.4556 17.757 18.5912 21.2834 19.3232C23.5337 19.7903 25.8117 18.1371 27.9349 19.6168C27.9349 19.6168 27.1005 25.8671 20.6909 24.3603C19.8329 24.1584 19.0419 23.7457 18.376 23.168C17.0745 22.0383 15.2075 19.7366 16.3163 16.4194L18.147 14.4556Z" fill="#171717"/>
<path d="M12.4992 18.2551C12.8084 19.6244 14.1692 20.4839 15.5388 20.1747C16.9081 19.8655 17.7676 18.5044 17.4584 17.1351C17.1492 15.7658 15.7884 14.9064 14.4188 15.2156C13.0492 15.5248 12.1897 16.8858 12.4992 18.2551Z" fill="#EDB892"/>
<path d="M13.8886 16.8721C13.8886 16.8721 15.7861 16.4726 16.1324 18.5538" stroke="#D68A65" stroke-width="1.4443" stroke-miterlimit="10" stroke-linecap="round" stroke-linejoin="round"/>
<path d="M26.6293 16.4526C26.678 16.7129 26.9285 16.8843 27.1887 16.8356C27.4489 16.7869 27.6204 16.5367 27.5717 16.2765C27.523 16.0163 27.2728 15.8448 27.0126 15.8935C26.752 15.9422 26.5806 16.1924 26.6293 16.4526Z" fill="#171717"/>
<path d="M22.583 16.2417C22.6317 16.502 22.8822 16.6734 23.1421 16.6247C23.4024 16.576 23.5738 16.3255 23.5251 16.0653C23.4764 15.8051 23.2259 15.6337 22.966 15.6823C22.7061 15.7313 22.5344 15.9815 22.583 16.2417Z" fill="#171717"/>
<path d="M25.5609 16.844L26.3416 18.1372L25.5609 18.5464" stroke="#D68A65" stroke-width="1.4443" stroke-miterlimit="10" stroke-linecap="round" stroke-linejoin="round"/>
<path d="M24.0786 13.2408C24.1058 13.6311 23.7918 13.9589 23.4006 13.9477C22.8102 13.9306 21.9478 13.961 21.1423 14.1955C20.8426 14.2829 20.5272 14.1283 20.4283 13.832C20.3336 13.5485 20.487 13.2706 20.7476 13.1233C21.2807 12.8221 22.1213 12.3831 23.5036 12.6297C23.8137 12.6852 24.0568 12.9262 24.0786 13.2408Z" fill="#171717"/>
<path d="M25.9519 13.3889C25.9654 13.7704 26.1982 14.1058 26.4543 14.1126C26.8411 14.1226 27.4103 14.1917 27.9588 14.4584C28.1627 14.5575 28.3577 14.4204 28.399 14.1347C28.4385 13.8609 28.3152 13.5818 28.1323 13.4255C27.7576 13.1056 27.1695 12.6371 26.2809 12.8162C26.0811 12.8563 25.941 13.0817 25.9519 13.3889Z" fill="#171717"/>
<path opacity="0.26" d="M24.7587 15.9819C24.7425 17.3825 23.6184 18.5049 22.2479 18.4892C20.8774 18.4736 19.7795 17.3253 19.7954 15.9247C19.8117 14.5241 20.9358 13.4015 22.3063 13.4174C23.6768 13.4333 24.7746 14.5814 24.7587 15.9819Z" fill="white"/>
<path opacity="0.26" d="M30.5036 16.0273C30.4882 17.3721 29.5234 18.4514 28.3488 18.4381C27.1743 18.4246 26.2348 17.3234 26.2502 15.9783C26.2655 14.6335 27.2303 13.5542 28.4049 13.5675C29.5798 13.5811 30.5192 14.6825 30.5036 16.0273Z" fill="white"/>
<path d="M24.7587 15.9819C24.7425 17.3825 23.6184 18.5049 22.2479 18.4892C20.8774 18.4736 19.7795 17.3253 19.7954 15.9247C19.8117 14.5241 20.9358 13.4015 22.3063 13.4174C23.6768 13.4333 24.7746 14.5814 24.7587 15.9819Z" stroke="white" stroke-width="1.3744" stroke-miterlimit="10" stroke-linecap="round" stroke-linejoin="round"/>
<path d="M30.5036 16.0273C30.4882 17.3721 29.5234 18.4514 28.3488 18.4381C27.1743 18.4246 26.2348 17.3234 26.2502 15.9783C26.2655 14.6335 27.2303 13.5542 28.4049 13.5675C29.5798 13.5811 30.5192 14.6825 30.5036 16.0273Z" stroke="white" stroke-width="1.3744" stroke-miterlimit="10" stroke-linecap="round" stroke-linejoin="round"/>
<path d="M24.7587 15.9821C24.7587 15.9821 25.5117 15.3548 26.2505 15.9782" stroke="white" stroke-width="1.3744" stroke-miterlimit="10" stroke-linecap="round" stroke-linejoin="round"/>
<path d="M19.7954 15.925L17.2837 16.2933" stroke="white" stroke-width="1.3744" stroke-miterlimit="10" stroke-linecap="round" stroke-linejoin="round"/>
<path d="M25.9837 19.895L23.7671 19.9316C23.7671 19.9316 23.762 20.6167 24.8918 20.6052C26.0215 20.594 25.9837 19.895 25.9837 19.895Z" fill="white"/>
<path d="M15.1213 6.55737C15.209 7.1159 15.7327 7.49769 16.2912 7.41006C16.8497 7.32243 17.2315 6.79873 17.1439 6.24021C17.0562 5.68168 16.5325 5.29989 15.974 5.38752C15.4155 5.47515 15.0337 5.99885 15.1213 6.55737Z" fill="#A8527E"/>
<path d="M17.6148 5.63186C13.9054 7.12273 12.0157 11.1159 13.3758 14.5673L25.9215 7.56736C24.0612 5.27043 20.6945 4.39414 17.6148 5.63186Z" fill="#28466D"/>
<path d="M17.8576 12.067C17.8576 12.067 21.0798 7.80179 25.7229 7.32942L30.7186 6.62427C30.7186 6.62427 26.8556 8.05022 25.3276 9.68891C23.7995 11.3279 19.7167 12.5405 17.8576 12.067Z" fill="#EF758D"/>
<path d="M21.2261 31.2372L21.6486 33.2049C21.6486 33.2049 18.0895 35.5012 15.2913 31.7757L14.5622 26.7053L21.2261 31.2372Z" fill="#EDB892"/>
<path d="M14.5622 26.7051C14.5622 26.7051 17.5212 33.2047 16.1324 37.6286C15.7344 38.897 11.9573 40.9211 11.9573 40.9211C10.9284 41.8918 9.24843 41.0482 9.41218 39.6432L10.7688 28.0022C10.9883 26.118 12.7613 24.7446 14.6171 25.1382C14.7443 25.165 14.8756 25.1975 15.0107 25.2352L14.5622 26.7051Z" fill="#EF758D"/>
</g>
</svg>
