<svg width="180" height="535" viewBox="0 0 180 535" fill="none" xmlns="http://www.w3.org/2000/svg">
<path d="M177.83 182.798C179.302 175.586 177.494 166.441 166.307 155.432C155.121 144.422 153.547 138.951 151.924 134.207C150.301 129.463 145.747 110.622 146.784 102.648C147.82 94.6744 178.765 45.3669 195.447 29.6953C212.13 14.0225 228.017 13.4116 236.033 10.3067C244.048 7.20183 249.285 1.9563 258.806 5.29303C268.328 8.63098 266.514 24.3516 264.783 38.8603C263.052 53.3677 258.076 86.6687 255.877 93.8304C253.677 100.992 231.791 121.426 228.947 127.324C226.102 133.223 218.039 151.195 208.626 156.885C199.215 162.574 185.719 170.909 182.749 175.092C179.779 179.275 177.83 182.798 177.83 182.798Z" fill="#37474F"/>
<path d="M177.83 182.798C179.118 176.489 177.136 155.979 167.35 146.348C157.565 136.717 157.219 127.481 155.799 123.332C154.379 119.182 150.397 102.701 151.303 95.7257C152.21 88.7505 179.28 45.6184 193.872 31.9083C208.466 18.1983 222.363 17.6635 229.375 14.9475C236.386 12.2315 240.968 7.64223 249.298 10.5619C257.627 13.4815 256.04 27.2332 254.526 39.9251C253.012 52.6169 248.66 81.7458 246.735 88.0108C244.81 94.2757 225.666 112.151 223.178 117.31C220.69 122.47 214.047 142.291 205.814 147.268C197.58 152.245 191.488 158.915 188.891 162.574C186.291 166.234 177.83 182.798 177.83 182.798Z" fill="#455A64"/>
<path d="M178.2 174.686C171.659 195.636 137.325 285.914 137.325 425.841H141.621C141.621 425.841 142.794 276.188 182.751 175.092L178.2 174.686Z" fill="#263238"/>
<path d="M178.499 175.402C181.188 162.514 188.342 124.202 191.203 112.057C200.2 88.1813 213.807 66.4005 225.763 43.9782C229.65 37.0864 235.294 31.4949 240.907 26.0335C246.588 20.6518 252.545 15.5743 258.703 10.7618C252.64 15.6933 246.789 20.8849 241.228 26.3647C235.792 31.8605 230.255 37.5759 226.578 44.41C215.124 66.9391 202.013 88.9137 193.524 112.752C192.493 116.575 191.108 125.935 190.318 129.91L182.118 176.076L178.499 175.402Z" fill="#263238"/>
<path d="M181.356 163.101C173.089 154.171 164.476 145.155 158.693 134.348C153.373 123.286 150.232 111.373 147.829 99.3986C148.662 102.258 149.463 105.292 150.36 108.186C152.962 116.894 155.735 125.67 159.789 133.8C162.394 139.287 166.269 144.016 169.912 148.847C173.631 153.672 177.492 158.386 181.356 163.101Z" fill="#263238"/>
<path d="M153.183 88.8229C155.899 100.335 158.491 112.032 163.297 122.856C167.029 130.902 172.59 137.986 177.65 145.237C179.365 147.665 181.14 150.047 182.892 152.453C175.263 143.345 167.472 134.077 162.181 123.36C157.441 112.358 154.948 100.609 153.183 88.8229Z" fill="#263238"/>
<path d="M159.854 77.559C161.932 89.0093 163.858 100.649 168.07 111.514C171.375 119.585 176.426 126.868 180.999 134.272C182.548 136.753 184.159 139.194 185.744 141.656C178.736 132.287 171.646 122.74 166.931 111.964C162.792 100.921 160.968 89.2363 159.854 77.559Z" fill="#263238"/>
<path d="M189.313 129.867C182.861 120.687 176.564 111.272 172.101 100.932C169.163 92.9558 167.743 84.6139 166.749 76.2304C166.467 73.4383 166.198 70.6463 166.04 67.8469C167.769 78.8458 169.329 90.0484 173.245 100.492C177.465 110.629 183.819 120.341 189.313 129.867Z" fill="#263238"/>
<path d="M175.11 54.5502C175.676 65.2241 176.006 76.1139 178.857 86.4369C181.216 94.0635 184.622 101.485 187.817 108.836L191.096 116.218C185.895 106.76 181.052 97.0567 177.678 86.773C174.913 76.2537 174.694 65.3406 175.11 54.5502Z" fill="#263238"/>
<path d="M146.967 127.366C143.734 134.343 136.86 143.134 136.712 149.394C136.478 160.789 132.924 166.45 129.925 171.906C126.927 177.363 125.171 182.497 125.171 182.497C125.171 182.497 122.919 179.425 117.361 178.664C111.787 177.904 103.523 178.591 94.1176 171.336C84.7122 164.081 82.5911 150.374 78.1884 144.962C73.8003 139.564 63.9999 132.865 56.5548 119.832C49.1245 106.814 43.7857 78.8605 30.153 61.469C16.5202 44.0911 4.78893 34.774 1.1173 23.5542C-2.55433 12.3492 3.57445 0.662083 8.63597 0.0327663C13.7122 -0.59655 40.8747 8.01883 45.497 10.4331C50.1046 12.846 58.8955 17.9812 64.1766 18.5516C68.0089 18.9613 78.4448 22.6906 84.8078 25.3526C87.514 30.0192 87.7557 34.4661 89.1014 39.2786C91.047 46.271 91.9364 58.688 91.9364 58.688C91.9364 58.688 94.1335 47.0745 93.8121 40.2735C93.6808 37.7574 93.0368 33.838 92.2615 29.9026C94.7776 32.1844 97.864 35.0954 101.228 38.3867C102.618 43.5648 104.885 52.3703 105.967 58.6893C107.591 68.1535 105.967 82.4291 105.967 82.4291C105.967 82.4291 109.668 65.651 110.838 57.4306C111.218 54.6803 108.892 48.8876 108.892 45.9042C120.009 57.3865 133.817 72.9059 137.635 80.6C144.846 95.1565 150.199 120.388 146.967 127.366Z" fill="#37474F"/>
<path d="M142.358 122.227C139.486 128.426 133.378 136.236 133.248 141.798C133.041 151.921 129.882 156.951 127.219 161.798C124.554 166.645 122.995 171.207 122.995 171.207C122.995 171.207 120.994 168.477 116.055 167.803C111.104 167.127 103.762 167.738 95.4058 161.292C87.0492 154.847 85.1649 142.671 81.2541 137.862C77.3555 133.066 68.6481 127.114 62.0336 115.535C55.4313 103.969 50.6887 79.1353 38.5771 63.6833C26.4655 48.2448 16.0431 39.9668 12.7812 29.9995C9.51934 20.0445 14.9648 9.66144 19.4608 9.10327C23.9703 8.5451 48.1027 16.1987 52.2098 18.3431C56.3035 20.4874 64.1141 25.0484 68.8052 25.5551C72.2094 25.9194 79.5195 27.8994 85.1723 30.2645C87.5767 34.4097 87.7914 38.361 88.9875 42.6362C90.7159 48.8484 91.8433 62.8933 91.8433 62.8933C91.8433 62.8933 95.4205 50.8958 95.1346 44.8529C95.0181 42.6178 94.4464 39.135 93.757 35.6388C95.9921 37.6666 98.7339 40.2526 101.723 43.1759C102.958 47.7762 104.972 55.5991 105.934 61.2139C107.376 69.6219 105.169 89.1369 105.169 89.1369C105.169 89.1369 110.385 68.0198 111.425 60.7171C111.762 58.2734 109.786 50.7903 109.786 48.1393C119.662 58.3409 130.677 73.8456 134.069 80.681C140.474 93.6108 145.23 116.028 142.358 122.227Z" fill="#455A64"/>
<path d="M122.688 177.695C115.578 149.313 111.167 119.705 98.4529 93.1091C92.54 80.2161 82.6084 69.9151 72.5344 60.1086C53.5752 42.089 32.8629 25.9807 11.5986 10.7606C37.0007 28.5557 84.7638 62.6001 98.7989 89.2571C109.113 108.648 114.76 130.136 119.938 151.342C122.014 159.813 123.799 168.428 126.21 176.629L122.688 177.695Z" fill="#263238"/>
<path d="M0.38501 20.615C11.5373 22.1913 22.6699 24.2805 33.648 26.8027C22.4295 25.9415 11.1693 23.818 0.38501 20.615Z" fill="#263238"/>
<path d="M8.15137 35.6671C20.6813 37.4483 39.9558 40.1213 52.3851 41.5615C37.5072 41.5112 22.552 39.3828 8.15137 35.6671Z" fill="#263238"/>
<path d="M20.3367 49.7525C34.216 51.346 48.7921 52.9494 62.7352 52.8279C63.681 52.8083 64.6293 52.7936 65.5788 52.7948C50.5034 54.8066 35.0956 53.142 20.3367 49.7525Z" fill="#263238"/>
<path d="M30.1077 61.4114C44.6359 63.2233 59.9039 65.0291 74.5205 64.8892C75.5117 64.8671 76.5041 64.8499 77.5002 64.8487C61.6925 66.9084 45.5548 65.0376 30.1077 61.4114Z" fill="#263238"/>
<path d="M37.7283 73.5659C53.4293 75.0993 69.1917 76.4941 84.9749 75.7311L88.1337 75.5545C71.4378 78.349 54.2439 76.8744 37.7283 73.5659Z" fill="#263238"/>
<path d="M42.6436 84.4201C59.1972 86.2075 75.8317 87.8243 92.4945 87.0245L95.8288 86.8343C78.192 89.7122 60.0534 87.9948 42.6436 84.4201Z" fill="#263238"/>
<path d="M102.177 99.0907C83.9221 102.012 65.1603 100.147 47.1641 96.3845L54.0326 97.1463C70.0108 98.9717 86.0971 100.171 102.177 99.0907Z" fill="#263238"/>
<path d="M50.7905 106.493C68.0385 109.312 85.398 111.915 102.915 111.813L106.419 111.759C87.7877 113.915 68.8543 111.127 50.7905 106.493Z" fill="#263238"/>
<path d="M110.647 123.475C91.9502 125.229 73.0609 122.043 55.0769 117.024L61.9847 118.267C78.0525 121.199 94.2761 123.549 110.647 123.475Z" fill="#263238"/>
<path d="M114.859 134.943C97.4921 136.652 79.9203 133.93 63.1655 129.385L69.601 130.445C84.5709 132.957 99.6524 134.936 114.859 134.943Z" fill="#263238"/>
<path d="M117.287 145.914C103.458 147.489 89.3802 145.802 75.9204 142.477C89.5065 144.134 103.618 145.824 117.287 145.914Z" fill="#263238"/>
<path d="M119.262 157.557C106.713 158.281 94.0809 156.135 82.1091 152.453C83.6646 152.677 85.2042 152.967 86.7536 153.202C97.5182 155.056 108.369 156.695 119.262 157.557Z" fill="#263238"/>
<path d="M122.773 169.025C111.044 169.768 99.2183 167.854 88.0034 164.476C89.462 164.661 90.9047 164.914 92.3559 165.113C102.442 166.721 112.592 168.178 122.773 169.025Z" fill="#263238"/>
<path d="M147.244 112.651C147.535 119.256 146.641 125.91 144.436 132.15C144.983 125.549 145.856 119.128 147.244 112.651Z" fill="#263238"/>
<path d="M122.773 169.025C128.169 165.016 132.286 160.114 136.317 154.777C133.833 160.931 129.023 166.534 122.773 169.025Z" fill="#263238"/>
<path d="M119.262 157.557C135.681 146.943 140.292 124.074 142.958 105.975L143.505 101.808L143.982 97.6284C143.356 118.009 138.849 146.849 119.262 157.557Z" fill="#263238"/>
<path d="M138.439 82.2844C137.889 101.017 134.457 129.54 120.628 143.192C119.768 144.145 118.28 145.095 117.287 145.914C119.406 144.044 121.514 141.997 123.054 139.626C127.982 132.641 130.738 124.346 132.864 116.121C135.731 105.141 137.193 93.563 138.439 82.2844Z" fill="#263238"/>
<path d="M112.855 135.133C124.565 123.322 128.465 102.234 131.601 86.3277C132.273 82.4475 132.987 78.1171 133.596 74.2394C132.135 93.0195 127.828 122.411 112.855 135.133Z" fill="#263238"/>
<path d="M109.783 124.294C122.125 109.868 124.023 83.2032 126.078 64.7604C126.082 67.3832 125.972 70.0022 125.876 72.6238C124.727 89.2669 122.199 112.11 109.783 124.294Z" fill="#263238"/>
<path d="M106.536 112.11C112.572 105.191 115.407 96.1992 117.636 87.4391C119.264 80.7963 120.433 74.0223 121.38 67.2408L122.319 60.4312C121.61 77.0069 118.982 100.071 106.536 112.11Z" fill="#263238"/>
<path d="M100.656 99.471C109.898 88.2966 112.277 73.3009 114.906 59.4425L115.926 53.3505C114.966 68.5976 112.159 88.4573 100.656 99.471Z" fill="#263238"/>
<path d="M104.708 52.4292C105.075 63.9422 104.006 76.7689 96.532 86.0725C97.2607 84.7942 97.9942 83.5418 98.5524 82.196C102.695 72.8397 103.555 62.4958 104.708 52.4292Z" fill="#263238"/>
<path d="M96.5012 33.838C97.371 46.2023 96.9404 59.3627 91.29 70.6512C90.4485 72.2386 89.4401 73.7364 88.3091 75.1165C89.2132 73.5745 90.1001 72.0423 90.7478 70.3911C95.5002 58.861 95.8044 46.1385 96.5012 33.838Z" fill="#263238"/>
<path d="M77.8657 64.3801C82.5605 53.18 81.6183 40.639 80.8332 28.7777L80.4259 23.6131C83.0659 36.7466 84.771 52.2771 77.8657 64.3801Z" fill="#263238"/>
<path d="M65.6377 53.1898C69.9988 42.6153 69.3204 30.9257 69.1486 19.7072C71.0353 30.7589 71.5886 43.2446 65.6377 53.1898Z" fill="#263238"/>
<path d="M52.2542 42.4239C55.6473 33.9668 55.8227 24.9908 56.3355 16.0061C57.5573 24.8362 57.2114 34.7163 52.2542 42.4239Z" fill="#263238"/>
<path d="M33.5154 27.5043C35.9676 20.9695 36.7061 14.2997 37.7133 7.43491C38.442 14.2703 37.5047 21.7424 33.5154 27.5043Z" fill="#263238"/>
<path d="M121.907 177.844C170.498 275.724 155.257 425.841 155.257 425.841H160.037C160.037 425.841 173.741 269.862 126.616 176.582L121.907 177.844Z" fill="#263238"/>
<path d="M136.611 266.97C135.381 271.666 135.119 280.691 135.119 280.691C135.119 280.691 129.282 271.49 123.548 268.609C117.8 265.742 97.4826 258.984 87.3313 250.983C84.8006 248.993 82.417 246.697 80.1929 244.313C83.1482 244.928 85.9267 245.395 87.887 245.542C94.8942 246.069 110.837 243.918 110.837 243.918C110.837 243.918 96.2387 242.294 89.759 240.335C85.1514 238.93 77.6033 235.917 71.0648 233.372C68.5487 230.169 66.3835 227.448 64.6146 225.838C59.7579 221.465 48.2757 211.094 42.2634 203.122C36.2512 195.149 30.3125 179.133 28.2504 171.936C26.1735 164.738 15.9634 150.887 15.9634 150.887C15.9634 150.887 20.1466 151.648 24.5788 152.643C29.011 153.638 60.5185 155.436 82.2551 166.246C97.3648 173.765 125.596 199.348 129.808 205.462C134.021 211.576 142.344 236.239 142.768 244.489C143.192 252.752 137.824 262.275 136.611 266.97Z" fill="#37474F"/>
<path d="M133.947 260.304C132.851 264.495 132.615 272.55 132.615 272.55C132.615 272.55 127.405 264.337 122.287 261.766C117.156 259.207 102.02 258.703 92.9583 251.561C90.6999 249.786 88.5715 247.736 86.5866 245.607C89.2241 246.156 91.7046 246.574 93.4539 246.704C99.7078 247.174 115.42 243.543 115.42 243.543C115.42 243.543 97.9094 238.278 92.1253 236.528C88.0121 235.275 81.2748 232.586 75.4392 230.314C73.1931 227.454 71.261 225.025 69.6809 223.59C65.3456 219.686 55.0962 210.429 49.7305 203.313C44.3647 196.197 39.0628 181.9 37.2227 175.476C35.3691 169.053 26.2556 156.687 26.2556 156.687C26.2556 156.687 29.9898 157.366 33.946 158.254C37.9023 159.142 66.0265 160.748 85.4286 170.396C98.9153 177.108 124.115 199.943 127.875 205.401C131.635 210.859 139.064 232.871 139.443 240.235C139.823 247.612 135.032 256.112 133.947 260.304Z" fill="#455A64"/>
<path d="M131.871 276.207C137.584 290.453 141.741 302.917 145.366 329.368C149.964 362.914 149.5 425.841 149.5 425.841H152.661C152.661 425.841 156.553 328.395 135.394 275.724L131.871 276.207Z" fill="#263238"/>
<path d="M132.803 276.982C127.151 263.361 123.186 249.101 118.53 235.168C116.698 230.084 114.929 224.823 111.579 220.57C105.583 213.656 99.0773 207.149 92.6234 200.646C84.7821 192.929 76.9383 185.14 68.3315 178.279C65.4646 175.984 62.1868 174.338 58.9617 172.607C45.9325 165.803 32.6555 159.456 19.3822 153.125C32.7451 159.272 46.103 165.431 59.2451 172.062C62.5155 173.756 65.8756 175.394 68.7964 177.668C77.5419 184.442 85.5058 192.134 93.4845 199.77C100.066 206.22 106.67 212.641 112.814 219.534C116.395 223.932 118.313 229.357 120.267 234.556C122.753 241.516 124.922 248.539 127.303 255.483C129.672 262.427 132.203 269.307 135.067 276.038L132.803 276.982Z" fill="#263238"/>
<path d="M131.038 269.237C131.928 263.709 134.512 256.022 136.11 250.589C137.48 246.154 138.464 241.121 139.156 236.512C139.464 234.931 139.731 233.344 140.077 231.761C139.957 234.539 139.567 238.606 139.298 241.421C138.143 251.099 133.988 260.039 131.038 269.237Z" fill="#263238"/>
<path d="M134.226 214.619C134.141 222.26 134.447 230.006 133.162 237.567C131.759 245.129 129.244 252.337 127.425 259.788C127.638 257.885 127.969 256 128.307 254.114C129.419 248.507 130.934 242.95 131.955 237.35C133.275 229.834 133.192 222.186 134.226 214.619Z" fill="#263238"/>
<path d="M128.726 204.087C128.985 211.679 129.148 219.262 128.222 226.833C127.49 232.306 125.882 238.139 124.564 243.5C124.086 245.33 123.673 247.171 123.256 249.023C123.908 241.486 126.015 234.135 127.008 226.668C127.967 219.208 128.038 211.599 128.726 204.087Z" fill="#263238"/>
<path d="M121.266 196.393C121.807 201.36 122.3 206.422 122.449 211.423C122.459 218.153 121.153 224.769 120.144 231.382C119.861 233.028 119.643 234.682 119.392 236.341C119.349 229.659 120.484 223.002 121.015 216.371C121.631 209.718 120.977 203.073 121.266 196.393Z" fill="#263238"/>
<path d="M110.501 263.167C117.217 263.847 123.734 265.335 130.072 267.658C123.372 266.989 116.822 265.479 110.501 263.167Z" fill="#263238"/>
<path d="M81.6982 245.877C94.0208 251.123 108.273 253.687 121.177 257.203C123.068 257.734 124.968 258.221 126.853 258.779C124.908 258.492 122.98 258.121 121.045 257.789C107.652 255.045 93.7485 252.675 81.6982 245.877Z" fill="#263238"/>
<path d="M104.064 244.722C110.347 244.478 116.503 245.058 122.626 246.492C116.385 246.747 110.145 246.145 104.064 244.722Z" fill="#263238"/>
<path d="M63.8674 225.15C68.4199 226.279 72.9183 227.531 77.4094 228.802C88.4586 231.632 100.661 232.054 112.032 233.384L119.012 234.117C107.397 233.98 95.4817 233.28 84.0178 231.372C77.077 230.181 70.5102 227.399 63.8674 225.15Z" fill="#263238"/>
<path d="M54.2571 216.213C73.4862 219.215 93.7593 220.592 113.176 222.431C93.4354 222.205 73.4899 220.88 54.2571 216.213Z" fill="#263238"/>
<path d="M106.697 213.945C86.2347 213.645 65.5028 212.353 45.6272 207.217C46.8944 207.424 48.1579 207.641 49.4166 207.873C68.0434 210.785 87.8761 212.191 106.697 213.945Z" fill="#263238"/>
<path d="M40.3914 200.371C59.6708 203.406 80.0003 204.785 99.4711 206.633C79.6752 206.398 59.6732 205.071 40.3914 200.371Z" fill="#263238"/>
<path d="M94.2194 201.176C75.2712 200.995 56.0641 199.686 37.5674 195.413C56.377 198.049 75.319 199.357 94.2194 201.176Z" fill="#263238"/>
<path d="M88.1055 194.359C70.2159 194.271 52.1179 192.983 34.6135 189.181C52.0872 191.279 70.5815 192.645 88.1055 194.359Z" fill="#263238"/>
<path d="M80.8948 187.865C64.6442 187.903 48.2366 186.681 32.2583 183.491C46.4639 184.797 66.8891 186.45 80.8948 187.865Z" fill="#263238"/>
<path d="M73.0252 180.829C58.6 180.969 44.1184 179.884 29.9324 177.231C43.7724 178.169 59.2232 179.363 73.0252 180.829Z" fill="#263238"/>
<path d="M28.5276 172.886C40.7336 173.389 53.0611 174.301 65.1985 175.709C52.9495 175.97 40.5864 175.056 28.5276 172.886Z" fill="#263238"/>
<path d="M58.1337 171.644C47.8279 171.997 37.4767 171.267 27.3279 169.436C37.5883 169.589 47.9567 170.335 58.1337 171.644Z" fill="#263238"/>
<path d="M51.6688 168.733C42.8572 168.758 34.0909 167.745 25.5148 165.72C34.3228 166.067 43.0105 167.085 51.6688 168.733Z" fill="#263238"/>
<path d="M45.8614 165.427C38.4948 165.487 31.1503 164.633 23.9641 162.984C31.3552 162.95 38.6666 163.821 45.8614 165.427Z" fill="#263238"/>
<path d="M24.9149 155.933C22.9104 156.574 20.9292 156.382 19.0928 155.348C21.1083 154.7 23.0674 154.905 24.9149 155.933Z" fill="#263238"/>
<path d="M32.4778 158.947C28.5645 159.413 24.4868 158.957 20.6876 157.719C24.6819 157.28 28.7215 157.751 32.4778 158.947Z" fill="#263238"/>
<path d="M40.3179 162.91C34.4344 163.145 28.5031 162.474 22.7792 161.009C28.7105 160.797 34.5927 161.47 40.3179 162.91Z" fill="#263238"/>
<path d="M113.016 188.889C115.923 199.938 114.776 211.259 113.997 222.492L113.952 223.015L113.906 222.485C113.341 216.915 113.638 211.237 113.72 205.646C113.945 200.033 113.304 194.483 113.016 188.889Z" fill="#263238"/>
<path d="M105.366 182.409C106.867 187.889 108 193.52 108.088 199.218C108.238 204.163 107.984 211.208 107.926 216.213C107.04 210.615 107.046 204.899 106.862 199.258C106.821 193.592 105.934 188.03 105.366 182.409Z" fill="#263238"/>
<path d="M98.4319 176.909C101.641 187.208 100.867 198.509 100.684 209.162C99.7862 203.826 99.7911 198.377 99.6365 192.993C99.6181 187.594 98.9667 182.272 98.4319 176.909Z" fill="#263238"/>
<path d="M90.0215 170.868C93.7729 180.475 93.7692 191.329 94.3911 201.496C94.3911 201.496 94.3948 201.613 94.3948 201.615C92.0898 191.492 92.1769 181.032 90.0215 170.868Z" fill="#263238"/>
<path d="M83.396 166.845C86.5769 175.752 86.4628 185.384 87.0382 194.695C84.7724 185.562 84.9368 176.124 83.396 166.845Z" fill="#263238"/>
<path d="M76.5063 163.671C79.1954 171.453 79.5266 179.701 80.254 187.835C78.0508 181.168 77.4129 170.775 76.5063 163.671Z" fill="#263238"/>
<path d="M68.8555 160.935C71.0342 167.415 71.6745 174.185 72.2633 180.961C70.0135 174.526 69.3817 167.712 68.8555 160.935Z" fill="#263238"/>
<path d="M61.425 158.829C63.5375 164.267 64.4956 169.941 65.1997 175.709C62.8591 170.379 61.8937 164.613 61.425 158.829Z" fill="#263238"/>
<path d="M55.3696 157.396C57.26 162.194 58.1899 167.215 58.7051 172.316C56.5424 167.62 55.6174 162.536 55.3696 157.396Z" fill="#263238"/>
<path d="M48.9626 156.123C50.6678 160.277 51.5143 164.558 51.8737 169.025C49.879 165.003 49.0166 160.594 48.9626 156.123Z" fill="#263238"/>
<path d="M43.4336 155.187C45.0652 158.52 45.8515 162.042 45.8613 165.748C44.2359 162.54 43.4164 158.838 43.4336 155.187Z" fill="#263238"/>
<path d="M37.6853 154.339C39.188 157.076 39.8701 160.053 39.7474 163.16C38.3379 160.74 37.5172 157.389 37.6853 154.339Z" fill="#263238"/>
<path d="M30.3273 153.417C31.608 155.045 32.0839 157.048 31.7172 159.005C30.4916 157.475 29.9531 155.425 30.3273 153.417Z" fill="#263238"/>
<path d="M24.4327 152.613C25.3724 153.483 25.6889 154.542 25.6288 155.756C25.6399 155.761 25.1884 155.426 25.251 155.46L25.657 155.618C25.5491 156.515 25.5123 156.951 24.8609 155.952C24.8511 155.952 25.2964 156.275 25.2363 156.266L25.0768 156.328C24.3113 155.225 23.9408 153.944 24.4327 152.613Z" fill="#263238"/>
<path d="M135.394 302.354C135.394 302.354 116.142 244.85 84.8814 242.28C61.214 240.335 44.4322 256.387 38.3525 257.847C32.2728 259.306 15.2469 262.953 2.11462 284.599C2.11462 284.599 18.4094 277.303 25.4631 276.087C32.5169 274.871 36.651 275.844 44.9204 274.871C53.1899 273.898 71.8805 268.4 93.806 275.357C119.099 283.384 135.394 302.354 135.394 302.354Z" fill="#263238"/>
<path d="M133.919 302.319C133.129 301.428 118.487 283.187 93.811 275.361C76.287 269.788 60.8117 272.187 51.0984 273.884C70.6403 269.232 90.8852 257.355 104.503 254.444C105.469 254.239 106.375 254.078 107.254 253.99C118.795 252.57 123.153 259.592 125.187 269.758C126.797 277.877 131.637 291.875 134.022 298.56C134.198 299.071 134.373 299.525 134.519 299.935C134.855 300.885 135.119 301.587 135.265 301.982C135.309 302.128 135.353 302.231 135.368 302.289C135.381 302.305 133.919 302.305 133.919 302.319Z" fill="#37474F"/>
<path d="M132.473 300.647C128.142 295.826 114.513 281.927 93.8061 275.364C86.2984 272.96 79.1588 272.04 72.6816 271.905C84.9858 267.121 96.6398 261.232 105.313 259.38C106.184 259.196 107.006 259.049 107.803 258.975C118.206 257.699 122.144 264.029 123.972 273.193C125.431 280.517 129.799 293.152 131.945 299.175C132.105 299.641 132.264 300.046 132.387 300.414C132.412 300.5 132.448 300.574 132.473 300.647Z" fill="#455A64"/>
<path d="M70.0256 271.899C78.0313 269.033 85.9168 265.888 93.898 262.949C101.884 260.137 110.009 257.037 118.53 256.424C101.886 259.918 86.6246 268.141 70.0256 271.899Z" fill="#263238"/>
<path d="M85.8088 273.303C97.664 268.427 109.668 262.767 122.568 261.557C110.001 264.419 98.259 269.996 85.8088 273.303Z" fill="#263238"/>
<path d="M96.8237 276.39C105.875 272.82 115.211 269.557 124.966 268.725C115.534 271.223 106.395 274.42 96.8237 276.39Z" fill="#263238"/>
<path d="M104.59 279.681C111.451 276.768 118.738 274.442 126.253 274.313C119.839 275.94 111.044 278.577 104.59 279.681Z" fill="#263238"/>
<path d="M127.951 280.339C122.125 281.423 116.46 282.537 110.53 282.84C116.097 280.88 122.039 279.74 127.951 280.339Z" fill="#263238"/>
<path d="M115.825 286.19C120.185 284.679 125.019 284.023 129.516 285.327C124.878 285.724 120.49 286.342 115.825 286.19Z" fill="#263238"/>
<path d="M122.055 290.827C124.993 289.676 128.315 289.441 131.271 290.667C128.123 291.135 125.211 291.35 122.055 290.827Z" fill="#263238"/>
<path d="M127.819 295.874C129.54 294.969 131.545 294.996 133.157 296.123C131.277 296.673 129.63 296.652 127.819 295.874Z" fill="#263238"/>
<path d="M131.871 299.987C135.764 309.852 142.787 364.228 144.231 425.841H147.936C147.936 425.841 144.258 324.423 135.368 302.29L131.871 299.987Z" fill="#263238"/>
<path d="M202.273 230.624C194.981 253 172.118 339.907 172.118 425.841H176.982C176.982 425.841 174.307 335.448 206.465 232.57L202.273 230.624Z" fill="#263238"/>
<path d="M200.38 315.787C191.82 328.882 176.476 360.788 170.904 387.738C165.331 414.69 164.58 425.841 164.58 425.841H168.229C168.229 425.841 171.714 369.339 201.71 319.682L200.38 315.787Z" fill="#263238"/>
<path d="M198.039 320.808C188.373 321.628 179.438 346.054 179.438 346.054C179.438 346.054 194.936 331.641 216.81 337.764C216.81 337.764 206.947 320.052 198.039 320.808Z" fill="#263238"/>
<path d="M181.974 339.995C167.903 358.228 151.364 396.007 149.5 425.841H152.661C152.661 425.841 159.91 372.393 183.769 342.855L181.974 339.995Z" fill="#263238"/>
<path d="M127.807 123.892C127.807 123.892 125.152 119.235 116.83 116.52C116.83 116.52 121.838 116.607 125.384 113.953C125.384 113.953 122.701 113.975 111.791 112.082C100.881 110.188 88.5473 106.604 87.9462 106.141C87.3451 105.677 91.1393 108.714 97.1565 111.865C103.174 115.015 114.241 118.829 118.083 120.076C121.926 121.324 123.852 124.079 123.852 124.079L127.807 123.892Z" fill="#455A64"/>
<path opacity="0.4" d="M127.807 123.892C127.807 123.892 125.152 119.235 116.83 116.52C116.83 116.52 121.838 116.607 125.384 113.953C125.384 113.953 122.701 113.975 111.791 112.082C100.881 110.188 88.5473 106.604 87.9462 106.141C87.3451 105.677 91.1393 108.714 97.1565 111.865C103.174 115.015 114.241 118.829 118.083 120.076C121.926 121.324 123.852 124.079 123.852 124.079L127.807 123.892Z" fill="white"/>
<path d="M144.317 58.688C144.317 58.688 121.394 83.6951 130.125 113.401L132.969 114.932C132.969 114.932 153.019 88.986 144.317 58.688Z" fill="#0A66C2"/>
<path opacity="0.2" d="M144.317 58.688C144.317 58.688 121.394 83.6951 130.125 113.401L132.969 114.932C132.969 114.932 153.019 88.986 144.317 58.688Z" fill="black"/>
<path opacity="0.1" d="M133.089 114.795L132.972 114.939C128.88 90.8372 143.698 59.5517 144.282 58.7236C144.312 58.7015 144.313 58.688 144.313 58.688C152.632 87.6513 134.695 112.641 133.089 114.795Z" fill="black"/>
<path d="M127.862 112.181C127.862 112.181 126.793 120.23 131.367 127.491L133.848 127.866C133.848 127.866 131.413 123.243 132.969 114.932L127.862 112.181Z" fill="#0A66C2"/>
<path d="M127.862 112.181C127.862 112.181 126.202 103.42 134.974 92.8049C143.747 82.1899 164.472 67.561 164.472 67.561C164.472 67.561 154.646 96.977 146.271 104.966C137.896 112.954 132.969 114.933 132.969 114.933L127.862 112.181Z" fill="#0A66C2"/>
<path opacity="0.1" d="M127.862 112.181C127.862 112.181 126.202 103.42 134.974 92.8049C143.747 82.1899 164.472 67.561 164.472 67.561C164.472 67.561 154.646 96.977 146.271 104.966C137.896 112.954 132.969 114.933 132.969 114.933L127.862 112.181Z" fill="black"/>
<path d="M191.093 91.6125C191.093 91.6125 157.187 90.5072 140.334 116.481L141.023 119.636C141.023 119.636 173.771 117.949 191.093 91.6125Z" fill="#0A66C2"/>
<path opacity="0.2" d="M191.093 91.6125C191.093 91.6125 157.187 90.5072 140.334 116.481L141.023 119.636C141.023 119.636 173.771 117.949 191.093 91.6125Z" fill="black"/>
<path opacity="0.1" d="M141.205 119.637L141.02 119.643C156.642 100.84 190.033 91.7069 191.041 91.61C191.078 91.6186 191.089 91.6113 191.089 91.6113C174.531 116.786 143.885 119.452 141.205 119.637Z" fill="black"/>
<path d="M198.452 118.184C198.452 118.184 192.4 117.163 183.261 115.975C172.615 114.592 157.751 113.361 142.914 119.136L141.621 122.082C141.621 122.082 168.438 134.194 198.452 118.184Z" fill="#0A66C2"/>
<g opacity="0.2">
<path d="M198.452 118.184C198.452 118.184 192.4 117.163 183.261 115.975C172.615 114.592 157.751 113.361 142.914 119.136L141.621 122.082C141.621 122.082 168.438 134.194 198.452 118.184Z" fill="black"/>
</g>
<path d="M140.372 116.221C140.372 116.221 133.568 120.653 131.038 128.853L132.369 130.98C132.369 130.98 134.291 126.121 141.611 121.888L140.372 116.221Z" fill="#0A66C2"/>
<path d="M140.422 116.19C140.422 116.19 146.865 113.201 160.276 108.636C167.589 106.147 176.291 105.407 183.509 104.266C192.037 102.919 198.517 101.403 198.517 101.403C198.517 101.403 169.879 126.275 158.131 125.279C146.384 124.283 141.607 121.882 141.607 121.882L140.422 116.19Z" fill="#0A66C2"/>
<g opacity="0.1">
<path d="M140.422 116.19C140.422 116.19 146.865 113.201 160.276 108.636C167.589 106.147 176.291 105.407 183.509 104.266C192.037 102.919 198.517 101.403 198.517 101.403C198.517 101.403 169.879 126.275 158.131 125.279C146.384 124.283 141.607 121.882 141.607 121.882L140.422 116.19Z" fill="black"/>
</g>
<path d="M124.683 122.981C112.902 121.749 99.7926 118.477 87.3044 114.067C77.2476 110.515 70.2478 105.439 70.2478 105.439C70.2478 105.439 78.267 118.298 99.9643 124.38C121.662 130.462 129.34 131.513 129.34 131.513L124.683 122.981Z" fill="#0A66C2"/>
<path opacity="0.2" d="M124.683 122.981C112.902 121.749 99.7926 118.477 87.3044 114.067C77.2476 110.515 70.2478 105.439 70.2478 105.439C70.2478 105.439 78.267 118.298 99.9643 124.38C121.662 130.462 129.34 131.513 129.34 131.513L124.683 122.981Z" fill="black"/>
<path d="M142.599 146.734C142.599 146.734 140.696 128.979 135.249 125.019C129.802 121.059 68.3499 120.94 50.0715 125.564C50.0715 125.564 82.3531 133.472 96.4349 135.492C110.517 137.511 124.001 137.201 128.06 138.486C132.121 139.773 138.322 152.803 138.322 152.803L142.599 146.734Z" fill="#0A66C2"/>
<path d="M140.546 130.745C140.546 130.745 135.033 137.88 136.655 152.148C138.277 166.417 146.708 188.143 150.599 231.922C154.054 270.791 158.058 425.842 158.058 425.842H163.571C163.571 425.842 161.301 262.08 151.572 198.196C144.965 154.808 140.546 130.745 140.546 130.745Z" fill="#263238"/>
<path d="M183.149 163.093C183.149 163.093 201.961 183.617 194.796 207.994L192.463 209.251C192.463 209.251 176.008 187.957 183.149 163.093Z" fill="#0A66C2"/>
<path opacity="0.2" d="M183.149 163.093C183.149 163.093 201.961 183.617 194.796 207.994L192.463 209.251C192.463 209.251 176.008 187.957 183.149 163.093Z" fill="black"/>
<path opacity="0.1" d="M192.364 209.138L192.46 209.255C195.818 189.477 183.658 163.801 183.18 163.123C183.155 163.104 183.153 163.093 183.153 163.093C176.326 186.863 191.047 207.37 192.364 209.138Z" fill="black"/>
<path d="M196.654 206.992C196.654 206.992 198.016 199.802 190.818 191.091C183.618 182.379 166.609 170.374 166.609 170.374C166.609 170.374 174.674 194.515 181.546 201.071C188.419 207.626 192.463 209.251 192.463 209.251L196.654 206.992Z" fill="#0A66C2"/>
<path opacity="0.1" d="M196.654 206.992C196.654 206.992 198.016 199.802 190.818 191.091C183.618 182.379 166.609 170.374 166.609 170.374C166.609 170.374 174.674 194.515 181.546 201.071C188.419 207.626 192.463 209.251 192.463 209.251L196.654 206.992Z" fill="black"/>
<path d="M144.763 190.112C144.763 190.112 172.588 189.206 186.42 210.52L185.853 213.11C185.853 213.11 158.979 211.726 144.763 190.112Z" fill="#0A66C2"/>
<path opacity="0.2" d="M144.763 190.112C144.763 190.112 172.588 189.206 186.42 210.52L185.853 213.11C185.853 213.11 158.979 211.726 144.763 190.112Z" fill="black"/>
<path opacity="0.1" d="M185.703 213.111L185.855 213.116C173.035 197.685 145.632 190.189 144.805 190.11C144.774 190.117 144.766 190.111 144.766 190.111C158.356 210.772 183.504 212.959 185.703 213.111Z" fill="black"/>
<path d="M138.724 211.919C138.724 211.919 143.69 211.082 151.19 210.107C159.926 208.971 172.125 207.961 184.302 212.7L185.363 215.118C185.363 215.118 163.355 225.058 138.724 211.919Z" fill="#0A66C2"/>
<g opacity="0.2">
<path d="M138.724 211.919C138.724 211.919 143.69 211.082 151.19 210.107C159.926 208.971 172.125 207.961 184.302 212.7L185.363 215.118C185.363 215.118 163.355 225.058 138.724 211.919Z" fill="black"/>
</g>
<path d="M186.346 210.282C186.346 210.282 181.059 207.829 170.054 204.082C164.051 202.04 156.911 201.433 150.988 200.497C143.989 199.391 138.671 198.146 138.671 198.146C138.671 198.146 162.173 218.558 171.814 217.741C181.454 216.924 185.375 214.954 185.375 214.954L186.346 210.282Z" fill="#0A66C2"/>
<g opacity="0.1">
<path d="M186.346 210.282C186.346 210.282 181.059 207.829 170.054 204.082C164.051 202.04 156.911 201.433 150.988 200.497C143.989 199.391 138.671 198.146 138.671 198.146C138.671 198.146 162.173 218.558 171.814 217.741C181.454 216.924 185.375 214.954 185.375 214.954L186.346 210.282Z" fill="black"/>
</g>
<path d="M186.244 222.228C186.244 222.228 190.769 227.151 189.438 236.996C188.106 246.84 181.188 261.832 177.995 292.038C175.16 318.858 171.873 425.841 171.873 425.841H167.349C167.349 425.841 169.211 312.846 177.196 268.767C182.619 238.831 186.244 222.228 186.244 222.228Z" fill="#263238"/>
<path d="M162.76 264.917C164.58 269.296 161.175 425.842 161.175 425.842H164.58C164.58 425.842 167.499 302.129 165.553 264.917H162.76Z" fill="#263238"/>
<path d="M162.76 264.917C162.76 264.917 151.329 260.539 145.248 264.917C139.168 269.296 132.787 283.402 136.463 305.291C140.14 327.179 148.166 342.745 156.679 353.933C156.679 353.933 175.406 334.233 184.891 316.965C194.376 299.698 200.456 281.943 197.782 267.594C195.106 253.243 174.676 256.648 162.76 264.917Z" fill="#37474F"/>
<path d="M162.4 265.218C162.4 265.218 152.349 261.369 147.002 265.218C141.656 269.068 136.045 281.471 139.278 300.719C142.51 319.966 149.569 333.653 157.053 343.491C157.053 343.491 173.521 326.169 181.861 310.984C190.202 295.799 195.548 280.188 193.197 267.57C190.845 254.953 172.88 257.946 162.4 265.218Z" fill="#455A64"/>
<path d="M163.884 265.407C161.736 270.324 160.551 276 159.604 281.337C155.742 305.296 155.894 329.717 156.678 353.933C155.706 339.012 155.195 324.046 155.544 309.069C155.777 299.713 156.299 290.313 157.635 281.025C158.482 275.409 159.481 269.778 161.634 264.428L163.884 265.407Z" fill="#263238"/>
<path d="M156.299 346.778C152.591 344.56 149.366 341.601 146.849 338.089C150.284 340.72 153.385 343.578 156.299 346.778Z" fill="#263238"/>
<path d="M156.299 346.778C164.153 340.535 171.646 333.865 178.766 326.782C172.581 334.721 164.888 341.554 156.299 346.778Z" fill="#263238"/>
<path d="M156.138 340.575C168.339 330.97 179.433 320.078 189.386 308.161C180.415 320.856 169.085 331.964 156.138 340.575Z" fill="#263238"/>
<path d="M156.138 333.422C170.8 321.92 183.925 308.555 195.149 293.68C184.938 309.294 171.55 322.913 156.138 333.422Z" fill="#263238"/>
<path d="M155.874 325.889C171.558 313.59 185.593 299.294 197.65 283.425C186.598 300.038 172.315 314.581 155.874 325.889Z" fill="#263238"/>
<path d="M156.518 318.283C172.245 305.948 186.306 291.599 198.396 275.688C187.309 292.342 173.001 306.938 156.518 318.283Z" fill="#263238"/>
<path d="M155.874 311.291C171.67 298.903 185.804 284.464 197.913 268.447C186.81 285.205 172.428 299.895 155.874 311.291Z" fill="#263238"/>
<path d="M155.597 303.904C170.626 292.088 184.298 278.328 196.115 263.211C185.315 279.076 171.307 293.13 155.597 303.904Z" fill="#263238"/>
<path d="M156.795 295.727C170.313 285.387 182.537 273.465 193.247 260.241C183.527 274.235 171.048 286.39 156.795 295.727Z" fill="#263238"/>
<path d="M157.381 288.867C169.119 279.821 179.915 269.645 189.765 258.574C180.871 270.45 169.854 280.821 157.381 288.867Z" fill="#263238"/>
<path d="M184.31 257.769C177.272 267.192 168.59 275.465 158.741 281.904C167.837 274.469 176.329 266.388 184.31 257.769Z" fill="#263238"/>
<path d="M159.575 273.918C164.696 269.622 172.311 263.054 177.377 258.559C172.395 264.654 166.335 269.883 159.575 273.918Z" fill="#263238"/>
<path d="M156.138 340.575C150.632 336.863 145.767 332.149 141.994 326.68C146.571 331.169 151.594 336.052 156.138 340.575Z" fill="#263238"/>
<path d="M156.138 333.422C149.203 328.519 143.083 322.318 138.512 315.138C143.993 321.444 150.089 327.633 156.138 333.422Z" fill="#263238"/>
<path d="M156.299 326.328C148.335 320.597 141.366 313.307 136.391 304.826C142.4 312.57 149.148 319.635 156.299 326.328Z" fill="#263238"/>
<path d="M156.299 319.175C147.926 313.066 140.57 305.325 135.469 296.268C141.606 304.621 148.729 312.116 156.299 319.175Z" fill="#263238"/>
<path d="M156.299 311.628C147.978 305.559 140.6 297.82 135.513 288.795C141.643 297.116 148.75 304.588 156.299 311.628Z" fill="#263238"/>
<path d="M156.898 303.758C148.903 297.971 141.492 290.269 136.493 281.496C142.563 289.554 149.59 296.905 156.898 303.758Z" fill="#263238"/>
<path d="M138.278 275.22C143.723 282.765 150.15 289.461 156.898 295.845C149.327 290.432 142.672 283.466 138.278 275.22Z" fill="#263238"/>
<path d="M157.936 289.511C150.793 284.437 144.662 277.646 141.042 269.618C145.761 276.996 151.617 283.477 157.936 289.511Z" fill="#263238"/>
<path d="M158.741 283.133C152.752 278.467 147.758 272.284 144.874 265.214C148.876 271.667 153.615 277.547 158.741 283.133Z" fill="#263238"/>
<path d="M160.716 275.264C156.668 272.372 152.655 267.936 150.257 263.123C153.725 267.197 157.501 271.489 160.716 275.264Z" fill="#263238"/>
<path d="M157.259 535.12H156.536C154.318 535.12 152.43 533.535 152.045 531.35L139.512 460.171L141.928 459.744L154.462 530.925C154.64 531.934 155.512 532.667 156.536 532.667H157.259C158.283 532.667 159.155 531.934 159.333 530.926L171.868 459.744L174.284 460.171L161.75 531.352C161.366 533.535 159.477 535.12 157.259 535.12Z" fill="#263238"/>
<path d="M215.408 412.185L203.003 472.783C202.434 475.563 200.916 477.948 198.805 479.382L186.852 487.499C185.494 488.422 183.95 488.908 182.38 488.908H131.428C129.859 488.908 128.317 488.423 126.96 487.502L114.993 479.383C112.881 477.949 111.362 475.564 110.793 472.782L98.3879 412.186H215.408V412.185Z" fill="#0A66C2"/>
<path opacity="0.4" d="M211.352 431.994L209.573 440.704L104.933 444.139L104.037 439.735L211.352 431.994Z" fill="white"/>
<path opacity="0.4" d="M213.585 421.101L212.652 425.652L102.773 433.577L100.982 424.818L213.585 421.101Z" fill="white"/>
<path opacity="0.4" d="M208.273 447.022L207.304 451.782L107.963 458.933L106.208 450.395L208.273 447.022Z" fill="white"/>
<path opacity="0.1" d="M215.403 412.187L202.999 472.79C202.429 475.568 200.923 477.953 198.801 479.386L186.851 487.504C185.49 488.426 183.954 488.909 182.374 488.909H131.427C129.861 488.909 128.311 488.427 126.965 487.504L114.999 479.386C113.317 478.245 112.001 476.504 111.269 474.442C117.324 476.417 125.062 478.742 128.28 478.932C133.941 479.253 162.517 478.932 167.767 478.932C170.531 478.932 182.636 467.903 186.175 465.299C188.822 463.353 195.434 429.199 198.578 412.186H215.403V412.187Z" fill="black"/>
<path d="M104.106 534.959C102.815 534.959 101.581 534.41 100.717 533.451C99.8537 532.492 99.4366 531.206 99.5716 529.922L106.966 459.67L109.406 459.926L102.012 530.179C101.948 530.78 102.137 531.36 102.541 531.809C102.946 532.258 103.502 532.506 104.107 532.506C104.926 532.506 105.677 532.024 106.021 531.28L139.177 459.283L141.405 460.309L108.248 532.305C107.506 533.918 105.881 534.959 104.106 534.959Z" fill="#263238"/>
<path d="M209.691 534.959C207.917 534.959 206.292 533.918 205.548 532.307L172.392 460.31L174.62 459.284L207.776 531.282C208.12 532.025 208.872 532.507 209.691 532.507C210.295 532.507 210.85 532.259 211.255 531.812C211.66 531.361 211.848 530.781 211.786 530.18L204.392 459.927L206.83 459.671L214.225 529.924C214.36 531.208 213.941 532.495 213.077 533.453C212.214 534.409 210.98 534.959 209.691 534.959Z" fill="#263238"/>
<path d="M207.521 458.569H106.276V461.023H207.521V458.569Z" fill="#263238"/>
</svg>
