<svg width="40" height="40" viewBox="0 0 40 40" fill="none" xmlns="http://www.w3.org/2000/svg">
<path d="M40 20C40 24.8302 38.2901 29.2593 35.4383 32.713C33.8241 34.6759 31.8395 36.3241 29.5926 37.5556C29.1667 37.7901 28.7284 38.0093 28.2809 38.213C25.7593 39.3611 22.9537 40 20 40C17.0463 40 14.2407 39.3611 11.7191 38.213C11.2716 38.0093 10.8333 37.7901 10.4074 37.5556C8.16049 36.3241 6.17593 34.6759 4.56173 32.713C1.70988 29.2593 0 24.8302 0 20C0 8.95371 8.95371 0 20 0C31.0463 0 40 8.95371 40 20Z" fill="#D7EAF1"/>
<path d="M35.4383 32.713C33.8241 34.6759 31.8395 36.3241 29.5926 37.5556C29.1667 37.7901 28.7284 38.0093 28.2809 38.213C25.7593 39.3611 22.9537 40 20 40C17.0463 40 14.2408 39.3611 11.7192 38.213C11.2716 38.0093 10.8334 37.7901 10.4074 37.5556C8.16053 36.3241 6.17597 34.6759 4.56177 32.713C5.17597 31.1173 6.51547 29.8796 8.20374 29.4136L12.997 28.0895L14.6791 27.6235L16.2192 27.1975L16.4013 26.1728H23.5988L23.6358 26.3827L23.7809 27.1975L25.321 27.6235L27.0031 28.0895L31.7963 29.4136C33.4846 29.8796 34.8241 31.1173 35.4383 32.713Z" fill="#0C415B"/>
<path d="M23.5981 26.1728H16.4018L16.2191 27.1975L14.679 27.6235L14.7253 27.7037C15.0709 29.7654 16.9629 31.0278 19.7715 31.0278C19.8672 31.0278 19.9444 31.0278 19.9999 31.0247C20.0555 31.0278 20.1327 31.0278 20.2283 31.0278C23.0339 31.0278 24.929 29.7654 25.2746 27.7037L25.3209 27.6235L23.7808 27.1975L23.5981 26.1728Z" fill="#1D627D"/>
<path d="M23.781 27.1975C23.6112 29.7068 20.0001 29.4784 20.0001 29.4784C20.0001 29.4784 16.389 29.7068 16.2192 27.1975L16.8766 23.5185L17.21 21.642L20.0001 22.7346L22.7902 21.642L23.6359 26.3827L23.781 27.1975Z" fill="#F69779"/>
<path d="M23.6357 26.3827C22.7005 26.6852 21.9968 26.6852 21.9968 26.6852C21.9968 26.6852 18.6265 26.6852 16.8765 23.5185L17.2098 21.642L19.9999 22.7346L22.79 21.642L23.6357 26.3827Z" fill="#F37A67"/>
<path d="M26.6482 12.5154C26.6482 12.5154 28.8735 16.9907 28.3334 18.3796C27.7933 19.7685 23.8581 20.6463 23.7809 20.516C23.7037 20.3858 24.9053 12.5154 24.9053 12.5154H26.6482Z" fill="#051733"/>
<path d="M27.2161 17.037C26.9353 17.4506 26.5186 17.7623 26.0309 17.8735C26.0248 17.9074 26.0217 17.9414 26.0155 17.9722C25.1143 23.892 20.0001 23.892 20.0001 23.892C20.0001 23.892 14.8859 23.892 13.9846 17.9722C13.9785 17.9414 13.9754 17.9074 13.9692 17.8735C13.4815 17.7623 13.0649 17.4506 12.784 17.037C12.5032 16.6235 12.3859 16.1049 12.4599 15.608C12.497 15.3642 12.5896 15.1142 12.7778 14.9506C12.9476 14.8025 13.1791 14.7407 13.4044 14.75C13.6204 14.7593 13.8272 14.8302 14.0217 14.9228C14.0309 14.9259 14.0402 14.9321 14.0494 14.9352C14.0494 14.9352 14.0494 14.9167 14.0494 14.8827C14.0587 14.3025 14.1822 9.24074 16.0865 9.17901C17.4075 9.11111 17.997 9.50926 20.0001 9.50926C22.0032 9.50926 22.5927 9.11111 23.9136 9.17901C25.818 9.24074 25.9414 14.3056 25.9507 14.8827C25.9507 14.9167 25.9507 14.9352 25.9507 14.9352C25.9599 14.9321 25.9692 14.9259 25.9785 14.9228C26.1729 14.8302 26.3797 14.7593 26.5957 14.75C26.8211 14.7407 27.0525 14.8025 27.2223 14.9506C27.4106 15.1142 27.5032 15.3642 27.5402 15.608C27.6143 16.1049 27.497 16.6235 27.2161 17.037Z" fill="#F69779"/>
<path d="M26.6483 13.8472L25.8705 16.5318C25.8705 16.5318 24.9628 16.2364 24.8782 14.8228C24.8606 14.5299 24.806 14.2401 24.6924 13.9694L24.5245 13.5691C24.3862 13.2395 24.3149 12.8855 24.3149 12.5281V10.8228L26.3023 12.4648L26.6483 13.8472Z" fill="#E44424"/>
<path d="M13.3518 13.8472L14.1296 16.5318C14.1296 16.5318 15.0373 16.2364 15.1219 14.8228C15.1395 14.5299 15.1941 14.2401 15.3077 13.9694L15.4756 13.5691C15.6138 13.2395 15.6851 12.8855 15.6851 12.5281V10.8228L13.6978 12.4648L13.3518 13.8472Z" fill="#E44424"/>
<path d="M19.9999 7.13982C20.5113 7.13982 20.9258 6.72526 20.9258 6.21389C20.9258 5.70252 20.5113 5.28796 19.9999 5.28796C19.4885 5.28796 19.074 5.70252 19.074 6.21389C19.074 6.72526 19.4885 7.13982 19.9999 7.13982Z" fill="#3537A1"/>
<path d="M27.1296 14.8827H26.3487C26.1265 14.2191 25.8179 13.4753 25.4814 12.9383C25.432 12.858 25.3796 12.784 25.3302 12.713C24.2746 12.1698 22.824 11.8673 21.7037 11.7037C20.574 11.5401 19.4259 11.5401 18.2962 11.7037C17.1759 11.8673 15.7253 12.1698 14.6697 12.713C14.2746 13.2562 13.9074 14.1204 13.6512 14.8827H12.8703C12.8703 14.8827 12.4228 10.3395 13.9475 8.51853C13.9475 8.51853 15.9382 6.35803 19.9999 6.36112C24.0617 6.35803 26.0524 8.51853 26.0524 8.51853C27.5771 10.3395 27.1296 14.8827 27.1296 14.8827Z" fill="#3537A1"/>
<path d="M26.0524 8.51853L25.4815 12.9383C25.4321 12.858 25.3796 12.784 25.3302 12.713C24.2747 12.1698 22.8241 11.8673 21.7037 11.7037C20.5741 11.5401 19.4259 11.5401 18.2963 11.7037C17.1759 11.8673 15.7253 12.1698 14.6697 12.713L13.9475 8.51853C13.9475 8.51853 15.9383 6.35803 20 6.36112C24.0617 6.35803 26.0524 8.51853 26.0524 8.51853Z" fill="#4749D6"/>
<path d="M20.9003 10.7407H19.1C18.7589 10.7407 18.4827 10.4645 18.4827 10.1235C18.4827 9.78241 18.7589 9.50618 19.1 9.50618H20.9003C21.2413 9.50618 21.5175 9.78241 21.5175 10.1235C21.5175 10.4645 21.241 10.7407 20.9003 10.7407Z" fill="#E44424"/>
<path d="M11.7192 38.213C11.2717 38.0093 10.8334 37.7901 10.4075 37.5556L11.4075 34.7932L11.7192 38.213Z" fill="#051733"/>
<path d="M29.5925 37.5556C29.1666 37.7901 28.7283 38.0093 28.2808 38.213L28.5925 34.7932L29.5925 37.5556Z" fill="#051733"/>
<path d="M19.7102 15.588V19.1191H20.3087C21.3343 19.1188 19.9006 15.9935 19.7102 15.588Z" fill="#F37A67"/>
<path d="M24.0611 14.212C23.234 13.8034 22.3148 13.7429 21.4525 14.0855C21.0874 14.2309 21.2463 14.8281 21.6167 14.6809C22.3232 14.4 23.063 14.4059 23.7497 14.7451C24.1053 14.9207 24.4179 14.3883 24.0611 14.212Z" fill="#E44424"/>
<path d="M22.7344 16.1701C23.0559 16.1701 23.3165 15.9094 23.3165 15.588C23.3165 15.2665 23.0559 15.0059 22.7344 15.0059C22.413 15.0059 22.1523 15.2665 22.1523 15.588C22.1523 15.9094 22.413 16.1701 22.7344 16.1701Z" fill="#051733"/>
<path d="M15.939 14.212C16.7661 13.8034 17.6856 13.7429 18.5476 14.0855C18.9127 14.2309 18.7538 14.8281 18.3834 14.6809C17.6769 14.4 16.9371 14.4059 16.2504 14.7451C15.8948 14.9207 15.5822 14.3883 15.939 14.212Z" fill="#E44424"/>
<path d="M17.2657 16.1701C17.5872 16.1701 17.8478 15.9094 17.8478 15.588C17.8478 15.2665 17.5872 15.0059 17.2657 15.0059C16.9442 15.0059 16.6836 15.2665 16.6836 15.588C16.6836 15.9094 16.9442 16.1701 17.2657 16.1701Z" fill="#051733"/>
<path d="M18.103 20.5614C18.3083 21.3275 19.0783 21.8978 19.9999 21.8978C20.9212 21.8978 21.6916 21.3275 21.8969 20.5614H18.103Z" fill="white"/>
</svg>
