<svg width="40" height="40" viewBox="0 0 40 40" fill="none" xmlns="http://www.w3.org/2000/svg">
<path d="M36.3138 23.6863C38.3496 14.6764 32.6961 5.72212 23.6862 3.68627C14.6764 1.65042 5.72209 7.30396 3.68624 16.3138C1.65038 25.3236 7.30392 34.2779 16.3138 36.3138C25.3236 38.3497 34.2779 32.6961 36.3138 23.6863Z" fill="#A8527E"/>
<mask id="mask0_9_1807" style="mask-type:luminance" maskUnits="userSpaceOnUse" x="3" y="3" width="34" height="34">
<path d="M36.3138 23.6863C38.3496 14.6764 32.6961 5.72212 23.6862 3.68627C14.6764 1.65042 5.72209 7.30396 3.68624 16.3138C1.65038 25.3236 7.30392 34.2779 16.3138 36.3138C25.3236 38.3497 34.2779 32.6961 36.3138 23.6863Z" fill="white"/>
</mask>
<g mask="url(#mask0_9_1807)">
<path d="M16.6641 5.76218C16.6641 5.76218 19.0135 2.58309 23.1761 4.70436C27.7399 7.03003 25.2737 12.0432 25.2737 12.0432L15.4661 10.1852L16.6641 5.76218Z" fill="#1E0B02"/>
<path d="M14.7026 12.0677C14.7026 12.0677 12.137 7.03006 16.6641 5.76221L17.4779 8.46415L14.7026 12.0677Z" fill="#1E0B02"/>
<path d="M16.8777 14.3928C16.9061 15.3989 16.1136 16.2378 15.1076 16.2662C14.1015 16.2946 13.2626 15.5021 13.2342 14.4961C13.2058 13.49 13.9983 12.6511 15.0046 12.6227C16.0104 12.594 16.8493 13.3868 16.8777 14.3928Z" fill="#E8B499"/>
<path d="M14.0211 14.1881C14.0211 14.1881 14.7458 13.8352 15.4365 15.0942" stroke="#C47268" stroke-width="0.6887" stroke-miterlimit="10" stroke-linecap="round" stroke-linejoin="round"/>
<path d="M23.5317 14.4443C23.5317 15.451 24.3476 16.2668 25.3542 16.2668C26.3609 16.2668 27.1767 15.451 27.1767 14.4443C27.1767 13.4377 26.3609 12.6218 25.3542 12.6218C24.3479 12.6218 23.5317 13.4377 23.5317 14.4443Z" fill="#E8B499"/>
<path d="M26.3813 14.1588C26.3813 14.1588 25.6468 13.8263 24.9921 15.1045" stroke="#C47268" stroke-width="0.6887" stroke-miterlimit="10" stroke-linecap="round" stroke-linejoin="round"/>
<path d="M22.5431 18.6439C22.5431 18.6439 21.5155 19.3689 20.5792 19.5479C19.643 19.7268 18.7325 19.1834 18.7209 19.1766C18.7094 19.1701 17.6276 18.5477 17.6276 18.5477L17.1797 24.5465L17.301 24.6465C18.8887 25.956 21.1774 25.9717 22.7827 24.6838L23.0176 24.4953L22.5431 18.6439Z" fill="#E8B499"/>
<path d="M17.1797 17.9171C17.1797 17.9171 18.2009 21.2598 20.5508 21.2228C22.4825 21.1923 22.794 17.9171 22.794 17.9171H17.1797Z" fill="#1E0B02"/>
<path d="M25.1262 11.2714C25.1365 13.3315 24.8514 15.1108 24.5641 16.3739C24.2828 17.6107 23.1948 18.478 22.0547 19.1785L21.8471 19.306C20.6408 20.0473 19.6433 20.0724 18.4109 19.3702C17.1682 18.662 16.0128 17.7243 15.7392 16.3999C15.2413 13.9914 15.1748 11.3214 15.1748 11.3214C15.1748 11.3214 14.4752 5.74892 19.8424 5.82287C25.2096 5.89742 25.1262 11.2714 25.1262 11.2714Z" fill="#E8B499"/>
<path d="M18.2695 12.9061C18.2695 13.146 18.0752 13.3403 17.8353 13.3403C17.5954 13.3403 17.401 13.146 17.401 12.9061C17.401 12.6662 17.5956 12.4718 17.8353 12.4718C18.0749 12.4718 18.2695 12.6662 18.2695 12.9061Z" fill="#1E0B02"/>
<path d="M22.531 12.9061C22.531 13.146 22.3366 13.3403 22.0967 13.3403C21.8568 13.3403 21.6625 13.146 21.6625 12.9061C21.6625 12.6662 21.8571 12.4718 22.0967 12.4718C22.3366 12.4718 22.531 12.6662 22.531 12.9061Z" fill="#1E0B02"/>
<path d="M19.572 14.0422V14.7383H20.1355" stroke="#C47268" stroke-width="0.6887" stroke-miterlimit="10" stroke-linecap="round" stroke-linejoin="round"/>
<path d="M16.2169 11.0703L19.0546 10.8144C19.0546 10.8144 18.8005 10.079 17.653 10.1983C16.4792 10.3204 16.2169 11.0703 16.2169 11.0703Z" fill="black"/>
<path d="M23.5317 11.0703L20.694 10.8144C20.694 10.8144 20.9481 10.079 22.0955 10.1983C23.2693 10.3204 23.5317 11.0703 23.5317 11.0703Z" fill="black"/>
<path d="M18.6005 15.7302H21.4001C21.4001 15.7302 21.2685 16.5878 19.9589 16.5878C18.649 16.5881 18.6005 15.7302 18.6005 15.7302Z" fill="white"/>
<path d="M15.3572 13.9589C15.3572 13.9589 15.5676 7.13302 15.4803 6.93896C15.4803 6.93896 13.06 9.17501 15.3572 13.9589Z" fill="#1E0B02"/>
<path d="M24.9238 13.9104L24.5605 6.49915C24.5605 6.49915 26.8877 8.81151 24.9238 13.9104Z" fill="#1E0B02"/>
<path d="M17.6031 6.33435C17.6031 6.33435 15.9379 6.78546 15.9947 8.42042C16.0515 10.0554 14.9458 11.6622 14.9458 11.6622L14.4408 10.0284C14.4408 10.0284 14.051 6.98366 17.6031 6.33435Z" fill="#1E0B02"/>
<path d="M17.183 6.46945C17.183 6.46945 18.4298 5.76216 19.6675 7.31843C20.7245 8.64751 23.5116 10.0162 25.1616 8.71348C25.1616 8.71348 24.1106 4.95164 20.0098 5.02825C15.9089 5.10487 17.183 6.46945 17.183 6.46945Z" fill="#1E0B02"/>
<path d="M34.1525 37.1935H5.93207C6.44678 35.0578 6.97628 33.1587 7.49987 31.6796C8.2749 29.4965 9.39011 28.2186 10.313 27.4909C11.233 26.7602 11.9607 26.5768 11.9607 26.5768L13.919 25.7574L26.3076 25.7693L28.1239 26.5768C28.1239 26.5768 31.0347 27.3105 32.5847 31.6796C33.1083 33.1587 33.6378 35.0578 34.1525 37.1935Z" fill="#EF758D"/>
<path d="M20.2627 23.1482L26.3088 25.7691C26.3088 25.7691 20.0967 31.383 13.9196 25.7567L20.2627 23.1482Z" fill="#E8B499"/>
<path d="M13.9196 25.7566C13.9196 25.7566 16.0719 28.3032 20.0985 28.3032C24.1251 28.3032 26.3088 25.7693 26.3088 25.7693" stroke="white" stroke-width="1.9384" stroke-miterlimit="10"/>
</g>
</svg>
