<svg width="412" height="384" viewBox="0 0 412 384" fill="none" xmlns="http://www.w3.org/2000/svg">
<path d="M188.023 358.071L223.344 358.729L222.998 262.463L189.705 261.983C188.59 301.269 187.612 343.287 188.023 358.071Z" fill="#210028"/>
<path d="M219.187 183.562C214.047 184.911 212.044 186.589 205.822 188.694C205.822 188.694 198.582 186.102 192.171 183.159C191.938 189.968 187.45 231.505 186.394 268.74L225.249 269.783L222.152 183.063L219.187 183.562Z" fill="#E9EFF4"/>
<path d="M198.791 178.183C197.205 183.372 194.842 188.318 194.256 195.026C193.756 200.752 199.02 204.487 204.827 204.809C212.11 205.213 217.742 202.209 218.492 196.954C218.79 194.864 217.087 178.507 215.907 178.486L198.791 178.183Z" fill="#BA825B"/>
<path d="M198.771 178.247C197.921 181.008 196.603 185.258 195.593 188.319C197.886 190.784 200.976 192.037 204.565 192.542C209.001 193.165 213.622 191.848 217.743 188.695C216.876 179.067 216.43 176.087 215.909 178.486C215.909 178.488 200.318 178.211 198.906 178.186L198.771 178.247Z" fill="#916241"/>
<path d="M174.15 82.355C174.667 83.259 174.824 51.372 174.824 51.372L182.801 43.354C182.801 43.354 180.104 39.778 175.795 42.702C172.49 44.944 171.274 45.286 171.274 45.286L146.573 61.946C146.573 61.946 143.4 76.376 140.627 87.055L174.15 82.355Z" fill="#BA825B"/>
<path d="M141.834 82.289L174.384 80.276C174.538 77.045 174.645 70.587 174.714 64.582L142.38 80.064C142.198 80.807 142.016 81.55 141.834 82.289Z" fill="#916241"/>
<path d="M180.662 31.711L177.813 15.369L175.99 20.081L170.64 15.988L173.398 32.006L180.662 31.711Z" fill="#CFDAE2"/>
<path d="M177.663 29.756L162.768 17.854L165.282 25.543L159.497 26.122L173.338 35.522L177.663 29.756Z" fill="#CFDAE2"/>
<path d="M225.714 9.186L139.549 67.053C139.549 67.053 132.5 64.707 133.995 56.597L216.85 0C216.85 0 225.612 1.033 225.714 9.186Z" fill="#0A66C2"/>
<path d="M177.166 26.747L184.989 37.141L177.381 42.431L170.323 31.647L177.166 26.747Z" fill="#E9EFF4"/>
<path d="M161.562 33.754C163.33 32.919 165.393 34.085 165.59 36.03L166.014 40.212C166.135 41.403 165.461 42.505 164.383 42.877C163.043 43.34 161.575 42.522 161.171 41.086L160.045 37.083C159.67 35.752 160.312 34.344 161.562 33.754Z" fill="#BA825B"/>
<path d="M156.829 37.447C158.597 36.612 160.66 37.778 160.857 39.723L161.281 43.905C161.402 45.096 160.728 46.198 159.65 46.57C158.31 47.033 156.842 46.215 156.438 44.779L155.311 40.777C154.937 39.445 155.578 38.038 156.829 37.447Z" fill="#BA825B"/>
<path d="M152.095 41.141C153.864 40.306 155.926 41.472 156.123 43.417L156.547 47.599C156.668 48.79 155.994 49.892 154.916 50.264C153.576 50.727 152.108 49.909 151.704 48.473L150.578 44.47C150.203 43.139 150.845 41.731 152.095 41.141Z" fill="#BA825B"/>
<path d="M147.362 44.835C149.13 44 151.193 45.166 151.39 47.111L151.814 51.293C151.935 52.484 151.261 53.586 150.183 53.958C148.843 54.421 147.375 53.603 146.971 52.167L145.845 48.164C145.47 46.833 146.111 45.425 147.362 44.835Z" fill="#BA825B"/>
<path d="M192.172 183.159C184.406 179.594 172.483 175.515 157.676 174.898L148.291 305.448L144.161 357.255L188.023 358.072C187.222 329.275 191.693 197.152 192.172 183.159Z" fill="#2B3038"/>
<path d="M196.344 184.565C196.344 184.565 193.904 203.899 192.027 226.423C190.15 248.948 189.775 330.037 189.775 330.037L181.704 326.471C181.704 326.471 181.329 250.262 182.079 225.86C182.83 201.458 192.173 183.159 192.173 183.159L196.344 184.565Z" fill="#0A66C2"/>
<path d="M185.457 183.063L181.977 127.01C181.92 126.088 181.92 125.163 181.979 124.241L185.082 75.32C168.518 75.536 152.602 77.232 137.405 80.576C137.405 80.576 135.152 150.027 135.528 168.047C135.903 186.067 146.415 213.847 153.548 226.611L165.937 217.976L185.457 183.063Z" fill="#2B3038"/>
<path d="M285.436 45.593C285.477 44.844 285.048 44.148 284.361 43.847C283.372 43.414 282.227 43.944 281.917 44.978L280.248 50.541L280.562 41.27C280.597 40.232 279.87 39.323 278.85 39.128C277.669 38.903 276.539 39.71 276.369 40.9L275.179 49.226L274.263 39.458C274.141 38.16 273.103 37.139 271.804 37.039C270.345 36.927 269.066 38.008 268.933 39.465L268.233 47.16L267.165 38.614C267.022 37.467 266.097 36.577 264.945 36.476C263.635 36.362 262.469 37.302 262.302 38.605L260.563 52.144C259.95 51.645 259.15 50.947 258.118 49.952C254.368 46.339 251.103 49.404 251.103 49.404L257.602 58.661C257.602 58.661 252.339 90.111 253.002 89.308L285.238 99.635C284.549 91.374 285.359 75.84 285.127 71.185L285.436 45.593Z" fill="#BA825B"/>
<path d="M285.988 87.98L254.254 80.466C254.651 77.256 255.643 70.874 256.595 64.944L285.829 85.695C285.88 86.458 285.934 87.221 285.988 87.98Z" fill="#916241"/>
<path d="M223.344 358.729L285.317 359.883L257.537 178.559C257.537 178.559 248.468 175.953 222.436 182.782H221.591L223.344 358.729Z" fill="#2B3038"/>
<path d="M217.367 184.189C217.367 184.189 219.338 200.519 221.309 224.452C223.28 248.385 221.309 304.133 221.309 304.133L221.591 341.299L233.135 339.891C233.135 339.891 232.009 295.686 231.727 262.744C231.445 229.801 230.601 216.005 228.911 203.617C227.222 191.228 221.59 183.063 221.59 183.063L217.367 184.189Z" fill="#0A66C2"/>
<path d="M233.51 185.315C233.51 185.315 244.772 124.123 244.772 122.621C244.772 121.119 246.649 72.316 246.649 72.316C246.649 72.316 280.999 76.633 294.514 83.954C294.514 83.954 290.009 136.324 287.944 159.787C286.527 175.885 277.808 212.345 257.536 224.734L233.51 185.315Z" fill="#2B3038"/>
<path d="M203.242 180.65L168.939 164.961C168.939 164.961 202.711 144.485 210.422 141.56C210.422 141.56 239.141 161.238 245.523 166.822L209.89 181.182L203.242 180.65Z" fill="#090909"/>
<path d="M228.315 170.035L227.583 169.874C229.501 161.15 224.576 151.459 224.526 151.362L225.192 151.018C225.243 151.117 230.291 161.043 228.315 170.035Z" fill="#0A66C2"/>
<path d="M225.643 172.915C225.63 174.337 225.953 175.739 226.121 177.151C226.289 178.563 226.289 180.054 225.674 181.337C226.215 181.274 226.77 181.345 227.278 181.541C227.438 180.183 227.371 178.799 227.081 177.464C228.099 178.543 228.491 180.174 228.074 181.597C228.466 181.56 228.858 181.523 229.249 181.486C229.641 181.449 229.896 177.504 229.917 177.071C229.994 175.499 229.905 173.919 229.65 172.366C229.47 171.272 229.39 169.414 227.904 169.505C226.21 169.608 225.656 171.522 225.643 172.915Z" fill="#0A66C2"/>
<path d="M195.774 175.284C195.218 180.84 199.619 185.644 205.202 185.576L208.74 185.533C213.374 185.477 217.27 182.039 217.902 177.447L217.601 163.63L197.923 162.566L195.774 175.284Z" fill="#BA825B"/>
<path d="M196.813 168.985C196.813 168.985 192.308 167.296 192.59 172.927C192.775 176.626 195.969 176.587 195.969 176.587L196.813 168.985Z" fill="#BA825B"/>
<path d="M195.53 162.036L194.466 168.684H197.391C197.391 168.684 199.784 164.163 201.912 162.568L195.53 162.036Z" fill="#210028"/>
<path d="M214.41 162.568C214.41 162.568 215.474 168.152 217.069 169.216C217.069 169.216 218.664 168.95 219.462 169.216L219.728 162.834L214.41 162.568Z" fill="#210028"/>
<path d="M217.07 169.216C217.07 169.216 219.995 168.684 220.793 171.343C221.591 174.002 218.434 177.448 217.07 176.129C215.705 174.811 217.07 169.216 217.07 169.216Z" fill="#BA825B"/>
<path d="M197.076 165.163C198.295 164.83 204.799 163.413 219.994 166.025L220.26 158.845C220.26 158.845 206.088 155.814 194.654 158.473V165.793L196.503 165.277C196.696 165.25 196.888 165.214 197.076 165.163Z" fill="#333842"/>
<path d="M203.149 171.307C203.149 171.787 202.76 172.176 202.28 172.176C201.8 172.176 201.411 171.787 201.411 171.307C201.411 170.827 201.8 170.438 202.28 170.438C202.76 170.438 203.149 170.827 203.149 171.307Z" fill="#090909"/>
<path d="M211.172 172.176C211.652 172.176 212.041 171.787 212.041 171.307C212.041 170.827 211.652 170.438 211.172 170.438C210.692 170.438 210.303 170.827 210.303 171.307C210.303 171.787 210.692 172.176 211.172 172.176Z" fill="#090909"/>
<path d="M203.664 168.171C203.589 168.171 203.513 168.154 203.441 168.118C201.836 167.316 200.4 168.077 200.339 168.109C200.098 168.243 199.793 168.153 199.661 167.911C199.528 167.67 199.615 167.368 199.855 167.234C199.934 167.191 201.797 166.179 203.888 167.224C204.135 167.348 204.235 167.648 204.112 167.895C204.024 168.07 203.847 168.171 203.664 168.171Z" fill="#090909"/>
<path d="M213.049 168.171C212.974 168.171 212.898 168.154 212.825 168.118C211.204 167.307 209.74 168.1 209.725 168.108C209.485 168.241 209.179 168.156 209.044 167.914C208.91 167.673 208.997 167.368 209.238 167.234C209.316 167.191 211.186 166.181 213.271 167.224C213.518 167.348 213.618 167.648 213.495 167.895C213.408 168.07 213.232 168.171 213.049 168.171Z" fill="#090909"/>
<path d="M208.357 176.868C208.172 176.868 208.011 176.732 207.986 176.544L207.235 171.101C207.207 170.896 207.349 170.706 207.555 170.678C207.76 170.654 207.949 170.794 207.977 170.998L208.728 176.441C208.756 176.646 208.614 176.836 208.408 176.864C208.391 176.867 208.373 176.868 208.357 176.868Z" fill="#090909"/>
<path d="M196.907 174.241L217.367 174.053C217.367 174.053 217.26 178.778 216.314 182.136C215.875 183.695 214.427 184.752 212.807 184.752H201.007C199.282 184.752 197.776 183.55 197.431 181.86C197.052 180.004 196.718 177.36 196.907 174.241Z" fill="#E9EFF4"/>
<path d="M197.375 175.397C197.12 175.397 196.902 175.203 196.878 174.944L196.315 169.031C196.289 168.756 196.49 168.512 196.765 168.486C197.045 168.451 197.284 168.662 197.31 168.936L197.873 174.849C197.899 175.124 197.698 175.368 197.423 175.394C197.407 175.397 197.391 175.397 197.375 175.397Z" fill="#E9EFF4"/>
<path d="M216.662 176.383C216.624 176.383 216.585 176.379 216.546 176.369C216.277 176.305 216.111 176.034 216.176 175.766L217.865 168.727C217.93 168.459 218.196 168.291 218.468 168.357C218.737 168.421 218.903 168.692 218.838 168.96L217.149 175.999C217.094 176.229 216.889 176.383 216.662 176.383Z" fill="#E9EFF4"/>
<path d="M124.757 238.868H121.919C121.919 238.868 123.338 247.027 113.405 251.993C103.472 256.959 85.381 264.054 90.702 290.304H162.713C162.713 290.304 169.538 287.844 168.034 268.665C166.615 250.573 159.166 248.8 157.747 233.546L124.757 238.868Z" fill="#210028"/>
<path d="M153.386 287.672L111.297 284.866L99.7689 384.158H145.034C147.147 364.152 152.096 315.585 153.386 287.672Z" fill="#E9EFF4"/>
<path d="M129.802 252.013L115.161 285.8C115.161 285.8 111.761 313.179 127.55 313.956C150.45 315.082 150.075 287.677 150.075 287.677V257.644L129.802 252.013Z" fill="#E1C4B2"/>
<path d="M124.583 264.585C127.833 269.646 135.149 276.548 150.074 273.596V257.643L129.802 252.012L124.583 264.585Z" fill="#BF8E88"/>
<path d="M70.7619 126.343C71.3929 127.318 69.6009 91.818 69.6009 91.818L77.9849 82.402C77.9849 82.402 74.7629 78.589 70.1469 82.108C66.6069 84.807 65.2749 85.263 65.2749 85.263L38.8109 105.329C38.8109 105.329 36.1689 121.585 33.7419 133.641L70.7619 126.343Z" fill="#E1C4B2"/>
<path d="M34.7899 128.263L70.8929 124.016C70.8659 120.411 70.5859 113.217 70.2919 106.528L35.2599 125.752C35.1049 126.591 34.9479 127.429 34.7899 128.263Z" fill="#BF8E88"/>
<path d="M74.886 69.576L70.707 51.564L68.969 56.92L62.762 52.695L66.82 70.352L74.886 69.576Z" fill="#CFDAE2"/>
<path d="M71.4279 67.585L54.1159 55.257L57.3879 63.66L50.9849 64.66L66.9689 74.269L71.4279 67.585Z" fill="#CFDAE2"/>
<path d="M123.639 41.728L31.3079 111.447C31.3079 111.447 23.318 109.271 24.482 100.152L113.207 32.051C113.207 32.051 123.022 32.66 123.639 41.728Z" fill="#0A66C2"/>
<path d="M70.6889 64.267L80.0369 75.352L71.8959 81.709L63.3749 70.142L70.6889 64.267Z" fill="#E9EFF4"/>
<path d="M53.7539 73.027C55.6709 71.989 58.0379 73.159 58.3779 75.312L59.1069 79.94C59.3149 81.258 58.6329 82.526 57.4559 83.007C55.9929 83.605 54.3089 82.785 53.7709 81.212L52.2709 76.827C51.7719 75.367 52.3989 73.762 53.7539 73.027Z" fill="#E1C4B2"/>
<path d="M48.7139 77.43C50.6309 76.392 52.9979 77.562 53.3379 79.715L54.0669 84.343C54.2749 85.661 53.5929 86.929 52.4159 87.41C50.9529 88.008 49.2689 87.188 48.7309 85.615L47.2309 81.23C46.7309 79.77 47.3579 78.164 48.7139 77.43Z" fill="#E1C4B2"/>
<path d="M43.6739 81.833C45.5909 80.795 47.9579 81.965 48.2969 84.118L49.0259 88.746C49.2339 90.064 48.5519 91.332 47.3749 91.813C45.9119 92.411 44.2279 91.591 43.6899 90.018L42.1899 85.633C41.6909 84.173 42.3179 82.567 43.6739 81.833Z" fill="#E1C4B2"/>
<path d="M38.6329 86.236C40.5499 85.198 42.9169 86.368 43.2559 88.521L43.9849 93.149C44.1929 94.468 43.5109 95.735 42.3339 96.216C40.8709 96.814 39.1869 95.994 38.6489 94.421L37.1479 90.036C36.6499 88.576 37.2779 86.97 38.6329 86.236Z" fill="#E1C4B2"/>
<path d="M96.765 285.424L84.752 218.6L94.1369 115.362L21.682 128.501C21.682 128.501 14.174 218.975 13.423 257.268C12.672 295.56 33.32 347.367 33.32 347.367L96.765 285.424Z" fill="#333842"/>
<path d="M171.901 288.907C171.901 288.907 178.98 286.926 192.12 309.451C205.259 331.976 230.788 384.158 230.788 384.158H174.851L171.901 288.907Z" fill="#333842"/>
<path d="M185.738 384.158L182.033 299.273C181.791 293.74 177.427 289.275 171.902 288.906L153.386 287.672C152.096 315.584 147.148 364.151 145.034 384.158H185.738Z" fill="#333842"/>
<path d="M91.51 283.547L41.955 294.434L26.938 384.158H84.001H99.769L111.297 284.866L91.51 283.547Z" fill="#333842"/>
<path d="M111.297 284.866L99.769 384.158H88.882C88.882 384.158 90.008 312.83 104.649 283.923L111.297 284.866Z" fill="#0A66C2"/>
<path d="M153.386 287.672L145.034 384.158H157.958C157.958 384.158 162.463 354.5 164.34 326.344C166.217 298.188 160.961 287.677 160.961 287.677L153.386 287.672Z" fill="#0A66C2"/>
<path d="M141.075 244.899L191.447 232.838C191.447 232.838 154.895 206.839 147.446 204.711C115.16 217.475 93.1859 234.967 89.9929 239.224C117.662 244.544 141.075 244.899 141.075 244.899Z" fill="#090909"/>
<path d="M156.474 240.892L157.037 250.22C157.037 259.088 154.199 264.055 143.912 264.764L140.795 264.685C135.955 264.983 131.448 262.093 129.811 257.529C128.84 254.823 126.511 249.857 125.821 245.254L124.757 233.193L153.49 231.065L153.711 231.384C155.64 234.169 156.61 237.507 156.474 240.892Z" fill="#E1C4B2"/>
<path d="M125.821 245.254L127.24 250.22C127.24 250.22 145.509 244.722 147.637 235.144L124.757 238.869L124.402 245.432L125.821 245.254Z" fill="#210028"/>
<path d="M125.22 243.591C125.22 243.591 121.307 243.793 120.064 248.36C118.821 252.926 124.668 255.836 129.238 254.735L125.22 243.591Z" fill="#E1C4B2"/>
<path d="M122.274 240.997L158.102 237.095L156.328 225.389L120.146 228.226L122.274 240.997Z" fill="#333842"/>
<path d="M150.708 246.2C150.656 246.809 151.108 247.346 151.718 247.397C152.327 247.449 152.864 246.997 152.915 246.387C152.967 245.778 152.515 245.241 151.905 245.19C151.296 245.139 150.759 245.591 150.708 246.2Z" fill="#090909"/>
<path d="M139.738 247.558C139.686 248.168 140.138 248.704 140.748 248.755C141.358 248.807 141.894 248.355 141.945 247.745C141.997 247.135 141.545 246.599 140.935 246.548C140.325 246.496 139.789 246.948 139.738 247.558Z" fill="#090909"/>
<path d="M148.696 242.672C148.543 242.672 148.392 242.602 148.294 242.47C148.13 242.248 148.176 241.935 148.398 241.771C150.936 239.887 153.887 240.657 154.012 240.691C154.278 240.763 154.435 241.037 154.364 241.303C154.293 241.57 154.016 241.729 153.752 241.656C153.726 241.65 151.136 240.987 148.994 242.574C148.904 242.64 148.8 242.672 148.696 242.672Z" fill="#090909"/>
<path d="M136.952 243.897C136.799 243.897 136.648 243.827 136.55 243.695C136.386 243.473 136.432 243.16 136.654 242.996C139.192 241.113 142.142 241.882 142.268 241.917C142.534 241.989 142.691 242.263 142.62 242.529C142.548 242.796 142.273 242.951 142.008 242.883C141.981 242.875 139.39 242.211 137.25 243.799C137.16 243.865 137.056 243.897 136.952 243.897Z" fill="#090909"/>
<path d="M147.058 251.164C146.788 251.164 146.566 250.948 146.559 250.677C146.552 250.402 146.77 250.172 147.046 250.164L148.498 250.126L146.218 246.722C146.064 246.493 146.126 246.182 146.355 246.029C146.584 245.875 146.895 245.936 147.049 246.166L149.835 250.325C149.936 250.476 149.947 250.671 149.864 250.833C149.78 250.995 149.615 251.099 149.433 251.104L147.074 251.165C147.068 251.164 147.063 251.164 147.058 251.164Z" fill="#090909"/>
<path d="M157.552 248.373L133.959 251.347C133.959 251.347 135.487 258.841 135.196 262.873C147.67 264.021 157.294 261.404 157.294 261.404C157.294 261.404 159.601 255.888 157.552 248.373Z" fill="#E9EFF4"/>
<path d="M135.995 253.101C135.891 253.101 135.787 253.069 135.698 253.002L125.281 245.28C125.059 245.116 125.013 244.802 125.177 244.581C125.342 244.36 125.655 244.314 125.877 244.478L136.294 252.2C136.516 252.364 136.562 252.678 136.398 252.899C136.3 253.031 136.148 253.101 135.995 253.101Z" fill="#E9EFF4"/>
<path d="M135.753 262.482C135.639 262.482 135.525 262.443 135.431 262.364L127.509 255.68C127.297 255.502 127.271 255.187 127.449 254.976C127.627 254.765 127.942 254.738 128.154 254.916L136.076 261.601C136.287 261.779 136.314 262.094 136.136 262.305C136.036 262.422 135.895 262.482 135.753 262.482Z" fill="#E9EFF4"/>
<path d="M180.419 249.13L179.42 249.077C180.245 233.399 168.934 218.02 168.819 217.867L169.621 217.269C169.738 217.426 181.263 233.086 180.419 249.13Z" fill="#0A66C2"/>
<path d="M176.784 254.876C177.168 257.337 178.126 259.666 178.82 262.058C179.514 264.45 179.94 267.025 179.244 269.417C180.16 269.154 181.14 269.118 182.073 269.311C181.961 266.92 181.45 264.548 180.568 262.323C182.635 263.896 183.778 266.602 183.464 269.18C184.13 269.004 184.797 268.828 185.463 268.652C186.13 268.476 185.443 261.588 185.356 260.834C185.04 258.096 184.434 255.392 183.55 252.782C182.927 250.944 182.256 247.756 179.716 248.338C176.818 249.001 176.408 252.466 176.784 254.876Z" fill="#0A66C2"/>
<path d="M184.987 340.892C186.676 332.727 186.958 332.164 189.211 323.966C187.73 323.973 186.525 322.613 186.203 321.167C185.881 319.721 186.232 318.219 186.603 316.784C186.463 317.692 186.314 318.625 185.838 319.411C185.363 320.197 184.476 320.807 183.567 320.675C182.921 318.205 183.513 315.541 184.668 313.264C188.65 305.416 196.158 302.664 204.414 305.416C206.948 306.261 210.793 311 212.579 318.368C214.832 327.659 215.958 336.669 215.958 336.669L184.987 340.892Z" fill="#E1C4B2"/>
<path d="M212.58 318.367C212.57 318.324 212.557 318.284 212.547 318.242L185.933 336.451C185.661 337.675 185.359 339.093 184.987 340.892L215.959 336.669C215.959 336.669 214.833 327.658 212.58 318.367Z" fill="#BF8E88"/>
<path d="M170.722 339.859L223.279 327.846L230.788 384.158H174.851L170.722 339.859Z" fill="#090909"/>
<path d="M299.364 264.072L255.778 272.06C249.953 273.127 246.322 278.99 247.961 284.68L276.499 383.764L407.517 384.136L364.805 271.689C360.243 259.678 347.506 252.888 334.991 255.796L299.364 264.072Z" fill="white"/>
<path d="M282.689 250.637L288.695 272.786L301.459 270.91L317.226 263.777L302.21 235.245L282.689 250.637Z" fill="#D1A180"/>
<path d="M307.85 245.961L302.21 235.245L282.688 250.637L284.916 258.853C290.046 260.443 298.449 259.775 307.85 245.961Z" fill="#BA825B"/>
<path d="M286.067 266.029L301.084 271.285L299.582 284.424L280.436 267.906C280.436 267.906 281.938 263.026 286.067 266.029Z" fill="#E9EFF4"/>
<path d="M301.084 271.285L316.1 258.145L320.23 264.903L311.22 280.295L301.084 271.285Z" fill="#E9EFF4"/>
<path d="M337.893 384.026L300.728 271.402L301.441 271.168L338.606 383.792L337.893 384.026Z" fill="#E9EFF4"/>
<path d="M265.044 384.096L268.009 372.276L272.388 384.096H324.548L279.736 264.542L257.394 270.342C242.749 274.835 239.055 277.825 235.911 283.906C234.479 286.674 233.26 289.603 232.036 292.282L198.825 384.095H265.044V384.096Z" fill="#333842"/>
<path d="M311.135 384.096H324.548L279.736 264.542L270.916 266.526C270.698 268.389 270.69 273.976 273.709 289.69C277.452 309.173 306.037 372.832 311.135 384.096Z" fill="#0A66C2"/>
<path d="M337.03 100.566C336.748 101.692 332.807 67.624 332.807 67.624L321.826 61.43C321.826 61.43 323.64 56.779 329.146 58.614C333.369 60.022 334.777 60.022 334.777 60.022L366.312 70.44C366.312 70.44 372.788 89.023 375.604 98.033L337.03 100.566Z" fill="#D1A180"/>
<path d="M320.605 48.29L318.728 29.894L322.107 34.399L326.612 28.393L328.489 46.412L320.605 48.29Z" fill="#CFDAE2"/>
<path d="M323.233 45.286L335.622 28.017L335.246 37.027L341.628 35.901L329.615 50.167L323.233 45.286Z" fill="#CFDAE2"/>
<path d="M265.463 37.724L375.392 73.797C375.392 73.797 382.247 69.152 378.194 60.901L272.2 25.191C272.2 25.191 263.11 28.945 265.463 37.724Z" fill="#0A66C2"/>
<path d="M322.858 41.908L317.602 55.422L327.363 58.801L331.68 45.099L322.858 41.908Z" fill="#E9EFF4"/>
<path d="M341.716 44.714C339.566 44.352 337.705 46.226 338.081 48.373L338.889 52.988C339.119 54.303 340.175 55.281 341.444 55.355C343.022 55.447 344.35 54.126 344.35 52.463V47.828C344.35 46.286 343.237 44.97 341.716 44.714Z" fill="#D1A180"/>
<path d="M347.911 47.248C345.761 46.886 343.9 48.759 344.276 50.907L345.084 55.522C345.314 56.837 346.37 57.815 347.639 57.889C349.217 57.981 350.545 56.66 350.545 54.997V50.362C350.544 48.82 349.431 47.504 347.911 47.248Z" fill="#D1A180"/>
<path d="M354.105 49.782C351.955 49.42 350.094 51.294 350.47 53.441L351.278 58.056C351.508 59.371 352.564 60.349 353.833 60.423C355.411 60.515 356.739 59.194 356.739 57.531V52.896C356.739 51.354 355.625 50.038 354.105 49.782Z" fill="#D1A180"/>
<path d="M360.299 52.316C358.149 51.954 356.288 53.827 356.664 55.975L357.472 60.59C357.702 61.905 358.758 62.883 360.027 62.957C361.605 63.049 362.933 61.728 362.933 60.065V55.43C362.933 53.888 361.82 52.572 360.299 52.316Z" fill="#D1A180"/>
<path d="M363.875 384.284H410.329L382.72 313.974L402.445 202.96C402.947 199.761 403.104 196.517 402.913 193.284L396.814 92.964L325.11 95.216L338.625 198.83C338.834 202.336 338.069 205.832 336.414 208.93L319.172 251.977C321.96 255.721 337.182 276.824 345.007 301.317C352.816 325.764 362.16 375.078 363.875 384.284Z" fill="#333842"/>
<path d="M318.877 270.24L352.14 384.284H363.875C362.16 375.078 352.816 325.764 345.007 301.318C337.183 276.824 321.96 255.722 319.172 251.978L316.1 259.648L318.877 270.24Z" fill="#0A66C2"/>
<path d="M281.743 230.563L243.668 208.662L292.262 176.024C292.262 176.024 330.742 208.591 341.253 219.478C311.265 230.597 293.536 234.607 293.536 234.607L281.743 230.563Z" fill="#090909"/>
<path d="M279.06 210.481C274.868 212.998 271.984 217.225 271.03 222.02C270.076 226.815 268.841 233.265 268.264 237.302C267.253 244.378 280.731 257.519 293.535 247.41C306.339 237.301 306.339 220.791 306.339 220.791C306.339 220.791 292.188 202.597 279.06 210.481Z" fill="#D1A180"/>
<path d="M303.644 229.552C303.644 229.552 308.361 229.552 308.361 234.943C308.361 240.334 301.959 241.682 297.916 239.997L303.644 229.552Z" fill="#D1A180"/>
<path d="M286.818 219.103C286.818 219.103 296.954 228.676 300.333 229.99C300.333 235.997 300.333 235.997 300.333 235.997L306.527 230.178L308.216 222.107L286.818 219.103Z" fill="#090909"/>
<path d="M307.687 227.868L270.96 217.422L275.341 203.945L311.394 213.716L307.687 227.868Z" fill="#333842"/>
<path d="M322.165 214.506C320.345 211.878 321.141 208.15 321.909 204.544C322.648 201.082 323.345 197.812 321.8 195.751C318.664 191.572 312.181 193.322 312.111 193.339L310.844 192.072C311.149 191.993 319.06 190.431 322.601 195.151C324.418 197.575 323.64 201.223 322.888 204.752C322.163 208.15 321.413 211.664 322.988 213.938L322.165 214.506Z" fill="#0A66C2"/>
<path d="M323.957 220.404C325.866 222.004 328.12 223.126 330.217 224.47C332.314 225.814 334.33 227.472 335.38 229.73C335.897 228.929 336.61 228.257 337.44 227.788C335.782 226.062 333.836 224.612 331.707 223.518C334.298 223.342 336.94 224.626 338.401 226.773C338.787 226.202 339.172 225.631 339.558 225.06C339.944 224.489 334.893 219.755 334.331 219.245C332.291 217.392 330.055 215.755 327.671 214.372C325.992 213.398 323.389 211.44 321.859 213.55C320.116 215.959 322.088 218.837 323.957 220.404Z" fill="#0A66C2"/>
<path d="M276.213 229.45C276.213 230.111 275.677 230.647 275.016 230.647C274.355 230.647 273.819 230.111 273.819 229.45C273.819 228.789 274.355 228.253 275.016 228.253C275.677 228.253 276.213 228.789 276.213 229.45Z" fill="#090909"/>
<path d="M287.897 231.913C287.897 232.574 287.361 233.11 286.7 233.11C286.039 233.11 285.503 232.574 285.503 231.913C285.503 231.252 286.039 230.716 286.7 230.716C287.361 230.716 287.897 231.253 287.897 231.913Z" fill="#090909"/>
<path d="M278.746 225.797C278.628 225.797 278.511 225.756 278.415 225.672C276.242 223.754 273.373 224.234 273.344 224.24C273.077 224.286 272.813 224.107 272.765 223.836C272.716 223.565 272.896 223.306 273.167 223.256C273.302 223.234 276.53 222.676 279.077 224.922C279.284 225.105 279.304 225.421 279.121 225.628C279.023 225.739 278.885 225.797 278.746 225.797Z" fill="#090909"/>
<path d="M291.276 228.19C291.158 228.19 291.041 228.149 290.945 228.065C288.76 226.136 285.905 226.629 285.876 226.633C285.609 226.674 285.344 226.503 285.294 226.231C285.245 225.959 285.425 225.699 285.696 225.649C285.835 225.627 289.062 225.069 291.607 227.315C291.814 227.498 291.834 227.814 291.651 228.021C291.552 228.133 291.414 228.19 291.276 228.19Z" fill="#090909"/>
<path d="M279.733 235.088C279.714 235.088 279.696 235.087 279.677 235.085L277.143 234.804C276.962 234.783 276.806 234.666 276.737 234.498C276.668 234.33 276.695 234.137 276.808 233.994L280.186 229.77C280.359 229.555 280.673 229.521 280.889 229.692C281.105 229.865 281.139 230.179 280.967 230.395L278.156 233.91L279.786 234.091C280.061 234.121 280.259 234.368 280.228 234.644C280.2 234.898 279.984 235.088 279.733 235.088Z" fill="#090909"/>
<path d="M268.751 231.773L294.091 235.996C294.091 235.996 292.12 244.02 292.261 248.385C278.746 249.089 268.469 245.851 268.469 245.851C268.469 245.851 266.217 239.797 268.751 231.773Z" fill="#E9EFF4"/>
<path d="M291.839 237.763C291.651 237.763 291.472 237.658 291.387 237.476C291.269 237.227 291.376 236.929 291.626 236.811L304.155 230.899C304.402 230.783 304.702 230.887 304.82 231.138C304.938 231.387 304.831 231.685 304.581 231.803L292.052 237.715C291.984 237.747 291.911 237.763 291.839 237.763Z" fill="#E9EFF4"/>
<path d="M291.699 247.899C291.548 247.899 291.397 247.83 291.299 247.699C291.134 247.478 291.179 247.165 291.4 246.999L300.41 240.241C300.631 240.076 300.943 240.121 301.11 240.342C301.275 240.563 301.23 240.876 301.009 241.042L291.999 247.8C291.908 247.867 291.803 247.899 291.699 247.899Z" fill="#E9EFF4"/>
<path d="M385.796 87.64L384.704 83.792C392.092 81.694 398.082 75.228 399.61 67.702C399.844 66.549 400.018 65.123 399.911 63.666C399.508 64.078 399.064 64.464 398.577 64.814C396.821 66.074 394.505 66.606 392.378 66.237C390.602 65.929 389.102 65.006 388.154 63.637C387.028 62.009 386.818 59.91 387.578 57.877C388.418 55.632 390.288 53.893 392.459 53.338C394.991 52.689 397.75 53.426 399.897 55.145C402.699 45.544 401.965 34.837 397.872 25.713L401.522 24.075C406.046 34.16 406.817 46.017 403.636 56.603C403.411 57.352 403.149 58.152 402.824 58.962C404.014 61.62 404.261 64.894 403.529 68.497C401.713 77.452 394.586 85.145 385.796 87.64ZM394.333 57.104C394.038 57.104 393.742 57.139 393.449 57.213C392.541 57.445 391.707 58.255 391.325 59.277C391.185 59.65 390.918 60.601 391.443 61.36C391.869 61.975 392.557 62.208 393.06 62.295C394.119 62.48 395.37 62.191 396.245 61.563C397.098 60.951 397.766 60.108 398.299 59.176C397.322 58.002 395.832 57.104 394.333 57.104Z" fill="#BA9A3F"/>
<path d="M260.115 134.654C259.547 133.463 258.853 132.373 258.055 131.41C254.962 127.688 250.206 125.656 245.171 123.505L243.615 122.837C237.622 120.244 231.077 116.726 227.977 110.294C226.288 106.79 225.722 102.546 226.296 97.682L232.255 98.385C231.817 102.098 232.196 105.228 233.382 107.689C235.626 112.346 241.019 115.176 245.997 117.33L247.527 117.987C252.996 120.323 258.65 122.739 262.669 127.576C263.784 128.919 264.746 130.43 265.528 132.066L260.115 134.654Z" fill="#0A66C2"/>
<path d="M61.2269 163.751L56.4869 160.072C59.2379 156.527 62.8339 153.634 66.8859 151.707C70.5369 149.97 74.3919 149.074 78.1209 148.206C79.4709 147.892 80.8209 147.579 82.1559 147.225C99.5229 142.616 104.525 132.689 105.869 128.635L111.564 130.524C108.073 141.05 97.9149 149.251 83.6939 153.025C82.2839 153.399 80.8589 153.731 79.4799 154.052C75.9049 154.883 72.5279 155.669 69.4629 157.127C66.2539 158.652 63.4049 160.943 61.2269 163.751Z" fill="#0A66C2"/>
<path d="M16.49 110.706C10.701 109.894 5.61596 105.138 4.39796 99.397C4.15796 98.267 4.06497 97.117 4.10897 95.974C3.67297 95.635 3.26497 95.257 2.89297 94.842C0.991967 92.717 -0.0360349 89.664 0.000965091 86.245C0.0629651 80.448 3.09297 74.841 7.90797 71.612L10.135 74.934C6.45497 77.401 4.04797 81.858 3.99997 86.288C3.97997 88.156 4.37297 89.83 5.12197 91.129C6.22297 88.298 8.16997 85.793 10.753 84.113C13.865 82.09 17.333 81.697 20.032 83.06L20.885 83.492L21.085 84.427C22.081 89.078 19.953 94.203 16.026 96.613C13.669 98.06 10.809 98.444 8.18697 97.864C8.21897 98.1 8.25897 98.334 8.30897 98.567C9.18897 102.72 12.863 106.159 17.043 106.746L16.49 110.706ZM8.46497 93.806C10.242 94.372 12.31 94.202 13.937 93.203C16.175 91.829 17.5 89.057 17.324 86.326C15.838 86.051 14.149 86.677 12.936 87.466C10.727 88.901 9.13997 91.247 8.46497 93.806Z" fill="#BA9A3F"/>
<path d="M33.3559 282.224C29.4139 273.237 19.0969 267.383 9.35994 268.606L8.61194 262.653C21.0779 261.083 33.8019 268.301 38.8509 279.814L33.3559 282.224Z" fill="#0A66C2"/>
<path d="M110.072 202.644C108.931 197.421 109.393 191.81 111.373 186.843L115.089 188.325C113.401 192.557 113.007 197.339 113.98 201.79L110.072 202.644Z" fill="#BA9A3F"/>
<path d="M310.814 167.88L308.658 164.512C314.148 160.995 317.397 154.274 316.742 147.786L320.722 147.385C321.525 155.335 317.543 163.571 310.814 167.88Z" fill="#BA9A3F"/>
<path d="M380.438 304.81C379.562 304.81 378.693 304.74 377.835 304.596L378.825 298.678C382.363 299.268 386.502 297.793 389.638 294.826C393.171 291.482 394.996 286.769 394.402 282.527C393.816 278.352 391.115 274.67 388.256 270.771C387.628 269.916 387.002 269.062 386.4 268.205C381.28 260.922 379.757 254.146 381.998 248.609C383.841 244.055 387.996 241.086 391.029 238.917L407.682 227.008L411.172 231.889L394.519 243.798C391.249 246.135 388.661 248.14 387.56 250.861C385.742 255.352 388.595 260.895 391.308 264.755C391.887 265.579 392.49 266.4 393.093 267.223C396.267 271.549 399.548 276.023 400.343 281.694C401.203 287.827 398.682 294.529 393.762 299.185C389.937 302.804 385.11 304.81 380.438 304.81Z" fill="#0A66C2"/>
<path d="M194.246 111.979L191.722 108.876C195.443 105.848 197.686 101.177 197.721 96.38C197.727 95.558 197.672 94.725 197.613 93.842C197.536 92.677 197.456 91.472 197.519 90.229C198.008 80.558 206.97 73.709 215.155 72.175L215.891 76.107C209.209 77.359 201.899 82.805 201.514 90.431C201.463 91.441 201.531 92.479 201.604 93.578C201.665 94.494 201.728 95.44 201.721 96.41C201.676 102.387 198.883 108.207 194.246 111.979Z" fill="#BA9A3F"/>
</svg>
