<svg width="20" height="20" viewBox="0 0 20 20" fill="none" xmlns="http://www.w3.org/2000/svg">
<path d="M1.66675 10C1.66675 9.07954 2.41294 8.33334 3.33341 8.33334C4.71413 8.33334 5.83341 9.45263 5.83341 10.8333V14.1667C5.83341 15.5474 4.71413 16.6667 3.33341 16.6667C2.41294 16.6667 1.66675 15.9205 1.66675 15V10Z" stroke="#0A66C2" stroke-width="1.5" stroke-linecap="round" stroke-linejoin="round"/>
<path d="M12.8991 6.08855L12.6772 6.80529C12.4954 7.39259 12.4044 7.68624 12.4744 7.91816C12.5309 8.10579 12.6551 8.26751 12.8243 8.37392C13.0335 8.50545 13.3499 8.50545 13.9828 8.50545H14.3194C16.4611 8.50545 17.532 8.50545 18.0378 9.13942C18.0956 9.21187 18.147 9.28891 18.1915 9.36972C18.5806 10.0768 18.1382 11.0293 17.2535 12.9343C16.4416 14.6824 16.0356 15.5565 15.2819 16.071C15.2089 16.1208 15.1339 16.1677 15.0571 16.2118C14.2635 16.6667 13.2803 16.6667 11.3138 16.6667H10.8873C8.50493 16.6667 7.31373 16.6667 6.57361 15.9496C5.8335 15.2324 5.8335 14.0783 5.8335 11.7699V10.9586C5.8335 9.74553 5.8335 9.13899 6.04878 8.58383C6.26406 8.02867 6.67629 7.5722 7.50074 6.65926L10.9103 2.8838C10.9958 2.78911 11.0385 2.74176 11.0762 2.70896C11.4281 2.40273 11.9712 2.4372 12.2788 2.78529C12.3118 2.82258 12.3478 2.87493 12.4198 2.97961C12.5325 3.14337 12.5889 3.22525 12.638 3.30638C13.0775 4.03261 13.2105 4.8953 13.0092 5.71429C12.9867 5.80577 12.9575 5.90008 12.8991 6.08855Z" stroke="#0A66C2" stroke-width="1.5" stroke-linecap="round" stroke-linejoin="round"/>
</svg>
