<svg width="16" height="16" viewBox="0 0 16 16" fill="none" xmlns="http://www.w3.org/2000/svg">
<g clip-path="url(#clip0_69_68)">
<path d="M6.99992 14.6667H4.39383C3.36358 14.6667 2.54412 14.1653 1.80836 13.4644C0.302162 12.0294 2.77512 10.8827 3.7183 10.3211C5.41862 9.30862 7.4704 9.07451 9.33325 9.61874" stroke="white" stroke-linecap="round" stroke-linejoin="round"/>
<path d="M11 4.33334C11 5.99019 9.65685 7.33334 8 7.33334C6.34315 7.33334 5 5.99019 5 4.33334C5 2.67648 6.34315 1.33334 8 1.33334C9.65685 1.33334 11 2.67648 11 4.33334Z" stroke="white"/>
<path d="M12.2886 9.23231C12.5122 8.9901 12.6239 8.86899 12.7427 8.79835C13.0293 8.6279 13.3822 8.6226 13.6736 8.78437C13.7944 8.85141 13.9096 8.96911 14.14 9.2045C14.3704 9.43989 14.4857 9.55759 14.5513 9.68095C14.7096 9.97861 14.7045 10.3391 14.5376 10.6319C14.4685 10.7532 14.3499 10.8674 14.1128 11.0958L11.2917 13.813C10.8424 14.2457 10.6177 14.4621 10.3369 14.5718C10.0561 14.6815 9.74746 14.6734 9.13011 14.6572L9.04612 14.655C8.85818 14.6501 8.7642 14.6477 8.70958 14.5857C8.65495 14.5237 8.66241 14.428 8.67733 14.2365L8.68543 14.1326C8.72741 13.5937 8.7484 13.3243 8.85362 13.0821C8.95884 12.84 9.14033 12.6433 9.50333 12.25L12.2886 9.23231Z" stroke="white" stroke-linejoin="round"/>
</g>
<defs>
<clipPath id="clip0_69_68">
<rect width="16" height="16" fill="white"/>
</clipPath>
</defs>
</svg>
