<svg width="20" height="20" viewBox="0 0 20 20" fill="none" xmlns="http://www.w3.org/2000/svg">
<path d="M1.66675 9.16666C1.66675 6.4168 1.66675 5.04187 2.52102 4.1876C3.37529 3.33333 4.75022 3.33333 7.50008 3.33333H8.33341C11.0833 3.33333 12.4582 3.33333 13.3125 4.1876C14.1667 5.04187 14.1667 6.4168 14.1667 9.16666V10.8333C14.1667 13.5832 14.1667 14.9581 13.3125 15.8124C12.4582 16.6667 11.0833 16.6667 8.33341 16.6667H7.50008C4.75022 16.6667 3.37529 16.6667 2.52102 15.8124C1.66675 14.9581 1.66675 13.5832 1.66675 10.8333V9.16666Z" stroke="#0A66C2" stroke-width="1.5"/>
<path d="M14.1667 7.42153L14.2717 7.33496C16.0348 5.88018 16.9164 5.15279 17.6249 5.50401C18.3334 5.85522 18.3334 7.01961 18.3334 9.34839V10.6516C18.3334 12.9804 18.3334 14.1448 17.6249 14.496C16.9164 14.8472 16.0348 14.1198 14.2717 12.665L14.1667 12.5784" stroke="#0A66C2" stroke-width="1.5" stroke-linecap="round"/>
<ellipse cx="9.5835" cy="7.91666" rx="1.25" ry="1.25" stroke="#0A66C2" stroke-width="1.5"/>
</svg>
